<?xml version="1.0" encoding="UTF-8"?>
<svg xmlns="http://www.w3.org/2000/svg" xmlns:xlink="http://www.w3.org/1999/xlink" width="612pt" height="792pt" viewBox="0 0 612 792" version="1.1">
<g id="surface1">
<path style="fill:none;stroke-width:270.916;stroke-linecap:butt;stroke-linejoin:miter;stroke:rgb(100%,100%,100%);stroke-opacity:1;stroke-miterlimit:10;" d="M 4544.882812 4287.382812 C 4626.09375 4202.109375 4697.5 4115.117188 4766.40625 4017.695312 " transform="matrix(0.1,0,0,-0.1,0,792)"/>
<path style="fill:none;stroke-width:135.458;stroke-linecap:round;stroke-linejoin:miter;stroke:rgb(0%,0%,0%);stroke-opacity:1;stroke-miterlimit:10;" d="M 4544.882812 4287.382812 C 4626.09375 4202.109375 4697.5 4115.117188 4766.40625 4017.695312 " transform="matrix(0.1,0,0,-0.1,0,792)"/>
<path style="fill:none;stroke-width:270.916;stroke-linecap:butt;stroke-linejoin:miter;stroke:rgb(100%,100%,100%);stroke-opacity:1;stroke-miterlimit:10;" d="M 1575 3632.617188 C 1493.90625 3717.890625 1422.5 3804.882812 1353.59375 3902.304688 " transform="matrix(0.1,0,0,-0.1,0,792)"/>
<path style="fill:none;stroke-width:135.458;stroke-linecap:round;stroke-linejoin:miter;stroke:rgb(0%,0%,0%);stroke-opacity:1;stroke-miterlimit:10;" d="M 1575 3632.617188 C 1493.90625 3717.890625 1422.5 3804.882812 1353.59375 3902.304688 " transform="matrix(0.1,0,0,-0.1,0,792)"/>
<path style="fill:none;stroke-width:270.916;stroke-linecap:butt;stroke-linejoin:miter;stroke:rgb(100%,100%,100%);stroke-opacity:1;stroke-miterlimit:10;" d="M 4759.882812 4026.992188 C 4828.789062 3929.609375 4887.382812 3833.007812 4941.601562 3727.617188 " transform="matrix(0.1,0,0,-0.1,0,792)"/>
<path style="fill:none;stroke-width:135.458;stroke-linecap:round;stroke-linejoin:miter;stroke:rgb(0%,0%,0%);stroke-opacity:1;stroke-miterlimit:10;" d="M 4759.882812 4026.992188 C 4828.789062 3929.609375 4887.382812 3833.007812 4941.601562 3727.617188 " transform="matrix(0.1,0,0,-0.1,0,792)"/>
<path style="fill:none;stroke-width:270.916;stroke-linecap:butt;stroke-linejoin:miter;stroke:rgb(100%,100%,100%);stroke-opacity:1;stroke-miterlimit:10;" d="M 1360.117188 3893.007812 C 1291.210938 3990.390625 1232.617188 4086.992188 1178.28125 4192.382812 " transform="matrix(0.1,0,0,-0.1,0,792)"/>
<path style="fill:none;stroke-width:135.458;stroke-linecap:round;stroke-linejoin:miter;stroke:rgb(0%,0%,0%);stroke-opacity:1;stroke-miterlimit:10;" d="M 1360.117188 3893.007812 C 1291.210938 3990.390625 1232.617188 4086.992188 1178.28125 4192.382812 " transform="matrix(0.1,0,0,-0.1,0,792)"/>
<path style="fill:none;stroke-width:270.916;stroke-linecap:butt;stroke-linejoin:miter;stroke:rgb(100%,100%,100%);stroke-opacity:1;stroke-miterlimit:10;" d="M 4299.882812 4508.398438 C 4390 4438.515625 4471.484375 4364.609375 4552.695312 4279.296875 " transform="matrix(0.1,0,0,-0.1,0,792)"/>
<path style="fill:none;stroke-width:135.458;stroke-linecap:round;stroke-linejoin:miter;stroke:rgb(0%,0%,0%);stroke-opacity:1;stroke-miterlimit:10;" d="M 4299.882812 4508.398438 C 4390 4438.515625 4471.484375 4364.609375 4552.695312 4279.296875 " transform="matrix(0.1,0,0,-0.1,0,792)"/>
<path style="fill:none;stroke-width:270.916;stroke-linecap:butt;stroke-linejoin:miter;stroke:rgb(100%,100%,100%);stroke-opacity:1;stroke-miterlimit:10;" d="M 1820.117188 3411.601562 C 1730 3481.484375 1648.398438 3555.390625 1567.304688 3640.703125 " transform="matrix(0.1,0,0,-0.1,0,792)"/>
<path style="fill:none;stroke-width:135.458;stroke-linecap:round;stroke-linejoin:miter;stroke:rgb(0%,0%,0%);stroke-opacity:1;stroke-miterlimit:10;" d="M 1820.117188 3411.601562 C 1730 3481.484375 1648.398438 3555.390625 1567.304688 3640.703125 " transform="matrix(0.1,0,0,-0.1,0,792)"/>
<path style="fill:none;stroke-width:270.916;stroke-linecap:butt;stroke-linejoin:miter;stroke:rgb(100%,100%,100%);stroke-opacity:1;stroke-miterlimit:10;" d="M 4936.484375 3737.695312 C 4990.703125 3632.304688 5034.609375 3530.117188 5072.5 3420.898438 " transform="matrix(0.1,0,0,-0.1,0,792)"/>
<path style="fill:none;stroke-width:135.458;stroke-linecap:round;stroke-linejoin:miter;stroke:rgb(0%,0%,0%);stroke-opacity:1;stroke-miterlimit:10;" d="M 4936.484375 3737.695312 C 4990.703125 3632.304688 5034.609375 3530.117188 5072.5 3420.898438 " transform="matrix(0.1,0,0,-0.1,0,792)"/>
<path style="fill:none;stroke-width:270.916;stroke-linecap:butt;stroke-linejoin:miter;stroke:rgb(100%,100%,100%);stroke-opacity:1;stroke-miterlimit:10;" d="M 1183.515625 4182.304688 C 1129.296875 4287.695312 1085.390625 4389.882812 1047.5 4499.101562 " transform="matrix(0.1,0,0,-0.1,0,792)"/>
<path style="fill:none;stroke-width:135.458;stroke-linecap:round;stroke-linejoin:miter;stroke:rgb(0%,0%,0%);stroke-opacity:1;stroke-miterlimit:10;" d="M 1183.515625 4182.304688 C 1129.296875 4287.695312 1085.390625 4389.882812 1047.5 4499.101562 " transform="matrix(0.1,0,0,-0.1,0,792)"/>
<path style="fill:none;stroke-width:270.916;stroke-linecap:butt;stroke-linejoin:miter;stroke:rgb(100%,100%,100%);stroke-opacity:1;stroke-miterlimit:10;" d="M 4034.804688 4681.015625 C 4130.117188 4629.414062 4218.398438 4571.484375 4308.515625 4501.71875 " transform="matrix(0.1,0,0,-0.1,0,792)"/>
<path style="fill:none;stroke-width:135.458;stroke-linecap:round;stroke-linejoin:miter;stroke:rgb(0%,0%,0%);stroke-opacity:1;stroke-miterlimit:10;" d="M 4034.804688 4681.015625 C 4130.117188 4629.414062 4218.398438 4571.484375 4308.515625 4501.71875 " transform="matrix(0.1,0,0,-0.1,0,792)"/>
<path style="fill:none;stroke-width:270.916;stroke-linecap:butt;stroke-linejoin:miter;stroke:rgb(100%,100%,100%);stroke-opacity:1;stroke-miterlimit:10;" d="M 2085.195312 3238.984375 C 1989.882812 3290.585938 1901.601562 3348.515625 1811.484375 3418.28125 " transform="matrix(0.1,0,0,-0.1,0,792)"/>
<path style="fill:none;stroke-width:135.458;stroke-linecap:round;stroke-linejoin:miter;stroke:rgb(0%,0%,0%);stroke-opacity:1;stroke-miterlimit:10;" d="M 2085.195312 3238.984375 C 1989.882812 3290.585938 1901.601562 3348.515625 1811.484375 3418.28125 " transform="matrix(0.1,0,0,-0.1,0,792)"/>
<path style="fill:none;stroke-width:270.916;stroke-linecap:butt;stroke-linejoin:miter;stroke:rgb(100%,100%,100%);stroke-opacity:1;stroke-miterlimit:10;" d="M 5068.90625 3431.289062 C 5106.796875 3321.992188 5134.804688 3218.085938 5155.585938 3108.90625 " transform="matrix(0.1,0,0,-0.1,0,792)"/>
<path style="fill:none;stroke-width:135.458;stroke-linecap:round;stroke-linejoin:miter;stroke:rgb(0%,0%,0%);stroke-opacity:1;stroke-miterlimit:10;" d="M 5068.90625 3431.289062 C 5106.796875 3321.992188 5134.804688 3218.085938 5155.585938 3108.90625 " transform="matrix(0.1,0,0,-0.1,0,792)"/>
<path style="fill:none;stroke-width:270.916;stroke-linecap:butt;stroke-linejoin:miter;stroke:rgb(100%,100%,100%);stroke-opacity:1;stroke-miterlimit:10;" d="M 1051.09375 4488.710938 C 1013.203125 4598.007812 985.195312 4701.914062 964.414062 4811.09375 " transform="matrix(0.1,0,0,-0.1,0,792)"/>
<path style="fill:none;stroke-width:135.458;stroke-linecap:round;stroke-linejoin:miter;stroke:rgb(0%,0%,0%);stroke-opacity:1;stroke-miterlimit:10;" d="M 1051.09375 4488.710938 C 1013.203125 4598.007812 985.195312 4701.914062 964.414062 4811.09375 " transform="matrix(0.1,0,0,-0.1,0,792)"/>
<path style="fill:none;stroke-width:270.916;stroke-linecap:butt;stroke-linejoin:miter;stroke:rgb(100%,100%,100%);stroke-opacity:1;stroke-miterlimit:10;" d="M 3760 4799.6875 C 3856.914062 4767.617188 3948.515625 4727.695312 4043.789062 4676.09375 " transform="matrix(0.1,0,0,-0.1,0,792)"/>
<path style="fill:none;stroke-width:135.458;stroke-linecap:round;stroke-linejoin:miter;stroke:rgb(0%,0%,0%);stroke-opacity:1;stroke-miterlimit:10;" d="M 3760 4799.6875 C 3856.914062 4767.617188 3948.515625 4727.695312 4043.789062 4676.09375 " transform="matrix(0.1,0,0,-0.1,0,792)"/>
<path style="fill:none;stroke-width:270.916;stroke-linecap:butt;stroke-linejoin:miter;stroke:rgb(100%,100%,100%);stroke-opacity:1;stroke-miterlimit:10;" d="M 2359.882812 3120.3125 C 2263.085938 3152.382812 2171.484375 3192.304688 2076.210938 3243.90625 " transform="matrix(0.1,0,0,-0.1,0,792)"/>
<path style="fill:none;stroke-width:135.458;stroke-linecap:round;stroke-linejoin:miter;stroke:rgb(0%,0%,0%);stroke-opacity:1;stroke-miterlimit:10;" d="M 2359.882812 3120.3125 C 2263.085938 3152.382812 2171.484375 3192.304688 2076.210938 3243.90625 " transform="matrix(0.1,0,0,-0.1,0,792)"/>
<path style="fill:none;stroke-width:270.916;stroke-linecap:butt;stroke-linejoin:miter;stroke:rgb(100%,100%,100%);stroke-opacity:1;stroke-miterlimit:10;" d="M 5153.59375 3119.296875 C 5174.492188 3010.195312 5186.210938 2908.007812 5190 2802.5 " transform="matrix(0.1,0,0,-0.1,0,792)"/>
<path style="fill:none;stroke-width:135.458;stroke-linecap:round;stroke-linejoin:miter;stroke:rgb(0%,0%,0%);stroke-opacity:1;stroke-miterlimit:10;" d="M 5153.59375 3119.296875 C 5174.492188 3010.195312 5186.210938 2908.007812 5190 2802.5 " transform="matrix(0.1,0,0,-0.1,0,792)"/>
<path style="fill:none;stroke-width:270.916;stroke-linecap:butt;stroke-linejoin:miter;stroke:rgb(100%,100%,100%);stroke-opacity:1;stroke-miterlimit:10;" d="M 966.40625 4800.703125 C 945.507812 4909.804688 933.789062 5011.992188 930 5117.5 " transform="matrix(0.1,0,0,-0.1,0,792)"/>
<path style="fill:none;stroke-width:135.458;stroke-linecap:round;stroke-linejoin:miter;stroke:rgb(0%,0%,0%);stroke-opacity:1;stroke-miterlimit:10;" d="M 966.40625 4800.703125 C 945.507812 4909.804688 933.789062 5011.992188 930 5117.5 " transform="matrix(0.1,0,0,-0.1,0,792)"/>
<path style="fill:none;stroke-width:270.916;stroke-linecap:butt;stroke-linejoin:miter;stroke:rgb(100%,100%,100%);stroke-opacity:1;stroke-miterlimit:10;" d="M 3486.015625 4861.992188 C 3581.015625 4849.804688 3672.382812 4828.710938 3769.296875 4796.601562 " transform="matrix(0.1,0,0,-0.1,0,792)"/>
<path style="fill:none;stroke-width:135.458;stroke-linecap:round;stroke-linejoin:miter;stroke:rgb(0%,0%,0%);stroke-opacity:1;stroke-miterlimit:10;" d="M 3486.015625 4861.992188 C 3581.015625 4849.804688 3672.382812 4828.710938 3769.296875 4796.601562 " transform="matrix(0.1,0,0,-0.1,0,792)"/>
<path style="fill:none;stroke-width:270.916;stroke-linecap:butt;stroke-linejoin:miter;stroke:rgb(100%,100%,100%);stroke-opacity:1;stroke-miterlimit:10;" d="M 2633.984375 3058.007812 C 2538.984375 3070.195312 2447.617188 3091.289062 2350.703125 3123.398438 " transform="matrix(0.1,0,0,-0.1,0,792)"/>
<path style="fill:none;stroke-width:135.458;stroke-linecap:round;stroke-linejoin:miter;stroke:rgb(0%,0%,0%);stroke-opacity:1;stroke-miterlimit:10;" d="M 2633.984375 3058.007812 C 2538.984375 3070.195312 2447.617188 3091.289062 2350.703125 3123.398438 " transform="matrix(0.1,0,0,-0.1,0,792)"/>
<path style="fill:none;stroke-width:270.916;stroke-linecap:butt;stroke-linejoin:miter;stroke:rgb(100%,100%,100%);stroke-opacity:1;stroke-miterlimit:10;" d="M 5189.609375 2812.5 C 5193.398438 2706.992188 5189.21875 2609.6875 5176.40625 2510.78125 " transform="matrix(0.1,0,0,-0.1,0,792)"/>
<path style="fill:none;stroke-width:135.458;stroke-linecap:round;stroke-linejoin:miter;stroke:rgb(0%,0%,0%);stroke-opacity:1;stroke-miterlimit:10;" d="M 5189.609375 2812.5 C 5193.398438 2706.992188 5189.21875 2609.6875 5176.40625 2510.78125 " transform="matrix(0.1,0,0,-0.1,0,792)"/>
<path style="fill:none;stroke-width:270.916;stroke-linecap:butt;stroke-linejoin:miter;stroke:rgb(100%,100%,100%);stroke-opacity:1;stroke-miterlimit:10;" d="M 930.390625 5107.5 C 926.601562 5213.007812 930.820312 5310.3125 943.59375 5409.21875 " transform="matrix(0.1,0,0,-0.1,0,792)"/>
<path style="fill:none;stroke-width:135.458;stroke-linecap:round;stroke-linejoin:miter;stroke:rgb(0%,0%,0%);stroke-opacity:1;stroke-miterlimit:10;" d="M 930.390625 5107.5 C 926.601562 5213.007812 930.820312 5310.3125 943.59375 5409.21875 " transform="matrix(0.1,0,0,-0.1,0,792)"/>
<path style="fill:none;stroke-width:270.916;stroke-linecap:butt;stroke-linejoin:miter;stroke:rgb(100%,100%,100%);stroke-opacity:1;stroke-miterlimit:10;" d="M 3221.289062 4869.414062 C 3311.796875 4875.898438 3400.117188 4873.085938 3495.117188 4860.898438 " transform="matrix(0.1,0,0,-0.1,0,792)"/>
<path style="fill:none;stroke-width:135.458;stroke-linecap:round;stroke-linejoin:miter;stroke:rgb(0%,0%,0%);stroke-opacity:1;stroke-miterlimit:10;" d="M 3221.289062 4869.414062 C 3311.796875 4875.898438 3400.117188 4873.085938 3495.117188 4860.898438 " transform="matrix(0.1,0,0,-0.1,0,792)"/>
<path style="fill:none;stroke-width:270.916;stroke-linecap:butt;stroke-linejoin:miter;stroke:rgb(100%,100%,100%);stroke-opacity:1;stroke-miterlimit:10;" d="M 2898.59375 3050.585938 C 2808.203125 3044.101562 2719.882812 3046.914062 2624.882812 3059.101562 " transform="matrix(0.1,0,0,-0.1,0,792)"/>
<path style="fill:none;stroke-width:135.458;stroke-linecap:round;stroke-linejoin:miter;stroke:rgb(0%,0%,0%);stroke-opacity:1;stroke-miterlimit:10;" d="M 2898.59375 3050.585938 C 2808.203125 3044.101562 2719.882812 3046.914062 2624.882812 3059.101562 " transform="matrix(0.1,0,0,-0.1,0,792)"/>
<path style="fill:none;stroke-width:270.916;stroke-linecap:butt;stroke-linejoin:miter;stroke:rgb(100%,100%,100%);stroke-opacity:1;stroke-miterlimit:10;" d="M 5177.695312 2520.195312 C 5164.882812 2421.289062 5145.390625 2331.484375 5117.109375 2241.71875 " transform="matrix(0.1,0,0,-0.1,0,792)"/>
<path style="fill:none;stroke-width:135.458;stroke-linecap:round;stroke-linejoin:miter;stroke:rgb(0%,0%,0%);stroke-opacity:1;stroke-miterlimit:10;" d="M 5177.695312 2520.195312 C 5164.882812 2421.289062 5145.390625 2331.484375 5117.109375 2241.71875 " transform="matrix(0.1,0,0,-0.1,0,792)"/>
<path style="fill:none;stroke-width:270.916;stroke-linecap:butt;stroke-linejoin:miter;stroke:rgb(100%,100%,100%);stroke-opacity:1;stroke-miterlimit:10;" d="M 942.304688 5399.804688 C 955.117188 5498.710938 974.609375 5588.515625 1002.890625 5678.28125 " transform="matrix(0.1,0,0,-0.1,0,792)"/>
<path style="fill:none;stroke-width:135.458;stroke-linecap:round;stroke-linejoin:miter;stroke:rgb(0%,0%,0%);stroke-opacity:1;stroke-miterlimit:10;" d="M 942.304688 5399.804688 C 955.117188 5498.710938 974.609375 5588.515625 1002.890625 5678.28125 " transform="matrix(0.1,0,0,-0.1,0,792)"/>
<path style="fill:none;stroke-width:270.916;stroke-linecap:butt;stroke-linejoin:miter;stroke:rgb(100%,100%,100%);stroke-opacity:1;stroke-miterlimit:10;" d="M 2972.382812 4826.09375 C 3056.40625 4849.414062 3139.492188 4863.59375 3230 4870 " transform="matrix(0.1,0,0,-0.1,0,792)"/>
<path style="fill:none;stroke-width:135.458;stroke-linecap:round;stroke-linejoin:miter;stroke:rgb(0%,0%,0%);stroke-opacity:1;stroke-miterlimit:10;" d="M 2972.382812 4826.09375 C 3056.40625 4849.414062 3139.492188 4863.59375 3230 4870 " transform="matrix(0.1,0,0,-0.1,0,792)"/>
<path style="fill:none;stroke-width:270.916;stroke-linecap:butt;stroke-linejoin:miter;stroke:rgb(100%,100%,100%);stroke-opacity:1;stroke-miterlimit:10;" d="M 3147.617188 3093.90625 C 3063.515625 3070.585938 2980.390625 3056.40625 2890 3050 " transform="matrix(0.1,0,0,-0.1,0,792)"/>
<path style="fill:none;stroke-width:135.458;stroke-linecap:round;stroke-linejoin:miter;stroke:rgb(0%,0%,0%);stroke-opacity:1;stroke-miterlimit:10;" d="M 3147.617188 3093.90625 C 3063.515625 3070.585938 2980.390625 3056.40625 2890 3050 " transform="matrix(0.1,0,0,-0.1,0,792)"/>
<path style="fill:none;stroke-width:270.916;stroke-linecap:butt;stroke-linejoin:miter;stroke:rgb(100%,100%,100%);stroke-opacity:1;stroke-miterlimit:10;" d="M 5119.804688 2250.195312 C 5091.484375 2160.390625 5057.695312 2080.3125 5015 2001.71875 " transform="matrix(0.1,0,0,-0.1,0,792)"/>
<path style="fill:none;stroke-width:135.458;stroke-linecap:round;stroke-linejoin:miter;stroke:rgb(0%,0%,0%);stroke-opacity:1;stroke-miterlimit:10;" d="M 5119.804688 2250.195312 C 5091.484375 2160.390625 5057.695312 2080.3125 5015 2001.71875 " transform="matrix(0.1,0,0,-0.1,0,792)"/>
<path style="fill:none;stroke-width:270.916;stroke-linecap:butt;stroke-linejoin:miter;stroke:rgb(100%,100%,100%);stroke-opacity:1;stroke-miterlimit:10;" d="M 1000.195312 5669.804688 C 1028.515625 5759.609375 1062.304688 5839.6875 1105 5918.28125 " transform="matrix(0.1,0,0,-0.1,0,792)"/>
<path style="fill:none;stroke-width:135.458;stroke-linecap:round;stroke-linejoin:miter;stroke:rgb(0%,0%,0%);stroke-opacity:1;stroke-miterlimit:10;" d="M 1000.195312 5669.804688 C 1028.515625 5759.609375 1062.304688 5839.6875 1105 5918.28125 " transform="matrix(0.1,0,0,-0.1,0,792)"/>
<path style="fill:none;stroke-width:270.916;stroke-linecap:butt;stroke-linejoin:miter;stroke:rgb(100%,100%,100%);stroke-opacity:1;stroke-miterlimit:10;" d="M 2743.203125 4738.007812 C 2819.804688 4775.898438 2896.289062 4805.117188 2980.390625 4828.28125 " transform="matrix(0.1,0,0,-0.1,0,792)"/>
<path style="fill:none;stroke-width:135.458;stroke-linecap:round;stroke-linejoin:miter;stroke:rgb(0%,0%,0%);stroke-opacity:1;stroke-miterlimit:10;" d="M 2743.203125 4738.007812 C 2819.804688 4775.898438 2896.289062 4805.117188 2980.390625 4828.28125 " transform="matrix(0.1,0,0,-0.1,0,792)"/>
<path style="fill:none;stroke-width:270.916;stroke-linecap:butt;stroke-linejoin:miter;stroke:rgb(100%,100%,100%);stroke-opacity:1;stroke-miterlimit:10;" d="M 3376.796875 3181.992188 C 3300.117188 3144.101562 3223.59375 3114.882812 3139.609375 3091.71875 " transform="matrix(0.1,0,0,-0.1,0,792)"/>
<path style="fill:none;stroke-width:135.458;stroke-linecap:round;stroke-linejoin:miter;stroke:rgb(0%,0%,0%);stroke-opacity:1;stroke-miterlimit:10;" d="M 3376.796875 3181.992188 C 3300.117188 3144.101562 3223.59375 3114.882812 3139.609375 3091.71875 " transform="matrix(0.1,0,0,-0.1,0,792)"/>
<path style="fill:none;stroke-width:270.916;stroke-linecap:butt;stroke-linejoin:miter;stroke:rgb(100%,100%,100%);stroke-opacity:1;stroke-miterlimit:10;" d="M 5019.101562 2009.21875 C 4976.40625 1930.585938 4929.492188 1861.914062 4873.789062 1796.210938 " transform="matrix(0.1,0,0,-0.1,0,792)"/>
<path style="fill:none;stroke-width:135.458;stroke-linecap:round;stroke-linejoin:miter;stroke:rgb(0%,0%,0%);stroke-opacity:1;stroke-miterlimit:10;" d="M 5019.101562 2009.21875 C 4976.40625 1930.585938 4929.492188 1861.914062 4873.789062 1796.210938 " transform="matrix(0.1,0,0,-0.1,0,792)"/>
<path style="fill:none;stroke-width:270.916;stroke-linecap:butt;stroke-linejoin:miter;stroke:rgb(100%,100%,100%);stroke-opacity:1;stroke-miterlimit:10;" d="M 1100.898438 5910.78125 C 1143.59375 5989.414062 1190.507812 6058.085938 1246.210938 6123.789062 " transform="matrix(0.1,0,0,-0.1,0,792)"/>
<path style="fill:none;stroke-width:135.458;stroke-linecap:round;stroke-linejoin:miter;stroke:rgb(0%,0%,0%);stroke-opacity:1;stroke-miterlimit:10;" d="M 1100.898438 5910.78125 C 1143.59375 5989.414062 1190.507812 6058.085938 1246.210938 6123.789062 " transform="matrix(0.1,0,0,-0.1,0,792)"/>
<path style="fill:none;stroke-width:270.916;stroke-linecap:butt;stroke-linejoin:miter;stroke:rgb(100%,100%,100%);stroke-opacity:1;stroke-miterlimit:10;" d="M 2536.601562 4610.195312 C 2604.882812 4661.289062 2673.90625 4703.59375 2750.507812 4741.601562 " transform="matrix(0.1,0,0,-0.1,0,792)"/>
<path style="fill:none;stroke-width:135.458;stroke-linecap:round;stroke-linejoin:miter;stroke:rgb(0%,0%,0%);stroke-opacity:1;stroke-miterlimit:10;" d="M 2536.601562 4610.195312 C 2604.882812 4661.289062 2673.90625 4703.59375 2750.507812 4741.601562 " transform="matrix(0.1,0,0,-0.1,0,792)"/>
<path style="fill:none;stroke-width:270.916;stroke-linecap:butt;stroke-linejoin:miter;stroke:rgb(100%,100%,100%);stroke-opacity:1;stroke-miterlimit:10;" d="M 3583.398438 3309.804688 C 3515.117188 3258.710938 3446.09375 3216.40625 3369.492188 3178.398438 " transform="matrix(0.1,0,0,-0.1,0,792)"/>
<path style="fill:none;stroke-width:135.458;stroke-linecap:round;stroke-linejoin:miter;stroke:rgb(0%,0%,0%);stroke-opacity:1;stroke-miterlimit:10;" d="M 3583.398438 3309.804688 C 3515.117188 3258.710938 3446.09375 3216.40625 3369.492188 3178.398438 " transform="matrix(0.1,0,0,-0.1,0,792)"/>
<path style="fill:none;stroke-width:270.916;stroke-linecap:butt;stroke-linejoin:miter;stroke:rgb(100%,100%,100%);stroke-opacity:1;stroke-miterlimit:10;" d="M 4879.101562 1802.5 C 4823.398438 1736.796875 4764.882812 1681.09375 4697.695312 1629.6875 " transform="matrix(0.1,0,0,-0.1,0,792)"/>
<path style="fill:none;stroke-width:135.458;stroke-linecap:round;stroke-linejoin:miter;stroke:rgb(0%,0%,0%);stroke-opacity:1;stroke-miterlimit:10;" d="M 4879.101562 1802.5 C 4823.398438 1736.796875 4764.882812 1681.09375 4697.695312 1629.6875 " transform="matrix(0.1,0,0,-0.1,0,792)"/>
<path style="fill:none;stroke-width:270.916;stroke-linecap:butt;stroke-linejoin:miter;stroke:rgb(100%,100%,100%);stroke-opacity:1;stroke-miterlimit:10;" d="M 1240.898438 6117.5 C 1296.601562 6183.203125 1355.117188 6238.90625 1422.304688 6290.3125 " transform="matrix(0.1,0,0,-0.1,0,792)"/>
<path style="fill:none;stroke-width:135.458;stroke-linecap:round;stroke-linejoin:miter;stroke:rgb(0%,0%,0%);stroke-opacity:1;stroke-miterlimit:10;" d="M 1240.898438 6117.5 C 1296.601562 6183.203125 1355.117188 6238.90625 1422.304688 6290.3125 " transform="matrix(0.1,0,0,-0.1,0,792)"/>
<path style="fill:none;stroke-width:270.916;stroke-linecap:butt;stroke-linejoin:miter;stroke:rgb(100%,100%,100%);stroke-opacity:1;stroke-miterlimit:10;" d="M 2356.09375 4446.015625 C 2414.492188 4509.492188 2474.804688 4564.101562 2543.085938 4615.117188 " transform="matrix(0.1,0,0,-0.1,0,792)"/>
<path style="fill:none;stroke-width:135.458;stroke-linecap:round;stroke-linejoin:miter;stroke:rgb(0%,0%,0%);stroke-opacity:1;stroke-miterlimit:10;" d="M 2356.09375 4446.015625 C 2414.492188 4509.492188 2474.804688 4564.101562 2543.085938 4615.117188 " transform="matrix(0.1,0,0,-0.1,0,792)"/>
<path style="fill:none;stroke-width:270.916;stroke-linecap:butt;stroke-linejoin:miter;stroke:rgb(100%,100%,100%);stroke-opacity:1;stroke-miterlimit:10;" d="M 3763.90625 3473.984375 C 3705.507812 3410.507812 3645.117188 3355.898438 3576.914062 3304.882812 " transform="matrix(0.1,0,0,-0.1,0,792)"/>
<path style="fill:none;stroke-width:135.458;stroke-linecap:round;stroke-linejoin:miter;stroke:rgb(0%,0%,0%);stroke-opacity:1;stroke-miterlimit:10;" d="M 3763.90625 3473.984375 C 3705.507812 3410.507812 3645.117188 3355.898438 3576.914062 3304.882812 " transform="matrix(0.1,0,0,-0.1,0,792)"/>
<path style="fill:none;stroke-width:270.916;stroke-linecap:butt;stroke-linejoin:miter;stroke:rgb(100%,100%,100%);stroke-opacity:1;stroke-miterlimit:10;" d="M 4704.101562 1634.609375 C 4636.914062 1583.28125 4568.203125 1541.796875 4491.09375 1506.015625 " transform="matrix(0.1,0,0,-0.1,0,792)"/>
<path style="fill:none;stroke-width:135.458;stroke-linecap:round;stroke-linejoin:miter;stroke:rgb(0%,0%,0%);stroke-opacity:1;stroke-miterlimit:10;" d="M 4704.101562 1634.609375 C 4636.914062 1583.28125 4568.203125 1541.796875 4491.09375 1506.015625 " transform="matrix(0.1,0,0,-0.1,0,792)"/>
<path style="fill:none;stroke-width:270.916;stroke-linecap:butt;stroke-linejoin:miter;stroke:rgb(100%,100%,100%);stroke-opacity:1;stroke-miterlimit:10;" d="M 1415.898438 6285.390625 C 1483.085938 6336.71875 1551.796875 6378.203125 1628.90625 6413.984375 " transform="matrix(0.1,0,0,-0.1,0,792)"/>
<path style="fill:none;stroke-width:135.458;stroke-linecap:round;stroke-linejoin:miter;stroke:rgb(0%,0%,0%);stroke-opacity:1;stroke-miterlimit:10;" d="M 1415.898438 6285.390625 C 1483.085938 6336.71875 1551.796875 6378.203125 1628.90625 6413.984375 " transform="matrix(0.1,0,0,-0.1,0,792)"/>
<path style="fill:none;stroke-width:270.916;stroke-linecap:butt;stroke-linejoin:miter;stroke:rgb(100%,100%,100%);stroke-opacity:1;stroke-miterlimit:10;" d="M 2206.992188 4246.289062 C 2253.398438 4322.1875 2303.203125 4388.59375 2361.71875 4452.109375 " transform="matrix(0.1,0,0,-0.1,0,792)"/>
<path style="fill:none;stroke-width:135.458;stroke-linecap:round;stroke-linejoin:miter;stroke:rgb(0%,0%,0%);stroke-opacity:1;stroke-miterlimit:10;" d="M 2206.992188 4246.289062 C 2253.398438 4322.1875 2303.203125 4388.59375 2361.71875 4452.109375 " transform="matrix(0.1,0,0,-0.1,0,792)"/>
<path style="fill:none;stroke-width:270.916;stroke-linecap:butt;stroke-linejoin:miter;stroke:rgb(100%,100%,100%);stroke-opacity:1;stroke-miterlimit:10;" d="M 3913.007812 3673.710938 C 3866.601562 3597.8125 3816.71875 3531.40625 3758.28125 3467.890625 " transform="matrix(0.1,0,0,-0.1,0,792)"/>
<path style="fill:none;stroke-width:135.458;stroke-linecap:round;stroke-linejoin:miter;stroke:rgb(0%,0%,0%);stroke-opacity:1;stroke-miterlimit:10;" d="M 3913.007812 3673.710938 C 3866.601562 3597.8125 3816.71875 3531.40625 3758.28125 3467.890625 " transform="matrix(0.1,0,0,-0.1,0,792)"/>
<path style="fill:none;stroke-width:270.916;stroke-linecap:butt;stroke-linejoin:miter;stroke:rgb(100%,100%,100%);stroke-opacity:1;stroke-miterlimit:10;" d="M 4498.398438 1509.414062 C 4421.40625 1473.59375 4344.101562 1447.304688 4258.90625 1428.007812 " transform="matrix(0.1,0,0,-0.1,0,792)"/>
<path style="fill:none;stroke-width:135.458;stroke-linecap:round;stroke-linejoin:miter;stroke:rgb(0%,0%,0%);stroke-opacity:1;stroke-miterlimit:10;" d="M 4498.398438 1509.414062 C 4421.40625 1473.59375 4344.101562 1447.304688 4258.90625 1428.007812 " transform="matrix(0.1,0,0,-0.1,0,792)"/>
<path style="fill:none;stroke-width:270.916;stroke-linecap:butt;stroke-linejoin:miter;stroke:rgb(100%,100%,100%);stroke-opacity:1;stroke-miterlimit:10;" d="M 1621.601562 6410.585938 C 1698.59375 6446.40625 1775.898438 6472.695312 1861.09375 6491.992188 " transform="matrix(0.1,0,0,-0.1,0,792)"/>
<path style="fill:none;stroke-width:135.458;stroke-linecap:round;stroke-linejoin:miter;stroke:rgb(0%,0%,0%);stroke-opacity:1;stroke-miterlimit:10;" d="M 1621.601562 6410.585938 C 1698.59375 6446.40625 1775.898438 6472.695312 1861.09375 6491.992188 " transform="matrix(0.1,0,0,-0.1,0,792)"/>
<path style="fill:none;stroke-width:270.916;stroke-linecap:butt;stroke-linejoin:miter;stroke:rgb(100%,100%,100%);stroke-opacity:1;stroke-miterlimit:10;" d="M 2096.015625 4011.796875 C 2127.890625 4099.609375 2165.117188 4177.617188 2211.40625 4253.515625 " transform="matrix(0.1,0,0,-0.1,0,792)"/>
<path style="fill:none;stroke-width:135.458;stroke-linecap:round;stroke-linejoin:miter;stroke:rgb(0%,0%,0%);stroke-opacity:1;stroke-miterlimit:10;" d="M 2096.015625 4011.796875 C 2127.890625 4099.609375 2165.117188 4177.617188 2211.40625 4253.515625 " transform="matrix(0.1,0,0,-0.1,0,792)"/>
<path style="fill:none;stroke-width:270.916;stroke-linecap:butt;stroke-linejoin:miter;stroke:rgb(100%,100%,100%);stroke-opacity:1;stroke-miterlimit:10;" d="M 4023.90625 3908.203125 C 3992.109375 3820.390625 3954.882812 3742.382812 3908.59375 3666.484375 " transform="matrix(0.1,0,0,-0.1,0,792)"/>
<path style="fill:none;stroke-width:135.458;stroke-linecap:round;stroke-linejoin:miter;stroke:rgb(0%,0%,0%);stroke-opacity:1;stroke-miterlimit:10;" d="M 4023.90625 3908.203125 C 3992.109375 3820.390625 3954.882812 3742.382812 3908.59375 3666.484375 " transform="matrix(0.1,0,0,-0.1,0,792)"/>
<path style="fill:none;stroke-width:270.916;stroke-linecap:butt;stroke-linejoin:miter;stroke:rgb(100%,100%,100%);stroke-opacity:1;stroke-miterlimit:10;" d="M 4266.992188 1429.882812 C 4181.914062 1410.507812 4097.8125 1400.390625 4006.601562 1398.28125 " transform="matrix(0.1,0,0,-0.1,0,792)"/>
<path style="fill:none;stroke-width:135.458;stroke-linecap:round;stroke-linejoin:miter;stroke:rgb(0%,0%,0%);stroke-opacity:1;stroke-miterlimit:10;" d="M 4266.992188 1429.882812 C 4181.914062 1410.507812 4097.8125 1400.390625 4006.601562 1398.28125 " transform="matrix(0.1,0,0,-0.1,0,792)"/>
<path style="fill:none;stroke-width:270.916;stroke-linecap:butt;stroke-linejoin:miter;stroke:rgb(100%,100%,100%);stroke-opacity:1;stroke-miterlimit:10;" d="M 1853.007812 6490.117188 C 1938.085938 6509.492188 2022.1875 6519.609375 2113.398438 6521.71875 " transform="matrix(0.1,0,0,-0.1,0,792)"/>
<path style="fill:none;stroke-width:135.458;stroke-linecap:round;stroke-linejoin:miter;stroke:rgb(0%,0%,0%);stroke-opacity:1;stroke-miterlimit:10;" d="M 1853.007812 6490.117188 C 1938.085938 6509.492188 2022.1875 6519.609375 2113.398438 6521.71875 " transform="matrix(0.1,0,0,-0.1,0,792)"/>
<path style="fill:none;stroke-width:270.916;stroke-linecap:butt;stroke-linejoin:miter;stroke:rgb(100%,100%,100%);stroke-opacity:1;stroke-miterlimit:10;" d="M 2030 3745.585938 C 2045 3843.789062 2067.304688 3932.382812 2099.101562 4020.195312 " transform="matrix(0.1,0,0,-0.1,0,792)"/>
<path style="fill:none;stroke-width:135.458;stroke-linecap:round;stroke-linejoin:miter;stroke:rgb(0%,0%,0%);stroke-opacity:1;stroke-miterlimit:10;" d="M 2030 3745.585938 C 2045 3843.789062 2067.304688 3932.382812 2099.101562 4020.195312 " transform="matrix(0.1,0,0,-0.1,0,792)"/>
<path style="fill:none;stroke-width:270.916;stroke-linecap:butt;stroke-linejoin:miter;stroke:rgb(100%,100%,100%);stroke-opacity:1;stroke-miterlimit:10;" d="M 4090 4174.414062 C 4075 4076.210938 4052.695312 3987.617188 4020.898438 3899.804688 " transform="matrix(0.1,0,0,-0.1,0,792)"/>
<path style="fill:none;stroke-width:135.458;stroke-linecap:round;stroke-linejoin:miter;stroke:rgb(0%,0%,0%);stroke-opacity:1;stroke-miterlimit:10;" d="M 4090 4174.414062 C 4075 4076.210938 4052.695312 3987.617188 4020.898438 3899.804688 " transform="matrix(0.1,0,0,-0.1,0,792)"/>
<path style="fill:none;stroke-width:270.916;stroke-linecap:butt;stroke-linejoin:miter;stroke:rgb(100%,100%,100%);stroke-opacity:1;stroke-miterlimit:10;" d="M 4015.3125 1398.515625 C 3923.984375 1396.40625 3835.3125 1402.890625 3740.117188 1418.59375 " transform="matrix(0.1,0,0,-0.1,0,792)"/>
<path style="fill:none;stroke-width:135.458;stroke-linecap:round;stroke-linejoin:miter;stroke:rgb(0%,0%,0%);stroke-opacity:1;stroke-miterlimit:10;" d="M 4015.3125 1398.515625 C 3923.984375 1396.40625 3835.3125 1402.890625 3740.117188 1418.59375 " transform="matrix(0.1,0,0,-0.1,0,792)"/>
<path style="fill:none;stroke-width:270.916;stroke-linecap:butt;stroke-linejoin:miter;stroke:rgb(100%,100%,100%);stroke-opacity:1;stroke-miterlimit:10;" d="M 2104.6875 6521.484375 C 2196.015625 6523.59375 2284.6875 6517.109375 2379.882812 6501.40625 " transform="matrix(0.1,0,0,-0.1,0,792)"/>
<path style="fill:none;stroke-width:135.458;stroke-linecap:round;stroke-linejoin:miter;stroke:rgb(0%,0%,0%);stroke-opacity:1;stroke-miterlimit:10;" d="M 2104.6875 6521.484375 C 2196.015625 6523.59375 2284.6875 6517.109375 2379.882812 6501.40625 " transform="matrix(0.1,0,0,-0.1,0,792)"/>
<path style="fill:none;stroke-width:270.916;stroke-linecap:butt;stroke-linejoin:miter;stroke:rgb(100%,100%,100%);stroke-opacity:1;stroke-miterlimit:10;" d="M 2014.21875 3453.984375 C 2010.898438 3559.6875 2016.40625 3656.796875 2031.40625 3755 " transform="matrix(0.1,0,0,-0.1,0,792)"/>
<path style="fill:none;stroke-width:135.458;stroke-linecap:round;stroke-linejoin:miter;stroke:rgb(0%,0%,0%);stroke-opacity:1;stroke-miterlimit:10;" d="M 2014.21875 3453.984375 C 2010.898438 3559.6875 2016.40625 3656.796875 2031.40625 3755 " transform="matrix(0.1,0,0,-0.1,0,792)"/>
<path style="fill:none;stroke-width:270.916;stroke-linecap:butt;stroke-linejoin:miter;stroke:rgb(100%,100%,100%);stroke-opacity:1;stroke-miterlimit:10;" d="M 4105.78125 4466.015625 C 4109.101562 4360.3125 4103.59375 4263.203125 4088.59375 4165 " transform="matrix(0.1,0,0,-0.1,0,792)"/>
<path style="fill:none;stroke-width:135.458;stroke-linecap:round;stroke-linejoin:miter;stroke:rgb(0%,0%,0%);stroke-opacity:1;stroke-miterlimit:10;" d="M 4105.78125 4466.015625 C 4109.101562 4360.3125 4103.59375 4263.203125 4088.59375 4165 " transform="matrix(0.1,0,0,-0.1,0,792)"/>
<path style="fill:none;stroke-width:270.916;stroke-linecap:butt;stroke-linejoin:miter;stroke:rgb(100%,100%,100%);stroke-opacity:1;stroke-miterlimit:10;" d="M 3749.21875 1417.109375 C 3654.101562 1432.8125 3562.8125 1456.289062 3466.289062 1489.882812 " transform="matrix(0.1,0,0,-0.1,0,792)"/>
<path style="fill:none;stroke-width:135.458;stroke-linecap:round;stroke-linejoin:miter;stroke:rgb(0%,0%,0%);stroke-opacity:1;stroke-miterlimit:10;" d="M 3749.21875 1417.109375 C 3654.101562 1432.8125 3562.8125 1456.289062 3466.289062 1489.882812 " transform="matrix(0.1,0,0,-0.1,0,792)"/>
<path style="fill:none;stroke-width:270.916;stroke-linecap:butt;stroke-linejoin:miter;stroke:rgb(100%,100%,100%);stroke-opacity:1;stroke-miterlimit:10;" d="M 2370.78125 6502.890625 C 2465.898438 6487.1875 2557.1875 6463.710938 2653.710938 6430.117188 " transform="matrix(0.1,0,0,-0.1,0,792)"/>
<path style="fill:none;stroke-width:135.458;stroke-linecap:round;stroke-linejoin:miter;stroke:rgb(0%,0%,0%);stroke-opacity:1;stroke-miterlimit:10;" d="M 2370.78125 6502.890625 C 2465.898438 6487.1875 2557.1875 6463.710938 2653.710938 6430.117188 " transform="matrix(0.1,0,0,-0.1,0,792)"/>
<path style="fill:none;stroke-width:270.916;stroke-linecap:butt;stroke-linejoin:miter;stroke:rgb(100%,100%,100%);stroke-opacity:1;stroke-miterlimit:10;" d="M 2051.601562 3146.289062 C 2029.414062 3255.898438 2017.1875 3358.398438 2013.90625 3464.101562 " transform="matrix(0.1,0,0,-0.1,0,792)"/>
<path style="fill:none;stroke-width:135.458;stroke-linecap:round;stroke-linejoin:miter;stroke:rgb(0%,0%,0%);stroke-opacity:1;stroke-miterlimit:10;" d="M 2051.601562 3146.289062 C 2029.414062 3255.898438 2017.1875 3358.398438 2013.90625 3464.101562 " transform="matrix(0.1,0,0,-0.1,0,792)"/>
<path style="fill:none;stroke-width:270.916;stroke-linecap:butt;stroke-linejoin:miter;stroke:rgb(100%,100%,100%);stroke-opacity:1;stroke-miterlimit:10;" d="M 4068.398438 4773.710938 C 4090.585938 4664.101562 4102.8125 4561.601562 4106.09375 4455.898438 " transform="matrix(0.1,0,0,-0.1,0,792)"/>
<path style="fill:none;stroke-width:135.458;stroke-linecap:round;stroke-linejoin:miter;stroke:rgb(0%,0%,0%);stroke-opacity:1;stroke-miterlimit:10;" d="M 4068.398438 4773.710938 C 4090.585938 4664.101562 4102.8125 4561.601562 4106.09375 4455.898438 " transform="matrix(0.1,0,0,-0.1,0,792)"/>
<path style="fill:none;stroke-width:270.916;stroke-linecap:butt;stroke-linejoin:miter;stroke:rgb(100%,100%,100%);stroke-opacity:1;stroke-miterlimit:10;" d="M 3475.507812 1486.71875 C 3378.90625 1520.3125 3287.695312 1560.703125 3192.5 1611.914062 " transform="matrix(0.1,0,0,-0.1,0,792)"/>
<path style="fill:none;stroke-width:135.458;stroke-linecap:round;stroke-linejoin:miter;stroke:rgb(0%,0%,0%);stroke-opacity:1;stroke-miterlimit:10;" d="M 3475.507812 1486.71875 C 3378.90625 1520.3125 3287.695312 1560.703125 3192.5 1611.914062 " transform="matrix(0.1,0,0,-0.1,0,792)"/>
<path style="fill:none;stroke-width:270.916;stroke-linecap:butt;stroke-linejoin:miter;stroke:rgb(100%,100%,100%);stroke-opacity:1;stroke-miterlimit:10;" d="M 2644.492188 6433.28125 C 2741.09375 6399.6875 2832.304688 6359.296875 2927.382812 6308.085938 " transform="matrix(0.1,0,0,-0.1,0,792)"/>
<path style="fill:none;stroke-width:135.458;stroke-linecap:round;stroke-linejoin:miter;stroke:rgb(0%,0%,0%);stroke-opacity:1;stroke-miterlimit:10;" d="M 2644.492188 6433.28125 C 2741.09375 6399.6875 2832.304688 6359.296875 2927.382812 6308.085938 " transform="matrix(0.1,0,0,-0.1,0,792)"/>
<path style="fill:none;stroke-width:270.916;stroke-linecap:butt;stroke-linejoin:miter;stroke:rgb(100%,100%,100%);stroke-opacity:1;stroke-miterlimit:10;" d="M 2142.109375 2833.90625 C 2101.601562 2943.007812 2071.71875 3047.1875 2049.492188 3156.71875 " transform="matrix(0.1,0,0,-0.1,0,792)"/>
<path style="fill:none;stroke-width:135.458;stroke-linecap:round;stroke-linejoin:miter;stroke:rgb(0%,0%,0%);stroke-opacity:1;stroke-miterlimit:10;" d="M 2142.109375 2833.90625 C 2101.601562 2943.007812 2071.71875 3047.1875 2049.492188 3156.71875 " transform="matrix(0.1,0,0,-0.1,0,792)"/>
<path style="fill:none;stroke-width:270.916;stroke-linecap:butt;stroke-linejoin:miter;stroke:rgb(100%,100%,100%);stroke-opacity:1;stroke-miterlimit:10;" d="M 3977.890625 5086.09375 C 4018.398438 4976.992188 4048.28125 4872.8125 4070.507812 4763.28125 " transform="matrix(0.1,0,0,-0.1,0,792)"/>
<path style="fill:none;stroke-width:135.458;stroke-linecap:round;stroke-linejoin:miter;stroke:rgb(0%,0%,0%);stroke-opacity:1;stroke-miterlimit:10;" d="M 3977.890625 5086.09375 C 4018.398438 4976.992188 4048.28125 4872.8125 4070.507812 4763.28125 " transform="matrix(0.1,0,0,-0.1,0,792)"/>
<path style="fill:none;stroke-width:270.916;stroke-linecap:butt;stroke-linejoin:miter;stroke:rgb(100%,100%,100%);stroke-opacity:1;stroke-miterlimit:10;" d="M 3201.601562 1606.992188 C 3106.484375 1658.203125 3018.085938 1714.882812 2927.5 1782.8125 " transform="matrix(0.1,0,0,-0.1,0,792)"/>
<path style="fill:none;stroke-width:135.458;stroke-linecap:round;stroke-linejoin:miter;stroke:rgb(0%,0%,0%);stroke-opacity:1;stroke-miterlimit:10;" d="M 3201.601562 1606.992188 C 3106.484375 1658.203125 3018.085938 1714.882812 2927.5 1782.8125 " transform="matrix(0.1,0,0,-0.1,0,792)"/>
<path style="fill:none;stroke-width:270.916;stroke-linecap:butt;stroke-linejoin:miter;stroke:rgb(100%,100%,100%);stroke-opacity:1;stroke-miterlimit:10;" d="M 2918.398438 6313.007812 C 3013.515625 6261.796875 3101.914062 6205.117188 3192.5 6137.1875 " transform="matrix(0.1,0,0,-0.1,0,792)"/>
<path style="fill:none;stroke-width:135.458;stroke-linecap:round;stroke-linejoin:miter;stroke:rgb(0%,0%,0%);stroke-opacity:1;stroke-miterlimit:10;" d="M 2918.398438 6313.007812 C 3013.515625 6261.796875 3101.914062 6205.117188 3192.5 6137.1875 " transform="matrix(0.1,0,0,-0.1,0,792)"/>
<path style="fill:none;stroke-width:270.916;stroke-linecap:butt;stroke-linejoin:miter;stroke:rgb(100%,100%,100%);stroke-opacity:1;stroke-miterlimit:10;" d="M 2282.617188 2529.414062 C 2225.390625 2633.59375 2178.789062 2735.195312 2138.203125 2844.296875 " transform="matrix(0.1,0,0,-0.1,0,792)"/>
<path style="fill:none;stroke-width:135.458;stroke-linecap:round;stroke-linejoin:miter;stroke:rgb(0%,0%,0%);stroke-opacity:1;stroke-miterlimit:10;" d="M 2282.617188 2529.414062 C 2225.390625 2633.59375 2178.789062 2735.195312 2138.203125 2844.296875 " transform="matrix(0.1,0,0,-0.1,0,792)"/>
<path style="fill:none;stroke-width:270.916;stroke-linecap:butt;stroke-linejoin:miter;stroke:rgb(100%,100%,100%);stroke-opacity:1;stroke-miterlimit:10;" d="M 3837.382812 5390.585938 C 3894.609375 5286.40625 3941.210938 5184.804688 3981.796875 5075.703125 " transform="matrix(0.1,0,0,-0.1,0,792)"/>
<path style="fill:none;stroke-width:135.458;stroke-linecap:round;stroke-linejoin:miter;stroke:rgb(0%,0%,0%);stroke-opacity:1;stroke-miterlimit:10;" d="M 3837.382812 5390.585938 C 3894.609375 5286.40625 3941.210938 5184.804688 3981.796875 5075.703125 " transform="matrix(0.1,0,0,-0.1,0,792)"/>
<path style="fill:none;stroke-width:270.916;stroke-linecap:butt;stroke-linejoin:miter;stroke:rgb(100%,100%,100%);stroke-opacity:1;stroke-miterlimit:10;" d="M 2936.09375 1776.289062 C 2845.507812 1844.21875 2763.007812 1916.015625 2680.3125 1998.789062 " transform="matrix(0.1,0,0,-0.1,0,792)"/>
<path style="fill:none;stroke-width:135.458;stroke-linecap:round;stroke-linejoin:miter;stroke:rgb(0%,0%,0%);stroke-opacity:1;stroke-miterlimit:10;" d="M 2936.09375 1776.289062 C 2845.507812 1844.21875 2763.007812 1916.015625 2680.3125 1998.789062 " transform="matrix(0.1,0,0,-0.1,0,792)"/>
<path style="fill:none;stroke-width:270.916;stroke-linecap:butt;stroke-linejoin:miter;stroke:rgb(100%,100%,100%);stroke-opacity:1;stroke-miterlimit:10;" d="M 3183.90625 6143.710938 C 3274.414062 6075.78125 3356.992188 6003.984375 3439.6875 5921.210938 " transform="matrix(0.1,0,0,-0.1,0,792)"/>
<path style="fill:none;stroke-width:135.458;stroke-linecap:round;stroke-linejoin:miter;stroke:rgb(0%,0%,0%);stroke-opacity:1;stroke-miterlimit:10;" d="M 3183.90625 6143.710938 C 3274.414062 6075.78125 3356.992188 6003.984375 3439.6875 5921.210938 " transform="matrix(0.1,0,0,-0.1,0,792)"/>
<path style="fill:none;stroke-width:270.916;stroke-linecap:butt;stroke-linejoin:miter;stroke:rgb(100%,100%,100%);stroke-opacity:1;stroke-miterlimit:10;" d="M 2467.304688 2244.804688 C 2395.78125 2340.117188 2334.414062 2435.117188 2277.1875 2539.296875 " transform="matrix(0.1,0,0,-0.1,0,792)"/>
<path style="fill:none;stroke-width:135.458;stroke-linecap:round;stroke-linejoin:miter;stroke:rgb(0%,0%,0%);stroke-opacity:1;stroke-miterlimit:10;" d="M 2467.304688 2244.804688 C 2395.78125 2340.117188 2334.414062 2435.117188 2277.1875 2539.296875 " transform="matrix(0.1,0,0,-0.1,0,792)"/>
<path style="fill:none;stroke-width:270.916;stroke-linecap:butt;stroke-linejoin:miter;stroke:rgb(100%,100%,100%);stroke-opacity:1;stroke-miterlimit:10;" d="M 3652.695312 5675.195312 C 3724.21875 5579.882812 3785.585938 5484.882812 3842.8125 5380.703125 " transform="matrix(0.1,0,0,-0.1,0,792)"/>
<path style="fill:none;stroke-width:135.458;stroke-linecap:round;stroke-linejoin:miter;stroke:rgb(0%,0%,0%);stroke-opacity:1;stroke-miterlimit:10;" d="M 3652.695312 5675.195312 C 3724.21875 5579.882812 3785.585938 5484.882812 3842.8125 5380.703125 " transform="matrix(0.1,0,0,-0.1,0,792)"/>
<path style="fill:none;stroke-width:270.916;stroke-linecap:butt;stroke-linejoin:miter;stroke:rgb(100%,100%,100%);stroke-opacity:1;stroke-miterlimit:10;" d="M 2688.203125 1991.015625 C 2605.507812 2073.789062 2531.992188 2158.710938 2460.507812 2253.90625 " transform="matrix(0.1,0,0,-0.1,0,792)"/>
<path style="fill:none;stroke-width:135.458;stroke-linecap:round;stroke-linejoin:miter;stroke:rgb(0%,0%,0%);stroke-opacity:1;stroke-miterlimit:10;" d="M 2688.203125 1991.015625 C 2605.507812 2073.789062 2531.992188 2158.710938 2460.507812 2253.90625 " transform="matrix(0.1,0,0,-0.1,0,792)"/>
<path style="fill:none;stroke-width:270.916;stroke-linecap:butt;stroke-linejoin:miter;stroke:rgb(100%,100%,100%);stroke-opacity:1;stroke-miterlimit:10;" d="M 3431.796875 5928.984375 C 3514.492188 5846.210938 3588.007812 5761.289062 3659.492188 5666.09375 " transform="matrix(0.1,0,0,-0.1,0,792)"/>
<path style="fill:none;stroke-width:135.458;stroke-linecap:round;stroke-linejoin:miter;stroke:rgb(0%,0%,0%);stroke-opacity:1;stroke-miterlimit:10;" d="M 3431.796875 5928.984375 C 3514.492188 5846.210938 3588.007812 5761.289062 3659.492188 5666.09375 " transform="matrix(0.1,0,0,-0.1,0,792)"/>
</g>
</svg>
