<?xml version="1.0" encoding="UTF-8"?>
<svg xmlns="http://www.w3.org/2000/svg" xmlns:xlink="http://www.w3.org/1999/xlink" width="612pt" height="792pt" viewBox="0 0 612 792" version="1.1">
<g id="surface1">
<path style="fill:none;stroke-width:12.9997;stroke-linecap:butt;stroke-linejoin:miter;stroke:rgb(92.941176%,10.978866%,14.119173%);stroke-opacity:1;stroke-miterlimit:2.61313;" d="M 386.367188 7349.0625 C 506.601562 7735.15625 624.726562 7735.15625 740.742188 7349.0625 " transform="matrix(0.1,0,0,-0.1,0,792)"/>
<path style="fill:none;stroke-width:4.9975;stroke-linecap:butt;stroke-linejoin:miter;stroke:rgb(13.730068%,12.159915%,12.54902%);stroke-opacity:1;stroke-dasharray:9.995,14.9925;stroke-miterlimit:2.61313;" d="M 563.554688 7422.8125 C 706.054688 7422.8125 821.601562 7301.875 821.601562 7152.734375 C 821.601562 7003.632812 706.054688 6882.695312 563.554688 6882.695312 C 421.054688 6882.695312 305.46875 7003.632812 305.46875 7152.734375 C 305.46875 7301.875 421.054688 7422.8125 563.554688 7422.8125 Z M 563.554688 7422.8125 " transform="matrix(0.1,0,0,-0.1,0,792)"/>
<path style="fill:none;stroke-width:4.9975;stroke-linecap:butt;stroke-linejoin:miter;stroke:rgb(13.730068%,12.159915%,12.54902%);stroke-opacity:1;stroke-miterlimit:2.61313;" d="M 405.507812 7155.546875 L 683.4375 7157.03125 " transform="matrix(0.1,0,0,-0.1,0,792)"/>
<path style=" stroke:none;fill-rule:evenodd;fill:rgb(13.730068%,12.159915%,12.54902%);fill-opacity:1;" d="M 67.910156 73.664062 L 72.714844 76.273438 L 67.941406 78.933594 L 67.910156 73.664062 "/>
<path style="fill:none;stroke-width:4.9975;stroke-linecap:butt;stroke-linejoin:miter;stroke:rgb(13.730068%,12.159915%,12.54902%);stroke-opacity:1;stroke-miterlimit:2.61313;" d="M 563.75 6976.640625 L 562.226562 7283.828125 " transform="matrix(0.1,0,0,-0.1,0,792)"/>
<path style=" stroke:none;fill-rule:evenodd;fill:rgb(13.730068%,12.159915%,12.54902%);fill-opacity:1;" d="M 53.59375 64.046875 L 56.203125 59.242188 L 58.859375 64.019531 L 53.59375 64.046875 "/>
<path style="fill:none;stroke-width:12.9997;stroke-linecap:butt;stroke-linejoin:miter;stroke:rgb(92.941176%,10.978866%,14.119173%);stroke-opacity:1;stroke-miterlimit:2.61313;" d="M 1139.882812 7256.132812 C 1260.117188 7642.226562 1378.242188 7642.226562 1494.21875 7256.132812 " transform="matrix(0.1,0,0,-0.1,0,792)"/>
<path style="fill:none;stroke-width:4.9975;stroke-linecap:butt;stroke-linejoin:miter;stroke:rgb(13.730068%,12.159915%,12.54902%);stroke-opacity:1;stroke-dasharray:9.995,14.9925;stroke-miterlimit:2.61313;" d="M 1317.03125 7329.84375 C 1459.53125 7329.84375 1575.117188 7208.90625 1575.117188 7059.804688 C 1575.117188 6910.664062 1459.53125 6789.726562 1317.03125 6789.726562 C 1174.53125 6789.726562 1058.984375 6910.664062 1058.984375 7059.804688 C 1058.984375 7208.90625 1174.53125 7329.84375 1317.03125 7329.84375 Z M 1317.03125 7329.84375 " transform="matrix(0.1,0,0,-0.1,0,792)"/>
<path style="fill:none;stroke-width:4.9975;stroke-linecap:butt;stroke-linejoin:miter;stroke:rgb(13.730068%,12.159915%,12.54902%);stroke-opacity:1;stroke-miterlimit:2.61313;" d="M 1159.023438 7062.617188 L 1436.914062 7064.101562 " transform="matrix(0.1,0,0,-0.1,0,792)"/>
<path style=" stroke:none;fill-rule:evenodd;fill:rgb(13.730068%,12.159915%,12.54902%);fill-opacity:1;" d="M 143.261719 82.960938 L 148.066406 85.566406 L 143.289062 88.226562 L 143.261719 82.960938 "/>
<path style="fill:none;stroke-width:4.9975;stroke-linecap:butt;stroke-linejoin:miter;stroke:rgb(13.730068%,12.159915%,12.54902%);stroke-opacity:1;stroke-miterlimit:2.61313;" d="M 1317.265625 6883.710938 L 1315.742188 7190.859375 " transform="matrix(0.1,0,0,-0.1,0,792)"/>
<path style=" stroke:none;fill-rule:evenodd;fill:rgb(13.730068%,12.159915%,12.54902%);fill-opacity:1;" d="M 128.941406 73.339844 L 131.554688 68.539062 L 134.210938 73.316406 L 128.941406 73.339844 "/>
<path style="fill:none;stroke-width:7.5005;stroke-linecap:butt;stroke-linejoin:miter;stroke:rgb(13.730068%,12.159915%,12.54902%);stroke-opacity:1;stroke-miterlimit:2.61313;" d="M 1347.578125 7588.242188 C 1499.140625 7841.484375 1565.703125 7717.8125 1536.875 7201.289062 M 1097.226562 7201.289062 C 1096.757812 7872.109375 1206.367188 7906.523438 1426.132812 7304.609375 " transform="matrix(0.1,0,0,-0.1,0,792)"/>
<path style="fill:none;stroke-width:7.5005;stroke-linecap:butt;stroke-linejoin:miter;stroke:rgb(13.730068%,12.159915%,12.54902%);stroke-opacity:1;stroke-miterlimit:2.61313;" d="M 1208.007812 7304.609375 C 1240.78125 7380.390625 1271.289062 7445.78125 1299.453125 7500.703125 " transform="matrix(0.1,0,0,-0.1,0,792)"/>
<path style="fill:none;stroke-width:4.9975;stroke-linecap:butt;stroke-linejoin:miter;stroke:rgb(13.730068%,12.159915%,12.54902%);stroke-opacity:1;stroke-dasharray:9.995,14.9925;stroke-miterlimit:2.61313;" d="M 2117.460938 7326.015625 C 2231.71875 7326.015625 2324.335938 7229.0625 2324.335938 7109.53125 C 2324.335938 6990 2231.71875 6893.046875 2117.460938 6893.046875 C 2003.242188 6893.046875 1910.625 6990 1910.625 7109.53125 C 1910.625 7229.0625 2003.242188 7326.015625 2117.460938 7326.015625 Z M 2117.460938 7326.015625 " transform="matrix(0.1,0,0,-0.1,0,792)"/>
<path style="fill:none;stroke-width:4.9975;stroke-linecap:butt;stroke-linejoin:miter;stroke:rgb(13.730068%,12.159915%,12.54902%);stroke-opacity:1;stroke-miterlimit:2.61313;" d="M 1990.78125 7111.796875 L 2204.882812 7112.929688 " transform="matrix(0.1,0,0,-0.1,0,792)"/>
<path style=" stroke:none;fill-rule:evenodd;fill:rgb(13.730068%,12.159915%,12.54902%);fill-opacity:1;" d="M 220.058594 78.074219 L 224.863281 80.683594 L 220.089844 83.34375 L 220.058594 78.074219 "/>
<path style="fill:none;stroke-width:4.9975;stroke-linecap:butt;stroke-linejoin:miter;stroke:rgb(13.730068%,12.159915%,12.54902%);stroke-opacity:1;stroke-miterlimit:2.61313;" d="M 2117.65625 6968.398438 L 2116.484375 7205.9375 " transform="matrix(0.1,0,0,-0.1,0,792)"/>
<path style=" stroke:none;fill-rule:evenodd;fill:rgb(13.730068%,12.159915%,12.54902%);fill-opacity:1;" d="M 209.015625 71.835938 L 211.628906 67.035156 L 214.285156 71.808594 L 209.015625 71.835938 "/>
<path style="fill:none;stroke-width:7.5005;stroke-linecap:butt;stroke-linejoin:miter;stroke:rgb(13.730068%,12.159915%,12.54902%);stroke-opacity:1;stroke-miterlimit:2.61313;" d="M 2293.710938 7222.96875 C 2301.445312 7362.265625 2185.390625 7536.71875 2291.367188 7534.375 C 2448.75 7530.9375 2393.828125 7298.59375 2378.671875 7050.898438 C 2369.414062 6899.453125 2108.789062 6627.070312 1849.414062 7009.0625 C 1787.226562 7100.585938 1823.515625 7253.007812 1818.710938 7415.703125 C 1811.132812 7673.28125 2077.851562 7770.585938 2153.4375 7664.804688 C 2229.023438 7559.0625 2162.851562 7568.007812 2141.953125 7533.125 M 1941.289062 7222.96875 C 1940.898438 7760.664062 2028.789062 7788.242188 2204.921875 7305.78125 " transform="matrix(0.1,0,0,-0.1,0,792)"/>
<path style="fill:none;stroke-width:7.5005;stroke-linecap:butt;stroke-linejoin:miter;stroke:rgb(13.730068%,12.159915%,12.54902%);stroke-opacity:1;stroke-miterlimit:2.61313;" d="M 2030.078125 7305.78125 C 2056.367188 7366.523438 2080.78125 7418.945312 2103.359375 7462.96875 " transform="matrix(0.1,0,0,-0.1,0,792)"/>
<path style="fill:none;stroke-width:4.9975;stroke-linecap:butt;stroke-linejoin:miter;stroke:rgb(13.730068%,12.159915%,12.54902%);stroke-opacity:1;stroke-dasharray:9.995,14.9925;stroke-miterlimit:2.61313;" d="M 2904.921875 7278.867188 C 3005 7278.867188 3086.171875 7193.90625 3086.171875 7089.179688 C 3086.171875 6984.414062 3005 6899.492188 2904.921875 6899.492188 C 2804.84375 6899.492188 2723.671875 6984.414062 2723.671875 7089.179688 C 2723.671875 7193.90625 2804.84375 7278.867188 2904.921875 7278.867188 Z M 2904.921875 7278.867188 " transform="matrix(0.1,0,0,-0.1,0,792)"/>
<path style="fill:none;stroke-width:4.9975;stroke-linecap:butt;stroke-linejoin:miter;stroke:rgb(13.730068%,12.159915%,12.54902%);stroke-opacity:1;stroke-miterlimit:2.61313;" d="M 2793.90625 7091.132812 L 2976.09375 7092.109375 " transform="matrix(0.1,0,0,-0.1,0,792)"/>
<path style=" stroke:none;fill-rule:evenodd;fill:rgb(13.730068%,12.159915%,12.54902%);fill-opacity:1;" d="M 297.179688 80.15625 L 301.984375 82.765625 L 297.207031 85.425781 L 297.179688 80.15625 "/>
<path style="fill:none;stroke-width:4.9975;stroke-linecap:butt;stroke-linejoin:miter;stroke:rgb(13.730068%,12.159915%,12.54902%);stroke-opacity:1;stroke-miterlimit:2.61313;" d="M 2905.078125 6965.507812 L 2904.0625 7168.203125 " transform="matrix(0.1,0,0,-0.1,0,792)"/>
<path style=" stroke:none;fill-rule:evenodd;fill:rgb(13.730068%,12.159915%,12.54902%);fill-opacity:1;" d="M 287.773438 75.605469 L 290.386719 70.804688 L 293.042969 75.582031 L 287.773438 75.605469 "/>
<path style="fill:none;stroke-width:7.5005;stroke-linecap:butt;stroke-linejoin:miter;stroke:rgb(13.730068%,12.159915%,12.54902%);stroke-opacity:1;stroke-miterlimit:2.61313;" d="M 2842.851562 7612.109375 C 2881.757812 7615.273438 2916.601562 7603.476562 2936.445312 7575.703125 C 3002.65625 7483.046875 2944.648438 7490.898438 2926.367188 7460.3125 M 2750.507812 7188.554688 C 2645.9375 7844.726562 2735.195312 7847.148438 2981.523438 7261.132812 " transform="matrix(0.1,0,0,-0.1,0,792)"/>
<path style="fill:none;stroke-width:7.5005;stroke-linecap:butt;stroke-linejoin:miter;stroke:rgb(13.730068%,12.159915%,12.54902%);stroke-opacity:1;stroke-miterlimit:2.61313;" d="M 2724.296875 7558.359375 C 2746.953125 7578.59375 2772.382812 7593.320312 2797.773438 7602.265625 " transform="matrix(0.1,0,0,-0.1,0,792)"/>
<path style="fill:none;stroke-width:7.5005;stroke-linecap:butt;stroke-linejoin:miter;stroke:rgb(13.730068%,12.159915%,12.54902%);stroke-opacity:1;stroke-miterlimit:2.61313;" d="M 3059.335938 7188.554688 C 3066.132812 7310.625 2964.453125 7463.476562 3057.304688 7461.445312 C 3195.195312 7458.4375 3147.070312 7254.84375 3133.789062 7037.773438 C 3125.664062 6905.078125 2897.304688 6666.445312 2670.039062 7001.132812 C 2615.546875 7081.328125 2647.34375 7214.882812 2643.125 7357.460938 C 2641.171875 7423.671875 2659.921875 7477.8125 2689.0625 7518.90625 " transform="matrix(0.1,0,0,-0.1,0,792)"/>
<path style="fill:none;stroke-width:7.5005;stroke-linecap:butt;stroke-linejoin:miter;stroke:rgb(13.730068%,12.159915%,12.54902%);stroke-opacity:1;stroke-miterlimit:2.61313;" d="M 2828.320312 7261.132812 C 2851.367188 7314.375 2872.773438 7360.273438 2892.539062 7398.867188 " transform="matrix(0.1,0,0,-0.1,0,792)"/>
<path style="fill:none;stroke-width:4.9975;stroke-linecap:butt;stroke-linejoin:miter;stroke:rgb(13.730068%,12.159915%,12.54902%);stroke-opacity:1;stroke-dasharray:9.995,14.9925;stroke-miterlimit:2.61313;" d="M 3738.632812 7285.703125 C 3839.960938 7285.703125 3922.148438 7199.6875 3922.148438 7093.671875 C 3922.148438 6987.617188 3839.960938 6901.601562 3738.632812 6901.601562 C 3637.304688 6901.601562 3555.15625 6987.617188 3555.15625 7093.671875 C 3555.15625 7199.6875 3637.304688 7285.703125 3738.632812 7285.703125 Z M 3738.632812 7285.703125 " transform="matrix(0.1,0,0,-0.1,0,792)"/>
<path style="fill:none;stroke-width:4.9975;stroke-linecap:butt;stroke-linejoin:miter;stroke:rgb(13.730068%,12.159915%,12.54902%);stroke-opacity:1;stroke-miterlimit:2.61313;" d="M 3626.25 7095.664062 L 3811.25 7096.640625 " transform="matrix(0.1,0,0,-0.1,0,792)"/>
<path style=" stroke:none;fill-rule:evenodd;fill:rgb(13.730068%,12.159915%,12.54902%);fill-opacity:1;" d="M 380.695312 79.703125 L 385.5 82.3125 L 380.722656 84.972656 L 380.695312 79.703125 "/>
<path style="fill:none;stroke-width:4.9975;stroke-linecap:butt;stroke-linejoin:miter;stroke:rgb(13.730068%,12.159915%,12.54902%);stroke-opacity:1;stroke-miterlimit:2.61313;" d="M 3738.789062 6968.4375 L 3737.773438 7174.21875 " transform="matrix(0.1,0,0,-0.1,0,792)"/>
<path style=" stroke:none;fill-rule:evenodd;fill:rgb(13.730068%,12.159915%,12.54902%);fill-opacity:1;" d="M 371.144531 75.007812 L 373.757812 70.203125 L 376.414062 74.980469 L 371.144531 75.007812 "/>
<path style="fill:none;stroke-width:7.5005;stroke-linecap:butt;stroke-linejoin:miter;stroke:rgb(13.730068%,12.159915%,12.54902%);stroke-opacity:1;stroke-miterlimit:2.61313;" d="M 3555.78125 7568.671875 C 3578.710938 7589.179688 3604.453125 7604.101562 3630.195312 7613.164062 M 3894.960938 7194.296875 C 3901.875 7317.851562 3798.90625 7472.617188 3892.929688 7470.546875 C 4032.539062 7467.5 3983.828125 7261.40625 3970.390625 7041.601562 C 3962.1875 6907.304688 3730.9375 6665.625 3500.820312 7004.492188 C 3445.664062 7085.742188 3477.851562 7220.9375 3473.59375 7365.273438 C 3471.601562 7432.34375 3490.625 7487.148438 3520.117188 7528.75 M 3661.09375 7267.734375 C 3684.414062 7321.640625 3706.09375 7368.164062 3726.132812 7407.1875 M 3816.210938 7267.734375 C 3736.328125 7457.8125 3672.734375 7586.757812 3626.71875 7652.382812 C 3509.6875 7819.179688 3895.039062 7726.132812 3974.101562 7610.3125 C 4107.304688 7415.195312 4101.914062 7049.609375 3903.203125 6856.367188 C 3734.609375 6692.421875 3475.039062 6801.210938 3408.320312 7046.210938 C 3369.453125 7188.945312 3402.539062 7341.71875 3418.554688 7488.945312 C 3432.1875 7613.90625 3520.039062 7727.304688 3540.664062 7642.226562 C 3533.320312 7565.9375 3546.757812 7417.460938 3582.304688 7194.296875 M 3675.820312 7623.125 C 3715.195312 7626.289062 3750.507812 7614.375 3770.546875 7586.289062 C 3837.617188 7492.460938 3778.867188 7500.390625 3760.351562 7469.414062 " transform="matrix(0.1,0,0,-0.1,0,792)"/>
<path style="fill:none;stroke-width:4.9975;stroke-linecap:butt;stroke-linejoin:miter;stroke:rgb(13.730068%,12.159915%,12.54902%);stroke-opacity:1;stroke-dasharray:9.995,14.9925;stroke-miterlimit:2.61313;" d="M 4650.664062 7285.703125 C 4752.03125 7285.703125 4834.179688 7199.6875 4834.179688 7093.671875 C 4834.179688 6987.617188 4752.03125 6901.601562 4650.664062 6901.601562 C 4549.335938 6901.601562 4467.1875 6987.617188 4467.1875 7093.671875 C 4467.1875 7199.6875 4549.335938 7285.703125 4650.664062 7285.703125 Z M 4650.664062 7285.703125 " transform="matrix(0.1,0,0,-0.1,0,792)"/>
<path style="fill:none;stroke-width:4.9975;stroke-linecap:butt;stroke-linejoin:miter;stroke:rgb(13.730068%,12.159915%,12.54902%);stroke-opacity:1;stroke-miterlimit:2.61313;" d="M 4538.28125 7095.664062 L 4723.28125 7096.640625 " transform="matrix(0.1,0,0,-0.1,0,792)"/>
<path style=" stroke:none;fill-rule:evenodd;fill:rgb(13.730068%,12.159915%,12.54902%);fill-opacity:1;" d="M 471.898438 79.703125 L 476.703125 82.3125 L 471.925781 84.972656 L 471.898438 79.703125 "/>
<path style="fill:none;stroke-width:4.9975;stroke-linecap:butt;stroke-linejoin:miter;stroke:rgb(13.730068%,12.159915%,12.54902%);stroke-opacity:1;stroke-miterlimit:2.61313;" d="M 4650.820312 6968.4375 L 4649.804688 7174.21875 " transform="matrix(0.1,0,0,-0.1,0,792)"/>
<path style=" stroke:none;fill-rule:evenodd;fill:rgb(13.730068%,12.159915%,12.54902%);fill-opacity:1;" d="M 462.347656 75.007812 L 464.960938 70.203125 L 467.617188 74.980469 L 462.347656 75.007812 "/>
<path style="fill:none;stroke-width:7.5005;stroke-linecap:butt;stroke-linejoin:miter;stroke:rgb(13.730068%,12.159915%,12.54902%);stroke-opacity:1;stroke-miterlimit:2.61313;" d="M 4728.242188 7267.734375 C 4648.359375 7457.8125 4584.765625 7586.757812 4538.75 7652.382812 C 4421.71875 7819.179688 4807.070312 7726.132812 4886.132812 7610.3125 C 5019.335938 7415.195312 5013.945312 7049.609375 4815.234375 6856.367188 C 4646.640625 6692.421875 4387.070312 6801.210938 4320.351562 7046.210938 C 4281.484375 7188.945312 4314.570312 7341.679688 4330.585938 7488.945312 C 4344.21875 7613.90625 4432.070312 7727.304688 4452.695312 7642.226562 C 4445.351562 7565.9375 4458.789062 7417.460938 4494.375 7194.296875 " transform="matrix(0.1,0,0,-0.1,0,792)"/>
<path style="fill:none;stroke-width:7.5005;stroke-linecap:butt;stroke-linejoin:miter;stroke:rgb(13.730068%,12.159915%,12.54902%);stroke-opacity:1;stroke-miterlimit:2.61313;" d="M 4806.992188 7194.296875 C 4813.90625 7317.851562 4710.9375 7472.617188 4804.960938 7470.546875 C 4944.53125 7467.5 4895.859375 7261.40625 4882.421875 7041.601562 C 4874.21875 6907.304688 4642.96875 6665.625 4412.851562 7004.492188 C 4357.695312 7085.742188 4389.882812 7220.9375 4385.625 7365.273438 C 4383.632812 7432.34375 4402.65625 7487.148438 4432.148438 7528.75 " transform="matrix(0.1,0,0,-0.1,0,792)"/>
<path style="fill:none;stroke-width:7.5005;stroke-linecap:butt;stroke-linejoin:miter;stroke:rgb(13.730068%,12.159915%,12.54902%);stroke-opacity:1;stroke-miterlimit:2.61313;" d="M 4573.125 7267.734375 C 4608.554688 7349.648438 4592.539062 7680.078125 4467.8125 7568.671875 " transform="matrix(0.1,0,0,-0.1,0,792)"/>
<path style="fill:none;stroke-width:4.9975;stroke-linecap:butt;stroke-linejoin:miter;stroke:rgb(13.730068%,12.159915%,12.54902%);stroke-opacity:1;stroke-dasharray:9.995,14.9925;stroke-miterlimit:2.61313;" d="M 5669.21875 7624.101562 C 5811.71875 7624.101562 5927.265625 7503.164062 5927.265625 7354.023438 C 5927.265625 7204.882812 5811.71875 7083.945312 5669.21875 7083.945312 C 5526.71875 7083.945312 5411.132812 7204.882812 5411.132812 7354.023438 C 5411.132812 7503.164062 5526.71875 7624.101562 5669.21875 7624.101562 Z M 5669.21875 7624.101562 " transform="matrix(0.1,0,0,-0.1,0,792)"/>
<path style="fill:none;stroke-width:4.9975;stroke-linecap:butt;stroke-linejoin:miter;stroke:rgb(13.730068%,12.159915%,12.54902%);stroke-opacity:1;stroke-miterlimit:2.61313;" d="M 5511.171875 7356.835938 L 5789.0625 7358.320312 " transform="matrix(0.1,0,0,-0.1,0,792)"/>
<path style=" stroke:none;fill-rule:evenodd;fill:rgb(13.730068%,12.159915%,12.54902%);fill-opacity:1;" d="M 578.480469 53.535156 L 583.28125 56.144531 L 578.507812 58.804688 L 578.480469 53.535156 "/>
<path style="fill:none;stroke-width:4.9975;stroke-linecap:butt;stroke-linejoin:miter;stroke:rgb(13.730068%,12.159915%,12.54902%);stroke-opacity:1;stroke-miterlimit:2.61313;" d="M 5669.414062 7177.929688 L 5667.890625 7485.078125 " transform="matrix(0.1,0,0,-0.1,0,792)"/>
<path style=" stroke:none;fill-rule:evenodd;fill:rgb(13.730068%,12.159915%,12.54902%);fill-opacity:1;" d="M 564.15625 43.917969 L 566.769531 39.117188 L 569.429688 43.894531 L 564.15625 43.917969 "/>
<path style="fill:none;stroke-width:7.5005;stroke-linecap:butt;stroke-linejoin:miter;stroke:rgb(13.730068%,12.159915%,12.54902%);stroke-opacity:1;stroke-miterlimit:2.61313;" d="M 5778.28125 7598.828125 C 6587.851562 7843.710938 6074.921875 6643.320312 5670.234375 6923.4375 C 5265.507812 7203.554688 5185.3125 7411.367188 5449.375 7495.546875 " transform="matrix(0.1,0,0,-0.1,0,792)"/>
<path style="fill:none;stroke-width:7.5005;stroke-linecap:butt;stroke-linejoin:miter;stroke:rgb(13.730068%,12.159915%,12.54902%);stroke-opacity:1;stroke-miterlimit:2.61313;" d="M 5638.90625 6891.054688 C 5274.335938 6669.453125 4986.445312 7877.578125 5560.15625 7598.828125 " transform="matrix(0.1,0,0,-0.1,0,792)"/>
<path style="fill:none;stroke-width:7.5005;stroke-linecap:butt;stroke-linejoin:miter;stroke:rgb(13.730068%,12.159915%,12.54902%);stroke-opacity:1;stroke-miterlimit:2.61313;" d="M 5889.023438 7495.546875 C 6134.648438 7356.210938 6052.1875 7228.398438 5711.5625 6956.289062 " transform="matrix(0.1,0,0,-0.1,0,792)"/>
<path style="fill:none;stroke-width:12.9997;stroke-linecap:butt;stroke-linejoin:miter;stroke:rgb(92.941176%,10.978866%,14.119173%);stroke-opacity:1;stroke-miterlimit:2.61313;" d="M 5847.382812 7549.335938 C 6215.976562 7784.804688 6147.460938 6928.398438 5670.234375 6923.4375 C 5192.96875 6928.398438 5124.453125 7784.804688 5493.046875 7549.335938 " transform="matrix(0.1,0,0,-0.1,0,792)"/>
</g>
</svg>
