<?xml version="1.0" encoding="UTF-8"?>
<svg xmlns="http://www.w3.org/2000/svg" xmlns:xlink="http://www.w3.org/1999/xlink" width="612pt" height="792pt" viewBox="0 0 612 792" version="1.1">
<g id="surface1">
<path style=" stroke:none;fill-rule:evenodd;fill:rgb(82.752728%,82.438392%,82.516213%);fill-opacity:1;" d="M 423.585938 288.816406 C 423.75 283.773438 431.273438 280.761719 438.757812 280.273438 C 438.941406 280.222656 439.128906 280.175781 439.316406 280.136719 C 439.492188 280.097656 439.664062 280.066406 439.824219 280.046875 C 441.230469 279.074219 443.800781 279.210938 444.601562 280.453125 C 445.921875 280.75 446.945312 281.582031 446.859375 282.527344 L 446.6875 283.320312 L 446.347656 283.925781 L 445.933594 284.421875 L 445.953125 284.332031 L 445.730469 284.71875 L 445.492188 284.957031 L 445.261719 285.121094 L 445.082031 285.230469 L 444.953125 285.296875 L 444.910156 285.382812 L 444.910156 285.390625 L 446.550781 286.035156 C 442.648438 289.191406 438.953125 292.839844 432.183594 292.828125 L 431.726562 292.890625 L 431.320312 292.914062 L 430.777344 292.894531 C 430.175781 292.84375 429.703125 292.679688 429.335938 292.429688 C 426.816406 291.777344 424.242188 290.402344 425.210938 288.816406 Z M 445.085938 284.921875 L 445.132812 284.796875 L 445.164062 284.5625 Z M 433.609375 289.445312 C 433.226562 289.527344 432.867188 289.585938 432.535156 289.621094 L 432.558594 289.820312 C 432.921875 289.707031 433.273438 289.582031 433.609375 289.445312 "/>
<path style=" stroke:none;fill-rule:evenodd;fill:rgb(82.752728%,82.438392%,82.516213%);fill-opacity:1;" d="M 527.136719 255.214844 C 531.300781 255.28125 537.050781 256.03125 541.277344 254.902344 C 542.113281 254.214844 542.886719 253.539062 543.605469 252.949219 C 546.160156 250.847656 549.855469 252.128906 547.929688 254.699219 C 547.011719 255.925781 545.597656 256.746094 543.894531 257.292969 C 542.703125 258.207031 541.386719 259.128906 539.957031 259.945312 L 540.445312 259.992188 L 544.378906 260.046875 L 544.597656 259.941406 L 544.933594 259.753906 C 547.917969 257.929688 547.390625 256.847656 551.628906 258.765625 C 551.878906 258.878906 551.398438 259.429688 551.101562 259.722656 C 551.976562 259.53125 552.878906 259.539062 553.78125 259.941406 C 554.890625 260.433594 554.828125 261.597656 553.96875 262.1875 C 552.839844 262.960938 551.632812 263.699219 550.351562 264.382812 L 550.714844 264.242188 C 552.277344 263.632812 556.65625 261.878906 555.4375 265.617188 C 555.378906 265.796875 555.269531 265.984375 555.113281 266.175781 L 555.523438 266.121094 C 557.410156 265.898438 558.835938 267.539062 557.839844 268.535156 C 557.316406 269.058594 556.738281 269.539062 556.109375 269.976562 L 557.8125 271.460938 C 554.710938 273.652344 551.855469 276.890625 547.40625 278.058594 C 539.308594 280.179688 529.964844 280.460938 522.988281 276.742188 L 521.460938 275.8125 L 520.878906 275.4375 L 520.730469 275.355469 L 520.472656 275.183594 L 520.453125 275.171875 L 521.714844 274.363281 L 523.53125 273.160156 L 523.441406 273.105469 L 523.480469 273.128906 L 523.53125 273.15625 L 523.886719 273.382812 L 524.035156 273.476562 C 525.355469 274.222656 527.082031 274.75 528.953125 275.101562 C 528.421875 274.773438 528.101562 274.316406 528.113281 273.878906 C 527.085938 273.886719 526.109375 273.84375 525.371094 273.695312 C 523.351562 273.289062 523.515625 271.222656 525.5 270.910156 C 529.222656 270.316406 532.953125 270.179688 536.628906 269.769531 C 535.410156 269.753906 534.164062 269.703125 532.863281 269.644531 L 528.589844 269.335938 L 522.113281 268.894531 L 518.382812 268.589844 L 522.894531 267.257812 L 518.945312 265.769531 L 522.628906 266.066406 L 526.128906 266.304688 L 527.234375 265.976562 L 528.835938 265.972656 C 528.648438 265.929688 528.464844 265.886719 528.273438 265.84375 C 527.019531 265.675781 525.78125 265.449219 524.578125 265.167969 C 523.996094 265.035156 523.335938 264.878906 522.851562 264.617188 L 522.777344 264.578125 L 522.667969 264.496094 L 522.078125 263.765625 L 522.039062 263.5 C 521.609375 261.226562 527.070312 262.410156 528.175781 262.6875 C 528.882812 262.863281 529.59375 263.039062 530.308594 263.191406 C 533.21875 263.46875 536.339844 263.402344 539.320312 263.066406 C 539.574219 262.972656 539.828125 262.871094 540.078125 262.757812 L 540.527344 262.527344 L 534.726562 262.148438 C 533.210938 262.550781 531.613281 262.761719 529.960938 262.6875 C 527.65625 262.585938 523.445312 260.996094 525.933594 259.222656 C 527.234375 258.292969 530.449219 258.953125 531.886719 259.105469 L 533.800781 259.324219 C 534.699219 259.058594 535.554688 258.699219 536.371094 258.277344 C 533.070312 258.335938 529.722656 258.101562 527.136719 258.0625 Z M 523.441406 273.105469 L 523.410156 273.085938 L 523.355469 273.058594 Z M 522.667969 264.496094 L 522.652344 264.484375 L 522.679688 264.511719 Z M 522.652344 264.484375 L 522.460938 264.347656 L 522.222656 264.070312 L 522.652344 264.484375 "/>
<path style=" stroke:none;fill-rule:evenodd;fill:rgb(82.752728%,82.438392%,82.516213%);fill-opacity:1;" d="M 453.875 246.492188 C 456.121094 245.613281 461.769531 242.390625 464.839844 243.371094 C 466.238281 243.820312 466.308594 244.902344 465.496094 245.660156 L 461.730469 248.570312 L 464.101562 247.953125 L 468.332031 246.566406 C 470.8125 245.640625 473.226562 243.050781 475.246094 246.023438 C 475.597656 246.542969 473.875 247.707031 473.558594 247.960938 C 471.1875 249.828125 468.9375 251.152344 466.371094 252.472656 L 470.050781 251.660156 L 474.617188 248.714844 C 477.160156 247.222656 482.671875 245.871094 486.265625 245.832031 C 487.695312 245.816406 488.722656 246.734375 488.441406 247.617188 C 488.285156 248.101562 487.53125 248.617188 486.8125 249.039062 C 488.886719 248.242188 490.96875 247.875 492.578125 248.648438 C 493.914062 249.285156 493.871094 250.460938 492.769531 251.214844 C 489.570312 253.390625 484.933594 255.246094 480.789062 256.480469 L 477.9375 257.285156 L 471.109375 260.566406 L 470.855469 260.683594 L 475.640625 259.488281 C 481.546875 256.742188 487.691406 254.09375 494.816406 253.398438 C 497.523438 253.132812 498.265625 255.347656 496.335938 256.296875 C 495.066406 256.917969 493.761719 257.492188 492.421875 258.027344 C 493.40625 257.789062 494.46875 257.703125 495.632812 257.84375 C 500.175781 258.386719 502.554688 263.636719 500.214844 266.046875 C 495.492188 270.914062 482.46875 271.792969 474.898438 272.117188 C 472.757812 272.210938 465.601562 272.945312 463.265625 271.175781 C 461.390625 271.121094 459.511719 270.984375 457.640625 270.761719 C 455.101562 270.460938 455.472656 268.34375 456.785156 267.4375 C 456.972656 267.308594 457.167969 267.1875 457.367188 267.066406 C 455.542969 267.40625 453.359375 267.425781 453.90625 265.441406 C 454.289062 264.046875 459.328125 262.507812 460.910156 261.777344 L 462.492188 261.03125 L 461.863281 261.164062 L 461.628906 261.214844 C 460.582031 261.589844 459.46875 261.894531 458.269531 262.121094 C 456.882812 262.378906 455.386719 261.746094 455.386719 260.746094 L 455.386719 260.742188 L 455.460938 260.394531 L 455.617188 260.097656 L 455.691406 260.007812 L 457.75 259.046875 L 458.585938 258.832031 L 459.542969 258.425781 L 462.917969 256.253906 C 460.972656 256.65625 459.042969 257.085938 457.167969 257.585938 C 456.082031 257.878906 455.996094 258.023438 454.878906 258.152344 L 454.667969 258.144531 L 454.554688 258.136719 L 453.871094 257.992188 L 452.902344 257.355469 L 452.785156 257.171875 L 452.683594 256.867188 C 452.539062 254.921875 458.945312 252.566406 459.75 252.175781 L 459.90625 252.101562 C 457.429688 252.707031 452.457031 253.691406 453.507812 250.910156 C 453.808594 250.113281 454.5625 249.347656 455.5 248.613281 Z M 484.71875 246.351562 L 484.839844 246.277344 L 484.75 246.328125 Z M 472.875 254.222656 C 472.230469 254.695312 471.589844 255.175781 470.953125 255.652344 L 477.480469 253.976562 L 479.1875 253.171875 C 479.847656 252.816406 480.851562 252.171875 482.042969 251.460938 C 479.199219 252.644531 476.089844 253.496094 472.875 254.222656 Z M 455.460938 260.394531 L 455.472656 260.335938 L 455.429688 260.457031 Z M 476.4375 262.738281 L 474.558594 263.492188 C 475.335938 263.195312 476.125 262.90625 476.929688 262.625 Z M 468.722656 265.835938 L 467.882812 266.171875 C 468.078125 266.09375 468.257812 266.023438 468.421875 265.957031 Z M 465.816406 267 L 462.597656 268.292969 L 463.496094 268.296875 C 464.113281 267.808594 464.960938 267.375 465.816406 267 Z M 472.070312 267.847656 C 475.980469 267.445312 479.253906 266.703125 482.519531 265.703125 L 482.519531 264.320312 C 480.351562 264.867188 478.191406 265.539062 475.816406 266.390625 Z M 490.058594 263.054688 L 490.488281 262.871094 L 490.265625 262.898438 Z M 483.941406 268.539062 C 488.121094 267.992188 492.222656 267.066406 495.320312 265.425781 C 496.378906 264.863281 496.730469 264.128906 496.652344 263.359375 L 496.628906 263.371094 C 492.796875 265.46875 488.507812 267.226562 483.941406 268.539062 Z M 488.488281 259.871094 C 489.011719 259.519531 489.554688 259.1875 490.121094 258.898438 C 488.902344 259.335938 487.664062 259.742188 486.40625 260.128906 C 487.101562 260.023438 487.792969 259.933594 488.488281 259.871094 Z M 453.871094 257.992188 L 453.851562 257.988281 L 453.882812 257.996094 Z M 474.40625 247.132812 L 474.460938 247.105469 L 474.40625 247.132812 "/>
<path style=" stroke:none;fill-rule:evenodd;fill:rgb(82.752728%,82.438392%,82.516213%);fill-opacity:1;" d="M 493.289062 225.117188 C 497.835938 224.140625 503.765625 222.003906 508.742188 222.25 C 509.796875 222.300781 510.488281 223.039062 510.496094 223.699219 L 513.582031 223.039062 C 514.078125 222.929688 514.902344 223.25 515.222656 223.476562 L 515.523438 223.71875 L 515.734375 224.011719 L 515.84375 224.316406 L 517.308594 223.886719 C 517.976562 223.804688 518.691406 223.851562 519.242188 224.132812 L 519.421875 224.230469 L 519.753906 224.484375 L 520.023438 224.863281 L 520.085938 225.019531 L 520.121094 225.285156 L 520.03125 225.695312 C 520.011719 225.769531 519.972656 225.84375 519.925781 225.910156 L 522.953125 224.890625 L 523.210938 224.800781 C 523.484375 224.710938 523.761719 224.652344 524.03125 224.628906 L 524.03125 224.335938 C 526.96875 224.664062 528.902344 225.183594 531.144531 226.492188 L 531.707031 226.847656 L 531.808594 226.835938 L 533.078125 226.628906 L 533.457031 226.585938 C 534.820312 226.460938 535.761719 226.90625 536.101562 227.527344 C 537.550781 227.859375 537.960938 228.980469 537.113281 230.226562 C 539.203125 230.089844 541.050781 230.285156 541.992188 231.210938 C 543.699219 232.890625 539.902344 234.359375 536.855469 235.269531 C 536.710938 235.410156 536.558594 235.550781 536.398438 235.6875 C 536.535156 235.925781 536.542969 236.210938 536.375 236.539062 C 536.332031 236.621094 536.28125 236.699219 536.222656 236.777344 C 536.632812 236.75 537.039062 236.730469 537.441406 236.71875 C 539.136719 236.664062 540.773438 237.613281 540.105469 238.777344 C 539.792969 239.328125 539.109375 239.691406 538.394531 240.015625 L 537.371094 240.464844 C 538.199219 240.550781 538.835938 240.847656 538.984375 241.527344 C 539.316406 243.054688 536.042969 244.035156 534.488281 244.589844 C 529.148438 246.492188 522.027344 249.425781 515.589844 248.859375 C 512.488281 248.589844 510.953125 246.574219 511.894531 244.941406 C 510.808594 244.535156 510.316406 243.722656 510.535156 242.945312 C 507.183594 243.347656 503.496094 243.65625 501.121094 242.742188 C 499.523438 242.128906 500.65625 240.640625 501.808594 240.21875 L 506.929688 238.902344 C 508.523438 238.117188 510.171875 237.273438 511.882812 236.484375 L 511.410156 236.527344 L 512.910156 236.019531 C 513.246094 235.871094 513.582031 235.730469 513.921875 235.585938 L 499.867188 239.164062 C 497.964844 239.59375 495.835938 238.34375 496.984375 237.09375 C 498.460938 235.488281 506.144531 233.867188 508.125 233.246094 L 508.707031 233.066406 C 508.621094 232.859375 508.53125 232.628906 508.4375 232.359375 L 500.847656 233.980469 C 500.347656 234.09375 499.722656 234.078125 499.230469 233.976562 L 498.863281 233.875 L 498.601562 233.765625 L 498.382812 233.640625 L 498.144531 233.46875 L 497.9375 233.246094 L 497.769531 232.953125 C 497.289062 232.015625 498.609375 231.246094 499.894531 230.6875 C 499.40625 230.285156 499.234375 229.730469 499.546875 229.214844 C 498.980469 228.980469 498.59375 228.582031 498.566406 228.03125 C 498.546875 227.589844 498.867188 227.183594 499.328125 226.816406 L 494.34375 227.878906 Z M 515.734375 224.011719 L 515.753906 224.039062 L 515.726562 223.984375 Z M 520.023438 224.863281 L 520.03125 224.875 L 520.011719 224.828125 Z M 525.757812 227.507812 C 525.488281 227.746094 525.171875 227.980469 524.8125 228.207031 L 524.867188 228.21875 C 525.65625 228.375 526.199219 228.808594 526.378906 229.296875 L 528.164062 228.820312 L 528.394531 228.710938 C 528.3125 228.660156 528.234375 228.609375 528.15625 228.5625 C 527.347656 228.085938 526.609375 227.746094 525.757812 227.507812 Z M 530.59375 231.195312 L 530.199219 231.40625 C 530.847656 231.257812 531.558594 231.097656 532.304688 230.945312 C 532.304688 230.847656 532.308594 230.753906 532.320312 230.65625 C 532.175781 230.636719 532.035156 230.605469 531.902344 230.570312 L 531.792969 230.648438 Z M 526.003906 235.214844 C 526.132812 235.304688 526.253906 235.410156 526.355469 235.53125 L 528.105469 234.824219 L 526.363281 235.113281 Z M 514.867188 239.425781 C 514.675781 239.273438 514.519531 239.101562 514.40625 238.914062 L 513.945312 239.109375 L 512.875 239.597656 C 513.515625 239.519531 514.203125 239.453125 514.867188 239.425781 Z M 518.433594 243.242188 C 519.140625 243.992188 518.164062 245.078125 516.558594 245.695312 L 516.082031 245.890625 L 515.972656 245.945312 L 515.964844 245.996094 L 515.964844 246.011719 L 516.140625 246.035156 L 516.792969 246.050781 C 518.058594 246.011719 519.328125 245.871094 520.59375 245.660156 C 520.550781 245.398438 520.628906 245.09375 520.855469 244.757812 C 521.496094 243.804688 523.621094 242.726562 525.851562 241.78125 Z M 512.542969 243.550781 L 512.511719 243.53125 L 512.550781 243.558594 Z M 498.382812 233.640625 L 498.351562 233.625 L 498.40625 233.660156 L 498.382812 233.640625 "/>
<path style=" stroke:none;fill-rule:evenodd;fill:rgb(82.752728%,82.438392%,82.516213%);fill-opacity:1;" d="M 435.058594 218.226562 C 439.28125 215.960938 445.199219 212.933594 450.925781 212.539062 C 452.769531 212.410156 453.710938 213.695312 453.148438 214.683594 C 452.925781 215.074219 452.25 215.519531 451.628906 215.875 L 451.941406 215.753906 L 453.574219 215.167969 C 455.183594 214.59375 458.054688 213.558594 459.519531 214.863281 C 460.371094 215.621094 459.953125 216.46875 459.148438 217.234375 C 460.765625 216.65625 462.429688 216.359375 463.882812 216.847656 C 465.699219 217.457031 465.027344 219.121094 463.964844 219.925781 L 463.535156 220.199219 C 465.519531 219.742188 467.484375 219.589844 468.453125 220.394531 C 470.164062 219.9375 472.058594 219.742188 474.207031 219.929688 C 476.363281 220.117188 476.792969 220.945312 476.46875 221.847656 C 479.496094 221.160156 483.117188 220.683594 484.253906 222.179688 C 485.03125 223.210938 483.800781 224.355469 482.417969 224.863281 L 473.238281 227.847656 C 469.300781 229.753906 464.40625 231.753906 459.816406 232.984375 C 459.816406 233.03125 459.808594 233.082031 459.800781 233.132812 C 459.6875 233.789062 459.066406 234.335938 458.3125 234.816406 C 459.054688 235.304688 459.34375 236.070312 458.75 236.777344 C 456.417969 239.539062 447.207031 236.804688 445.785156 234.757812 C 445.351562 234.132812 445.371094 233.496094 445.625 232.882812 C 444.488281 232.699219 443.832031 231.714844 444.046875 231.023438 C 443.039062 230.691406 442.265625 230.1875 442.066406 229.449219 L 441.121094 229.285156 L 438.804688 228.867188 L 438.363281 228.683594 C 435.625 227.496094 438.144531 226.269531 440.378906 225.507812 C 440.71875 225.054688 441.1875 224.644531 441.453125 224.46875 L 447.621094 220.671875 L 441.648438 222.863281 C 439.882812 223.488281 438.324219 222.097656 438.5625 221.082031 C 438.679688 220.578125 439.003906 220.074219 439.457031 219.578125 L 438.496094 219.972656 Z M 464.792969 225.554688 L 466.527344 225.054688 L 466.949219 224.515625 L 467.21875 224.335938 L 469.113281 223.324219 C 467.4375 223.828125 465.992188 224.640625 464.792969 225.554688 Z M 466.550781 226.082031 L 466.460938 225.96875 L 466.578125 226.152344 Z M 466.367188 225.574219 L 466.347656 225.515625 L 466.359375 225.675781 Z M 444.089844 226.871094 L 444.914062 227.023438 L 445.320312 227.152344 C 446.15625 227.410156 446.523438 228.03125 446.523438 228.601562 L 446.628906 228.625 L 447.023438 228.660156 C 446.476562 228.140625 446.324219 227.390625 446.921875 226.835938 L 452.476562 223.410156 L 444.089844 226.871094 "/>
<path style="fill:none;stroke-width:10.0006;stroke-linecap:butt;stroke-linejoin:miter;stroke:rgb(92.941176%,10.978866%,14.119173%);stroke-opacity:1;stroke-miterlimit:2.6131;" d="M 5270.351562 5637.34375 C 5403.671875 5587.539062 5556.054688 5301.09375 5441.757812 5189.023438 " transform="matrix(0.1,0,0,-0.1,0,792)"/>
<path style="fill:none;stroke-width:10.0006;stroke-linecap:butt;stroke-linejoin:miter;stroke:rgb(92.941176%,10.978866%,14.119173%);stroke-opacity:1;stroke-miterlimit:2.6131;" d="M 5441.757812 5189.023438 C 5228.242188 5327.421875 5180.585938 5477.539062 5270.351562 5637.34375 " transform="matrix(0.1,0,0,-0.1,0,792)"/>
<path style="fill:none;stroke-width:10.0006;stroke-linecap:butt;stroke-linejoin:miter;stroke:rgb(0%,65.099565%,31.369497%);stroke-opacity:1;stroke-miterlimit:2.6131;" d="M 4699.023438 5301.09375 L 5441.757812 5189.023438 " transform="matrix(0.1,0,0,-0.1,0,792)"/>
<path style="fill:none;stroke-width:10.0006;stroke-linecap:butt;stroke-linejoin:miter;stroke:rgb(92.941176%,10.978866%,14.119173%);stroke-opacity:1;stroke-miterlimit:2.6131;" d="M 5270.351562 5637.34375 L 4699.023438 5301.09375 " transform="matrix(0.1,0,0,-0.1,0,792)"/>
<path style="fill:none;stroke-width:10.0006;stroke-linecap:butt;stroke-linejoin:miter;stroke:rgb(0%,65.099565%,31.369497%);stroke-opacity:1;stroke-miterlimit:2.6131;" d="M 4470.46875 5712.070312 L 5270.351562 5637.34375 " transform="matrix(0.1,0,0,-0.1,0,792)"/>
<path style="fill:none;stroke-width:10.0006;stroke-linecap:butt;stroke-linejoin:miter;stroke:rgb(0%,65.099565%,31.369497%);stroke-opacity:1;stroke-miterlimit:2.6131;" d="M 4699.023438 5301.09375 L 4470.46875 5712.070312 " transform="matrix(0.1,0,0,-0.1,0,792)"/>
<path style="fill:none;stroke-width:10.0006;stroke-linecap:butt;stroke-linejoin:miter;stroke:rgb(0%,65.099565%,31.369497%);stroke-opacity:1;stroke-miterlimit:2.6131;" d="M 4356.210938 5039.609375 L 4699.023438 5301.09375 " transform="matrix(0.1,0,0,-0.1,0,792)"/>
<path style="fill:none;stroke-width:10.0006;stroke-linecap:butt;stroke-linejoin:miter;stroke:rgb(13.730068%,12.159915%,12.54902%);stroke-opacity:1;stroke-miterlimit:2.6131;" d="M 5070.390625 5245.078125 C 5035.859375 5228.984375 4616.289062 5178.476562 4560.859375 5173.75 " transform="matrix(0.1,0,0,-0.1,0,792)"/>
<path style="fill:none;stroke-width:10.0006;stroke-linecap:butt;stroke-linejoin:miter;stroke:rgb(13.730068%,12.159915%,12.54902%);stroke-opacity:1;stroke-miterlimit:2.6131;" d="M 5251.601562 5382.96875 C 5206.328125 5322.890625 5104.960938 5261.171875 5070.390625 5245.078125 " transform="matrix(0.1,0,0,-0.1,0,792)"/>
<path style="fill:none;stroke-width:10.0006;stroke-linecap:butt;stroke-linejoin:miter;stroke:rgb(13.730068%,12.159915%,12.54902%);stroke-opacity:1;stroke-miterlimit:2.6131;" d="M 5413.125 5457.34375 C 5301.171875 5499.296875 5280.507812 5457.265625 5251.601562 5382.96875 " transform="matrix(0.1,0,0,-0.1,0,792)"/>
<path style="fill:none;stroke-width:10.0006;stroke-linecap:butt;stroke-linejoin:miter;stroke:rgb(13.730068%,12.159915%,12.54902%);stroke-opacity:1;stroke-miterlimit:2.6131;" d="M 5087.96875 5227.03125 C 5324.726562 4965.9375 5873.125 5160.898438 5474.609375 5437.773438 " transform="matrix(0.1,0,0,-0.1,0,792)"/>
<path style="fill:none;stroke-width:10.0006;stroke-linecap:butt;stroke-linejoin:miter;stroke:rgb(13.730068%,12.159915%,12.54902%);stroke-opacity:1;stroke-miterlimit:2.6131;" d="M 4980.3125 5439.023438 C 5017.65625 5342.1875 4990.546875 5375.9375 5049.023438 5266.328125 " transform="matrix(0.1,0,0,-0.1,0,792)"/>
<path style="fill:none;stroke-width:10.0006;stroke-linecap:butt;stroke-linejoin:miter;stroke:rgb(13.730068%,12.159915%,12.54902%);stroke-opacity:1;stroke-miterlimit:2.6131;" d="M 4897.421875 5656.445312 C 4939.6875 5599.960938 4973.046875 5596.40625 4969.21875 5506.367188 " transform="matrix(0.1,0,0,-0.1,0,792)"/>
<path style="fill:none;stroke-width:10.0006;stroke-linecap:butt;stroke-linejoin:miter;stroke:rgb(13.730068%,12.159915%,12.54902%);stroke-opacity:1;stroke-miterlimit:2.6131;" d="M 4584.765625 5506.601562 C 4155.546875 5578.632812 4333.945312 6018.164062 4860.117188 5694.960938 " transform="matrix(0.1,0,0,-0.1,0,792)"/>
<path style="fill:none;stroke-width:10.0006;stroke-linecap:butt;stroke-linejoin:miter;stroke:rgb(13.730068%,12.159915%,12.54902%);stroke-opacity:1;stroke-miterlimit:2.6131;" d="M 4984.6875 5469.21875 C 4869.492188 5492.617188 4742.578125 5480.117188 4584.765625 5506.601562 " transform="matrix(0.1,0,0,-0.1,0,792)"/>
<path style="fill:none;stroke-width:10.0006;stroke-linecap:butt;stroke-linejoin:miter;stroke:rgb(13.730068%,12.159915%,12.54902%);stroke-opacity:1;stroke-miterlimit:2.6131;" d="M 5214.414062 5397.1875 C 5149.921875 5410.78125 5104.023438 5455.3125 4984.6875 5469.21875 " transform="matrix(0.1,0,0,-0.1,0,792)"/>
<path style="fill:none;stroke-width:10.0006;stroke-linecap:butt;stroke-linejoin:miter;stroke:rgb(13.730068%,12.159915%,12.54902%);stroke-opacity:1;stroke-miterlimit:2.6131;" d="M 5444.0625 5447.1875 C 5417.070312 5329.101562 5348.515625 5361.523438 5283.945312 5375.3125 " transform="matrix(0.1,0,0,-0.1,0,792)"/>
<path style="fill:none;stroke-width:10.0006;stroke-linecap:butt;stroke-linejoin:miter;stroke:rgb(13.730068%,12.159915%,12.54902%);stroke-opacity:1;stroke-miterlimit:2.6131;" d="M 4870.429688 5674.726562 C 5060.351562 5734.84375 5498.242188 5783.398438 5444.0625 5447.1875 " transform="matrix(0.1,0,0,-0.1,0,792)"/>
<path style="fill:none;stroke-width:10.0006;stroke-linecap:butt;stroke-linejoin:miter;stroke:rgb(13.730068%,12.159915%,12.54902%);stroke-opacity:1;stroke-miterlimit:2.6131;" d="M 4601.09375 5523.945312 C 4686.054688 5613.90625 4680.46875 5614.609375 4870.429688 5674.726562 " transform="matrix(0.1,0,0,-0.1,0,792)"/>
<path style="fill:none;stroke-width:10.0006;stroke-linecap:butt;stroke-linejoin:miter;stroke:rgb(13.730068%,12.159915%,12.54902%);stroke-opacity:1;stroke-miterlimit:2.6131;" d="M 4527.617188 5170.351562 C 4517.5 5274.21875 4480.351562 5392.734375 4565.3125 5482.65625 " transform="matrix(0.1,0,0,-0.1,0,792)"/>
<path style="fill:none;stroke-width:10.0006;stroke-linecap:butt;stroke-linejoin:miter;stroke:rgb(13.730068%,12.159915%,12.54902%);stroke-opacity:1;stroke-miterlimit:2.6131;" d="M 4527.617188 5170.351562 C 4456.484375 4728.867188 3846.328125 5116.015625 4491.523438 5170.351562 " transform="matrix(0.1,0,0,-0.1,0,792)"/>
<path style=" stroke:none;fill-rule:evenodd;fill:rgb(13.730068%,12.159915%,12.54902%);fill-opacity:1;" d="M 435.621094 287.183594 C 436.332031 287.183594 436.90625 287.566406 436.90625 288.039062 C 436.90625 288.515625 436.332031 288.898438 435.621094 288.898438 C 434.910156 288.898438 434.335938 288.515625 434.335938 288.039062 C 434.335938 287.566406 434.910156 287.183594 435.621094 287.183594 "/>
<path style="fill:none;stroke-width:10.0006;stroke-linecap:butt;stroke-linejoin:miter;stroke:rgb(13.730068%,12.159915%,12.54902%);stroke-opacity:1;stroke-miterlimit:2.6131;" d="M 4356.210938 5048.164062 C 4363.320312 5048.164062 4369.0625 5044.335938 4369.0625 5039.609375 C 4369.0625 5034.84375 4363.320312 5031.015625 4356.210938 5031.015625 C 4349.101562 5031.015625 4343.359375 5034.84375 4343.359375 5039.609375 C 4343.359375 5044.335938 4349.101562 5048.164062 4356.210938 5048.164062 Z M 4356.210938 5048.164062 " transform="matrix(0.1,0,0,-0.1,0,792)"/>
<path style=" stroke:none;fill-rule:evenodd;fill:rgb(13.730068%,12.159915%,12.54902%);fill-opacity:1;" d="M 469.902344 261.027344 C 470.613281 261.027344 471.1875 261.414062 471.1875 261.890625 C 471.1875 262.363281 470.613281 262.746094 469.902344 262.746094 C 469.191406 262.746094 468.617188 262.363281 468.617188 261.890625 C 468.617188 261.414062 469.191406 261.027344 469.902344 261.027344 "/>
<path style="fill:none;stroke-width:10.0006;stroke-linecap:butt;stroke-linejoin:miter;stroke:rgb(13.730068%,12.159915%,12.54902%);stroke-opacity:1;stroke-miterlimit:2.6131;" d="M 4699.023438 5309.726562 C 4706.132812 5309.726562 4711.875 5305.859375 4711.875 5301.09375 C 4711.875 5296.367188 4706.132812 5292.539062 4699.023438 5292.539062 C 4691.914062 5292.539062 4686.171875 5296.367188 4686.171875 5301.09375 C 4686.171875 5305.859375 4691.914062 5309.726562 4699.023438 5309.726562 Z M 4699.023438 5309.726562 " transform="matrix(0.1,0,0,-0.1,0,792)"/>
<path style=" stroke:none;fill-rule:evenodd;fill:rgb(13.730068%,12.159915%,12.54902%);fill-opacity:1;" d="M 447.046875 219.933594 C 447.757812 219.933594 448.335938 220.320312 448.335938 220.792969 C 448.335938 221.265625 447.757812 221.652344 447.046875 221.652344 C 446.339844 221.652344 445.761719 221.265625 445.761719 220.792969 C 445.761719 220.320312 446.339844 219.933594 447.046875 219.933594 "/>
<path style="fill:none;stroke-width:10.0006;stroke-linecap:butt;stroke-linejoin:miter;stroke:rgb(13.730068%,12.159915%,12.54902%);stroke-opacity:1;stroke-miterlimit:2.6131;" d="M 4470.46875 5720.664062 C 4477.578125 5720.664062 4483.359375 5716.796875 4483.359375 5712.070312 C 4483.359375 5707.34375 4477.578125 5703.476562 4470.46875 5703.476562 C 4463.398438 5703.476562 4457.617188 5707.34375 4457.617188 5712.070312 C 4457.617188 5716.796875 4463.398438 5720.664062 4470.46875 5720.664062 Z M 4470.46875 5720.664062 " transform="matrix(0.1,0,0,-0.1,0,792)"/>
<path style=" stroke:none;fill-rule:evenodd;fill:rgb(13.730068%,12.159915%,12.54902%);fill-opacity:1;" d="M 527.035156 227.40625 C 527.746094 227.40625 528.320312 227.789062 528.320312 228.265625 C 528.320312 228.738281 527.746094 229.125 527.035156 229.125 C 526.328125 229.125 525.75 228.738281 525.75 228.265625 C 525.75 227.789062 526.328125 227.40625 527.035156 227.40625 "/>
<path style="fill:none;stroke-width:10.0006;stroke-linecap:butt;stroke-linejoin:miter;stroke:rgb(13.730068%,12.159915%,12.54902%);stroke-opacity:1;stroke-miterlimit:2.6131;" d="M 5270.351562 5645.9375 C 5277.460938 5645.9375 5283.203125 5642.109375 5283.203125 5637.34375 C 5283.203125 5632.617188 5277.460938 5628.75 5270.351562 5628.75 C 5263.28125 5628.75 5257.5 5632.617188 5257.5 5637.34375 C 5257.5 5642.109375 5263.28125 5645.9375 5270.351562 5645.9375 Z M 5270.351562 5645.9375 " transform="matrix(0.1,0,0,-0.1,0,792)"/>
<path style=" stroke:none;fill-rule:evenodd;fill:rgb(13.730068%,12.159915%,12.54902%);fill-opacity:1;" d="M 544.175781 272.238281 C 544.886719 272.238281 545.460938 272.621094 545.460938 273.097656 C 545.460938 273.570312 544.886719 273.957031 544.175781 273.957031 C 543.46875 273.957031 542.890625 273.570312 542.890625 273.097656 C 542.890625 272.621094 543.46875 272.238281 544.175781 272.238281 "/>
<path style="fill:none;stroke-width:10.0006;stroke-linecap:butt;stroke-linejoin:miter;stroke:rgb(13.730068%,12.159915%,12.54902%);stroke-opacity:1;stroke-miterlimit:2.6131;" d="M 5441.757812 5197.617188 C 5448.867188 5197.617188 5454.609375 5193.789062 5454.609375 5189.023438 C 5454.609375 5184.296875 5448.867188 5180.429688 5441.757812 5180.429688 C 5434.6875 5180.429688 5428.90625 5184.296875 5428.90625 5189.023438 C 5428.90625 5193.789062 5434.6875 5197.617188 5441.757812 5197.617188 Z M 5441.757812 5197.617188 " transform="matrix(0.1,0,0,-0.1,0,792)"/>
</g>
</svg>
