<?xml version="1.0" encoding="UTF-8"?>
<svg xmlns="http://www.w3.org/2000/svg" xmlns:xlink="http://www.w3.org/1999/xlink" width="612pt" height="792pt" viewBox="0 0 612 792" version="1.1">
<g id="surface1">
<path style="fill:none;stroke-width:12.9997;stroke-linecap:butt;stroke-linejoin:miter;stroke:rgb(92.941176%,10.978866%,14.119173%);stroke-opacity:1;stroke-miterlimit:2.61313;" d="M 1881.367188 5644.414062 C 2001.601562 6030.507812 2119.726562 6030.507812 2235.703125 5644.414062 " transform="matrix(0.1,0,0,-0.1,0,792)"/>
<path style="fill:none;stroke-width:4.9975;stroke-linecap:butt;stroke-linejoin:miter;stroke:rgb(13.730068%,12.159915%,12.54902%);stroke-opacity:1;stroke-dasharray:9.995,14.9925;stroke-miterlimit:2.61313;" d="M 2058.554688 5718.125 C 2201.054688 5718.125 2316.601562 5597.1875 2316.601562 5448.085938 C 2316.601562 5298.945312 2201.054688 5178.007812 2058.554688 5178.007812 C 1916.054688 5178.007812 1800.46875 5298.945312 1800.46875 5448.085938 C 1800.46875 5597.1875 1916.054688 5718.125 2058.554688 5718.125 Z M 2058.554688 5718.125 " transform="matrix(0.1,0,0,-0.1,0,792)"/>
<path style="fill:none;stroke-width:4.9975;stroke-linecap:butt;stroke-linejoin:miter;stroke:rgb(13.730068%,12.159915%,12.54902%);stroke-opacity:1;stroke-miterlimit:2.61313;" d="M 1900.507812 5450.898438 L 2178.398438 5452.382812 " transform="matrix(0.1,0,0,-0.1,0,792)"/>
<path style=" stroke:none;fill-rule:evenodd;fill:rgb(13.730068%,12.159915%,12.54902%);fill-opacity:1;" d="M 217.410156 244.132812 L 222.214844 246.738281 L 217.441406 249.398438 L 217.410156 244.132812 "/>
<path style="fill:none;stroke-width:4.9975;stroke-linecap:butt;stroke-linejoin:miter;stroke:rgb(13.730068%,12.159915%,12.54902%);stroke-opacity:1;stroke-miterlimit:2.61313;" d="M 2058.75 5271.992188 L 2057.226562 5579.140625 " transform="matrix(0.1,0,0,-0.1,0,792)"/>
<path style=" stroke:none;fill-rule:evenodd;fill:rgb(13.730068%,12.159915%,12.54902%);fill-opacity:1;" d="M 203.089844 234.511719 L 205.703125 229.710938 L 208.359375 234.488281 L 203.089844 234.511719 "/>
<path style="fill:none;stroke-width:12.9997;stroke-linecap:butt;stroke-linejoin:miter;stroke:rgb(92.941176%,10.978866%,14.119173%);stroke-opacity:1;stroke-miterlimit:2.61313;" d="M 3348.4375 5644.414062 C 3716.992188 5879.84375 3648.515625 5023.476562 3171.25 5018.476562 C 2694.023438 5023.476562 2625.507812 5879.84375 2994.0625 5644.414062 " transform="matrix(0.1,0,0,-0.1,0,792)"/>
<path style="fill:none;stroke-width:4.9975;stroke-linecap:butt;stroke-linejoin:miter;stroke:rgb(13.730068%,12.159915%,12.54902%);stroke-opacity:1;stroke-dasharray:9.995,14.9925;stroke-miterlimit:2.61313;" d="M 3171.25 5718.125 C 3313.75 5718.125 3429.296875 5597.1875 3429.296875 5448.085938 C 3429.296875 5298.945312 3313.75 5178.007812 3171.25 5178.007812 C 3028.75 5178.007812 2913.203125 5298.945312 2913.203125 5448.085938 C 2913.203125 5597.1875 3028.75 5718.125 3171.25 5718.125 Z M 3171.25 5718.125 " transform="matrix(0.1,0,0,-0.1,0,792)"/>
<path style="fill:none;stroke-width:4.9975;stroke-linecap:butt;stroke-linejoin:miter;stroke:rgb(13.730068%,12.159915%,12.54902%);stroke-opacity:1;stroke-miterlimit:2.61313;" d="M 3013.203125 5450.898438 L 3291.132812 5452.382812 " transform="matrix(0.1,0,0,-0.1,0,792)"/>
<path style=" stroke:none;fill-rule:evenodd;fill:rgb(13.730068%,12.159915%,12.54902%);fill-opacity:1;" d="M 328.683594 244.132812 L 333.488281 246.738281 L 328.710938 249.398438 L 328.683594 244.132812 "/>
<path style="fill:none;stroke-width:4.9975;stroke-linecap:butt;stroke-linejoin:miter;stroke:rgb(13.730068%,12.159915%,12.54902%);stroke-opacity:1;stroke-miterlimit:2.61313;" d="M 3171.445312 5271.992188 L 3169.960938 5579.140625 " transform="matrix(0.1,0,0,-0.1,0,792)"/>
<path style=" stroke:none;fill-rule:evenodd;fill:rgb(13.730068%,12.159915%,12.54902%);fill-opacity:1;" d="M 314.363281 234.511719 L 316.972656 229.710938 L 319.632812 234.488281 L 314.363281 234.511719 "/>
</g>
</svg>
