<?xml version="1.0" encoding="UTF-8"?>
<svg xmlns="http://www.w3.org/2000/svg" xmlns:xlink="http://www.w3.org/1999/xlink" width="612pt" height="792pt" viewBox="0 0 612 792" version="1.1">
<g id="surface1">
<path style="fill:none;stroke-width:12.9997;stroke-linecap:butt;stroke-linejoin:miter;stroke:rgb(0%,65.099565%,31.369497%);stroke-opacity:1;stroke-miterlimit:2.61313;" d="M 1021.015625 6958.945312 L 1021.640625 6731.171875 " transform="matrix(0.1,0,0,-0.1,0,792)"/>
<path style="fill:none;stroke-width:12.9997;stroke-linecap:butt;stroke-linejoin:miter;stroke:rgb(0%,65.099565%,31.369497%);stroke-opacity:1;stroke-miterlimit:2.61313;" d="M 1327.8125 6414.804688 L 713.320312 6413.4375 " transform="matrix(0.1,0,0,-0.1,0,792)"/>
<path style="fill:none;stroke-width:12.9997;stroke-linecap:butt;stroke-linejoin:miter;stroke:rgb(0%,65.099565%,31.369497%);stroke-opacity:1;stroke-miterlimit:2.61313;" d="M 1020.546875 6722.617188 L 1327.8125 6414.804688 " transform="matrix(0.1,0,0,-0.1,0,792)"/>
<path style="fill:none;stroke-width:12.9997;stroke-linecap:butt;stroke-linejoin:miter;stroke:rgb(92.941176%,10.978866%,14.119173%);stroke-opacity:1;stroke-miterlimit:2.61313;" d="M 1020.585938 6722.65625 L 713.28125 6413.4375 " transform="matrix(0.1,0,0,-0.1,0,792)"/>
<path style=" stroke:none;fill-rule:evenodd;fill:rgb(13.730068%,12.159915%,12.54902%);fill-opacity:1;" d="M 71.332031 148.335938 C 72.609375 148.335938 73.652344 149.371094 73.652344 150.652344 C 73.652344 151.941406 72.609375 152.980469 71.332031 152.980469 C 70.050781 152.980469 69.007812 151.941406 69.007812 150.652344 C 69.007812 149.371094 70.050781 148.335938 71.332031 148.335938 "/>
<path style="fill:none;stroke-width:10.0006;stroke-linecap:butt;stroke-linejoin:miter;stroke:rgb(13.730068%,12.159915%,12.54902%);stroke-opacity:1;stroke-miterlimit:2.61313;" d="M 713.320312 6436.640625 C 726.09375 6436.640625 736.523438 6426.289062 736.523438 6413.476562 C 736.523438 6400.585938 726.09375 6390.195312 713.320312 6390.195312 C 700.507812 6390.195312 690.078125 6400.585938 690.078125 6413.476562 C 690.078125 6426.289062 700.507812 6436.640625 713.320312 6436.640625 Z M 713.320312 6436.640625 " transform="matrix(0.1,0,0,-0.1,0,792)"/>
<path style=" stroke:none;fill-rule:evenodd;fill:rgb(13.730068%,12.159915%,12.54902%);fill-opacity:1;" d="M 102.054688 117.410156 C 103.335938 117.410156 104.378906 118.457031 104.378906 119.738281 C 104.378906 121.019531 103.335938 122.0625 102.054688 122.0625 C 100.773438 122.0625 99.734375 121.019531 99.734375 119.738281 C 99.734375 118.457031 100.773438 117.410156 102.054688 117.410156 "/>
<path style="fill:none;stroke-width:10.0006;stroke-linecap:butt;stroke-linejoin:miter;stroke:rgb(13.730068%,12.159915%,12.54902%);stroke-opacity:1;stroke-miterlimit:2.61313;" d="M 1020.546875 6745.898438 C 1033.359375 6745.898438 1043.789062 6735.429688 1043.789062 6722.617188 C 1043.789062 6709.804688 1033.359375 6699.375 1020.546875 6699.375 C 1007.734375 6699.375 997.34375 6709.804688 997.34375 6722.617188 C 997.34375 6735.429688 1007.734375 6745.898438 1020.546875 6745.898438 Z M 1020.546875 6745.898438 " transform="matrix(0.1,0,0,-0.1,0,792)"/>
<path style=" stroke:none;fill-rule:evenodd;fill:rgb(13.730068%,12.159915%,12.54902%);fill-opacity:1;" d="M 132.777344 148.195312 C 134.0625 148.195312 135.105469 149.234375 135.105469 150.515625 C 135.105469 151.800781 134.0625 152.84375 132.777344 152.84375 C 131.5 152.84375 130.457031 151.800781 130.457031 150.515625 C 130.457031 149.234375 131.5 148.195312 132.777344 148.195312 "/>
<path style="fill:none;stroke-width:10.0006;stroke-linecap:butt;stroke-linejoin:miter;stroke:rgb(13.730068%,12.159915%,12.54902%);stroke-opacity:1;stroke-miterlimit:2.61313;" d="M 1327.773438 6438.046875 C 1340.625 6438.046875 1351.054688 6427.65625 1351.054688 6414.84375 C 1351.054688 6401.992188 1340.625 6391.5625 1327.773438 6391.5625 C 1315 6391.5625 1304.570312 6401.992188 1304.570312 6414.84375 C 1304.570312 6427.65625 1315 6438.046875 1327.773438 6438.046875 Z M 1327.773438 6438.046875 " transform="matrix(0.1,0,0,-0.1,0,792)"/>
<path style=" stroke:none;fill-rule:evenodd;fill:rgb(13.730068%,12.159915%,12.54902%);fill-opacity:1;" d="M 102.101562 93.777344 C 103.382812 93.777344 104.425781 94.824219 104.425781 96.105469 C 104.425781 97.386719 103.382812 98.425781 102.101562 98.425781 C 100.820312 98.425781 99.78125 97.386719 99.78125 96.105469 C 99.78125 94.824219 100.820312 93.777344 102.101562 93.777344 "/>
<path style="fill:none;stroke-width:10.0006;stroke-linecap:butt;stroke-linejoin:miter;stroke:rgb(13.730068%,12.159915%,12.54902%);stroke-opacity:1;stroke-miterlimit:2.61313;" d="M 1021.015625 6982.226562 C 1033.828125 6982.226562 1044.257812 6971.757812 1044.257812 6958.945312 C 1044.257812 6946.132812 1033.828125 6935.742188 1021.015625 6935.742188 C 1008.203125 6935.742188 997.8125 6946.132812 997.8125 6958.945312 C 997.8125 6971.757812 1008.203125 6982.226562 1021.015625 6982.226562 Z M 1021.015625 6982.226562 " transform="matrix(0.1,0,0,-0.1,0,792)"/>
<path style="fill:none;stroke-width:12.9997;stroke-linecap:butt;stroke-linejoin:miter;stroke:rgb(0%,65.099565%,31.369497%);stroke-opacity:1;stroke-miterlimit:2.61313;" d="M 1955.742188 6539.375 C 2120 6427.539062 2238.632812 6496.132812 2261.601562 6654.453125 " transform="matrix(0.1,0,0,-0.1,0,792)"/>
<path style="fill:none;stroke-width:12.9997;stroke-linecap:butt;stroke-linejoin:miter;stroke:rgb(0%,65.099565%,31.369497%);stroke-opacity:1;stroke-miterlimit:2.61313;" d="M 1864.726562 6693.90625 C 1579.882812 6683.632812 1988.867188 6367.734375 1704.023438 6357.460938 M 2261.601562 6654.453125 C 2241.210938 6718.046875 1939.335938 6550.78125 1864.726562 6693.90625 " transform="matrix(0.1,0,0,-0.1,0,792)"/>
<path style="fill:none;stroke-width:12.9997;stroke-linecap:butt;stroke-linejoin:miter;stroke:rgb(92.941176%,10.978866%,14.119173%);stroke-opacity:1;stroke-miterlimit:2.61313;" d="M 2261.640625 6654.453125 C 1967.578125 7188.710938 1520.859375 6749.492188 1704.023438 6357.460938 " transform="matrix(0.1,0,0,-0.1,0,792)"/>
<path style=" stroke:none;fill-rule:evenodd;fill:rgb(13.730068%,12.159915%,12.54902%);fill-opacity:1;" d="M 170.40625 153.933594 C 171.683594 153.933594 172.726562 154.96875 172.726562 156.253906 C 172.726562 157.539062 171.683594 158.578125 170.40625 158.578125 C 169.121094 158.578125 168.078125 157.539062 168.078125 156.253906 C 168.078125 154.96875 169.121094 153.933594 170.40625 153.933594 "/>
<path style="fill:none;stroke-width:10.0006;stroke-linecap:butt;stroke-linejoin:miter;stroke:rgb(13.730068%,12.159915%,12.54902%);stroke-opacity:1;stroke-miterlimit:2.61313;" d="M 1704.0625 6380.664062 C 1716.835938 6380.664062 1727.265625 6370.3125 1727.265625 6357.460938 C 1727.265625 6344.609375 1716.835938 6334.21875 1704.0625 6334.21875 C 1691.210938 6334.21875 1680.78125 6344.609375 1680.78125 6357.460938 C 1680.78125 6370.3125 1691.210938 6380.664062 1704.0625 6380.664062 Z M 1704.0625 6380.664062 " transform="matrix(0.1,0,0,-0.1,0,792)"/>
<path style=" stroke:none;fill-rule:evenodd;fill:rgb(13.730068%,12.159915%,12.54902%);fill-opacity:1;" d="M 226.160156 124.226562 C 227.441406 124.226562 228.484375 125.273438 228.484375 126.554688 C 228.484375 127.835938 227.441406 128.878906 226.160156 128.878906 C 224.882812 128.878906 223.839844 127.835938 223.839844 126.554688 C 223.839844 125.273438 224.882812 124.226562 226.160156 124.226562 "/>
<path style="fill:none;stroke-width:10.0006;stroke-linecap:butt;stroke-linejoin:miter;stroke:rgb(13.730068%,12.159915%,12.54902%);stroke-opacity:1;stroke-miterlimit:2.61313;" d="M 2261.601562 6677.734375 C 2274.414062 6677.734375 2284.84375 6667.265625 2284.84375 6654.453125 C 2284.84375 6641.640625 2274.414062 6631.210938 2261.601562 6631.210938 C 2248.828125 6631.210938 2238.398438 6641.640625 2238.398438 6654.453125 C 2238.398438 6667.265625 2248.828125 6677.734375 2261.601562 6677.734375 Z M 2261.601562 6677.734375 " transform="matrix(0.1,0,0,-0.1,0,792)"/>
<path style=" stroke:none;fill-rule:evenodd;fill:rgb(13.730068%,12.159915%,12.54902%);fill-opacity:1;" d="M 186.472656 120.285156 C 187.753906 120.285156 188.796875 121.324219 188.796875 122.609375 C 188.796875 123.890625 187.753906 124.933594 186.472656 124.933594 C 185.191406 124.933594 184.148438 123.890625 184.148438 122.609375 C 184.148438 121.324219 185.191406 120.285156 186.472656 120.285156 "/>
<path style="fill:none;stroke-width:10.0006;stroke-linecap:butt;stroke-linejoin:miter;stroke:rgb(13.730068%,12.159915%,12.54902%);stroke-opacity:1;stroke-miterlimit:2.61313;" d="M 1864.726562 6717.148438 C 1877.539062 6717.148438 1887.96875 6706.757812 1887.96875 6693.90625 C 1887.96875 6681.09375 1877.539062 6670.664062 1864.726562 6670.664062 C 1851.914062 6670.664062 1841.484375 6681.09375 1841.484375 6693.90625 C 1841.484375 6706.757812 1851.914062 6717.148438 1864.726562 6717.148438 Z M 1864.726562 6717.148438 " transform="matrix(0.1,0,0,-0.1,0,792)"/>
<path style=" stroke:none;fill-rule:evenodd;fill:rgb(13.730068%,12.159915%,12.54902%);fill-opacity:1;" d="M 195.570312 135.734375 C 196.851562 135.734375 197.898438 136.78125 197.898438 138.0625 C 197.898438 139.34375 196.851562 140.386719 195.570312 140.386719 C 194.292969 140.386719 193.253906 139.34375 193.253906 138.0625 C 193.253906 136.78125 194.292969 135.734375 195.570312 135.734375 "/>
<path style="fill:none;stroke-width:10.0006;stroke-linecap:butt;stroke-linejoin:miter;stroke:rgb(13.730068%,12.159915%,12.54902%);stroke-opacity:1;stroke-miterlimit:2.61313;" d="M 1955.703125 6562.65625 C 1968.515625 6562.65625 1978.984375 6552.1875 1978.984375 6539.375 C 1978.984375 6526.5625 1968.515625 6516.132812 1955.703125 6516.132812 C 1942.929688 6516.132812 1932.539062 6526.5625 1932.539062 6539.375 C 1932.539062 6552.1875 1942.929688 6562.65625 1955.703125 6562.65625 Z M 1955.703125 6562.65625 " transform="matrix(0.1,0,0,-0.1,0,792)"/>
<path style="fill:none;stroke-width:12.9997;stroke-linecap:butt;stroke-linejoin:miter;stroke:rgb(0%,65.099565%,31.369497%);stroke-opacity:1;stroke-miterlimit:2.61313;" d="M 2953.359375 6867.382812 C 2825.3125 6698.632812 2693.046875 6748.085938 2626.5625 6863.867188 " transform="matrix(0.1,0,0,-0.1,0,792)"/>
<path style="fill:none;stroke-width:12.9997;stroke-linecap:butt;stroke-linejoin:miter;stroke:rgb(0%,65.099565%,31.369497%);stroke-opacity:1;stroke-miterlimit:2.61313;" d="M 2986.015625 6691.054688 C 3257.1875 6603.28125 2980.9375 7040.039062 3252.109375 6952.226562 M 2626.5625 6863.867188 C 2646.640625 6459.960938 2993.984375 6417.578125 2986.015625 6691.054688 " transform="matrix(0.1,0,0,-0.1,0,792)"/>
<path style="fill:none;stroke-width:12.9997;stroke-linecap:butt;stroke-linejoin:miter;stroke:rgb(92.941176%,10.978866%,14.119173%);stroke-opacity:1;stroke-miterlimit:2.61313;" d="M 2626.5625 6863.867188 C 2532.65625 6044.882812 3257.734375 6452.34375 3252.109375 6952.226562 " transform="matrix(0.1,0,0,-0.1,0,792)"/>
<path style=" stroke:none;fill-rule:evenodd;fill:rgb(13.730068%,12.159915%,12.54902%);fill-opacity:1;" d="M 324.414062 98.960938 C 323.210938 98.519531 322.589844 97.1875 323.027344 95.980469 C 323.464844 94.777344 324.800781 94.152344 326.003906 94.59375 C 327.210938 95.03125 327.832031 96.363281 327.394531 97.570312 C 326.953125 98.777344 325.621094 99.398438 324.414062 98.960938 "/>
<path style="fill:none;stroke-width:10.0006;stroke-linecap:butt;stroke-linejoin:miter;stroke:rgb(13.730068%,12.159915%,12.54902%);stroke-opacity:1;stroke-miterlimit:2.61313;" d="M 3244.140625 6930.390625 C 3232.109375 6934.804688 3225.898438 6948.125 3230.273438 6960.195312 C 3234.648438 6972.226562 3248.007812 6978.476562 3260.039062 6974.0625 C 3272.109375 6969.6875 3278.320312 6956.367188 3273.945312 6944.296875 C 3269.53125 6932.226562 3256.210938 6926.015625 3244.140625 6930.390625 Z M 3244.140625 6930.390625 " transform="matrix(0.1,0,0,-0.1,0,792)"/>
<path style=" stroke:none;fill-rule:evenodd;fill:rgb(13.730068%,12.159915%,12.54902%);fill-opacity:1;" d="M 261.859375 107.796875 C 260.65625 107.359375 260.035156 106.023438 260.472656 104.820312 C 260.910156 103.613281 262.246094 102.992188 263.449219 103.429688 C 264.65625 103.871094 265.277344 105.203125 264.839844 106.410156 C 264.398438 107.613281 263.066406 108.234375 261.859375 107.796875 "/>
<path style="fill:none;stroke-width:10.0006;stroke-linecap:butt;stroke-linejoin:miter;stroke:rgb(13.730068%,12.159915%,12.54902%);stroke-opacity:1;stroke-miterlimit:2.61313;" d="M 2618.59375 6842.03125 C 2606.5625 6846.40625 2600.351562 6859.765625 2604.726562 6871.796875 C 2609.101562 6883.867188 2622.460938 6890.078125 2634.492188 6885.703125 C 2646.5625 6881.289062 2652.773438 6867.96875 2648.398438 6855.898438 C 2643.984375 6843.867188 2630.664062 6837.65625 2618.59375 6842.03125 Z M 2618.59375 6842.03125 " transform="matrix(0.1,0,0,-0.1,0,792)"/>
<path style=" stroke:none;fill-rule:evenodd;fill:rgb(13.730068%,12.159915%,12.54902%);fill-opacity:1;" d="M 297.808594 125.078125 C 296.601562 124.640625 295.980469 123.304688 296.417969 122.101562 C 296.855469 120.894531 298.191406 120.273438 299.394531 120.710938 C 300.601562 121.148438 301.222656 122.484375 300.785156 123.6875 C 300.347656 124.894531 299.011719 125.515625 297.808594 125.078125 "/>
<path style="fill:none;stroke-width:10.0006;stroke-linecap:butt;stroke-linejoin:miter;stroke:rgb(13.730068%,12.159915%,12.54902%);stroke-opacity:1;stroke-miterlimit:2.61313;" d="M 2978.085938 6669.21875 C 2966.015625 6673.59375 2959.804688 6686.953125 2964.179688 6698.984375 C 2968.554688 6711.054688 2981.914062 6717.265625 2993.945312 6712.890625 C 3006.015625 6708.515625 3012.226562 6695.15625 3007.851562 6683.125 C 3003.476562 6671.054688 2990.117188 6664.84375 2978.085938 6669.21875 Z M 2978.085938 6669.21875 " transform="matrix(0.1,0,0,-0.1,0,792)"/>
<path style=" stroke:none;fill-rule:evenodd;fill:rgb(13.730068%,12.159915%,12.54902%);fill-opacity:1;" d="M 294.539062 107.445312 C 293.335938 107.007812 292.714844 105.671875 293.152344 104.46875 C 293.59375 103.261719 294.925781 102.640625 296.132812 103.078125 C 297.335938 103.519531 297.957031 104.851562 297.519531 106.058594 C 297.082031 107.261719 295.746094 107.882812 294.539062 107.445312 "/>
<path style="fill:none;stroke-width:10.0006;stroke-linecap:butt;stroke-linejoin:miter;stroke:rgb(13.730068%,12.159915%,12.54902%);stroke-opacity:1;stroke-miterlimit:2.61313;" d="M 2945.390625 6845.546875 C 2933.359375 6849.921875 2927.148438 6863.28125 2931.523438 6875.3125 C 2935.9375 6887.382812 2949.257812 6893.59375 2961.328125 6889.21875 C 2973.359375 6884.804688 2979.570312 6871.484375 2975.195312 6859.414062 C 2970.820312 6847.382812 2957.460938 6841.171875 2945.390625 6845.546875 Z M 2945.390625 6845.546875 " transform="matrix(0.1,0,0,-0.1,0,792)"/>
<path style="fill:none;stroke-width:12.9997;stroke-linecap:butt;stroke-linejoin:miter;stroke:rgb(0%,65.099565%,31.369497%);stroke-opacity:1;stroke-miterlimit:2.61313;" d="M 3717.5 6317.617188 C 3483.4375 6596.40625 3617.773438 7155.742188 3821.054688 6861.40625 " transform="matrix(0.1,0,0,-0.1,0,792)"/>
<path style="fill:none;stroke-width:12.9997;stroke-linecap:butt;stroke-linejoin:miter;stroke:rgb(0%,65.099565%,31.369497%);stroke-opacity:1;stroke-miterlimit:2.61313;" d="M 3944.804688 7054.804688 C 4091.171875 6994.492188 4147.65625 6921.015625 4114.765625 6800.507812 C 4013.554688 6773.359375 3953.398438 6702.34375 3821.054688 6861.40625 " transform="matrix(0.1,0,0,-0.1,0,792)"/>
<path style="fill:none;stroke-width:12.9997;stroke-linecap:butt;stroke-linejoin:miter;stroke:rgb(92.941176%,10.978866%,14.119173%);stroke-opacity:1;stroke-miterlimit:2.61313;" d="M 3821.054688 6861.40625 C 3864.84375 6216.289062 4730.117188 7067.890625 3944.804688 7054.804688 " transform="matrix(0.1,0,0,-0.1,0,792)"/>
<path style=" stroke:none;fill-rule:evenodd;fill:rgb(13.730068%,12.159915%,12.54902%);fill-opacity:1;" d="M 393.683594 88.703125 C 392.480469 88.265625 391.855469 86.933594 392.296875 85.726562 C 392.734375 84.519531 394.066406 83.898438 395.273438 84.339844 C 396.480469 84.777344 397.101562 86.109375 396.660156 87.316406 C 396.222656 88.519531 394.890625 89.140625 393.683594 88.703125 "/>
<path style="fill:none;stroke-width:10.0006;stroke-linecap:butt;stroke-linejoin:miter;stroke:rgb(13.730068%,12.159915%,12.54902%);stroke-opacity:1;stroke-miterlimit:2.61313;" d="M 3936.835938 7032.96875 C 3924.804688 7037.34375 3918.554688 7050.664062 3922.96875 7062.734375 C 3927.34375 7074.804688 3940.664062 7081.015625 3952.734375 7076.601562 C 3964.804688 7072.226562 3971.015625 7058.90625 3966.601562 7046.835938 C 3962.226562 7034.804688 3948.90625 7028.59375 3936.835938 7032.96875 Z M 3936.835938 7032.96875 " transform="matrix(0.1,0,0,-0.1,0,792)"/>
<path style=" stroke:none;fill-rule:evenodd;fill:rgb(13.730068%,12.159915%,12.54902%);fill-opacity:1;" d="M 381.3125 108.039062 C 380.105469 107.601562 379.484375 106.269531 379.921875 105.0625 C 380.359375 103.859375 381.695312 103.238281 382.898438 103.675781 C 384.105469 104.113281 384.726562 105.445312 384.289062 106.652344 C 383.851562 107.859375 382.515625 108.480469 381.3125 108.039062 "/>
<path style="fill:none;stroke-width:10.0006;stroke-linecap:butt;stroke-linejoin:miter;stroke:rgb(13.730068%,12.159915%,12.54902%);stroke-opacity:1;stroke-miterlimit:2.61313;" d="M 3813.125 6839.609375 C 3801.054688 6843.984375 3794.84375 6857.304688 3799.21875 6869.375 C 3803.59375 6881.40625 3816.953125 6887.617188 3828.984375 6883.242188 C 3841.054688 6878.867188 3847.265625 6865.546875 3842.890625 6853.476562 C 3838.515625 6841.40625 3825.15625 6835.195312 3813.125 6839.609375 Z M 3813.125 6839.609375 " transform="matrix(0.1,0,0,-0.1,0,792)"/>
<path style=" stroke:none;fill-rule:evenodd;fill:rgb(13.730068%,12.159915%,12.54902%);fill-opacity:1;" d="M 410.679688 114.136719 C 409.476562 113.695312 408.855469 112.363281 409.292969 111.15625 C 409.730469 109.953125 411.066406 109.328125 412.269531 109.769531 C 413.476562 110.207031 414.097656 111.539062 413.660156 112.746094 C 413.21875 113.953125 411.886719 114.574219 410.679688 114.136719 "/>
<path style="fill:none;stroke-width:10.0006;stroke-linecap:butt;stroke-linejoin:miter;stroke:rgb(13.730068%,12.159915%,12.54902%);stroke-opacity:1;stroke-miterlimit:2.61313;" d="M 4106.796875 6778.632812 C 4094.765625 6783.046875 4088.554688 6796.367188 4092.929688 6808.4375 C 4097.304688 6820.46875 4110.664062 6826.71875 4122.695312 6822.304688 C 4134.765625 6817.929688 4140.976562 6804.609375 4136.601562 6792.539062 C 4132.1875 6780.46875 4118.867188 6774.257812 4106.796875 6778.632812 Z M 4106.796875 6778.632812 " transform="matrix(0.1,0,0,-0.1,0,792)"/>
<path style=" stroke:none;fill-rule:evenodd;fill:rgb(13.730068%,12.159915%,12.54902%);fill-opacity:1;" d="M 370.953125 162.421875 C 369.75 161.984375 369.128906 160.648438 369.566406 159.445312 C 370.003906 158.238281 371.339844 157.617188 372.542969 158.058594 C 373.75 158.496094 374.371094 159.828125 373.933594 161.035156 C 373.492188 162.238281 372.160156 162.859375 370.953125 162.421875 "/>
<path style="fill:none;stroke-width:10.0006;stroke-linecap:butt;stroke-linejoin:miter;stroke:rgb(13.730068%,12.159915%,12.54902%);stroke-opacity:1;stroke-miterlimit:2.61313;" d="M 3709.53125 6295.78125 C 3697.5 6300.15625 3691.289062 6313.515625 3695.664062 6325.546875 C 3700.039062 6337.617188 3713.398438 6343.828125 3725.429688 6339.414062 C 3737.5 6335.039062 3743.710938 6321.71875 3739.335938 6309.648438 C 3734.921875 6297.617188 3721.601562 6291.40625 3709.53125 6295.78125 Z M 3709.53125 6295.78125 " transform="matrix(0.1,0,0,-0.1,0,792)"/>
<path style="fill:none;stroke-width:12.9997;stroke-linecap:butt;stroke-linejoin:miter;stroke:rgb(0%,65.099565%,31.369497%);stroke-opacity:1;stroke-miterlimit:2.61313;" d="M 4614.570312 6813.710938 C 4916.71875 6593.671875 4734.570312 7086.953125 5168.125 6806.132812 " transform="matrix(0.1,0,0,-0.1,0,792)"/>
<path style="fill:none;stroke-width:12.9997;stroke-linecap:butt;stroke-linejoin:miter;stroke:rgb(0%,65.099565%,31.369497%);stroke-opacity:1;stroke-miterlimit:2.61313;" d="M 5380.039062 6717.851562 C 5190.039062 6768.554688 5127.460938 6700.195312 5159.101562 6506.328125 C 5114.84375 6601.289062 5034.453125 6648.164062 5168.125 6806.132812 " transform="matrix(0.1,0,0,-0.1,0,792)"/>
<path style="fill:none;stroke-width:12.9997;stroke-linecap:butt;stroke-linejoin:miter;stroke:rgb(92.941176%,10.978866%,14.119173%);stroke-opacity:1;stroke-miterlimit:2.61313;" d="M 5168.125 6806.132812 C 4547.109375 6660.234375 5553.242188 5979.6875 5380.039062 6717.851562 " transform="matrix(0.1,0,0,-0.1,0,792)"/>
<path style=" stroke:none;fill-rule:evenodd;fill:rgb(13.730068%,12.159915%,12.54902%);fill-opacity:1;" d="M 535.714844 119.808594 C 535.9375 118.546875 537.144531 117.703125 538.40625 117.925781 C 539.671875 118.148438 540.515625 119.355469 540.292969 120.617188 C 540.070312 121.878906 538.863281 122.722656 537.601562 122.503906 C 536.335938 122.277344 535.492188 121.074219 535.714844 119.808594 "/>
<path style="fill:none;stroke-width:10.0006;stroke-linecap:butt;stroke-linejoin:miter;stroke:rgb(13.730068%,12.159915%,12.54902%);stroke-opacity:1;stroke-miterlimit:2.61313;" d="M 5357.148438 6721.914062 C 5359.375 6734.53125 5371.445312 6742.96875 5384.0625 6740.742188 C 5396.71875 6738.515625 5405.15625 6726.445312 5402.929688 6713.828125 C 5400.703125 6701.210938 5388.632812 6692.773438 5376.015625 6694.960938 C 5363.359375 6697.226562 5354.921875 6709.257812 5357.148438 6721.914062 Z M 5357.148438 6721.914062 " transform="matrix(0.1,0,0,-0.1,0,792)"/>
<path style=" stroke:none;fill-rule:evenodd;fill:rgb(13.730068%,12.159915%,12.54902%);fill-opacity:1;" d="M 514.523438 110.980469 C 514.746094 109.71875 515.953125 108.875 517.214844 109.097656 C 518.480469 109.320312 519.320312 110.527344 519.097656 111.789062 C 518.875 113.054688 517.671875 113.894531 516.40625 113.675781 C 515.144531 113.453125 514.300781 112.246094 514.523438 110.980469 "/>
<path style="fill:none;stroke-width:10.0006;stroke-linecap:butt;stroke-linejoin:miter;stroke:rgb(13.730068%,12.159915%,12.54902%);stroke-opacity:1;stroke-miterlimit:2.61313;" d="M 5145.234375 6810.195312 C 5147.460938 6822.8125 5159.53125 6831.25 5172.148438 6829.023438 C 5184.804688 6826.796875 5193.203125 6814.726562 5190.976562 6802.109375 C 5188.75 6789.453125 5176.71875 6781.054688 5164.0625 6783.242188 C 5151.445312 6785.46875 5143.007812 6797.539062 5145.234375 6810.195312 Z M 5145.234375 6810.195312 " transform="matrix(0.1,0,0,-0.1,0,792)"/>
<path style=" stroke:none;fill-rule:evenodd;fill:rgb(13.730068%,12.159915%,12.54902%);fill-opacity:1;" d="M 513.621094 140.964844 C 513.84375 139.703125 515.050781 138.859375 516.3125 139.078125 C 517.578125 139.304688 518.421875 140.507812 518.199219 141.773438 C 517.976562 143.035156 516.769531 143.878906 515.507812 143.65625 C 514.242188 143.433594 513.398438 142.226562 513.621094 140.964844 "/>
<path style="fill:none;stroke-width:10.0006;stroke-linecap:butt;stroke-linejoin:miter;stroke:rgb(13.730068%,12.159915%,12.54902%);stroke-opacity:1;stroke-miterlimit:2.61313;" d="M 5136.210938 6510.351562 C 5138.4375 6522.96875 5150.507812 6531.40625 5163.125 6529.21875 C 5175.78125 6526.953125 5184.21875 6514.921875 5181.992188 6502.265625 C 5179.765625 6489.648438 5167.695312 6481.210938 5155.078125 6483.4375 C 5142.421875 6485.664062 5133.984375 6497.734375 5136.210938 6510.351562 Z M 5136.210938 6510.351562 " transform="matrix(0.1,0,0,-0.1,0,792)"/>
<path style=" stroke:none;fill-rule:evenodd;fill:rgb(13.730068%,12.159915%,12.54902%);fill-opacity:1;" d="M 459.171875 110.226562 C 459.394531 108.964844 460.597656 108.121094 461.859375 108.34375 C 463.125 108.566406 463.96875 109.769531 463.746094 111.035156 C 463.523438 112.296875 462.316406 113.140625 461.054688 112.917969 C 459.792969 112.695312 458.945312 111.488281 459.171875 110.226562 "/>
<path style="fill:none;stroke-width:10.0006;stroke-linecap:butt;stroke-linejoin:miter;stroke:rgb(13.730068%,12.159915%,12.54902%);stroke-opacity:1;stroke-miterlimit:2.61313;" d="M 4591.71875 6817.734375 C 4593.945312 6830.351562 4605.976562 6838.789062 4618.59375 6836.5625 C 4631.25 6834.335938 4639.6875 6822.304688 4637.460938 6809.648438 C 4635.234375 6797.03125 4623.164062 6788.59375 4610.546875 6790.820312 C 4597.929688 6793.046875 4589.453125 6805.117188 4591.71875 6817.734375 Z M 4591.71875 6817.734375 " transform="matrix(0.1,0,0,-0.1,0,792)"/>
</g>
</svg>
