<?xml version="1.0" encoding="UTF-8"?>
<svg xmlns="http://www.w3.org/2000/svg" xmlns:xlink="http://www.w3.org/1999/xlink" width="612pt" height="792pt" viewBox="0 0 612 792" version="1.1">
<g id="surface1">
<path style="fill:none;stroke-width:10.0011;stroke-linecap:butt;stroke-linejoin:miter;stroke:rgb(17.97055%,70.455482%,25.732815%);stroke-opacity:1;stroke-miterlimit:10;" d="M 2403.203125 6584.84375 L 2403.203125 6603.945312 C 2403.203125 6623.085938 2403.203125 6623.085938 2403.203125 6661.289062 C 2403.203125 6699.492188 2403.203125 6699.492188 2266.757812 6699.492188 C 2130.273438 6699.492188 2130.273438 6699.492188 2130.273438 6661.289062 C 2130.273438 6623.085938 2130.273438 6623.085938 2130.273438 6584.84375 C 2130.273438 6546.640625 2130.273438 6546.640625 2130.273438 6470.234375 C 2130.273438 6393.789062 2130.273438 6393.789062 2157.578125 6393.789062 C 2184.882812 6393.789062 2184.882812 6393.789062 2212.1875 6412.890625 L 2239.453125 6432.03125 " transform="matrix(0.1,0,0,-0.1,0,792)"/>
<path style="fill:none;stroke-width:10.0011;stroke-linecap:butt;stroke-linejoin:miter;stroke:rgb(17.97055%,70.455482%,25.732815%);stroke-opacity:1;stroke-miterlimit:10;" d="M 2294.0625 6546.640625 L 2321.328125 6546.640625 C 2348.632812 6546.640625 2348.632812 6546.640625 2375.9375 6565.742188 L 2403.203125 6584.84375 " transform="matrix(0.1,0,0,-0.1,0,792)"/>
<path style="fill:none;stroke-width:10.0011;stroke-linecap:butt;stroke-linejoin:miter;stroke:rgb(17.97055%,70.455482%,25.732815%);stroke-opacity:1;stroke-miterlimit:10;" d="M 2239.453125 6432.03125 L 2266.757812 6451.132812 C 2294.0625 6470.234375 2294.0625 6470.234375 2294.0625 6508.4375 L 2294.0625 6546.640625 " transform="matrix(0.1,0,0,-0.1,0,792)"/>
<path style="fill:none;stroke-width:10.0011;stroke-linecap:butt;stroke-linejoin:miter;stroke:rgb(17.97055%,70.455482%,25.732815%);stroke-opacity:1;stroke-miterlimit:10;" d="M 2239.453125 6432.03125 L 2239.453125 6412.890625 C 2239.453125 6393.789062 2239.453125 6393.789062 2239.453125 6355.585938 C 2239.453125 6317.382812 2239.453125 6317.382812 2375.9375 6317.382812 C 2512.382812 6317.382812 2512.382812 6317.382812 2512.382812 6355.585938 C 2512.382812 6393.789062 2512.382812 6393.789062 2512.382812 6508.4375 L 2512.382812 6623.085938 " transform="matrix(0.1,0,0,-0.1,0,792)"/>
<path style="fill:none;stroke-width:10.0011;stroke-linecap:butt;stroke-linejoin:miter;stroke:rgb(17.97055%,70.455482%,25.732815%);stroke-opacity:1;stroke-miterlimit:10;" d="M 2294.0625 6546.640625 L 2294.0625 6584.84375 C 2294.0625 6623.085938 2294.0625 6623.085938 2321.328125 6623.085938 C 2348.632812 6623.085938 2348.632812 6623.085938 2375.9375 6603.945312 L 2403.203125 6584.84375 " transform="matrix(0.1,0,0,-0.1,0,792)"/>
<path style="fill:none;stroke-width:10.0011;stroke-linecap:butt;stroke-linejoin:miter;stroke:rgb(17.97055%,70.455482%,25.732815%);stroke-opacity:1;stroke-miterlimit:10;" d="M 2239.453125 6432.03125 L 2266.757812 6412.890625 C 2294.0625 6393.789062 2294.0625 6393.789062 2375.9375 6393.789062 C 2457.8125 6393.789062 2457.8125 6393.789062 2457.8125 6470.234375 C 2457.8125 6546.640625 2457.8125 6546.640625 2430.507812 6565.742188 L 2403.203125 6584.84375 " transform="matrix(0.1,0,0,-0.1,0,792)"/>
<path style="fill:none;stroke-width:10.0011;stroke-linecap:butt;stroke-linejoin:miter;stroke:rgb(17.97055%,70.455482%,25.732815%);stroke-opacity:1;stroke-miterlimit:10;" d="M 2512.382812 6623.085938 L 2485.117188 6623.085938 C 2457.8125 6623.085938 2457.8125 6623.085938 2430.507812 6603.945312 L 2403.203125 6584.84375 " transform="matrix(0.1,0,0,-0.1,0,792)"/>
<path style="fill:none;stroke-width:10.0011;stroke-linecap:butt;stroke-linejoin:miter;stroke:rgb(17.97055%,70.455482%,25.732815%);stroke-opacity:1;stroke-miterlimit:10;" d="M 2294.0625 6546.640625 L 2239.453125 6546.640625 C 2184.882812 6546.640625 2184.882812 6546.640625 2184.882812 6508.4375 C 2184.882812 6470.234375 2184.882812 6470.234375 2212.1875 6451.132812 L 2239.453125 6432.03125 " transform="matrix(0.1,0,0,-0.1,0,792)"/>
<path style="fill:none;stroke-width:10.0011;stroke-linecap:butt;stroke-linejoin:miter;stroke:rgb(17.97055%,70.455482%,25.732815%);stroke-opacity:1;stroke-miterlimit:10;" d="M 2762.890625 6460.664062 L 2790.195312 6436.796875 C 2817.5 6412.890625 2817.5 6412.890625 2899.375 6412.890625 C 2981.25 6412.890625 2981.25 6412.890625 2981.25 6460.664062 C 2981.25 6508.4375 2981.25 6508.4375 2953.984375 6532.304688 L 2926.679688 6556.210938 " transform="matrix(0.1,0,0,-0.1,0,792)"/>
<path style="fill:none;stroke-width:10.0011;stroke-linecap:butt;stroke-linejoin:miter;stroke:rgb(17.97055%,70.455482%,25.732815%);stroke-opacity:1;stroke-miterlimit:10;" d="M 3035.859375 6603.945312 L 3008.554688 6603.945312 C 2981.25 6603.945312 2981.25 6603.945312 2953.984375 6580.078125 L 2926.679688 6556.210938 " transform="matrix(0.1,0,0,-0.1,0,792)"/>
<path style="fill:none;stroke-width:10.0011;stroke-linecap:butt;stroke-linejoin:miter;stroke:rgb(17.97055%,70.455482%,25.732815%);stroke-opacity:1;stroke-miterlimit:10;" d="M 2708.320312 6603.945312 L 2681.054688 6603.945312 C 2653.75 6603.945312 2653.75 6603.945312 2653.75 6508.4375 C 2653.75 6412.890625 2653.75 6412.890625 2681.054688 6412.890625 C 2708.320312 6412.890625 2708.320312 6412.890625 2735.625 6436.796875 L 2762.890625 6460.664062 " transform="matrix(0.1,0,0,-0.1,0,792)"/>
<path style="fill:none;stroke-width:10.0011;stroke-linecap:butt;stroke-linejoin:miter;stroke:rgb(17.97055%,70.455482%,25.732815%);stroke-opacity:1;stroke-miterlimit:10;" d="M 2762.890625 6460.664062 L 2790.195312 6484.53125 C 2817.5 6508.4375 2817.5 6508.4375 2844.804688 6508.4375 C 2872.109375 6508.4375 2872.109375 6508.4375 2899.375 6532.304688 L 2926.679688 6556.210938 " transform="matrix(0.1,0,0,-0.1,0,792)"/>
<path style="fill:none;stroke-width:10.0011;stroke-linecap:butt;stroke-linejoin:miter;stroke:rgb(17.97055%,70.455482%,25.732815%);stroke-opacity:1;stroke-miterlimit:10;" d="M 2762.890625 6460.664062 L 2762.890625 6436.796875 C 2762.890625 6412.890625 2762.890625 6412.890625 2762.890625 6365.15625 C 2762.890625 6317.382812 2762.890625 6317.382812 2899.375 6317.382812 C 3035.859375 6317.382812 3035.859375 6317.382812 3035.859375 6365.15625 C 3035.859375 6412.890625 3035.859375 6412.890625 3035.859375 6508.4375 L 3035.859375 6603.945312 " transform="matrix(0.1,0,0,-0.1,0,792)"/>
<path style="fill:none;stroke-width:10.0011;stroke-linecap:butt;stroke-linejoin:miter;stroke:rgb(17.97055%,70.455482%,25.732815%);stroke-opacity:1;stroke-miterlimit:10;" d="M 2708.320312 6603.945312 L 2790.195312 6603.945312 C 2872.109375 6603.945312 2872.109375 6603.945312 2899.375 6580.078125 L 2926.679688 6556.210938 " transform="matrix(0.1,0,0,-0.1,0,792)"/>
<path style="fill:none;stroke-width:10.0011;stroke-linecap:butt;stroke-linejoin:miter;stroke:rgb(17.97055%,70.455482%,25.732815%);stroke-opacity:1;stroke-miterlimit:10;" d="M 2762.890625 6460.664062 L 2735.625 6484.53125 C 2708.320312 6508.4375 2708.320312 6508.4375 2708.320312 6556.210938 L 2708.320312 6603.945312 " transform="matrix(0.1,0,0,-0.1,0,792)"/>
<path style="fill:none;stroke-width:10.0011;stroke-linecap:butt;stroke-linejoin:miter;stroke:rgb(17.97055%,70.455482%,25.732815%);stroke-opacity:1;stroke-miterlimit:10;" d="M 2926.679688 6556.210938 L 2926.679688 6580.078125 C 2926.679688 6603.945312 2926.679688 6603.945312 2926.679688 6651.71875 C 2926.679688 6699.492188 2926.679688 6699.492188 2817.5 6699.492188 C 2708.320312 6699.492188 2708.320312 6699.492188 2708.320312 6651.71875 L 2708.320312 6603.945312 " transform="matrix(0.1,0,0,-0.1,0,792)"/>
<path style="fill:none;stroke-width:10.0011;stroke-linecap:butt;stroke-linejoin:miter;stroke:rgb(17.97055%,70.455482%,25.732815%);stroke-opacity:1;stroke-miterlimit:10;" d="M 3511.054688 6567.539062 L 3511.054688 6631.210938 C 3511.054688 6694.882812 3511.054688 6694.882812 3383.671875 6694.882812 L 3256.328125 6694.882812 " transform="matrix(0.1,0,0,-0.1,0,792)"/>
<path style="fill:none;stroke-width:10.0011;stroke-linecap:butt;stroke-linejoin:miter;stroke:rgb(17.97055%,70.455482%,25.732815%);stroke-opacity:1;stroke-miterlimit:10;" d="M 3383.671875 6503.867188 L 3415.507812 6471.992188 C 3447.382812 6440.15625 3447.34375 6440.15625 3479.21875 6440.15625 C 3511.054688 6440.15625 3511.054688 6440.15625 3511.054688 6503.867188 L 3511.054688 6567.539062 " transform="matrix(0.1,0,0,-0.1,0,792)"/>
<path style="fill:none;stroke-width:10.0011;stroke-linecap:butt;stroke-linejoin:miter;stroke:rgb(17.97055%,70.455482%,25.732815%);stroke-opacity:1;stroke-miterlimit:10;" d="M 3383.671875 6503.867188 L 3383.671875 6471.992188 C 3383.671875 6440.15625 3383.671875 6440.15625 3383.671875 6376.484375 C 3383.671875 6312.8125 3383.671875 6312.8125 3479.21875 6312.8125 C 3574.726562 6312.8125 3574.726562 6312.8125 3574.726562 6376.484375 C 3574.726562 6440.15625 3574.726562 6440.15625 3574.726562 6503.867188 C 3574.726562 6567.539062 3574.726562 6567.539062 3542.890625 6567.539062 L 3511.054688 6567.539062 " transform="matrix(0.1,0,0,-0.1,0,792)"/>
<path style="fill:none;stroke-width:10.0011;stroke-linecap:butt;stroke-linejoin:miter;stroke:rgb(17.97055%,70.455482%,25.732815%);stroke-opacity:1;stroke-miterlimit:10;" d="M 3256.328125 6567.539062 L 3256.328125 6694.882812 " transform="matrix(0.1,0,0,-0.1,0,792)"/>
<path style="fill:none;stroke-width:10.0011;stroke-linecap:butt;stroke-linejoin:miter;stroke:rgb(17.97055%,70.455482%,25.732815%);stroke-opacity:1;stroke-miterlimit:10;" d="M 3383.671875 6503.867188 L 3415.507812 6535.703125 C 3447.382812 6567.539062 3447.34375 6567.539062 3479.21875 6567.539062 L 3511.054688 6567.539062 " transform="matrix(0.1,0,0,-0.1,0,792)"/>
<path style="fill:none;stroke-width:10.0011;stroke-linecap:butt;stroke-linejoin:miter;stroke:rgb(17.97055%,70.455482%,25.732815%);stroke-opacity:1;stroke-miterlimit:10;" d="M 3383.671875 6503.867188 L 3351.835938 6535.703125 C 3320 6567.539062 3320 6567.539062 3288.164062 6567.539062 L 3256.328125 6567.539062 " transform="matrix(0.1,0,0,-0.1,0,792)"/>
<path style="fill:none;stroke-width:10.0011;stroke-linecap:butt;stroke-linejoin:miter;stroke:rgb(17.97055%,70.455482%,25.732815%);stroke-opacity:1;stroke-miterlimit:10;" d="M 3256.328125 6567.539062 L 3256.328125 6503.867188 C 3256.328125 6440.15625 3256.328125 6440.15625 3288.164062 6440.15625 C 3320 6440.15625 3320 6440.15625 3351.835938 6471.992188 L 3383.671875 6503.867188 " transform="matrix(0.1,0,0,-0.1,0,792)"/>
<path style="fill:none;stroke-width:10.0011;stroke-linecap:butt;stroke-linejoin:miter;stroke:rgb(17.97055%,70.455482%,25.732815%);stroke-opacity:1;stroke-miterlimit:10;" d="M 3256.328125 6694.882812 L 3224.453125 6694.882812 C 3192.617188 6694.882812 3192.617188 6694.882812 3192.617188 6631.210938 C 3192.617188 6567.539062 3192.617188 6567.539062 3224.453125 6567.539062 L 3256.328125 6567.539062 " transform="matrix(0.1,0,0,-0.1,0,792)"/>
<path style=" stroke:none;fill-rule:evenodd;fill:rgb(13.730068%,12.159915%,12.54902%);fill-opacity:1;" d="M 241.328125 133.511719 C 241.328125 134.066406 240.878906 134.519531 240.324219 134.519531 C 239.769531 134.519531 239.316406 134.066406 239.316406 133.511719 C 239.316406 132.957031 239.769531 132.511719 240.324219 132.511719 C 240.878906 132.511719 241.328125 132.957031 241.328125 133.511719 "/>
<path style="fill:none;stroke-width:10.0006;stroke-linecap:butt;stroke-linejoin:miter;stroke:rgb(13.730068%,12.159915%,12.54902%);stroke-opacity:1;stroke-miterlimit:2.61313;" d="M 2413.28125 6584.882812 C 2413.28125 6579.335938 2408.789062 6574.804688 2403.242188 6574.804688 C 2397.695312 6574.804688 2393.164062 6579.335938 2393.164062 6584.882812 C 2393.164062 6590.429688 2397.695312 6594.882812 2403.242188 6594.882812 C 2408.789062 6594.882812 2413.28125 6590.429688 2413.28125 6584.882812 Z M 2413.28125 6584.882812 " transform="matrix(0.1,0,0,-0.1,0,792)"/>
<path style=" stroke:none;fill-rule:evenodd;fill:rgb(13.730068%,12.159915%,12.54902%);fill-opacity:1;" d="M 230.410156 137.335938 C 230.410156 137.890625 229.960938 138.339844 229.40625 138.339844 C 228.851562 138.339844 228.398438 137.890625 228.398438 137.335938 C 228.398438 136.78125 228.851562 136.328125 229.40625 136.328125 C 229.960938 136.328125 230.410156 136.78125 230.410156 137.335938 "/>
<path style="fill:none;stroke-width:10.0006;stroke-linecap:butt;stroke-linejoin:miter;stroke:rgb(13.730068%,12.159915%,12.54902%);stroke-opacity:1;stroke-miterlimit:2.61313;" d="M 2304.101562 6546.640625 C 2304.101562 6541.09375 2299.609375 6536.601562 2294.0625 6536.601562 C 2288.515625 6536.601562 2283.984375 6541.09375 2283.984375 6546.640625 C 2283.984375 6552.1875 2288.515625 6556.71875 2294.0625 6556.71875 C 2299.609375 6556.71875 2304.101562 6552.1875 2304.101562 6546.640625 Z M 2304.101562 6546.640625 " transform="matrix(0.1,0,0,-0.1,0,792)"/>
<path style=" stroke:none;fill-rule:evenodd;fill:rgb(13.730068%,12.159915%,12.54902%);fill-opacity:1;" d="M 252.242188 129.691406 C 252.242188 130.246094 251.796875 130.699219 251.242188 130.699219 C 250.6875 130.699219 250.234375 130.246094 250.234375 129.691406 C 250.234375 129.136719 250.6875 128.691406 251.242188 128.691406 C 251.796875 128.691406 252.242188 129.136719 252.242188 129.691406 "/>
<path style="fill:none;stroke-width:10.0006;stroke-linecap:butt;stroke-linejoin:miter;stroke:rgb(13.730068%,12.159915%,12.54902%);stroke-opacity:1;stroke-miterlimit:2.61313;" d="M 2522.421875 6623.085938 C 2522.421875 6617.539062 2517.96875 6613.007812 2512.421875 6613.007812 C 2506.875 6613.007812 2502.34375 6617.539062 2502.34375 6623.085938 C 2502.34375 6628.632812 2506.875 6633.085938 2512.421875 6633.085938 C 2517.96875 6633.085938 2522.421875 6628.632812 2522.421875 6623.085938 Z M 2522.421875 6623.085938 " transform="matrix(0.1,0,0,-0.1,0,792)"/>
<path style=" stroke:none;fill-rule:evenodd;fill:rgb(13.730068%,12.159915%,12.54902%);fill-opacity:1;" d="M 224.953125 148.800781 C 224.953125 149.355469 224.5 149.804688 223.945312 149.804688 C 223.390625 149.804688 222.941406 149.355469 222.941406 148.800781 C 222.941406 148.242188 223.390625 147.789062 223.945312 147.789062 C 224.5 147.789062 224.953125 148.242188 224.953125 148.800781 "/>
<path style="fill:none;stroke-width:10.0006;stroke-linecap:butt;stroke-linejoin:miter;stroke:rgb(13.730068%,12.159915%,12.54902%);stroke-opacity:1;stroke-miterlimit:2.61313;" d="M 2249.53125 6431.992188 C 2249.53125 6426.445312 2245 6421.953125 2239.453125 6421.953125 C 2233.90625 6421.953125 2229.414062 6426.445312 2229.414062 6431.992188 C 2229.414062 6437.578125 2233.90625 6442.109375 2239.453125 6442.109375 C 2245 6442.109375 2249.53125 6437.578125 2249.53125 6431.992188 Z M 2249.53125 6431.992188 " transform="matrix(0.1,0,0,-0.1,0,792)"/>
<path style=" stroke:none;fill-rule:evenodd;fill:rgb(13.730068%,12.159915%,12.54902%);fill-opacity:1;" d="M 304.589844 131.601562 C 304.589844 132.15625 304.140625 132.609375 303.582031 132.609375 C 303.027344 132.609375 302.582031 132.15625 302.582031 131.601562 C 302.582031 131.046875 303.027344 130.601562 303.582031 130.601562 C 304.140625 130.601562 304.589844 131.046875 304.589844 131.601562 "/>
<path style="fill:none;stroke-width:10.0006;stroke-linecap:butt;stroke-linejoin:miter;stroke:rgb(13.730068%,12.159915%,12.54902%);stroke-opacity:1;stroke-miterlimit:2.61313;" d="M 3045.898438 6603.984375 C 3045.898438 6598.4375 3041.40625 6593.90625 3035.820312 6593.90625 C 3030.273438 6593.90625 3025.820312 6598.4375 3025.820312 6603.984375 C 3025.820312 6609.53125 3030.273438 6613.984375 3035.820312 6613.984375 C 3041.40625 6613.984375 3045.898438 6609.53125 3045.898438 6603.984375 Z M 3045.898438 6603.984375 " transform="matrix(0.1,0,0,-0.1,0,792)"/>
<path style=" stroke:none;fill-rule:evenodd;fill:rgb(13.730068%,12.159915%,12.54902%);fill-opacity:1;" d="M 277.300781 145.929688 C 277.300781 146.484375 276.847656 146.9375 276.289062 146.9375 C 275.734375 146.9375 275.285156 146.484375 275.285156 145.929688 C 275.285156 145.375 275.734375 144.929688 276.289062 144.929688 C 276.847656 144.929688 277.300781 145.375 277.300781 145.929688 "/>
<path style="fill:none;stroke-width:10.0006;stroke-linecap:butt;stroke-linejoin:miter;stroke:rgb(13.730068%,12.159915%,12.54902%);stroke-opacity:1;stroke-miterlimit:2.61313;" d="M 2773.007812 6460.703125 C 2773.007812 6455.15625 2768.476562 6450.625 2762.890625 6450.625 C 2757.34375 6450.625 2752.851562 6455.15625 2752.851562 6460.703125 C 2752.851562 6466.25 2757.34375 6470.703125 2762.890625 6470.703125 C 2768.476562 6470.703125 2773.007812 6466.25 2773.007812 6460.703125 Z M 2773.007812 6460.703125 " transform="matrix(0.1,0,0,-0.1,0,792)"/>
<path style=" stroke:none;fill-rule:evenodd;fill:rgb(13.730068%,12.159915%,12.54902%);fill-opacity:1;" d="M 271.835938 131.601562 C 271.835938 132.15625 271.390625 132.609375 270.835938 132.609375 C 270.277344 132.609375 269.828125 132.15625 269.828125 131.601562 C 269.828125 131.046875 270.277344 130.601562 270.835938 130.601562 C 271.390625 130.601562 271.835938 131.046875 271.835938 131.601562 "/>
<path style="fill:none;stroke-width:10.0006;stroke-linecap:butt;stroke-linejoin:miter;stroke:rgb(13.730068%,12.159915%,12.54902%);stroke-opacity:1;stroke-miterlimit:2.61313;" d="M 2718.359375 6603.984375 C 2718.359375 6598.4375 2713.90625 6593.90625 2708.359375 6593.90625 C 2702.773438 6593.90625 2698.28125 6598.4375 2698.28125 6603.984375 C 2698.28125 6609.53125 2702.773438 6613.984375 2708.359375 6613.984375 C 2713.90625 6613.984375 2718.359375 6609.53125 2718.359375 6603.984375 Z M 2718.359375 6603.984375 " transform="matrix(0.1,0,0,-0.1,0,792)"/>
<path style=" stroke:none;fill-rule:evenodd;fill:rgb(13.730068%,12.159915%,12.54902%);fill-opacity:1;" d="M 293.671875 136.378906 C 293.671875 136.9375 293.222656 137.386719 292.664062 137.386719 C 292.109375 137.386719 291.664062 136.9375 291.664062 136.378906 C 291.664062 135.824219 292.109375 135.371094 292.664062 135.371094 C 293.222656 135.371094 293.671875 135.824219 293.671875 136.378906 "/>
<path style="fill:none;stroke-width:10.0006;stroke-linecap:butt;stroke-linejoin:miter;stroke:rgb(13.730068%,12.159915%,12.54902%);stroke-opacity:1;stroke-miterlimit:2.61313;" d="M 2936.71875 6556.210938 C 2936.71875 6550.625 2932.226562 6546.132812 2926.640625 6546.132812 C 2921.09375 6546.132812 2916.640625 6550.625 2916.640625 6556.210938 C 2916.640625 6561.757812 2921.09375 6566.289062 2926.640625 6566.289062 C 2932.226562 6566.289062 2936.71875 6561.757812 2936.71875 6556.210938 Z M 2936.71875 6556.210938 " transform="matrix(0.1,0,0,-0.1,0,792)"/>
<path style=" stroke:none;fill-rule:evenodd;fill:rgb(13.730068%,12.159915%,12.54902%);fill-opacity:1;" d="M 352.113281 135.246094 C 352.113281 135.800781 351.660156 136.25 351.105469 136.25 C 350.550781 136.25 350.097656 135.800781 350.097656 135.246094 C 350.097656 134.691406 350.550781 134.242188 351.105469 134.242188 C 351.660156 134.242188 352.113281 134.691406 352.113281 135.246094 "/>
<path style="fill:none;stroke-width:10.0006;stroke-linecap:butt;stroke-linejoin:miter;stroke:rgb(13.730068%,12.159915%,12.54902%);stroke-opacity:1;stroke-miterlimit:2.61313;" d="M 3521.132812 6567.539062 C 3521.132812 6561.992188 3516.601562 6557.5 3511.054688 6557.5 C 3505.507812 6557.5 3500.976562 6561.992188 3500.976562 6567.539062 C 3500.976562 6573.085938 3505.507812 6577.578125 3511.054688 6577.578125 C 3516.601562 6577.578125 3521.132812 6573.085938 3521.132812 6567.539062 Z M 3521.132812 6567.539062 " transform="matrix(0.1,0,0,-0.1,0,792)"/>
<path style=" stroke:none;fill-rule:evenodd;fill:rgb(13.730068%,12.159915%,12.54902%);fill-opacity:1;" d="M 326.636719 135.246094 C 326.636719 135.800781 326.1875 136.25 325.628906 136.25 C 325.074219 136.25 324.628906 135.800781 324.628906 135.246094 C 324.628906 134.691406 325.074219 134.242188 325.628906 134.242188 C 326.1875 134.242188 326.636719 134.691406 326.636719 135.246094 "/>
<path style="fill:none;stroke-width:10.0006;stroke-linecap:butt;stroke-linejoin:miter;stroke:rgb(13.730068%,12.159915%,12.54902%);stroke-opacity:1;stroke-miterlimit:2.61313;" d="M 3266.367188 6567.539062 C 3266.367188 6561.992188 3261.875 6557.5 3256.289062 6557.5 C 3250.742188 6557.5 3246.289062 6561.992188 3246.289062 6567.539062 C 3246.289062 6573.085938 3250.742188 6577.578125 3256.289062 6577.578125 C 3261.875 6577.578125 3266.367188 6573.085938 3266.367188 6567.539062 Z M 3266.367188 6567.539062 " transform="matrix(0.1,0,0,-0.1,0,792)"/>
<path style=" stroke:none;fill-rule:evenodd;fill:rgb(13.730068%,12.159915%,12.54902%);fill-opacity:1;" d="M 326.636719 122.507812 C 326.636719 123.0625 326.1875 123.515625 325.628906 123.515625 C 325.074219 123.515625 324.628906 123.0625 324.628906 122.507812 C 324.628906 121.953125 325.074219 121.503906 325.628906 121.503906 C 326.1875 121.503906 326.636719 121.953125 326.636719 122.507812 "/>
<path style="fill:none;stroke-width:10.0006;stroke-linecap:butt;stroke-linejoin:miter;stroke:rgb(13.730068%,12.159915%,12.54902%);stroke-opacity:1;stroke-miterlimit:2.61313;" d="M 3266.367188 6694.921875 C 3266.367188 6689.375 3261.875 6684.84375 3256.289062 6684.84375 C 3250.742188 6684.84375 3246.289062 6689.375 3246.289062 6694.921875 C 3246.289062 6700.46875 3250.742188 6704.960938 3256.289062 6704.960938 C 3261.875 6704.960938 3266.367188 6700.46875 3266.367188 6694.921875 Z M 3266.367188 6694.921875 " transform="matrix(0.1,0,0,-0.1,0,792)"/>
<path style=" stroke:none;fill-rule:evenodd;fill:rgb(13.730068%,12.159915%,12.54902%);fill-opacity:1;" d="M 339.371094 141.617188 C 339.371094 142.171875 338.925781 142.617188 338.371094 142.617188 C 337.8125 142.617188 337.363281 142.171875 337.363281 141.617188 C 337.363281 141.0625 337.8125 140.609375 338.371094 140.609375 C 338.925781 140.609375 339.371094 141.0625 339.371094 141.617188 "/>
<path style="fill:none;stroke-width:10.0006;stroke-linecap:butt;stroke-linejoin:miter;stroke:rgb(13.730068%,12.159915%,12.54902%);stroke-opacity:1;stroke-miterlimit:2.61313;" d="M 3393.710938 6503.828125 C 3393.710938 6498.28125 3389.257812 6493.828125 3383.710938 6493.828125 C 3378.125 6493.828125 3373.632812 6498.28125 3373.632812 6503.828125 C 3373.632812 6509.375 3378.125 6513.90625 3383.710938 6513.90625 C 3389.257812 6513.90625 3393.710938 6509.375 3393.710938 6503.828125 Z M 3393.710938 6503.828125 " transform="matrix(0.1,0,0,-0.1,0,792)"/>
<path style="fill:none;stroke-width:10.0011;stroke-linecap:butt;stroke-linejoin:miter;stroke:rgb(18.072786%,20.950637%,58.65568%);stroke-opacity:1;stroke-miterlimit:10;" d="M 2388.359375 6104.53125 L 2420.195312 6104.53125 C 2452.03125 6104.53125 2452.03125 6104.53125 2483.867188 6104.53125 C 2515.703125 6104.53125 2515.703125 6104.53125 2515.703125 6040.820312 C 2515.703125 5977.148438 2515.703125 5977.148438 2515.703125 5945.3125 C 2515.703125 5913.476562 2515.703125 5913.476562 2515.703125 5881.640625 C 2515.703125 5849.804688 2515.703125 5849.804688 2515.703125 5817.96875 C 2515.703125 5786.09375 2515.703125 5786.09375 2356.523438 5786.09375 C 2197.304688 5786.09375 2197.304688 5786.09375 2197.304688 5812.226562 L 2197.304688 5838.320312 " transform="matrix(0.1,0,0,-0.1,0,792)"/>
<path style="fill:none;stroke-width:10.0011;stroke-linecap:butt;stroke-linejoin:miter;stroke:rgb(18.072786%,20.950637%,58.65568%);stroke-opacity:1;stroke-miterlimit:10;" d="M 2324.648438 5913.476562 L 2356.523438 5913.476562 C 2388.359375 5913.476562 2388.359375 5913.476562 2388.359375 5939.609375 L 2388.359375 5965.703125 " transform="matrix(0.1,0,0,-0.1,0,792)"/>
<path style="fill:none;stroke-width:10.0011;stroke-linecap:butt;stroke-linejoin:miter;stroke:rgb(18.072786%,20.950637%,58.65568%);stroke-opacity:1;stroke-miterlimit:10;" d="M 2197.304688 5913.476562 L 2197.304688 5977.148438 C 2197.304688 6040.820312 2197.304688 6040.820312 2197.304688 6072.65625 C 2197.304688 6104.53125 2197.304688 6104.53125 2197.304688 6136.40625 C 2197.304688 6168.242188 2197.304688 6168.242188 2292.773438 6168.242188 C 2388.359375 6168.242188 2388.359375 6168.242188 2388.359375 6142.109375 L 2388.359375 6116.015625 " transform="matrix(0.1,0,0,-0.1,0,792)"/>
<path style="fill:none;stroke-width:10.0011;stroke-linecap:butt;stroke-linejoin:miter;stroke:rgb(18.072786%,20.950637%,58.65568%);stroke-opacity:1;stroke-miterlimit:10;" d="M 2324.648438 5977.148438 L 2324.648438 6029.375 " transform="matrix(0.1,0,0,-0.1,0,792)"/>
<path style="fill:none;stroke-width:10.0011;stroke-linecap:butt;stroke-linejoin:miter;stroke:rgb(18.072786%,20.950637%,58.65568%);stroke-opacity:1;stroke-miterlimit:10;" d="M 2324.648438 5977.148438 L 2324.648438 5924.921875 " transform="matrix(0.1,0,0,-0.1,0,792)"/>
<path style="fill:none;stroke-width:10.0011;stroke-linecap:butt;stroke-linejoin:miter;stroke:rgb(18.072786%,20.950637%,58.65568%);stroke-opacity:1;stroke-miterlimit:10;" d="M 2197.304688 5849.804688 L 2260.9375 5849.804688 C 2324.648438 5849.804688 2324.648438 5849.804688 2324.648438 5875.9375 L 2324.648438 5902.03125 " transform="matrix(0.1,0,0,-0.1,0,792)"/>
<path style="fill:none;stroke-width:10.0011;stroke-linecap:butt;stroke-linejoin:miter;stroke:rgb(18.072786%,20.950637%,58.65568%);stroke-opacity:1;stroke-miterlimit:10;" d="M 2197.304688 5849.804688 L 2165.429688 5849.804688 C 2133.632812 5849.804688 2133.632812 5849.804688 2133.632812 5881.640625 C 2133.632812 5913.476562 2133.632812 5913.476562 2159.726562 5913.476562 L 2185.859375 5913.476562 " transform="matrix(0.1,0,0,-0.1,0,792)"/>
<path style="fill:none;stroke-width:10.0011;stroke-linecap:butt;stroke-linejoin:miter;stroke:rgb(18.072786%,20.950637%,58.65568%);stroke-opacity:1;stroke-miterlimit:10;" d="M 2388.359375 6040.820312 L 2388.359375 6093.046875 " transform="matrix(0.1,0,0,-0.1,0,792)"/>
<path style="fill:none;stroke-width:10.0011;stroke-linecap:butt;stroke-linejoin:miter;stroke:rgb(70.975814%,6.652934%,54.811933%);stroke-opacity:1;stroke-miterlimit:10;" d="M 2324.648438 6040.820312 L 2376.875 6040.820312 " transform="matrix(0.1,0,0,-0.1,0,792)"/>
<path style="fill:none;stroke-width:10.0011;stroke-linecap:butt;stroke-linejoin:miter;stroke:rgb(70.975814%,6.652934%,54.811933%);stroke-opacity:1;stroke-miterlimit:10;" d="M 2388.359375 5977.148438 L 2336.132812 5977.148438 " transform="matrix(0.1,0,0,-0.1,0,792)"/>
<path style="fill:none;stroke-width:10.0011;stroke-linecap:butt;stroke-linejoin:miter;stroke:rgb(18.072786%,20.950637%,58.65568%);stroke-opacity:1;stroke-miterlimit:10;" d="M 2324.648438 5913.476562 L 2292.773438 5913.476562 C 2260.9375 5913.476562 2260.9375 5913.476562 2234.84375 5913.476562 L 2208.75 5913.476562 " transform="matrix(0.1,0,0,-0.1,0,792)"/>
<path style="fill:none;stroke-width:10.0011;stroke-linecap:butt;stroke-linejoin:miter;stroke:rgb(18.072786%,20.950637%,58.65568%);stroke-opacity:1;stroke-miterlimit:10;" d="M 2197.304688 5913.476562 L 2197.304688 5861.25 " transform="matrix(0.1,0,0,-0.1,0,792)"/>
<path style="fill:none;stroke-width:10.0011;stroke-linecap:butt;stroke-linejoin:miter;stroke:rgb(18.072786%,20.950637%,58.65568%);stroke-opacity:1;stroke-miterlimit:10;" d="M 2388.359375 6040.820312 L 2388.359375 5988.59375 " transform="matrix(0.1,0,0,-0.1,0,792)"/>
<path style="fill:none;stroke-width:10.0011;stroke-linecap:butt;stroke-linejoin:miter;stroke:rgb(70.975814%,6.652934%,54.811933%);stroke-opacity:1;stroke-miterlimit:10;" d="M 2324.648438 6040.820312 L 2292.773438 6040.820312 C 2260.9375 6040.820312 2260.9375 6040.820312 2260.9375 6008.984375 C 2260.9375 5977.148438 2260.9375 5977.148438 2287.070312 5977.148438 L 2313.203125 5977.148438 " transform="matrix(0.1,0,0,-0.1,0,792)"/>
<path style="fill:none;stroke-width:10.0011;stroke-linecap:butt;stroke-linejoin:miter;stroke:rgb(70.975814%,6.652934%,54.811933%);stroke-opacity:1;stroke-miterlimit:10;" d="M 2388.359375 5977.148438 L 2420.195312 5977.148438 C 2452.03125 5977.148438 2452.03125 5977.148438 2452.03125 6008.984375 C 2452.03125 6040.820312 2452.03125 6040.820312 2425.9375 6040.820312 L 2399.804688 6040.820312 " transform="matrix(0.1,0,0,-0.1,0,792)"/>
<path style="fill:none;stroke-width:10.0011;stroke-linecap:butt;stroke-linejoin:miter;stroke:rgb(18.072786%,20.950637%,58.65568%);stroke-opacity:1;stroke-miterlimit:10;" d="M 2388.359375 6104.53125 L 2356.523438 6104.53125 C 2324.648438 6104.53125 2324.648438 6104.53125 2324.648438 6078.4375 L 2324.648438 6052.304688 " transform="matrix(0.1,0,0,-0.1,0,792)"/>
<path style="fill:none;stroke-width:10.0011;stroke-linecap:butt;stroke-linejoin:miter;stroke:rgb(18.072786%,20.950637%,58.65568%);stroke-opacity:1;stroke-miterlimit:10;" d="M 2875.390625 6113.59375 L 2902.695312 6113.59375 C 2930 6113.59375 2930 6113.59375 2957.265625 6113.59375 C 2984.570312 6113.59375 2984.570312 6113.59375 3011.875 6113.59375 C 3039.179688 6113.59375 3039.179688 6113.59375 3039.179688 6004.453125 C 3039.179688 5895.273438 3039.179688 5895.273438 3039.179688 5867.96875 C 3039.179688 5840.703125 3039.179688 5840.703125 3039.179688 5813.4375 C 3039.179688 5786.09375 3039.179688 5786.09375 2875.390625 5786.09375 C 2711.640625 5786.09375 2711.640625 5786.09375 2711.640625 5807.695312 L 2711.640625 5829.257812 " transform="matrix(0.1,0,0,-0.1,0,792)"/>
<path style="fill:none;stroke-width:10.0011;stroke-linecap:butt;stroke-linejoin:miter;stroke:rgb(70.975814%,6.652934%,54.811933%);stroke-opacity:1;stroke-miterlimit:10;" d="M 2875.390625 6059.0625 L 2875.390625 6102.148438 " transform="matrix(0.1,0,0,-0.1,0,792)"/>
<path style="fill:none;stroke-width:10.0011;stroke-linecap:butt;stroke-linejoin:miter;stroke:rgb(18.072786%,20.950637%,58.65568%);stroke-opacity:1;stroke-miterlimit:10;" d="M 2875.390625 6004.453125 L 2848.125 6004.453125 C 2820.859375 6004.453125 2820.859375 6004.453125 2799.257812 6004.453125 L 2777.695312 6004.453125 " transform="matrix(0.1,0,0,-0.1,0,792)"/>
<path style="fill:none;stroke-width:10.0011;stroke-linecap:butt;stroke-linejoin:miter;stroke:rgb(70.975814%,6.652934%,54.811933%);stroke-opacity:1;stroke-miterlimit:10;" d="M 2875.390625 6059.0625 L 2875.390625 6015.9375 " transform="matrix(0.1,0,0,-0.1,0,792)"/>
<path style="fill:none;stroke-width:10.0011;stroke-linecap:butt;stroke-linejoin:miter;stroke:rgb(18.072786%,20.950637%,58.65568%);stroke-opacity:1;stroke-miterlimit:10;" d="M 2875.390625 6113.59375 L 2848.125 6113.59375 C 2820.859375 6113.59375 2820.859375 6113.59375 2820.859375 6086.328125 C 2820.859375 6059.0625 2820.859375 6059.0625 2842.382812 6059.0625 L 2863.945312 6059.0625 " transform="matrix(0.1,0,0,-0.1,0,792)"/>
<path style="fill:none;stroke-width:10.0011;stroke-linecap:butt;stroke-linejoin:miter;stroke:rgb(18.072786%,20.950637%,58.65568%);stroke-opacity:1;stroke-miterlimit:10;" d="M 2930 6004.453125 L 2930 6031.757812 C 2930 6059.0625 2930 6059.0625 2908.4375 6059.0625 L 2886.875 6059.0625 " transform="matrix(0.1,0,0,-0.1,0,792)"/>
<path style="fill:none;stroke-width:10.0011;stroke-linecap:butt;stroke-linejoin:miter;stroke:rgb(18.072786%,20.950637%,58.65568%);stroke-opacity:1;stroke-miterlimit:10;" d="M 2711.640625 5840.703125 L 2684.375 5840.703125 C 2657.03125 5840.703125 2657.03125 5840.703125 2657.03125 5867.96875 C 2657.03125 5895.273438 2657.03125 5895.273438 2678.59375 5895.273438 L 2700.195312 5895.273438 " transform="matrix(0.1,0,0,-0.1,0,792)"/>
<path style="fill:none;stroke-width:10.0011;stroke-linecap:butt;stroke-linejoin:miter;stroke:rgb(18.072786%,20.950637%,58.65568%);stroke-opacity:1;stroke-miterlimit:10;" d="M 2711.640625 5895.273438 L 2711.640625 5949.882812 C 2711.640625 6004.453125 2711.640625 6004.453125 2733.203125 6004.453125 L 2754.765625 6004.453125 " transform="matrix(0.1,0,0,-0.1,0,792)"/>
<path style="fill:none;stroke-width:10.0011;stroke-linecap:butt;stroke-linejoin:miter;stroke:rgb(18.072786%,20.950637%,58.65568%);stroke-opacity:1;stroke-miterlimit:10;" d="M 2930 5895.273438 L 2957.265625 5895.273438 C 2984.570312 5895.273438 2984.570312 5895.273438 2984.570312 5949.882812 C 2984.570312 6004.453125 2984.570312 6004.453125 2963.007812 6004.453125 L 2941.445312 6004.453125 " transform="matrix(0.1,0,0,-0.1,0,792)"/>
<path style="fill:none;stroke-width:10.0011;stroke-linecap:butt;stroke-linejoin:miter;stroke:rgb(18.072786%,20.950637%,58.65568%);stroke-opacity:1;stroke-miterlimit:10;" d="M 2875.390625 6004.453125 L 2918.515625 6004.453125 " transform="matrix(0.1,0,0,-0.1,0,792)"/>
<path style="fill:none;stroke-width:10.0011;stroke-linecap:butt;stroke-linejoin:miter;stroke:rgb(18.072786%,20.950637%,58.65568%);stroke-opacity:1;stroke-miterlimit:10;" d="M 2930 6004.453125 L 2930 5977.148438 C 2930 5949.882812 2930 5949.882812 2930 5928.320312 L 2930 5906.757812 " transform="matrix(0.1,0,0,-0.1,0,792)"/>
<path style="fill:none;stroke-width:10.0011;stroke-linecap:butt;stroke-linejoin:miter;stroke:rgb(70.975814%,6.652934%,54.811933%);stroke-opacity:1;stroke-miterlimit:10;" d="M 2766.210938 6004.453125 L 2766.210938 6059.0625 C 2766.210938 6113.59375 2766.210938 6113.59375 2766.210938 6140.9375 C 2766.210938 6168.242188 2766.210938 6168.242188 2820.859375 6168.242188 C 2875.390625 6168.242188 2875.390625 6168.242188 2875.390625 6146.679688 L 2875.390625 6125.078125 " transform="matrix(0.1,0,0,-0.1,0,792)"/>
<path style="fill:none;stroke-width:10.0011;stroke-linecap:butt;stroke-linejoin:miter;stroke:rgb(18.072786%,20.950637%,58.65568%);stroke-opacity:1;stroke-miterlimit:10;" d="M 2711.640625 5895.273438 L 2711.640625 5852.148438 " transform="matrix(0.1,0,0,-0.1,0,792)"/>
<path style="fill:none;stroke-width:10.0011;stroke-linecap:butt;stroke-linejoin:miter;stroke:rgb(70.975814%,6.652934%,54.811933%);stroke-opacity:1;stroke-miterlimit:10;" d="M 2766.210938 6004.453125 L 2766.210938 5977.148438 C 2766.210938 5949.882812 2766.210938 5949.882812 2820.859375 5949.882812 C 2875.390625 5949.882812 2875.390625 5949.882812 2875.390625 5971.445312 L 2875.390625 5992.96875 " transform="matrix(0.1,0,0,-0.1,0,792)"/>
<path style="fill:none;stroke-width:10.0011;stroke-linecap:butt;stroke-linejoin:miter;stroke:rgb(18.072786%,20.950637%,58.65568%);stroke-opacity:1;stroke-miterlimit:10;" d="M 2711.640625 5840.703125 L 2820.859375 5840.703125 C 2930 5840.703125 2930 5840.703125 2930 5862.265625 L 2930 5883.789062 " transform="matrix(0.1,0,0,-0.1,0,792)"/>
<path style="fill:none;stroke-width:10.0011;stroke-linecap:butt;stroke-linejoin:miter;stroke:rgb(18.072786%,20.950637%,58.65568%);stroke-opacity:1;stroke-miterlimit:10;" d="M 2930 5895.273438 L 2848.125 5895.273438 C 2766.210938 5895.273438 2766.210938 5895.273438 2744.648438 5895.273438 L 2723.085938 5895.273438 " transform="matrix(0.1,0,0,-0.1,0,792)"/>
<path style="fill:none;stroke-width:10.0011;stroke-linecap:butt;stroke-linejoin:miter;stroke:rgb(18.072786%,20.950637%,58.65568%);stroke-opacity:1;stroke-miterlimit:10;" d="M 3457.539062 6060.117188 L 3484.84375 6060.117188 C 3512.148438 6060.117188 3512.148438 6060.117188 3539.453125 6060.117188 C 3566.71875 6060.117188 3566.71875 6060.117188 3566.71875 5978.242188 C 3566.71875 5896.367188 3566.71875 5896.367188 3566.71875 5869.0625 C 3566.71875 5841.796875 3566.71875 5841.796875 3566.71875 5814.453125 C 3566.71875 5787.1875 3566.71875 5787.1875 3402.96875 5787.1875 C 3239.179688 5787.1875 3239.179688 5787.1875 3211.914062 5787.1875 C 3184.609375 5787.1875 3184.609375 5787.1875 3184.609375 5841.796875 C 3184.609375 5896.367188 3184.609375 5896.367188 3206.171875 5896.367188 L 3227.734375 5896.367188 " transform="matrix(0.1,0,0,-0.1,0,792)"/>
<path style="fill:none;stroke-width:10.0011;stroke-linecap:butt;stroke-linejoin:miter;stroke:rgb(70.975814%,6.652934%,54.811933%);stroke-opacity:1;stroke-miterlimit:10;" d="M 3402.96875 6060.117188 L 3402.96875 6103.242188 " transform="matrix(0.1,0,0,-0.1,0,792)"/>
<path style="fill:none;stroke-width:10.0011;stroke-linecap:butt;stroke-linejoin:miter;stroke:rgb(18.072786%,20.950637%,58.65568%);stroke-opacity:1;stroke-miterlimit:10;" d="M 3457.539062 5896.367188 L 3484.84375 5896.367188 C 3512.148438 5896.367188 3512.148438 5896.367188 3512.148438 5950.9375 C 3512.148438 6005.546875 3512.148438 6005.546875 3490.585938 6005.546875 L 3468.984375 6005.546875 " transform="matrix(0.1,0,0,-0.1,0,792)"/>
<path style="fill:none;stroke-width:10.0011;stroke-linecap:butt;stroke-linejoin:miter;stroke:rgb(70.975814%,6.652934%,54.811933%);stroke-opacity:1;stroke-miterlimit:10;" d="M 3293.789062 6005.546875 L 3293.789062 6060.117188 C 3293.789062 6114.726562 3293.789062 6114.726562 3293.789062 6141.992188 C 3293.789062 6169.257812 3293.789062 6169.257812 3348.359375 6169.257812 C 3402.96875 6169.257812 3402.96875 6169.257812 3402.96875 6147.695312 L 3402.96875 6126.171875 " transform="matrix(0.1,0,0,-0.1,0,792)"/>
<path style="fill:none;stroke-width:10.0011;stroke-linecap:butt;stroke-linejoin:miter;stroke:rgb(18.072786%,20.950637%,58.65568%);stroke-opacity:1;stroke-miterlimit:10;" d="M 3402.96875 6005.546875 L 3375.664062 6005.546875 C 3348.359375 6005.546875 3348.359375 6005.546875 3326.796875 6005.546875 L 3305.273438 6005.546875 " transform="matrix(0.1,0,0,-0.1,0,792)"/>
<path style="fill:none;stroke-width:10.0011;stroke-linecap:butt;stroke-linejoin:miter;stroke:rgb(18.072786%,20.950637%,58.65568%);stroke-opacity:1;stroke-miterlimit:10;" d="M 3402.96875 6005.546875 L 3446.09375 6005.546875 " transform="matrix(0.1,0,0,-0.1,0,792)"/>
<path style="fill:none;stroke-width:10.0011;stroke-linecap:butt;stroke-linejoin:miter;stroke:rgb(18.072786%,20.950637%,58.65568%);stroke-opacity:1;stroke-miterlimit:10;" d="M 3402.96875 6114.726562 L 3430.273438 6114.726562 C 3457.539062 6114.726562 3457.539062 6114.726562 3457.539062 6093.164062 L 3457.539062 6071.601562 " transform="matrix(0.1,0,0,-0.1,0,792)"/>
<path style="fill:none;stroke-width:10.0011;stroke-linecap:butt;stroke-linejoin:miter;stroke:rgb(70.975814%,6.652934%,54.811933%);stroke-opacity:1;stroke-miterlimit:10;" d="M 3293.789062 6005.546875 L 3293.789062 5978.242188 C 3293.789062 5950.9375 3293.789062 5950.9375 3348.359375 5950.9375 C 3402.96875 5950.9375 3402.96875 5950.9375 3402.96875 5972.539062 L 3402.96875 5994.0625 " transform="matrix(0.1,0,0,-0.1,0,792)"/>
<path style="fill:none;stroke-width:10.0011;stroke-linecap:butt;stroke-linejoin:miter;stroke:rgb(18.072786%,20.950637%,58.65568%);stroke-opacity:1;stroke-miterlimit:10;" d="M 3402.96875 6114.726562 L 3375.664062 6114.726562 C 3348.359375 6114.726562 3348.359375 6114.726562 3348.359375 6087.421875 C 3348.359375 6060.117188 3348.359375 6060.117188 3369.921875 6060.117188 L 3391.484375 6060.117188 " transform="matrix(0.1,0,0,-0.1,0,792)"/>
<path style="fill:none;stroke-width:10.0011;stroke-linecap:butt;stroke-linejoin:miter;stroke:rgb(70.975814%,6.652934%,54.811933%);stroke-opacity:1;stroke-miterlimit:10;" d="M 3402.96875 6060.117188 L 3402.96875 6016.992188 " transform="matrix(0.1,0,0,-0.1,0,792)"/>
<path style="fill:none;stroke-width:10.0011;stroke-linecap:butt;stroke-linejoin:miter;stroke:rgb(18.072786%,20.950637%,58.65568%);stroke-opacity:1;stroke-miterlimit:10;" d="M 3457.539062 6060.117188 L 3414.414062 6060.117188 " transform="matrix(0.1,0,0,-0.1,0,792)"/>
<path style="fill:none;stroke-width:10.0011;stroke-linecap:butt;stroke-linejoin:miter;stroke:rgb(18.072786%,20.950637%,58.65568%);stroke-opacity:1;stroke-miterlimit:10;" d="M 3239.179688 5896.367188 L 3239.179688 5950.9375 C 3239.179688 6005.546875 3239.179688 6005.546875 3260.742188 6005.546875 L 3282.34375 6005.546875 " transform="matrix(0.1,0,0,-0.1,0,792)"/>
<path style="fill:none;stroke-width:10.0011;stroke-linecap:butt;stroke-linejoin:miter;stroke:rgb(18.072786%,20.950637%,58.65568%);stroke-opacity:1;stroke-miterlimit:10;" d="M 3239.179688 5896.367188 L 3239.179688 5869.0625 C 3239.179688 5841.796875 3239.179688 5841.796875 3348.359375 5841.796875 C 3457.539062 5841.796875 3457.539062 5841.796875 3457.539062 5863.359375 L 3457.539062 5884.921875 " transform="matrix(0.1,0,0,-0.1,0,792)"/>
<path style="fill:none;stroke-width:10.0011;stroke-linecap:butt;stroke-linejoin:miter;stroke:rgb(18.072786%,20.950637%,58.65568%);stroke-opacity:1;stroke-miterlimit:10;" d="M 3457.539062 6005.546875 L 3457.539062 5978.242188 C 3457.539062 5950.9375 3457.539062 5950.9375 3457.539062 5929.375 L 3457.539062 5907.8125 " transform="matrix(0.1,0,0,-0.1,0,792)"/>
<path style="fill:none;stroke-width:10.0011;stroke-linecap:butt;stroke-linejoin:miter;stroke:rgb(18.072786%,20.950637%,58.65568%);stroke-opacity:1;stroke-miterlimit:10;" d="M 3457.539062 6005.546875 L 3457.539062 6048.632812 " transform="matrix(0.1,0,0,-0.1,0,792)"/>
<path style="fill:none;stroke-width:10.0011;stroke-linecap:butt;stroke-linejoin:miter;stroke:rgb(18.072786%,20.950637%,58.65568%);stroke-opacity:1;stroke-miterlimit:10;" d="M 3457.539062 5896.367188 L 3375.664062 5896.367188 C 3293.789062 5896.367188 3293.789062 5896.367188 3272.226562 5896.367188 L 3250.664062 5896.367188 " transform="matrix(0.1,0,0,-0.1,0,792)"/>
</g>
</svg>
