<?xml version="1.0" encoding="UTF-8"?>
<svg xmlns="http://www.w3.org/2000/svg" xmlns:xlink="http://www.w3.org/1999/xlink" width="612pt" height="792pt" viewBox="0 0 612 792" version="1.1">
<g id="surface1">
<path style="fill:none;stroke-width:10;stroke-linecap:butt;stroke-linejoin:miter;stroke:rgb(0%,100%,0%);stroke-opacity:1;stroke-miterlimit:10;" d="M 442.929688 435.117188 L 194.882812 187.070312 " transform="matrix(0.1,0,0,-0.1,0,792)"/>
<path style=" stroke:none;fill-rule:nonzero;fill:rgb(0%,0%,0%);fill-opacity:1;" d="M 44.292969 748.488281 L 45.992188 748.488281 C 45.992188 749.425781 45.230469 750.1875 44.292969 750.1875 C 43.351562 750.1875 42.589844 749.425781 42.589844 748.488281 C 42.589844 747.550781 43.351562 746.789062 44.292969 746.789062 C 45.230469 746.789062 45.992188 747.550781 45.992188 748.488281 "/>
<path style=" stroke:none;fill-rule:nonzero;fill:rgb(0%,0%,0%);fill-opacity:1;" d="M 19.488281 773.292969 L 21.1875 773.292969 C 21.1875 774.230469 20.425781 774.992188 19.488281 774.992188 C 18.550781 774.992188 17.789062 774.230469 17.789062 773.292969 C 17.789062 772.351562 18.550781 771.589844 19.488281 771.589844 C 20.425781 771.589844 21.1875 772.351562 21.1875 773.292969 "/>
<path style="fill:none;stroke-width:10;stroke-linecap:butt;stroke-linejoin:miter;stroke:rgb(0%,100%,0%);stroke-opacity:1;stroke-miterlimit:10;" d="M 956.679688 311.09375 C 993.007812 223.398438 1044.375 99.375 1044.375 99.375 " transform="matrix(0.1,0,0,-0.1,0,792)"/>
<path style="fill:none;stroke-width:10;stroke-linecap:butt;stroke-linejoin:miter;stroke:rgb(0%,100%,0%);stroke-opacity:1;stroke-miterlimit:10;" d="M 956.679688 311.09375 C 920.351562 398.789062 868.984375 522.8125 868.984375 522.8125 " transform="matrix(0.1,0,0,-0.1,0,792)"/>
<path style=" stroke:none;fill-rule:nonzero;fill:rgb(0%,0%,0%);fill-opacity:1;" d="M 95.667969 760.890625 L 97.371094 760.890625 C 97.371094 761.828125 96.609375 762.589844 95.667969 762.589844 C 94.730469 762.589844 93.96875 761.828125 93.96875 760.890625 C 93.96875 759.949219 94.730469 759.1875 95.667969 759.1875 C 96.609375 759.1875 97.371094 759.949219 97.371094 760.890625 "/>
<path style=" stroke:none;fill-rule:nonzero;fill:rgb(0%,0%,0%);fill-opacity:1;" d="M 104.4375 782.0625 L 106.140625 782.0625 C 106.140625 783 105.378906 783.761719 104.4375 783.761719 C 103.5 783.761719 102.738281 783 102.738281 782.0625 C 102.738281 781.121094 103.5 780.359375 104.4375 780.359375 C 105.378906 780.359375 106.140625 781.121094 106.140625 782.0625 "/>
<path style=" stroke:none;fill-rule:nonzero;fill:rgb(0%,0%,0%);fill-opacity:1;" d="M 86.898438 739.71875 L 88.601562 739.71875 C 88.601562 740.65625 87.839844 741.417969 86.898438 741.417969 C 85.960938 741.417969 85.199219 740.65625 85.199219 739.71875 C 85.199219 738.78125 85.960938 738.019531 86.898438 738.019531 C 87.839844 738.019531 88.601562 738.78125 88.601562 739.71875 "/>
<path style="fill:none;stroke-width:10;stroke-linecap:butt;stroke-linejoin:miter;stroke:rgb(0%,100%,0%);stroke-opacity:1;stroke-miterlimit:10;" d="M 1594.492188 311.09375 C 1718.515625 187.070312 1763.90625 141.679688 1763.90625 141.679688 " transform="matrix(0.1,0,0,-0.1,0,792)"/>
<path style="fill:none;stroke-width:10;stroke-linecap:butt;stroke-linejoin:miter;stroke:rgb(0%,100%,0%);stroke-opacity:1;stroke-miterlimit:10;" d="M 1594.492188 311.09375 C 1425.078125 265.703125 1363.085938 249.101562 1363.085938 249.101562 " transform="matrix(0.1,0,0,-0.1,0,792)"/>
<path style="fill:none;stroke-width:10;stroke-linecap:butt;stroke-linejoin:miter;stroke:rgb(0%,100%,0%);stroke-opacity:1;stroke-miterlimit:10;" d="M 1594.492188 311.09375 C 1639.882812 480.507812 1656.484375 542.539062 1656.484375 542.539062 " transform="matrix(0.1,0,0,-0.1,0,792)"/>
<path style=" stroke:none;fill-rule:nonzero;fill:rgb(0%,0%,0%);fill-opacity:1;" d="M 159.449219 760.890625 L 161.148438 760.890625 C 161.148438 761.828125 160.386719 762.589844 159.449219 762.589844 C 158.511719 762.589844 157.746094 761.828125 157.746094 760.890625 C 157.746094 759.949219 158.511719 759.1875 159.449219 759.1875 C 160.386719 759.1875 161.148438 759.949219 161.148438 760.890625 "/>
<path style=" stroke:none;fill-rule:nonzero;fill:rgb(0%,0%,0%);fill-opacity:1;" d="M 176.390625 777.832031 L 178.089844 777.832031 C 178.089844 778.769531 177.328125 779.53125 176.390625 779.53125 C 175.449219 779.53125 174.6875 778.769531 174.6875 777.832031 C 174.6875 776.890625 175.449219 776.128906 176.390625 776.128906 C 177.328125 776.128906 178.089844 776.890625 178.089844 777.832031 "/>
<path style=" stroke:none;fill-rule:nonzero;fill:rgb(0%,0%,0%);fill-opacity:1;" d="M 136.308594 767.089844 L 138.007812 767.089844 C 138.007812 768.03125 137.246094 768.792969 136.308594 768.792969 C 135.367188 768.792969 134.605469 768.03125 134.605469 767.089844 C 134.605469 766.152344 135.367188 765.390625 136.308594 765.390625 C 137.246094 765.390625 138.007812 766.152344 138.007812 767.089844 "/>
<path style=" stroke:none;fill-rule:nonzero;fill:rgb(0%,0%,0%);fill-opacity:1;" d="M 165.648438 737.746094 L 167.351562 737.746094 C 167.351562 738.6875 166.589844 739.449219 165.648438 739.449219 C 164.710938 739.449219 163.949219 738.6875 163.949219 737.746094 C 163.949219 736.808594 164.710938 736.046875 165.648438 736.046875 C 166.589844 736.046875 167.351562 736.808594 167.351562 737.746094 "/>
<path style="fill:none;stroke-width:10;stroke-linecap:butt;stroke-linejoin:miter;stroke:rgb(0%,100%,0%);stroke-opacity:1;stroke-miterlimit:10;" d="M 2378.4375 395.46875 C 2424.296875 316.09375 2335.898438 162.304688 2213.359375 190.46875 " transform="matrix(0.1,0,0,-0.1,0,792)"/>
<path style="fill:none;stroke-width:10;stroke-linecap:butt;stroke-linejoin:miter;stroke:rgb(100%,0%,0%);stroke-opacity:1;stroke-miterlimit:10;" d="M 2213.359375 190.46875 C 2112.65625 150.078125 2033.007812 288.007812 2118.359375 355.039062 " transform="matrix(0.1,0,0,-0.1,0,792)"/>
<path style="fill:none;stroke-width:10;stroke-linecap:butt;stroke-linejoin:miter;stroke:rgb(0%,100%,0%);stroke-opacity:1;stroke-miterlimit:10;" d="M 2118.359375 355.039062 C 2155.234375 475.234375 2332.617188 474.882812 2378.4375 395.46875 " transform="matrix(0.1,0,0,-0.1,0,792)"/>
<path style="fill:none;stroke-width:10;stroke-linecap:butt;stroke-linejoin:miter;stroke:rgb(100%,0%,0%);stroke-opacity:1;stroke-miterlimit:10;" d="M 2118.359375 355.039062 C 2166.757812 301.875 2191.523438 258.984375 2213.359375 190.46875 " transform="matrix(0.1,0,0,-0.1,0,792)"/>
<path style=" stroke:none;fill-rule:nonzero;fill:rgb(0%,0%,0%);fill-opacity:1;" d="M 237.84375 752.453125 L 239.546875 752.453125 C 239.546875 753.390625 238.785156 754.152344 237.84375 754.152344 C 236.90625 754.152344 236.144531 753.390625 236.144531 752.453125 C 236.144531 751.511719 236.90625 750.75 237.84375 750.75 C 238.785156 750.75 239.546875 751.511719 239.546875 752.453125 "/>
<path style=" stroke:none;fill-rule:nonzero;fill:rgb(0%,0%,0%);fill-opacity:1;" d="M 221.335938 772.953125 L 223.035156 772.953125 C 223.035156 773.894531 222.273438 774.65625 221.335938 774.65625 C 220.394531 774.65625 219.636719 773.894531 219.636719 772.953125 C 219.636719 772.015625 220.394531 771.253906 221.335938 771.253906 C 222.273438 771.253906 223.035156 772.015625 223.035156 772.953125 "/>
<path style=" stroke:none;fill-rule:nonzero;fill:rgb(0%,0%,0%);fill-opacity:1;" d="M 211.835938 756.496094 L 213.535156 756.496094 C 213.535156 757.433594 212.773438 758.199219 211.835938 758.199219 C 210.894531 758.199219 210.132812 757.433594 210.132812 756.496094 C 210.132812 755.558594 210.894531 754.796875 211.835938 754.796875 C 212.773438 754.796875 213.535156 755.558594 213.535156 756.496094 "/>
<path style="fill:none;stroke-width:10;stroke-linecap:butt;stroke-linejoin:miter;stroke:rgb(0%,100%,0%);stroke-opacity:1;stroke-miterlimit:10;" d="M 3051.171875 386.132812 C 3078.90625 319.21875 3022.460938 193.554688 2917.109375 197.578125 " transform="matrix(0.1,0,0,-0.1,0,792)"/>
<path style="fill:none;stroke-width:10;stroke-linecap:butt;stroke-linejoin:miter;stroke:rgb(0%,100%,0%);stroke-opacity:1;stroke-miterlimit:10;" d="M 2917.109375 197.578125 C 2845.429688 120.234375 2716.679688 169.179688 2688.945312 236.09375 " transform="matrix(0.1,0,0,-0.1,0,792)"/>
<path style="fill:none;stroke-width:10;stroke-linecap:butt;stroke-linejoin:miter;stroke:rgb(0%,100%,0%);stroke-opacity:1;stroke-miterlimit:10;" d="M 2688.945312 236.09375 C 2661.25 302.96875 2717.695312 428.632812 2823.046875 424.648438 " transform="matrix(0.1,0,0,-0.1,0,792)"/>
<path style="fill:none;stroke-width:10;stroke-linecap:butt;stroke-linejoin:miter;stroke:rgb(0%,100%,0%);stroke-opacity:1;stroke-miterlimit:10;" d="M 2823.046875 424.648438 C 2894.726562 501.953125 3023.476562 453.007812 3051.171875 386.132812 " transform="matrix(0.1,0,0,-0.1,0,792)"/>
<path style="fill:none;stroke-width:10;stroke-linecap:butt;stroke-linejoin:miter;stroke:rgb(100%,0%,0%);stroke-opacity:1;stroke-miterlimit:10;" d="M 2823.046875 424.648438 C 2856.71875 343.320312 2883.4375 278.867188 2917.109375 197.578125 " transform="matrix(0.1,0,0,-0.1,0,792)"/>
<path style=" stroke:none;fill-rule:nonzero;fill:rgb(0%,0%,0%);fill-opacity:1;" d="M 305.117188 753.386719 L 306.820312 753.386719 C 306.820312 754.328125 306.058594 755.089844 305.117188 755.089844 C 304.179688 755.089844 303.417969 754.328125 303.417969 753.386719 C 303.417969 752.449219 304.179688 751.6875 305.117188 751.6875 C 306.058594 751.6875 306.820312 752.449219 306.820312 753.386719 "/>
<path style=" stroke:none;fill-rule:nonzero;fill:rgb(0%,0%,0%);fill-opacity:1;" d="M 291.710938 772.242188 L 293.410156 772.242188 C 293.410156 773.183594 292.648438 773.945312 291.710938 773.945312 C 290.769531 773.945312 290.011719 773.183594 290.011719 772.242188 C 290.011719 771.304688 290.769531 770.542969 291.710938 770.542969 C 292.648438 770.542969 293.410156 771.304688 293.410156 772.242188 "/>
<path style=" stroke:none;fill-rule:nonzero;fill:rgb(0%,0%,0%);fill-opacity:1;" d="M 268.894531 768.390625 L 270.597656 768.390625 C 270.597656 769.332031 269.835938 770.09375 268.894531 770.09375 C 267.957031 770.09375 267.195312 769.332031 267.195312 768.390625 C 267.195312 767.453125 267.957031 766.691406 268.894531 766.691406 C 269.835938 766.691406 270.597656 767.453125 270.597656 768.390625 "/>
<path style=" stroke:none;fill-rule:nonzero;fill:rgb(0%,0%,0%);fill-opacity:1;" d="M 282.304688 749.535156 L 284.007812 749.535156 C 284.007812 750.476562 283.242188 751.238281 282.304688 751.238281 C 281.367188 751.238281 280.605469 750.476562 280.605469 749.535156 C 280.605469 748.597656 281.367188 747.835938 282.304688 747.835938 C 283.242188 747.835938 284.007812 748.597656 284.007812 749.535156 "/>
<path style="fill:none;stroke-width:10;stroke-linecap:butt;stroke-linejoin:miter;stroke:rgb(0%,100%,0%);stroke-opacity:1;stroke-miterlimit:10;" d="M 3692.109375 387.421875 C 3719.726562 320.820312 3666.015625 197.34375 3543.125 226.015625 " transform="matrix(0.1,0,0,-0.1,0,792)"/>
<path style="fill:none;stroke-width:10;stroke-linecap:butt;stroke-linejoin:miter;stroke:rgb(0%,100%,0%);stroke-opacity:1;stroke-miterlimit:10;" d="M 3543.125 226.015625 C 3476.484375 118.828125 3351.210938 168.203125 3323.632812 234.765625 " transform="matrix(0.1,0,0,-0.1,0,792)"/>
<path style="fill:none;stroke-width:10;stroke-linecap:butt;stroke-linejoin:miter;stroke:rgb(0%,100%,0%);stroke-opacity:1;stroke-miterlimit:10;" d="M 3323.632812 234.765625 C 3296.054688 301.367188 3349.726562 424.84375 3472.617188 396.171875 " transform="matrix(0.1,0,0,-0.1,0,792)"/>
<path style="fill:none;stroke-width:10;stroke-linecap:butt;stroke-linejoin:miter;stroke:rgb(0%,100%,0%);stroke-opacity:1;stroke-miterlimit:10;" d="M 3472.617188 396.171875 C 3539.257812 503.359375 3664.53125 454.023438 3692.109375 387.421875 " transform="matrix(0.1,0,0,-0.1,0,792)"/>
<path style="fill:none;stroke-width:10;stroke-linecap:butt;stroke-linejoin:miter;stroke:rgb(100%,0%,0%);stroke-opacity:1;stroke-miterlimit:10;" d="M 3472.617188 396.171875 C 3541.523438 345.117188 3555.703125 310.820312 3543.125 226.015625 " transform="matrix(0.1,0,0,-0.1,0,792)"/>
<path style="fill:none;stroke-width:10;stroke-linecap:butt;stroke-linejoin:miter;stroke:rgb(100%,0%,0%);stroke-opacity:1;stroke-miterlimit:10;" d="M 3472.617188 396.171875 C 3460.039062 311.367188 3474.21875 277.070312 3543.125 226.015625 " transform="matrix(0.1,0,0,-0.1,0,792)"/>
<path style=" stroke:none;fill-rule:nonzero;fill:rgb(0%,0%,0%);fill-opacity:1;" d="M 369.210938 753.257812 L 370.914062 753.257812 C 370.914062 754.195312 370.152344 754.960938 369.210938 754.960938 C 368.273438 754.960938 367.511719 754.195312 367.511719 753.257812 C 367.511719 752.320312 368.273438 751.558594 369.210938 751.558594 C 370.152344 751.558594 370.914062 752.320312 370.914062 753.257812 "/>
<path style=" stroke:none;fill-rule:nonzero;fill:rgb(0%,0%,0%);fill-opacity:1;" d="M 354.3125 769.398438 L 356.011719 769.398438 C 356.011719 770.335938 355.25 771.097656 354.3125 771.097656 C 353.371094 771.097656 352.609375 770.335938 352.609375 769.398438 C 352.609375 768.457031 353.371094 767.695312 354.3125 767.695312 C 355.25 767.695312 356.011719 768.457031 356.011719 769.398438 "/>
<path style=" stroke:none;fill-rule:nonzero;fill:rgb(0%,0%,0%);fill-opacity:1;" d="M 332.363281 768.523438 L 334.0625 768.523438 C 334.0625 769.460938 333.300781 770.222656 332.363281 770.222656 C 331.421875 770.222656 330.660156 769.460938 330.660156 768.523438 C 330.660156 767.582031 331.421875 766.820312 332.363281 766.820312 C 333.300781 766.820312 334.0625 767.582031 334.0625 768.523438 "/>
<path style=" stroke:none;fill-rule:nonzero;fill:rgb(0%,0%,0%);fill-opacity:1;" d="M 347.261719 752.382812 L 348.964844 752.382812 C 348.964844 753.320312 348.203125 754.082031 347.261719 754.082031 C 346.324219 754.082031 345.5625 753.320312 345.5625 752.382812 C 345.5625 751.441406 346.324219 750.679688 347.261719 750.679688 C 348.203125 750.679688 348.964844 751.441406 348.964844 752.382812 "/>
</g>
</svg>
