<?xml version="1.0" encoding="UTF-8"?>
<svg xmlns="http://www.w3.org/2000/svg" xmlns:xlink="http://www.w3.org/1999/xlink" width="612pt" height="792pt" viewBox="0 0 612 792" version="1.1">
<g id="surface1">
<path style="fill:none;stroke-width:262.858;stroke-linecap:butt;stroke-linejoin:miter;stroke:rgb(100%,100%,100%);stroke-opacity:1;stroke-miterlimit:10;" d="M 2922.382812 6192.695312 C 2811.484375 6226.992188 2701.914062 6251.210938 2582.617188 6267.8125 " transform="matrix(0.1,0,0,-0.1,0,792)"/>
<path style="fill:none;stroke-width:131.429;stroke-linecap:round;stroke-linejoin:miter;stroke:rgb(0%,0%,0%);stroke-opacity:1;stroke-miterlimit:10;" d="M 2922.382812 6192.695312 C 2811.484375 6226.992188 2701.914062 6251.210938 2582.617188 6267.8125 " transform="matrix(0.1,0,0,-0.1,0,792)"/>
<path style="fill:none;stroke-width:262.858;stroke-linecap:butt;stroke-linejoin:miter;stroke:rgb(100%,100%,100%);stroke-opacity:1;stroke-miterlimit:10;" d="M 2593.90625 6266.210938 C 2474.609375 6282.8125 2360.507812 6289.101562 2240.390625 6285.78125 " transform="matrix(0.1,0,0,-0.1,0,792)"/>
<path style="fill:none;stroke-width:131.429;stroke-linecap:round;stroke-linejoin:miter;stroke:rgb(0%,0%,0%);stroke-opacity:1;stroke-miterlimit:10;" d="M 2593.90625 6266.210938 C 2474.609375 6282.8125 2360.507812 6289.101562 2240.390625 6285.78125 " transform="matrix(0.1,0,0,-0.1,0,792)"/>
<path style="fill:none;stroke-width:262.858;stroke-linecap:butt;stroke-linejoin:miter;stroke:rgb(100%,100%,100%);stroke-opacity:1;stroke-miterlimit:10;" d="M 2251.796875 6286.09375 C 2131.71875 6282.8125 2020 6270.195312 1905.585938 6247.109375 " transform="matrix(0.1,0,0,-0.1,0,792)"/>
<path style="fill:none;stroke-width:131.429;stroke-linecap:round;stroke-linejoin:miter;stroke:rgb(0%,0%,0%);stroke-opacity:1;stroke-miterlimit:10;" d="M 2251.796875 6286.09375 C 2131.71875 6282.8125 2020 6270.195312 1905.585938 6247.109375 " transform="matrix(0.1,0,0,-0.1,0,792)"/>
<path style="fill:none;stroke-width:262.858;stroke-linecap:butt;stroke-linejoin:miter;stroke:rgb(100%,100%,100%);stroke-opacity:1;stroke-miterlimit:10;" d="M 3215.507812 6075 C 3120.585938 6122.695312 3022.617188 6161.71875 2911.796875 6196.015625 " transform="matrix(0.1,0,0,-0.1,0,792)"/>
<path style="fill:none;stroke-width:131.429;stroke-linecap:round;stroke-linejoin:miter;stroke:rgb(0%,0%,0%);stroke-opacity:1;stroke-miterlimit:10;" d="M 3215.507812 6075 C 3120.585938 6122.695312 3022.617188 6161.71875 2911.796875 6196.015625 " transform="matrix(0.1,0,0,-0.1,0,792)"/>
<path style="fill:none;stroke-width:262.858;stroke-linecap:butt;stroke-linejoin:miter;stroke:rgb(100%,100%,100%);stroke-opacity:1;stroke-miterlimit:10;" d="M 1916.484375 6249.296875 C 1802.1875 6226.210938 1698.085938 6195.585938 1593.984375 6154.609375 " transform="matrix(0.1,0,0,-0.1,0,792)"/>
<path style="fill:none;stroke-width:131.429;stroke-linecap:round;stroke-linejoin:miter;stroke:rgb(0%,0%,0%);stroke-opacity:1;stroke-miterlimit:10;" d="M 1916.484375 6249.296875 C 1802.1875 6226.210938 1698.085938 6195.585938 1593.984375 6154.609375 " transform="matrix(0.1,0,0,-0.1,0,792)"/>
<path style="fill:none;stroke-width:262.858;stroke-linecap:butt;stroke-linejoin:miter;stroke:rgb(100%,100%,100%);stroke-opacity:1;stroke-miterlimit:10;" d="M 3455.117188 5926.484375 C 3381.484375 5982.5 3301.289062 6031.796875 3206.40625 6079.492188 " transform="matrix(0.1,0,0,-0.1,0,792)"/>
<path style="fill:none;stroke-width:131.429;stroke-linecap:round;stroke-linejoin:miter;stroke:rgb(0%,0%,0%);stroke-opacity:1;stroke-miterlimit:10;" d="M 3455.117188 5926.484375 C 3381.484375 5982.5 3301.289062 6031.796875 3206.40625 6079.492188 " transform="matrix(0.1,0,0,-0.1,0,792)"/>
<path style="fill:none;stroke-width:262.858;stroke-linecap:butt;stroke-linejoin:miter;stroke:rgb(100%,100%,100%);stroke-opacity:1;stroke-miterlimit:10;" d="M 1603.90625 6158.515625 C 1499.6875 6117.382812 1406.601562 6071.09375 1315.117188 6014.804688 " transform="matrix(0.1,0,0,-0.1,0,792)"/>
<path style="fill:none;stroke-width:131.429;stroke-linecap:round;stroke-linejoin:miter;stroke:rgb(0%,0%,0%);stroke-opacity:1;stroke-miterlimit:10;" d="M 1603.90625 6158.515625 C 1499.6875 6117.382812 1406.601562 6071.09375 1315.117188 6014.804688 " transform="matrix(0.1,0,0,-0.1,0,792)"/>
<path style="fill:none;stroke-width:262.858;stroke-linecap:butt;stroke-linejoin:miter;stroke:rgb(100%,100%,100%);stroke-opacity:1;stroke-miterlimit:10;" d="M 3632.109375 5758.984375 C 3581.09375 5820.117188 3521.71875 5875.78125 3448.085938 5931.796875 " transform="matrix(0.1,0,0,-0.1,0,792)"/>
<path style="fill:none;stroke-width:131.429;stroke-linecap:round;stroke-linejoin:miter;stroke:rgb(0%,0%,0%);stroke-opacity:1;stroke-miterlimit:10;" d="M 3632.109375 5758.984375 C 3581.09375 5820.117188 3521.71875 5875.78125 3448.085938 5931.796875 " transform="matrix(0.1,0,0,-0.1,0,792)"/>
<path style="fill:none;stroke-width:262.858;stroke-linecap:butt;stroke-linejoin:miter;stroke:rgb(100%,100%,100%);stroke-opacity:1;stroke-miterlimit:10;" d="M 1323.789062 6020.195312 C 1232.304688 5963.984375 1151.601562 5904.609375 1073.59375 5836.210938 " transform="matrix(0.1,0,0,-0.1,0,792)"/>
<path style="fill:none;stroke-width:131.429;stroke-linecap:round;stroke-linejoin:miter;stroke:rgb(0%,0%,0%);stroke-opacity:1;stroke-miterlimit:10;" d="M 1323.789062 6020.195312 C 1232.304688 5963.984375 1151.601562 5904.609375 1073.59375 5836.210938 " transform="matrix(0.1,0,0,-0.1,0,792)"/>
<path style="fill:none;stroke-width:262.858;stroke-linecap:butt;stroke-linejoin:miter;stroke:rgb(100%,100%,100%);stroke-opacity:1;stroke-miterlimit:10;" d="M 1304.101562 2705.898438 C 1284.101562 2822.695312 1274.21875 2935.195312 1273.28125 3054.804688 " transform="matrix(0.1,0,0,-0.1,0,792)"/>
<path style="fill:none;stroke-width:131.429;stroke-linecap:round;stroke-linejoin:miter;stroke:rgb(0%,0%,0%);stroke-opacity:1;stroke-miterlimit:10;" d="M 1304.101562 2705.898438 C 1284.101562 2822.695312 1274.21875 2935.195312 1273.28125 3054.804688 " transform="matrix(0.1,0,0,-0.1,0,792)"/>
<path style="fill:none;stroke-width:262.858;stroke-linecap:butt;stroke-linejoin:miter;stroke:rgb(100%,100%,100%);stroke-opacity:1;stroke-miterlimit:10;" d="M 1390.117188 2386.09375 C 1350.507812 2493.515625 1322.1875 2600.195312 1302.1875 2716.992188 " transform="matrix(0.1,0,0,-0.1,0,792)"/>
<path style="fill:none;stroke-width:131.429;stroke-linecap:round;stroke-linejoin:miter;stroke:rgb(0%,0%,0%);stroke-opacity:1;stroke-miterlimit:10;" d="M 1390.117188 2386.09375 C 1350.507812 2493.515625 1322.1875 2600.195312 1302.1875 2716.992188 " transform="matrix(0.1,0,0,-0.1,0,792)"/>
<path style="fill:none;stroke-width:262.858;stroke-linecap:butt;stroke-linejoin:miter;stroke:rgb(100%,100%,100%);stroke-opacity:1;stroke-miterlimit:10;" d="M 5584.6875 4378.398438 C 5562.5 4259.492188 5529.6875 4149.414062 5483.007812 4037.109375 " transform="matrix(0.1,0,0,-0.1,0,792)"/>
<path style="fill:none;stroke-width:131.429;stroke-linecap:round;stroke-linejoin:miter;stroke:rgb(0%,0%,0%);stroke-opacity:1;stroke-miterlimit:10;" d="M 5584.6875 4378.398438 C 5562.5 4259.492188 5529.6875 4149.414062 5483.007812 4037.109375 " transform="matrix(0.1,0,0,-0.1,0,792)"/>
<path style="fill:none;stroke-width:262.858;stroke-linecap:butt;stroke-linejoin:miter;stroke:rgb(100%,100%,100%);stroke-opacity:1;stroke-miterlimit:10;" d="M 5611.796875 4717.695312 C 5614.21875 4599.101562 5604.804688 4486.015625 5582.617188 4367.109375 " transform="matrix(0.1,0,0,-0.1,0,792)"/>
<path style="fill:none;stroke-width:131.429;stroke-linecap:round;stroke-linejoin:miter;stroke:rgb(0%,0%,0%);stroke-opacity:1;stroke-miterlimit:10;" d="M 5611.796875 4717.695312 C 5614.21875 4599.101562 5604.804688 4486.015625 5582.617188 4367.109375 " transform="matrix(0.1,0,0,-0.1,0,792)"/>
<path style="fill:none;stroke-width:262.858;stroke-linecap:butt;stroke-linejoin:miter;stroke:rgb(100%,100%,100%);stroke-opacity:1;stroke-miterlimit:10;" d="M 1273.28125 3043.398438 C 1272.382812 3162.890625 1279.492188 3274.609375 1295.390625 3389.492188 " transform="matrix(0.1,0,0,-0.1,0,792)"/>
<path style="fill:none;stroke-width:131.429;stroke-linecap:round;stroke-linejoin:miter;stroke:rgb(0%,0%,0%);stroke-opacity:1;stroke-miterlimit:10;" d="M 1273.28125 3043.398438 C 1272.382812 3162.890625 1279.492188 3274.609375 1295.390625 3389.492188 " transform="matrix(0.1,0,0,-0.1,0,792)"/>
<path style="fill:none;stroke-width:262.858;stroke-linecap:butt;stroke-linejoin:miter;stroke:rgb(100%,100%,100%);stroke-opacity:1;stroke-miterlimit:10;" d="M 2383.398438 4611.601562 C 2357.890625 4734.6875 2342.8125 4852.5 2336.40625 4976.992188 " transform="matrix(0.1,0,0,-0.1,0,792)"/>
<path style="fill:none;stroke-width:131.429;stroke-linecap:round;stroke-linejoin:miter;stroke:rgb(0%,0%,0%);stroke-opacity:1;stroke-miterlimit:10;" d="M 2383.398438 4611.601562 C 2357.890625 4734.6875 2342.8125 4852.5 2336.40625 4976.992188 " transform="matrix(0.1,0,0,-0.1,0,792)"/>
<path style="fill:none;stroke-width:262.858;stroke-linecap:butt;stroke-linejoin:miter;stroke:rgb(100%,100%,100%);stroke-opacity:1;stroke-miterlimit:10;" d="M 2470.117188 4293.789062 C 2435.3125 4393.90625 2406.484375 4500.195312 2381.015625 4623.28125 " transform="matrix(0.1,0,0,-0.1,0,792)"/>
<path style="fill:none;stroke-width:131.429;stroke-linecap:round;stroke-linejoin:miter;stroke:rgb(0%,0%,0%);stroke-opacity:1;stroke-miterlimit:10;" d="M 2470.117188 4293.789062 C 2435.3125 4393.90625 2406.484375 4500.195312 2381.015625 4623.28125 " transform="matrix(0.1,0,0,-0.1,0,792)"/>
<path style="fill:none;stroke-width:262.858;stroke-linecap:butt;stroke-linejoin:miter;stroke:rgb(100%,100%,100%);stroke-opacity:1;stroke-miterlimit:10;" d="M 1531.015625 2100.703125 C 1472.617188 2193.59375 1425.898438 2288.984375 1386.289062 2396.289062 " transform="matrix(0.1,0,0,-0.1,0,792)"/>
<path style="fill:none;stroke-width:131.429;stroke-linecap:round;stroke-linejoin:miter;stroke:rgb(0%,0%,0%);stroke-opacity:1;stroke-miterlimit:10;" d="M 1531.015625 2100.703125 C 1472.617188 2193.59375 1425.898438 2288.984375 1386.289062 2396.289062 " transform="matrix(0.1,0,0,-0.1,0,792)"/>
<path style="fill:none;stroke-width:262.858;stroke-linecap:butt;stroke-linejoin:miter;stroke:rgb(100%,100%,100%);stroke-opacity:1;stroke-miterlimit:10;" d="M 5487.382812 4047.8125 C 5440.703125 3935.390625 5386.09375 3835 5318.085938 3736.40625 " transform="matrix(0.1,0,0,-0.1,0,792)"/>
<path style="fill:none;stroke-width:131.429;stroke-linecap:round;stroke-linejoin:miter;stroke:rgb(0%,0%,0%);stroke-opacity:1;stroke-miterlimit:10;" d="M 5487.382812 4047.8125 C 5440.703125 3935.390625 5386.09375 3835 5318.085938 3736.40625 " transform="matrix(0.1,0,0,-0.1,0,792)"/>
<path style="fill:none;stroke-width:262.858;stroke-linecap:butt;stroke-linejoin:miter;stroke:rgb(100%,100%,100%);stroke-opacity:1;stroke-miterlimit:10;" d="M 3551.09375 4721.796875 C 3667.695312 4698.007812 3781.992188 4674.414062 3905.3125 4648.515625 " transform="matrix(0.1,0,0,-0.1,0,792)"/>
<path style="fill:none;stroke-width:131.429;stroke-linecap:round;stroke-linejoin:miter;stroke:rgb(0%,0%,0%);stroke-opacity:1;stroke-miterlimit:10;" d="M 3551.09375 4721.796875 C 3667.695312 4698.007812 3781.992188 4674.414062 3905.3125 4648.515625 " transform="matrix(0.1,0,0,-0.1,0,792)"/>
<path style="fill:none;stroke-width:262.858;stroke-linecap:butt;stroke-linejoin:miter;stroke:rgb(100%,100%,100%);stroke-opacity:1;stroke-miterlimit:10;" d="M 5572.109375 5048.984375 C 5596.796875 4935.585938 5609.6875 4825 5612.109375 4706.40625 " transform="matrix(0.1,0,0,-0.1,0,792)"/>
<path style="fill:none;stroke-width:131.429;stroke-linecap:round;stroke-linejoin:miter;stroke:rgb(0%,0%,0%);stroke-opacity:1;stroke-miterlimit:10;" d="M 5572.109375 5048.984375 C 5596.796875 4935.585938 5609.6875 4825 5612.109375 4706.40625 " transform="matrix(0.1,0,0,-0.1,0,792)"/>
<path style="fill:none;stroke-width:262.858;stroke-linecap:butt;stroke-linejoin:miter;stroke:rgb(100%,100%,100%);stroke-opacity:1;stroke-miterlimit:10;" d="M 1081.015625 5842.8125 C 1003.007812 5774.414062 935.3125 5704.609375 871.09375 5626.484375 " transform="matrix(0.1,0,0,-0.1,0,792)"/>
<path style="fill:none;stroke-width:131.429;stroke-linecap:round;stroke-linejoin:miter;stroke:rgb(0%,0%,0%);stroke-opacity:1;stroke-miterlimit:10;" d="M 1081.015625 5842.8125 C 1003.007812 5774.414062 935.3125 5704.609375 871.09375 5626.484375 " transform="matrix(0.1,0,0,-0.1,0,792)"/>
<path style="fill:none;stroke-width:262.858;stroke-linecap:butt;stroke-linejoin:miter;stroke:rgb(100%,100%,100%);stroke-opacity:1;stroke-miterlimit:10;" d="M 3250.390625 4782.8125 C 3345.117188 4763.710938 3445.703125 4743.28125 3562.1875 4719.492188 " transform="matrix(0.1,0,0,-0.1,0,792)"/>
<path style="fill:none;stroke-width:131.429;stroke-linecap:round;stroke-linejoin:miter;stroke:rgb(0%,0%,0%);stroke-opacity:1;stroke-miterlimit:10;" d="M 3250.390625 4782.8125 C 3345.117188 4763.710938 3445.703125 4743.28125 3562.1875 4719.492188 " transform="matrix(0.1,0,0,-0.1,0,792)"/>
<path style="fill:none;stroke-width:262.858;stroke-linecap:butt;stroke-linejoin:miter;stroke:rgb(100%,100%,100%);stroke-opacity:1;stroke-miterlimit:10;" d="M 3748.984375 5571.210938 C 3717.617188 5641.289062 3678.398438 5703.789062 3627.304688 5764.804688 " transform="matrix(0.1,0,0,-0.1,0,792)"/>
<path style="fill:none;stroke-width:131.429;stroke-linecap:round;stroke-linejoin:miter;stroke:rgb(0%,0%,0%);stroke-opacity:1;stroke-miterlimit:10;" d="M 3748.984375 5571.210938 C 3717.617188 5641.289062 3678.398438 5703.789062 3627.304688 5764.804688 " transform="matrix(0.1,0,0,-0.1,0,792)"/>
<path style="fill:none;stroke-width:262.858;stroke-linecap:butt;stroke-linejoin:miter;stroke:rgb(100%,100%,100%);stroke-opacity:1;stroke-miterlimit:10;" d="M 5324.609375 3745.78125 C 5256.601562 3647.1875 5184.492188 3562.695312 5101.015625 3483.90625 " transform="matrix(0.1,0,0,-0.1,0,792)"/>
<path style="fill:none;stroke-width:131.429;stroke-linecap:round;stroke-linejoin:miter;stroke:rgb(0%,0%,0%);stroke-opacity:1;stroke-miterlimit:10;" d="M 5324.609375 3745.78125 C 5256.601562 3647.1875 5184.492188 3562.695312 5101.015625 3483.90625 " transform="matrix(0.1,0,0,-0.1,0,792)"/>
<path style="fill:none;stroke-width:262.858;stroke-linecap:butt;stroke-linejoin:miter;stroke:rgb(100%,100%,100%);stroke-opacity:1;stroke-miterlimit:10;" d="M 1293.90625 3378.515625 C 1309.804688 3493.398438 1331.289062 3597.695312 1360.78125 3701.71875 " transform="matrix(0.1,0,0,-0.1,0,792)"/>
<path style="fill:none;stroke-width:131.429;stroke-linecap:round;stroke-linejoin:miter;stroke:rgb(0%,0%,0%);stroke-opacity:1;stroke-miterlimit:10;" d="M 1293.90625 3378.515625 C 1309.804688 3493.398438 1331.289062 3597.695312 1360.78125 3701.71875 " transform="matrix(0.1,0,0,-0.1,0,792)"/>
<path style="fill:none;stroke-width:262.858;stroke-linecap:butt;stroke-linejoin:miter;stroke:rgb(100%,100%,100%);stroke-opacity:1;stroke-miterlimit:10;" d="M 3893.59375 4651.015625 C 4016.992188 4625.195312 4126.09375 4599.492188 4231.914062 4571.484375 " transform="matrix(0.1,0,0,-0.1,0,792)"/>
<path style="fill:none;stroke-width:131.429;stroke-linecap:round;stroke-linejoin:miter;stroke:rgb(0%,0%,0%);stroke-opacity:1;stroke-miterlimit:10;" d="M 3893.59375 4651.015625 C 4016.992188 4625.195312 4126.09375 4599.492188 4231.914062 4571.484375 " transform="matrix(0.1,0,0,-0.1,0,792)"/>
<path style="fill:none;stroke-width:262.858;stroke-linecap:butt;stroke-linejoin:miter;stroke:rgb(100%,100%,100%);stroke-opacity:1;stroke-miterlimit:10;" d="M 5473.515625 5361.289062 C 5517.1875 5255.898438 5549.804688 5151.601562 5574.414062 5038.203125 " transform="matrix(0.1,0,0,-0.1,0,792)"/>
<path style="fill:none;stroke-width:131.429;stroke-linecap:round;stroke-linejoin:miter;stroke:rgb(0%,0%,0%);stroke-opacity:1;stroke-miterlimit:10;" d="M 5473.515625 5361.289062 C 5517.1875 5255.898438 5549.804688 5151.601562 5574.414062 5038.203125 " transform="matrix(0.1,0,0,-0.1,0,792)"/>
<path style="fill:none;stroke-width:262.858;stroke-linecap:butt;stroke-linejoin:miter;stroke:rgb(100%,100%,100%);stroke-opacity:1;stroke-miterlimit:10;" d="M 2336.992188 4965.195312 C 2330.703125 5089.6875 2335 5201.601562 2350.3125 5312.1875 " transform="matrix(0.1,0,0,-0.1,0,792)"/>
<path style="fill:none;stroke-width:131.429;stroke-linecap:round;stroke-linejoin:miter;stroke:rgb(0%,0%,0%);stroke-opacity:1;stroke-miterlimit:10;" d="M 2336.992188 4965.195312 C 2330.703125 5089.6875 2335 5201.601562 2350.3125 5312.1875 " transform="matrix(0.1,0,0,-0.1,0,792)"/>
<path style="fill:none;stroke-width:262.858;stroke-linecap:butt;stroke-linejoin:miter;stroke:rgb(100%,100%,100%);stroke-opacity:1;stroke-miterlimit:10;" d="M 1722.8125 1860.898438 C 1647.5 1936.484375 1583.90625 2016.71875 1525.390625 2109.609375 " transform="matrix(0.1,0,0,-0.1,0,792)"/>
<path style="fill:none;stroke-width:131.429;stroke-linecap:round;stroke-linejoin:miter;stroke:rgb(0%,0%,0%);stroke-opacity:1;stroke-miterlimit:10;" d="M 1722.8125 1860.898438 C 1647.5 1936.484375 1583.90625 2016.71875 1525.390625 2109.609375 " transform="matrix(0.1,0,0,-0.1,0,792)"/>
<path style="fill:none;stroke-width:262.858;stroke-linecap:butt;stroke-linejoin:miter;stroke:rgb(100%,100%,100%);stroke-opacity:1;stroke-miterlimit:10;" d="M 2575.117188 4053.90625 C 2536.484375 4122.695312 2501.601562 4203.203125 2466.796875 4303.28125 " transform="matrix(0.1,0,0,-0.1,0,792)"/>
<path style="fill:none;stroke-width:131.429;stroke-linecap:round;stroke-linejoin:miter;stroke:rgb(0%,0%,0%);stroke-opacity:1;stroke-miterlimit:10;" d="M 2575.117188 4053.90625 C 2536.484375 4122.695312 2501.601562 4203.203125 2466.796875 4303.28125 " transform="matrix(0.1,0,0,-0.1,0,792)"/>
<path style="fill:none;stroke-width:262.858;stroke-linecap:butt;stroke-linejoin:miter;stroke:rgb(100%,100%,100%);stroke-opacity:1;stroke-miterlimit:10;" d="M 5324.804688 5648.398438 C 5384.609375 5552.5 5433.90625 5456.71875 5477.617188 5351.289062 " transform="matrix(0.1,0,0,-0.1,0,792)"/>
<path style="fill:none;stroke-width:131.429;stroke-linecap:round;stroke-linejoin:miter;stroke:rgb(0%,0%,0%);stroke-opacity:1;stroke-miterlimit:10;" d="M 5324.804688 5648.398438 C 5384.609375 5552.5 5433.90625 5456.71875 5477.617188 5351.289062 " transform="matrix(0.1,0,0,-0.1,0,792)"/>
<path style="fill:none;stroke-width:262.858;stroke-linecap:butt;stroke-linejoin:miter;stroke:rgb(100%,100%,100%);stroke-opacity:1;stroke-miterlimit:10;" d="M 2806.289062 3046.71875 C 2908.203125 3096.09375 3002.109375 3158.007812 3097.5 3238.59375 " transform="matrix(0.1,0,0,-0.1,0,792)"/>
<path style="fill:none;stroke-width:131.429;stroke-linecap:round;stroke-linejoin:miter;stroke:rgb(0%,0%,0%);stroke-opacity:1;stroke-miterlimit:10;" d="M 2806.289062 3046.71875 C 2908.203125 3096.09375 3002.109375 3158.007812 3097.5 3238.59375 " transform="matrix(0.1,0,0,-0.1,0,792)"/>
<path style="fill:none;stroke-width:262.858;stroke-linecap:butt;stroke-linejoin:miter;stroke:rgb(100%,100%,100%);stroke-opacity:1;stroke-miterlimit:10;" d="M 5108.984375 3491.40625 C 5025.585938 3412.695312 4942.109375 3348.789062 4850.390625 3293.398438 " transform="matrix(0.1,0,0,-0.1,0,792)"/>
<path style="fill:none;stroke-width:131.429;stroke-linecap:round;stroke-linejoin:miter;stroke:rgb(0%,0%,0%);stroke-opacity:1;stroke-miterlimit:10;" d="M 5108.984375 3491.40625 C 5025.585938 3412.695312 4942.109375 3348.789062 4850.390625 3293.398438 " transform="matrix(0.1,0,0,-0.1,0,792)"/>
<path style="fill:none;stroke-width:262.858;stroke-linecap:butt;stroke-linejoin:miter;stroke:rgb(100%,100%,100%);stroke-opacity:1;stroke-miterlimit:10;" d="M 877.304688 5633.984375 C 813.085938 5555.898438 758.984375 5477.8125 709.414062 5391.914062 " transform="matrix(0.1,0,0,-0.1,0,792)"/>
<path style="fill:none;stroke-width:131.429;stroke-linecap:round;stroke-linejoin:miter;stroke:rgb(0%,0%,0%);stroke-opacity:1;stroke-miterlimit:10;" d="M 877.304688 5633.984375 C 813.085938 5555.898438 758.984375 5477.8125 709.414062 5391.914062 " transform="matrix(0.1,0,0,-0.1,0,792)"/>
<path style="fill:none;stroke-width:262.858;stroke-linecap:butt;stroke-linejoin:miter;stroke:rgb(100%,100%,100%);stroke-opacity:1;stroke-miterlimit:10;" d="M 3088.515625 3230.898438 C 3183.90625 3311.40625 3266.015625 3396.09375 3342.890625 3493.398438 " transform="matrix(0.1,0,0,-0.1,0,792)"/>
<path style="fill:none;stroke-width:131.429;stroke-linecap:round;stroke-linejoin:miter;stroke:rgb(0%,0%,0%);stroke-opacity:1;stroke-miterlimit:10;" d="M 3088.515625 3230.898438 C 3183.90625 3311.40625 3266.015625 3396.09375 3342.890625 3493.398438 " transform="matrix(0.1,0,0,-0.1,0,792)"/>
<path style="fill:none;stroke-width:262.858;stroke-linecap:butt;stroke-linejoin:miter;stroke:rgb(100%,100%,100%);stroke-opacity:1;stroke-miterlimit:10;" d="M 1958.515625 1672.304688 C 1869.21875 1729.414062 1790.898438 1792.617188 1715.585938 1868.085938 " transform="matrix(0.1,0,0,-0.1,0,792)"/>
<path style="fill:none;stroke-width:131.429;stroke-linecap:round;stroke-linejoin:miter;stroke:rgb(0%,0%,0%);stroke-opacity:1;stroke-miterlimit:10;" d="M 1958.515625 1672.304688 C 1869.21875 1729.414062 1790.898438 1792.617188 1715.585938 1868.085938 " transform="matrix(0.1,0,0,-0.1,0,792)"/>
<path style="fill:none;stroke-width:262.858;stroke-linecap:butt;stroke-linejoin:miter;stroke:rgb(100%,100%,100%);stroke-opacity:1;stroke-miterlimit:10;" d="M 2986.015625 4818.984375 C 3076.484375 4812.382812 3164.6875 4800.195312 3259.414062 4781.015625 " transform="matrix(0.1,0,0,-0.1,0,792)"/>
<path style="fill:none;stroke-width:131.429;stroke-linecap:round;stroke-linejoin:miter;stroke:rgb(0%,0%,0%);stroke-opacity:1;stroke-miterlimit:10;" d="M 2986.015625 4818.984375 C 3076.484375 4812.382812 3164.6875 4800.195312 3259.414062 4781.015625 " transform="matrix(0.1,0,0,-0.1,0,792)"/>
<path style="fill:none;stroke-width:262.858;stroke-linecap:butt;stroke-linejoin:miter;stroke:rgb(100%,100%,100%);stroke-opacity:1;stroke-miterlimit:10;" d="M 1358.007812 3691.796875 C 1387.382812 3795.78125 1420.703125 3888.515625 1461.289062 3979.101562 " transform="matrix(0.1,0,0,-0.1,0,792)"/>
<path style="fill:none;stroke-width:131.429;stroke-linecap:round;stroke-linejoin:miter;stroke:rgb(0%,0%,0%);stroke-opacity:1;stroke-miterlimit:10;" d="M 1358.007812 3691.796875 C 1387.382812 3795.78125 1420.703125 3888.515625 1461.289062 3979.101562 " transform="matrix(0.1,0,0,-0.1,0,792)"/>
<path style="fill:none;stroke-width:262.858;stroke-linecap:butt;stroke-linejoin:miter;stroke:rgb(100%,100%,100%);stroke-opacity:1;stroke-miterlimit:10;" d="M 2348.90625 5301.601562 C 2364.21875 5412.1875 2388.710938 5510.898438 2424.6875 5607.695312 " transform="matrix(0.1,0,0,-0.1,0,792)"/>
<path style="fill:none;stroke-width:131.429;stroke-linecap:round;stroke-linejoin:miter;stroke:rgb(0%,0%,0%);stroke-opacity:1;stroke-miterlimit:10;" d="M 2348.90625 5301.601562 C 2364.21875 5412.1875 2388.710938 5510.898438 2424.6875 5607.695312 " transform="matrix(0.1,0,0,-0.1,0,792)"/>
<path style="fill:none;stroke-width:262.858;stroke-linecap:butt;stroke-linejoin:miter;stroke:rgb(100%,100%,100%);stroke-opacity:1;stroke-miterlimit:10;" d="M 2519.21875 2954.6875 C 2618.398438 2970.78125 2714.101562 3001.992188 2816.015625 3051.40625 " transform="matrix(0.1,0,0,-0.1,0,792)"/>
<path style="fill:none;stroke-width:131.429;stroke-linecap:round;stroke-linejoin:miter;stroke:rgb(0%,0%,0%);stroke-opacity:1;stroke-miterlimit:10;" d="M 2519.21875 2954.6875 C 2618.398438 2970.78125 2714.101562 3001.992188 2816.015625 3051.40625 " transform="matrix(0.1,0,0,-0.1,0,792)"/>
<path style="fill:none;stroke-width:262.858;stroke-linecap:butt;stroke-linejoin:miter;stroke:rgb(100%,100%,100%);stroke-opacity:1;stroke-miterlimit:10;" d="M 4221.914062 4574.21875 C 4327.695312 4546.210938 4415.390625 4518.007812 4493.710938 4486.601562 " transform="matrix(0.1,0,0,-0.1,0,792)"/>
<path style="fill:none;stroke-width:131.429;stroke-linecap:round;stroke-linejoin:miter;stroke:rgb(0%,0%,0%);stroke-opacity:1;stroke-miterlimit:10;" d="M 4221.914062 4574.21875 C 4327.695312 4546.210938 4415.390625 4518.007812 4493.710938 4486.601562 " transform="matrix(0.1,0,0,-0.1,0,792)"/>
<path style="fill:none;stroke-width:262.858;stroke-linecap:butt;stroke-linejoin:miter;stroke:rgb(100%,100%,100%);stroke-opacity:1;stroke-miterlimit:10;" d="M 5132.890625 5906.09375 C 5206.992188 5821.210938 5270.703125 5735.117188 5330.507812 5639.21875 " transform="matrix(0.1,0,0,-0.1,0,792)"/>
<path style="fill:none;stroke-width:131.429;stroke-linecap:round;stroke-linejoin:miter;stroke:rgb(0%,0%,0%);stroke-opacity:1;stroke-miterlimit:10;" d="M 5132.890625 5906.09375 C 5206.992188 5821.210938 5270.703125 5735.117188 5330.507812 5639.21875 " transform="matrix(0.1,0,0,-0.1,0,792)"/>
<path style="fill:none;stroke-width:262.858;stroke-linecap:butt;stroke-linejoin:miter;stroke:rgb(100%,100%,100%);stroke-opacity:1;stroke-miterlimit:10;" d="M 3812.304688 5339.6875 C 3798.789062 5431.015625 3777.382812 5507.8125 3746.015625 5577.890625 " transform="matrix(0.1,0,0,-0.1,0,792)"/>
<path style="fill:none;stroke-width:131.429;stroke-linecap:round;stroke-linejoin:miter;stroke:rgb(0%,0%,0%);stroke-opacity:1;stroke-miterlimit:10;" d="M 3812.304688 5339.6875 C 3798.789062 5431.015625 3777.382812 5507.8125 3746.015625 5577.890625 " transform="matrix(0.1,0,0,-0.1,0,792)"/>
<path style="fill:none;stroke-width:262.858;stroke-linecap:butt;stroke-linejoin:miter;stroke:rgb(100%,100%,100%);stroke-opacity:1;stroke-miterlimit:10;" d="M 3335.585938 3484.101562 C 3412.5 3581.40625 3474.414062 3673.984375 3527.304688 3771.09375 " transform="matrix(0.1,0,0,-0.1,0,792)"/>
<path style="fill:none;stroke-width:131.429;stroke-linecap:round;stroke-linejoin:miter;stroke:rgb(0%,0%,0%);stroke-opacity:1;stroke-miterlimit:10;" d="M 3335.585938 3484.101562 C 3412.5 3581.40625 3474.414062 3673.984375 3527.304688 3771.09375 " transform="matrix(0.1,0,0,-0.1,0,792)"/>
<path style="fill:none;stroke-width:262.858;stroke-linecap:butt;stroke-linejoin:miter;stroke:rgb(100%,100%,100%);stroke-opacity:1;stroke-miterlimit:10;" d="M 2706.210938 3875.78125 C 2653.398438 3931.992188 2610 3991.601562 2571.40625 4060.507812 " transform="matrix(0.1,0,0,-0.1,0,792)"/>
<path style="fill:none;stroke-width:131.429;stroke-linecap:round;stroke-linejoin:miter;stroke:rgb(0%,0%,0%);stroke-opacity:1;stroke-miterlimit:10;" d="M 2706.210938 3875.78125 C 2653.398438 3931.992188 2610 3991.601562 2571.40625 4060.507812 " transform="matrix(0.1,0,0,-0.1,0,792)"/>
<path style="fill:none;stroke-width:262.858;stroke-linecap:butt;stroke-linejoin:miter;stroke:rgb(100%,100%,100%);stroke-opacity:1;stroke-miterlimit:10;" d="M 2229.21875 1535.3125 C 2129.296875 1574.609375 2039.21875 1620.585938 1950 1677.695312 " transform="matrix(0.1,0,0,-0.1,0,792)"/>
<path style="fill:none;stroke-width:131.429;stroke-linecap:round;stroke-linejoin:miter;stroke:rgb(0%,0%,0%);stroke-opacity:1;stroke-miterlimit:10;" d="M 2229.21875 1535.3125 C 2129.296875 1574.609375 2039.21875 1620.585938 1950 1677.695312 " transform="matrix(0.1,0,0,-0.1,0,792)"/>
<path style="fill:none;stroke-width:262.858;stroke-linecap:butt;stroke-linejoin:miter;stroke:rgb(100%,100%,100%);stroke-opacity:1;stroke-miterlimit:10;" d="M 4859.21875 3298.59375 C 4767.382812 3243.203125 4678.984375 3201.796875 4585.117188 3170.195312 " transform="matrix(0.1,0,0,-0.1,0,792)"/>
<path style="fill:none;stroke-width:131.429;stroke-linecap:round;stroke-linejoin:miter;stroke:rgb(0%,0%,0%);stroke-opacity:1;stroke-miterlimit:10;" d="M 4859.21875 3298.59375 C 4767.382812 3243.203125 4678.984375 3201.796875 4585.117188 3170.195312 " transform="matrix(0.1,0,0,-0.1,0,792)"/>
<path style="fill:none;stroke-width:262.858;stroke-linecap:butt;stroke-linejoin:miter;stroke:rgb(100%,100%,100%);stroke-opacity:1;stroke-miterlimit:10;" d="M 714.101562 5400.117188 C 664.609375 5314.21875 625.117188 5229.296875 591.796875 5136.796875 " transform="matrix(0.1,0,0,-0.1,0,792)"/>
<path style="fill:none;stroke-width:131.429;stroke-linecap:round;stroke-linejoin:miter;stroke:rgb(0%,0%,0%);stroke-opacity:1;stroke-miterlimit:10;" d="M 714.101562 5400.117188 C 664.609375 5314.21875 625.117188 5229.296875 591.796875 5136.796875 " transform="matrix(0.1,0,0,-0.1,0,792)"/>
<path style="fill:none;stroke-width:262.858;stroke-linecap:butt;stroke-linejoin:miter;stroke:rgb(100%,100%,100%);stroke-opacity:1;stroke-miterlimit:10;" d="M 4901.484375 6129.882812 C 4988.984375 6057.8125 5065.898438 5983.007812 5140 5898.007812 " transform="matrix(0.1,0,0,-0.1,0,792)"/>
<path style="fill:none;stroke-width:131.429;stroke-linecap:round;stroke-linejoin:miter;stroke:rgb(0%,0%,0%);stroke-opacity:1;stroke-miterlimit:10;" d="M 4901.484375 6129.882812 C 4988.984375 6057.8125 5065.898438 5983.007812 5140 5898.007812 " transform="matrix(0.1,0,0,-0.1,0,792)"/>
<path style="fill:none;stroke-width:262.858;stroke-linecap:butt;stroke-linejoin:miter;stroke:rgb(100%,100%,100%);stroke-opacity:1;stroke-miterlimit:10;" d="M 1457.382812 3970.507812 C 1498.007812 4061.09375 1543.28125 4141.992188 1598.007812 4221.289062 " transform="matrix(0.1,0,0,-0.1,0,792)"/>
<path style="fill:none;stroke-width:131.429;stroke-linecap:round;stroke-linejoin:miter;stroke:rgb(0%,0%,0%);stroke-opacity:1;stroke-miterlimit:10;" d="M 1457.382812 3970.507812 C 1498.007812 4061.09375 1543.28125 4141.992188 1598.007812 4221.289062 " transform="matrix(0.1,0,0,-0.1,0,792)"/>
<path style="fill:none;stroke-width:262.858;stroke-linecap:butt;stroke-linejoin:miter;stroke:rgb(100%,100%,100%);stroke-opacity:1;stroke-miterlimit:10;" d="M 2421.289062 5598.398438 C 2457.304688 5695.195312 2501.992188 5782.8125 2559.882812 5869.882812 " transform="matrix(0.1,0,0,-0.1,0,792)"/>
<path style="fill:none;stroke-width:131.429;stroke-linecap:round;stroke-linejoin:miter;stroke:rgb(0%,0%,0%);stroke-opacity:1;stroke-miterlimit:10;" d="M 2421.289062 5598.398438 C 2457.304688 5695.195312 2501.992188 5782.8125 2559.882812 5869.882812 " transform="matrix(0.1,0,0,-0.1,0,792)"/>
<path style="fill:none;stroke-width:262.858;stroke-linecap:butt;stroke-linejoin:miter;stroke:rgb(100%,100%,100%);stroke-opacity:1;stroke-miterlimit:10;" d="M 2239.6875 2947.382812 C 2336.289062 2937.304688 2429.492188 2940.117188 2528.710938 2956.289062 " transform="matrix(0.1,0,0,-0.1,0,792)"/>
<path style="fill:none;stroke-width:131.429;stroke-linecap:round;stroke-linejoin:miter;stroke:rgb(0%,0%,0%);stroke-opacity:1;stroke-miterlimit:10;" d="M 2239.6875 2947.382812 C 2336.289062 2937.304688 2429.492188 2940.117188 2528.710938 2956.289062 " transform="matrix(0.1,0,0,-0.1,0,792)"/>
<path style="fill:none;stroke-width:262.858;stroke-linecap:butt;stroke-linejoin:miter;stroke:rgb(100%,100%,100%);stroke-opacity:1;stroke-miterlimit:10;" d="M 2698.984375 4809.6875 C 2808.710938 4822.1875 2903.984375 4825 2994.609375 4818.398438 " transform="matrix(0.1,0,0,-0.1,0,792)"/>
<path style="fill:none;stroke-width:131.429;stroke-linecap:round;stroke-linejoin:miter;stroke:rgb(0%,0%,0%);stroke-opacity:1;stroke-miterlimit:10;" d="M 2698.984375 4809.6875 C 2808.710938 4822.1875 2903.984375 4825 2994.609375 4818.398438 " transform="matrix(0.1,0,0,-0.1,0,792)"/>
<path style="fill:none;stroke-width:262.858;stroke-linecap:butt;stroke-linejoin:miter;stroke:rgb(100%,100%,100%);stroke-opacity:1;stroke-miterlimit:10;" d="M 2525.507812 1446.914062 C 2418.28125 1469.882812 2319.6875 1499.609375 2219.6875 1538.984375 " transform="matrix(0.1,0,0,-0.1,0,792)"/>
<path style="fill:none;stroke-width:131.429;stroke-linecap:round;stroke-linejoin:miter;stroke:rgb(0%,0%,0%);stroke-opacity:1;stroke-miterlimit:10;" d="M 2525.507812 1446.914062 C 2418.28125 1469.882812 2319.6875 1499.609375 2219.6875 1538.984375 " transform="matrix(0.1,0,0,-0.1,0,792)"/>
<path style="fill:none;stroke-width:262.858;stroke-linecap:butt;stroke-linejoin:miter;stroke:rgb(100%,100%,100%);stroke-opacity:1;stroke-miterlimit:10;" d="M 4632.695312 6312.1875 C 4733.007812 6256.09375 4822.382812 6195.117188 4909.882812 6123.007812 " transform="matrix(0.1,0,0,-0.1,0,792)"/>
<path style="fill:none;stroke-width:131.429;stroke-linecap:round;stroke-linejoin:miter;stroke:rgb(0%,0%,0%);stroke-opacity:1;stroke-miterlimit:10;" d="M 4632.695312 6312.1875 C 4733.007812 6256.09375 4822.382812 6195.117188 4909.882812 6123.007812 " transform="matrix(0.1,0,0,-0.1,0,792)"/>
<path style="fill:none;stroke-width:262.858;stroke-linecap:butt;stroke-linejoin:miter;stroke:rgb(100%,100%,100%);stroke-opacity:1;stroke-miterlimit:10;" d="M 3522.304688 3761.796875 C 3575.195312 3858.90625 3616.289062 3951.914062 3649.609375 4050.117188 " transform="matrix(0.1,0,0,-0.1,0,792)"/>
<path style="fill:none;stroke-width:131.429;stroke-linecap:round;stroke-linejoin:miter;stroke:rgb(0%,0%,0%);stroke-opacity:1;stroke-miterlimit:10;" d="M 3522.304688 3761.796875 C 3575.195312 3858.90625 3616.289062 3951.914062 3649.609375 4050.117188 " transform="matrix(0.1,0,0,-0.1,0,792)"/>
<path style="fill:none;stroke-width:262.858;stroke-linecap:butt;stroke-linejoin:miter;stroke:rgb(100%,100%,100%);stroke-opacity:1;stroke-miterlimit:10;" d="M 4486.289062 4489.609375 C 4564.609375 4458.28125 4630.507812 4424.101562 4690.3125 4383.710938 " transform="matrix(0.1,0,0,-0.1,0,792)"/>
<path style="fill:none;stroke-width:131.429;stroke-linecap:round;stroke-linejoin:miter;stroke:rgb(0%,0%,0%);stroke-opacity:1;stroke-miterlimit:10;" d="M 4486.289062 4489.609375 C 4564.609375 4458.28125 4630.507812 4424.101562 4690.3125 4383.710938 " transform="matrix(0.1,0,0,-0.1,0,792)"/>
<path style="fill:none;stroke-width:262.858;stroke-linecap:butt;stroke-linejoin:miter;stroke:rgb(100%,100%,100%);stroke-opacity:1;stroke-miterlimit:10;" d="M 3824.296875 5040.585938 C 3828.90625 5157.8125 3824.609375 5256.992188 3811.015625 5348.398438 " transform="matrix(0.1,0,0,-0.1,0,792)"/>
<path style="fill:none;stroke-width:131.429;stroke-linecap:round;stroke-linejoin:miter;stroke:rgb(0%,0%,0%);stroke-opacity:1;stroke-miterlimit:10;" d="M 3824.296875 5040.585938 C 3828.90625 5157.8125 3824.609375 5256.992188 3811.015625 5348.398438 " transform="matrix(0.1,0,0,-0.1,0,792)"/>
<path style="fill:none;stroke-width:262.858;stroke-linecap:butt;stroke-linejoin:miter;stroke:rgb(100%,100%,100%);stroke-opacity:1;stroke-miterlimit:10;" d="M 595 5145.585938 C 561.679688 5053.085938 538.984375 4962.382812 524.609375 4864.414062 " transform="matrix(0.1,0,0,-0.1,0,792)"/>
<path style="fill:none;stroke-width:131.429;stroke-linecap:round;stroke-linejoin:miter;stroke:rgb(0%,0%,0%);stroke-opacity:1;stroke-miterlimit:10;" d="M 595 5145.585938 C 561.679688 5053.085938 538.984375 4962.382812 524.609375 4864.414062 " transform="matrix(0.1,0,0,-0.1,0,792)"/>
<path style="fill:none;stroke-width:262.858;stroke-linecap:butt;stroke-linejoin:miter;stroke:rgb(100%,100%,100%);stroke-opacity:1;stroke-miterlimit:10;" d="M 4593.984375 3173.203125 C 4500.117188 3141.71875 4410.507812 3122.304688 4316.289062 3113.085938 " transform="matrix(0.1,0,0,-0.1,0,792)"/>
<path style="fill:none;stroke-width:131.429;stroke-linecap:round;stroke-linejoin:miter;stroke:rgb(0%,0%,0%);stroke-opacity:1;stroke-miterlimit:10;" d="M 4593.984375 3173.203125 C 4500.117188 3141.71875 4410.507812 3122.304688 4316.289062 3113.085938 " transform="matrix(0.1,0,0,-0.1,0,792)"/>
<path style="fill:none;stroke-width:262.858;stroke-linecap:butt;stroke-linejoin:miter;stroke:rgb(100%,100%,100%);stroke-opacity:1;stroke-miterlimit:10;" d="M 2554.414062 5861.601562 C 2612.382812 5948.789062 2678.515625 6026.601562 2759.296875 6103.007812 " transform="matrix(0.1,0,0,-0.1,0,792)"/>
<path style="fill:none;stroke-width:131.429;stroke-linecap:round;stroke-linejoin:miter;stroke:rgb(0%,0%,0%);stroke-opacity:1;stroke-miterlimit:10;" d="M 2554.414062 5861.601562 C 2612.382812 5948.789062 2678.515625 6026.601562 2759.296875 6103.007812 " transform="matrix(0.1,0,0,-0.1,0,792)"/>
<path style="fill:none;stroke-width:262.858;stroke-linecap:butt;stroke-linejoin:miter;stroke:rgb(100%,100%,100%);stroke-opacity:1;stroke-miterlimit:10;" d="M 2837.8125 1402.890625 C 2726.484375 1411.210938 2622.5 1426.09375 2515.3125 1449.101562 " transform="matrix(0.1,0,0,-0.1,0,792)"/>
<path style="fill:none;stroke-width:131.429;stroke-linecap:round;stroke-linejoin:miter;stroke:rgb(0%,0%,0%);stroke-opacity:1;stroke-miterlimit:10;" d="M 2837.8125 1402.890625 C 2726.484375 1411.210938 2622.5 1426.09375 2515.3125 1449.101562 " transform="matrix(0.1,0,0,-0.1,0,792)"/>
<path style="fill:none;stroke-width:262.858;stroke-linecap:butt;stroke-linejoin:miter;stroke:rgb(100%,100%,100%);stroke-opacity:1;stroke-miterlimit:10;" d="M 4329.296875 6443.007812 C 4440.898438 6406.796875 4541.914062 6362.890625 4642.1875 6306.796875 " transform="matrix(0.1,0,0,-0.1,0,792)"/>
<path style="fill:none;stroke-width:131.429;stroke-linecap:round;stroke-linejoin:miter;stroke:rgb(0%,0%,0%);stroke-opacity:1;stroke-miterlimit:10;" d="M 4329.296875 6443.007812 C 4440.898438 6406.796875 4541.914062 6362.890625 4642.1875 6306.796875 " transform="matrix(0.1,0,0,-0.1,0,792)"/>
<path style="fill:none;stroke-width:262.858;stroke-linecap:butt;stroke-linejoin:miter;stroke:rgb(100%,100%,100%);stroke-opacity:1;stroke-miterlimit:10;" d="M 2893.28125 3701.796875 C 2815.898438 3766.992188 2753.90625 3824.804688 2701.210938 3881.09375 " transform="matrix(0.1,0,0,-0.1,0,792)"/>
<path style="fill:none;stroke-width:131.429;stroke-linecap:round;stroke-linejoin:miter;stroke:rgb(0%,0%,0%);stroke-opacity:1;stroke-miterlimit:10;" d="M 2893.28125 3701.796875 C 2815.898438 3766.992188 2753.90625 3824.804688 2701.210938 3881.09375 " transform="matrix(0.1,0,0,-0.1,0,792)"/>
<path style="fill:none;stroke-width:262.858;stroke-linecap:butt;stroke-linejoin:miter;stroke:rgb(100%,100%,100%);stroke-opacity:1;stroke-miterlimit:10;" d="M 1592.8125 4213.710938 C 1647.382812 4293.007812 1710.898438 4363.984375 1789.6875 4433.984375 " transform="matrix(0.1,0,0,-0.1,0,792)"/>
<path style="fill:none;stroke-width:131.429;stroke-linecap:round;stroke-linejoin:miter;stroke:rgb(0%,0%,0%);stroke-opacity:1;stroke-miterlimit:10;" d="M 1592.8125 4213.710938 C 1647.382812 4293.007812 1710.898438 4363.984375 1789.6875 4433.984375 " transform="matrix(0.1,0,0,-0.1,0,792)"/>
<path style="fill:none;stroke-width:262.858;stroke-linecap:butt;stroke-linejoin:miter;stroke:rgb(100%,100%,100%);stroke-opacity:1;stroke-miterlimit:10;" d="M 1961.015625 3005.390625 C 2059.492188 2975.585938 2152.382812 2956.484375 2248.90625 2946.40625 " transform="matrix(0.1,0,0,-0.1,0,792)"/>
<path style="fill:none;stroke-width:131.429;stroke-linecap:round;stroke-linejoin:miter;stroke:rgb(0%,0%,0%);stroke-opacity:1;stroke-miterlimit:10;" d="M 1961.015625 3005.390625 C 2059.492188 2975.585938 2152.382812 2956.484375 2248.90625 2946.40625 " transform="matrix(0.1,0,0,-0.1,0,792)"/>
<path style="fill:none;stroke-width:262.858;stroke-linecap:butt;stroke-linejoin:miter;stroke:rgb(100%,100%,100%);stroke-opacity:1;stroke-miterlimit:10;" d="M 2370 4740.390625 C 2490.195312 4775.703125 2599.6875 4798.515625 2709.414062 4810.898438 " transform="matrix(0.1,0,0,-0.1,0,792)"/>
<path style="fill:none;stroke-width:131.429;stroke-linecap:round;stroke-linejoin:miter;stroke:rgb(0%,0%,0%);stroke-opacity:1;stroke-miterlimit:10;" d="M 2370 4740.390625 C 2490.195312 4775.703125 2599.6875 4798.515625 2709.414062 4810.898438 " transform="matrix(0.1,0,0,-0.1,0,792)"/>
<path style="fill:none;stroke-width:262.858;stroke-linecap:butt;stroke-linejoin:miter;stroke:rgb(100%,100%,100%);stroke-opacity:1;stroke-miterlimit:10;" d="M 3998.710938 6511.289062 C 4118.085938 6498.789062 4228.203125 6475.703125 4339.882812 6439.492188 " transform="matrix(0.1,0,0,-0.1,0,792)"/>
<path style="fill:none;stroke-width:131.429;stroke-linecap:round;stroke-linejoin:miter;stroke:rgb(0%,0%,0%);stroke-opacity:1;stroke-miterlimit:10;" d="M 3998.710938 6511.289062 C 4118.085938 6498.789062 4228.203125 6475.703125 4339.882812 6439.492188 " transform="matrix(0.1,0,0,-0.1,0,792)"/>
<path style="fill:none;stroke-width:262.858;stroke-linecap:butt;stroke-linejoin:miter;stroke:rgb(100%,100%,100%);stroke-opacity:1;stroke-miterlimit:10;" d="M 3646.40625 4040.703125 C 3679.6875 4138.984375 3707.304688 4240.585938 3731.914062 4355.78125 " transform="matrix(0.1,0,0,-0.1,0,792)"/>
<path style="fill:none;stroke-width:131.429;stroke-linecap:round;stroke-linejoin:miter;stroke:rgb(0%,0%,0%);stroke-opacity:1;stroke-miterlimit:10;" d="M 3646.40625 4040.703125 C 3679.6875 4138.984375 3707.304688 4240.585938 3731.914062 4355.78125 " transform="matrix(0.1,0,0,-0.1,0,792)"/>
<path style="fill:none;stroke-width:262.858;stroke-linecap:butt;stroke-linejoin:miter;stroke:rgb(100%,100%,100%);stroke-opacity:1;stroke-miterlimit:10;" d="M 3158.007812 1399.21875 C 3045.195312 1393.90625 2938.515625 1395.390625 2827.1875 1403.710938 " transform="matrix(0.1,0,0,-0.1,0,792)"/>
<path style="fill:none;stroke-width:131.429;stroke-linecap:round;stroke-linejoin:miter;stroke:rgb(0%,0%,0%);stroke-opacity:1;stroke-miterlimit:10;" d="M 3158.007812 1399.21875 C 3045.195312 1393.90625 2938.515625 1395.390625 2827.1875 1403.710938 " transform="matrix(0.1,0,0,-0.1,0,792)"/>
<path style="fill:none;stroke-width:262.858;stroke-linecap:butt;stroke-linejoin:miter;stroke:rgb(100%,100%,100%);stroke-opacity:1;stroke-miterlimit:10;" d="M 2751.601562 6095.703125 C 2832.382812 6172.109375 2918.984375 6237.109375 3019.882812 6297.304688 " transform="matrix(0.1,0,0,-0.1,0,792)"/>
<path style="fill:none;stroke-width:131.429;stroke-linecap:round;stroke-linejoin:miter;stroke:rgb(0%,0%,0%);stroke-opacity:1;stroke-miterlimit:10;" d="M 2751.601562 6095.703125 C 2832.382812 6172.109375 2918.984375 6237.109375 3019.882812 6297.304688 " transform="matrix(0.1,0,0,-0.1,0,792)"/>
<path style="fill:none;stroke-width:262.858;stroke-linecap:butt;stroke-linejoin:miter;stroke:rgb(100%,100%,100%);stroke-opacity:1;stroke-miterlimit:10;" d="M 3791.09375 4690.78125 C 3809.414062 4818.203125 3820.195312 4934.609375 3824.804688 5051.796875 " transform="matrix(0.1,0,0,-0.1,0,792)"/>
<path style="fill:none;stroke-width:131.429;stroke-linecap:round;stroke-linejoin:miter;stroke:rgb(0%,0%,0%);stroke-opacity:1;stroke-miterlimit:10;" d="M 3791.09375 4690.78125 C 3809.414062 4818.203125 3820.195312 4934.609375 3824.804688 5051.796875 " transform="matrix(0.1,0,0,-0.1,0,792)"/>
<path style="fill:none;stroke-width:262.858;stroke-linecap:butt;stroke-linejoin:miter;stroke:rgb(100%,100%,100%);stroke-opacity:1;stroke-miterlimit:10;" d="M 525.898438 4873.789062 C 511.484375 4775.78125 508.085938 4680.703125 515.390625 4578.90625 " transform="matrix(0.1,0,0,-0.1,0,792)"/>
<path style="fill:none;stroke-width:131.429;stroke-linecap:round;stroke-linejoin:miter;stroke:rgb(0%,0%,0%);stroke-opacity:1;stroke-miterlimit:10;" d="M 525.898438 4873.789062 C 511.484375 4775.78125 508.085938 4680.703125 515.390625 4578.90625 " transform="matrix(0.1,0,0,-0.1,0,792)"/>
<path style="fill:none;stroke-width:262.858;stroke-linecap:butt;stroke-linejoin:miter;stroke:rgb(100%,100%,100%);stroke-opacity:1;stroke-miterlimit:10;" d="M 1782.1875 4427.304688 C 1860.898438 4497.304688 1949.414062 4557.382812 2056.289062 4613.710938 " transform="matrix(0.1,0,0,-0.1,0,792)"/>
<path style="fill:none;stroke-width:131.429;stroke-linecap:round;stroke-linejoin:miter;stroke:rgb(0%,0%,0%);stroke-opacity:1;stroke-miterlimit:10;" d="M 1782.1875 4427.304688 C 1860.898438 4497.304688 1949.414062 4557.382812 2056.289062 4613.710938 " transform="matrix(0.1,0,0,-0.1,0,792)"/>
<path style="fill:none;stroke-width:262.858;stroke-linecap:butt;stroke-linejoin:miter;stroke:rgb(100%,100%,100%);stroke-opacity:1;stroke-miterlimit:10;" d="M 3655.117188 6508.90625 C 3776.09375 6522.1875 3890.703125 6522.617188 4010.117188 6510.117188 " transform="matrix(0.1,0,0,-0.1,0,792)"/>
<path style="fill:none;stroke-width:131.429;stroke-linecap:round;stroke-linejoin:miter;stroke:rgb(0%,0%,0%);stroke-opacity:1;stroke-miterlimit:10;" d="M 3655.117188 6508.90625 C 3776.09375 6522.1875 3890.703125 6522.617188 4010.117188 6510.117188 " transform="matrix(0.1,0,0,-0.1,0,792)"/>
<path style="fill:none;stroke-width:262.858;stroke-linecap:butt;stroke-linejoin:miter;stroke:rgb(100%,100%,100%);stroke-opacity:1;stroke-miterlimit:10;" d="M 3010.3125 6291.601562 C 3111.289062 6351.796875 3214.101562 6398.789062 3329.101562 6437.304688 " transform="matrix(0.1,0,0,-0.1,0,792)"/>
<path style="fill:none;stroke-width:131.429;stroke-linecap:round;stroke-linejoin:miter;stroke:rgb(0%,0%,0%);stroke-opacity:1;stroke-miterlimit:10;" d="M 3010.3125 6291.601562 C 3111.289062 6351.796875 3214.101562 6398.789062 3329.101562 6437.304688 " transform="matrix(0.1,0,0,-0.1,0,792)"/>
<path style="fill:none;stroke-width:262.858;stroke-linecap:butt;stroke-linejoin:miter;stroke:rgb(100%,100%,100%);stroke-opacity:1;stroke-miterlimit:10;" d="M 4325.3125 3113.984375 C 4231.09375 3104.882812 4139.414062 3106.71875 4041.015625 3119.804688 " transform="matrix(0.1,0,0,-0.1,0,792)"/>
<path style="fill:none;stroke-width:131.429;stroke-linecap:round;stroke-linejoin:miter;stroke:rgb(0%,0%,0%);stroke-opacity:1;stroke-miterlimit:10;" d="M 4325.3125 3113.984375 C 4231.09375 3104.882812 4139.414062 3106.71875 4041.015625 3119.804688 " transform="matrix(0.1,0,0,-0.1,0,792)"/>
<path style="fill:none;stroke-width:262.858;stroke-linecap:butt;stroke-linejoin:miter;stroke:rgb(100%,100%,100%);stroke-opacity:1;stroke-miterlimit:10;" d="M 2046.09375 4608.398438 C 2153.007812 4664.6875 2261.210938 4708.398438 2381.40625 4743.710938 " transform="matrix(0.1,0,0,-0.1,0,792)"/>
<path style="fill:none;stroke-width:131.429;stroke-linecap:round;stroke-linejoin:miter;stroke:rgb(0%,0%,0%);stroke-opacity:1;stroke-miterlimit:10;" d="M 2046.09375 4608.398438 C 2153.007812 4664.6875 2261.210938 4708.398438 2381.40625 4743.710938 " transform="matrix(0.1,0,0,-0.1,0,792)"/>
<path style="fill:none;stroke-width:262.858;stroke-linecap:butt;stroke-linejoin:miter;stroke:rgb(100%,100%,100%);stroke-opacity:1;stroke-miterlimit:10;" d="M 3729.492188 4344.804688 C 3754.101562 4460 3774.492188 4575.585938 3792.8125 4702.890625 " transform="matrix(0.1,0,0,-0.1,0,792)"/>
<path style="fill:none;stroke-width:131.429;stroke-linecap:round;stroke-linejoin:miter;stroke:rgb(0%,0%,0%);stroke-opacity:1;stroke-miterlimit:10;" d="M 3729.492188 4344.804688 C 3754.101562 4460 3774.492188 4575.585938 3792.8125 4702.890625 " transform="matrix(0.1,0,0,-0.1,0,792)"/>
<path style="fill:none;stroke-width:262.858;stroke-linecap:butt;stroke-linejoin:miter;stroke:rgb(100%,100%,100%);stroke-opacity:1;stroke-miterlimit:10;" d="M 4684.609375 4387.5 C 4744.492188 4347.109375 4796.992188 4300.390625 4847.5 4242.695312 " transform="matrix(0.1,0,0,-0.1,0,792)"/>
<path style="fill:none;stroke-width:131.429;stroke-linecap:round;stroke-linejoin:miter;stroke:rgb(0%,0%,0%);stroke-opacity:1;stroke-miterlimit:10;" d="M 4684.609375 4387.5 C 4744.492188 4347.109375 4796.992188 4300.390625 4847.5 4242.695312 " transform="matrix(0.1,0,0,-0.1,0,792)"/>
<path style="fill:none;stroke-width:262.858;stroke-linecap:butt;stroke-linejoin:miter;stroke:rgb(100%,100%,100%);stroke-opacity:1;stroke-miterlimit:10;" d="M 3318.085938 6433.710938 C 3433.085938 6472.1875 3545.507812 6496.914062 3666.601562 6510.195312 " transform="matrix(0.1,0,0,-0.1,0,792)"/>
<path style="fill:none;stroke-width:131.429;stroke-linecap:round;stroke-linejoin:miter;stroke:rgb(0%,0%,0%);stroke-opacity:1;stroke-miterlimit:10;" d="M 3318.085938 6433.710938 C 3433.085938 6472.1875 3545.507812 6496.914062 3666.601562 6510.195312 " transform="matrix(0.1,0,0,-0.1,0,792)"/>
<path style="fill:none;stroke-width:262.858;stroke-linecap:butt;stroke-linejoin:miter;stroke:rgb(100%,100%,100%);stroke-opacity:1;stroke-miterlimit:10;" d="M 3478.710938 1433.90625 C 3366.914062 1415.390625 3260 1403.984375 3147.1875 1398.710938 " transform="matrix(0.1,0,0,-0.1,0,792)"/>
<path style="fill:none;stroke-width:131.429;stroke-linecap:round;stroke-linejoin:miter;stroke:rgb(0%,0%,0%);stroke-opacity:1;stroke-miterlimit:10;" d="M 3478.710938 1433.90625 C 3366.914062 1415.390625 3260 1403.984375 3147.1875 1398.710938 " transform="matrix(0.1,0,0,-0.1,0,792)"/>
<path style="fill:none;stroke-width:262.858;stroke-linecap:butt;stroke-linejoin:miter;stroke:rgb(100%,100%,100%);stroke-opacity:1;stroke-miterlimit:10;" d="M 1675.507812 3116.796875 C 1776.796875 3069.296875 1871.914062 3032.5 1970.390625 3002.617188 " transform="matrix(0.1,0,0,-0.1,0,792)"/>
<path style="fill:none;stroke-width:131.429;stroke-linecap:round;stroke-linejoin:miter;stroke:rgb(0%,0%,0%);stroke-opacity:1;stroke-miterlimit:10;" d="M 1675.507812 3116.796875 C 1776.796875 3069.296875 1871.914062 3032.5 1970.390625 3002.617188 " transform="matrix(0.1,0,0,-0.1,0,792)"/>
<path style="fill:none;stroke-width:262.858;stroke-linecap:butt;stroke-linejoin:miter;stroke:rgb(100%,100%,100%);stroke-opacity:1;stroke-miterlimit:10;" d="M 3147.8125 3508.59375 C 3047.890625 3578.515625 2963.398438 3642.8125 2886.015625 3708.007812 " transform="matrix(0.1,0,0,-0.1,0,792)"/>
<path style="fill:none;stroke-width:131.429;stroke-linecap:round;stroke-linejoin:miter;stroke:rgb(0%,0%,0%);stroke-opacity:1;stroke-miterlimit:10;" d="M 3147.8125 3508.59375 C 3047.890625 3578.515625 2963.398438 3642.8125 2886.015625 3708.007812 " transform="matrix(0.1,0,0,-0.1,0,792)"/>
<path style="fill:none;stroke-width:262.858;stroke-linecap:butt;stroke-linejoin:miter;stroke:rgb(100%,100%,100%);stroke-opacity:1;stroke-miterlimit:10;" d="M 3793.28125 1507.109375 C 3684.804688 1474.804688 3579.882812 1450.703125 3468.085938 1432.109375 " transform="matrix(0.1,0,0,-0.1,0,792)"/>
<path style="fill:none;stroke-width:131.429;stroke-linecap:round;stroke-linejoin:miter;stroke:rgb(0%,0%,0%);stroke-opacity:1;stroke-miterlimit:10;" d="M 3793.28125 1507.109375 C 3684.804688 1474.804688 3579.882812 1450.703125 3468.085938 1432.109375 " transform="matrix(0.1,0,0,-0.1,0,792)"/>
<path style="fill:none;stroke-width:262.858;stroke-linecap:butt;stroke-linejoin:miter;stroke:rgb(100%,100%,100%);stroke-opacity:1;stroke-miterlimit:10;" d="M 514.6875 4588.59375 C 522.109375 4486.796875 540.390625 4389.296875 571.484375 4286.40625 " transform="matrix(0.1,0,0,-0.1,0,792)"/>
<path style="fill:none;stroke-width:131.429;stroke-linecap:round;stroke-linejoin:miter;stroke:rgb(0%,0%,0%);stroke-opacity:1;stroke-miterlimit:10;" d="M 514.6875 4588.59375 C 522.109375 4486.796875 540.390625 4389.296875 571.484375 4286.40625 " transform="matrix(0.1,0,0,-0.1,0,792)"/>
<path style="fill:none;stroke-width:262.858;stroke-linecap:butt;stroke-linejoin:miter;stroke:rgb(100%,100%,100%);stroke-opacity:1;stroke-miterlimit:10;" d="M 4050.390625 3118.515625 C 3951.992188 3131.601562 3854.414062 3155.507812 3747.695312 3192.5 " transform="matrix(0.1,0,0,-0.1,0,792)"/>
<path style="fill:none;stroke-width:131.429;stroke-linecap:round;stroke-linejoin:miter;stroke:rgb(0%,0%,0%);stroke-opacity:1;stroke-miterlimit:10;" d="M 4050.390625 3118.515625 C 3951.992188 3131.601562 3854.414062 3155.507812 3747.695312 3192.5 " transform="matrix(0.1,0,0,-0.1,0,792)"/>
<path style="fill:none;stroke-width:262.858;stroke-linecap:butt;stroke-linejoin:miter;stroke:rgb(100%,100%,100%);stroke-opacity:1;stroke-miterlimit:10;" d="M 4094.21875 1621.015625 C 3991.796875 1573.984375 3891.40625 1536.210938 3782.890625 1503.984375 " transform="matrix(0.1,0,0,-0.1,0,792)"/>
<path style="fill:none;stroke-width:131.429;stroke-linecap:round;stroke-linejoin:miter;stroke:rgb(0%,0%,0%);stroke-opacity:1;stroke-miterlimit:10;" d="M 4094.21875 1621.015625 C 3991.796875 1573.984375 3891.40625 1536.210938 3782.890625 1503.984375 " transform="matrix(0.1,0,0,-0.1,0,792)"/>
<path style="fill:none;stroke-width:262.858;stroke-linecap:butt;stroke-linejoin:miter;stroke:rgb(100%,100%,100%);stroke-opacity:1;stroke-miterlimit:10;" d="M 1388.203125 3277.695312 C 1488.085938 3213.203125 1583.789062 3159.804688 1685.117188 3112.304688 " transform="matrix(0.1,0,0,-0.1,0,792)"/>
<path style="fill:none;stroke-width:131.429;stroke-linecap:round;stroke-linejoin:miter;stroke:rgb(0%,0%,0%);stroke-opacity:1;stroke-miterlimit:10;" d="M 1388.203125 3277.695312 C 1488.085938 3213.203125 1583.789062 3159.804688 1685.117188 3112.304688 " transform="matrix(0.1,0,0,-0.1,0,792)"/>
<path style="fill:none;stroke-width:262.858;stroke-linecap:butt;stroke-linejoin:miter;stroke:rgb(100%,100%,100%);stroke-opacity:1;stroke-miterlimit:10;" d="M 3448.28125 3325 C 3338.203125 3383.984375 3238.203125 3445.3125 3138.28125 3515.195312 " transform="matrix(0.1,0,0,-0.1,0,792)"/>
<path style="fill:none;stroke-width:131.429;stroke-linecap:round;stroke-linejoin:miter;stroke:rgb(0%,0%,0%);stroke-opacity:1;stroke-miterlimit:10;" d="M 3448.28125 3325 C 3338.203125 3383.984375 3238.203125 3445.3125 3138.28125 3515.195312 " transform="matrix(0.1,0,0,-0.1,0,792)"/>
<path style="fill:none;stroke-width:262.858;stroke-linecap:butt;stroke-linejoin:miter;stroke:rgb(100%,100%,100%);stroke-opacity:1;stroke-miterlimit:10;" d="M 568.59375 4296.210938 C 599.6875 4193.28125 640.820312 4096.71875 695.820312 3996.796875 " transform="matrix(0.1,0,0,-0.1,0,792)"/>
<path style="fill:none;stroke-width:131.429;stroke-linecap:round;stroke-linejoin:miter;stroke:rgb(0%,0%,0%);stroke-opacity:1;stroke-miterlimit:10;" d="M 568.59375 4296.210938 C 599.6875 4193.28125 640.820312 4096.71875 695.820312 3996.796875 " transform="matrix(0.1,0,0,-0.1,0,792)"/>
<path style="fill:none;stroke-width:262.858;stroke-linecap:butt;stroke-linejoin:miter;stroke:rgb(100%,100%,100%);stroke-opacity:1;stroke-miterlimit:10;" d="M 4842.695312 4248.203125 C 4893.085938 4190.585938 4936.914062 4125.390625 4978.398438 4046.210938 " transform="matrix(0.1,0,0,-0.1,0,792)"/>
<path style="fill:none;stroke-width:131.429;stroke-linecap:round;stroke-linejoin:miter;stroke:rgb(0%,0%,0%);stroke-opacity:1;stroke-miterlimit:10;" d="M 4842.695312 4248.203125 C 4893.085938 4190.585938 4936.914062 4125.390625 4978.398438 4046.210938 " transform="matrix(0.1,0,0,-0.1,0,792)"/>
<path style="fill:none;stroke-width:262.858;stroke-linecap:butt;stroke-linejoin:miter;stroke:rgb(100%,100%,100%);stroke-opacity:1;stroke-miterlimit:10;" d="M 3757.8125 3188.984375 C 3651.09375 3226.015625 3547.890625 3271.71875 3437.8125 3330.703125 " transform="matrix(0.1,0,0,-0.1,0,792)"/>
<path style="fill:none;stroke-width:131.429;stroke-linecap:round;stroke-linejoin:miter;stroke:rgb(0%,0%,0%);stroke-opacity:1;stroke-miterlimit:10;" d="M 3757.8125 3188.984375 C 3651.09375 3226.015625 3547.890625 3271.71875 3437.8125 3330.703125 " transform="matrix(0.1,0,0,-0.1,0,792)"/>
<path style="fill:none;stroke-width:262.858;stroke-linecap:butt;stroke-linejoin:miter;stroke:rgb(100%,100%,100%);stroke-opacity:1;stroke-miterlimit:10;" d="M 4373.203125 1778.515625 C 4280 1715.703125 4186.914062 1663.515625 4084.492188 1616.484375 " transform="matrix(0.1,0,0,-0.1,0,792)"/>
<path style="fill:none;stroke-width:131.429;stroke-linecap:round;stroke-linejoin:miter;stroke:rgb(0%,0%,0%);stroke-opacity:1;stroke-miterlimit:10;" d="M 4373.203125 1778.515625 C 4280 1715.703125 4186.914062 1663.515625 4084.492188 1616.484375 " transform="matrix(0.1,0,0,-0.1,0,792)"/>
<path style="fill:none;stroke-width:262.858;stroke-linecap:butt;stroke-linejoin:miter;stroke:rgb(100%,100%,100%);stroke-opacity:1;stroke-miterlimit:10;" d="M 1115.3125 3484.882812 C 1206.796875 3404.882812 1297.890625 3336.09375 1397.695312 3271.601562 " transform="matrix(0.1,0,0,-0.1,0,792)"/>
<path style="fill:none;stroke-width:131.429;stroke-linecap:round;stroke-linejoin:miter;stroke:rgb(0%,0%,0%);stroke-opacity:1;stroke-miterlimit:10;" d="M 1115.3125 3484.882812 C 1206.796875 3404.882812 1297.890625 3336.09375 1397.695312 3271.601562 " transform="matrix(0.1,0,0,-0.1,0,792)"/>
<path style="fill:none;stroke-width:262.858;stroke-linecap:butt;stroke-linejoin:miter;stroke:rgb(100%,100%,100%);stroke-opacity:1;stroke-miterlimit:10;" d="M 690.507812 4006.289062 C 745.585938 3906.40625 807.890625 3814.882812 883.984375 3722.695312 " transform="matrix(0.1,0,0,-0.1,0,792)"/>
<path style="fill:none;stroke-width:131.429;stroke-linecap:round;stroke-linejoin:miter;stroke:rgb(0%,0%,0%);stroke-opacity:1;stroke-miterlimit:10;" d="M 690.507812 4006.289062 C 745.585938 3906.40625 807.890625 3814.882812 883.984375 3722.695312 " transform="matrix(0.1,0,0,-0.1,0,792)"/>
<path style="fill:none;stroke-width:262.858;stroke-linecap:butt;stroke-linejoin:miter;stroke:rgb(100%,100%,100%);stroke-opacity:1;stroke-miterlimit:10;" d="M 876.679688 3731.484375 C 952.695312 3639.296875 1032.5 3557.304688 1123.984375 3477.304688 " transform="matrix(0.1,0,0,-0.1,0,792)"/>
<path style="fill:none;stroke-width:131.429;stroke-linecap:round;stroke-linejoin:miter;stroke:rgb(0%,0%,0%);stroke-opacity:1;stroke-miterlimit:10;" d="M 876.679688 3731.484375 C 952.695312 3639.296875 1032.5 3557.304688 1123.984375 3477.304688 " transform="matrix(0.1,0,0,-0.1,0,792)"/>
<path style="fill:none;stroke-width:262.858;stroke-linecap:butt;stroke-linejoin:miter;stroke:rgb(100%,100%,100%);stroke-opacity:1;stroke-miterlimit:10;" d="M 4621.015625 1981.484375 C 4540.3125 1902.617188 4457.5 1835.195312 4364.296875 1772.5 " transform="matrix(0.1,0,0,-0.1,0,792)"/>
<path style="fill:none;stroke-width:131.429;stroke-linecap:round;stroke-linejoin:miter;stroke:rgb(0%,0%,0%);stroke-opacity:1;stroke-miterlimit:10;" d="M 4621.015625 1981.484375 C 4540.3125 1902.617188 4457.5 1835.195312 4364.296875 1772.5 " transform="matrix(0.1,0,0,-0.1,0,792)"/>
<path style="fill:none;stroke-width:262.858;stroke-linecap:butt;stroke-linejoin:miter;stroke:rgb(100%,100%,100%);stroke-opacity:1;stroke-miterlimit:10;" d="M 4974.414062 4053.789062 C 5016.015625 3974.609375 5049.414062 3889.804688 5078.203125 3790.898438 " transform="matrix(0.1,0,0,-0.1,0,792)"/>
<path style="fill:none;stroke-width:131.429;stroke-linecap:round;stroke-linejoin:miter;stroke:rgb(0%,0%,0%);stroke-opacity:1;stroke-miterlimit:10;" d="M 4974.414062 4053.789062 C 5016.015625 3974.609375 5049.414062 3889.804688 5078.203125 3790.898438 " transform="matrix(0.1,0,0,-0.1,0,792)"/>
<path style="fill:none;stroke-width:262.858;stroke-linecap:butt;stroke-linejoin:miter;stroke:rgb(100%,100%,100%);stroke-opacity:1;stroke-miterlimit:10;" d="M 4828.710938 2229.609375 C 4763.515625 2135.390625 4694.101562 2052.890625 4613.398438 1973.984375 " transform="matrix(0.1,0,0,-0.1,0,792)"/>
<path style="fill:none;stroke-width:131.429;stroke-linecap:round;stroke-linejoin:miter;stroke:rgb(0%,0%,0%);stroke-opacity:1;stroke-miterlimit:10;" d="M 4828.710938 2229.609375 C 4763.515625 2135.390625 4694.101562 2052.890625 4613.398438 1973.984375 " transform="matrix(0.1,0,0,-0.1,0,792)"/>
<path style="fill:none;stroke-width:262.858;stroke-linecap:butt;stroke-linejoin:miter;stroke:rgb(100%,100%,100%);stroke-opacity:1;stroke-miterlimit:10;" d="M 4988.28125 2518.007812 C 4941.210938 2410.78125 4887.695312 2314.882812 4822.5 2220.703125 " transform="matrix(0.1,0,0,-0.1,0,792)"/>
<path style="fill:none;stroke-width:131.429;stroke-linecap:round;stroke-linejoin:miter;stroke:rgb(0%,0%,0%);stroke-opacity:1;stroke-miterlimit:10;" d="M 4988.28125 2518.007812 C 4941.210938 2410.78125 4887.695312 2314.882812 4822.5 2220.703125 " transform="matrix(0.1,0,0,-0.1,0,792)"/>
<path style="fill:none;stroke-width:262.858;stroke-linecap:butt;stroke-linejoin:miter;stroke:rgb(100%,100%,100%);stroke-opacity:1;stroke-miterlimit:10;" d="M 5075.507812 3800.3125 C 5104.21875 3701.484375 5123.710938 3600.898438 5135.703125 3488.515625 " transform="matrix(0.1,0,0,-0.1,0,792)"/>
<path style="fill:none;stroke-width:131.429;stroke-linecap:round;stroke-linejoin:miter;stroke:rgb(0%,0%,0%);stroke-opacity:1;stroke-miterlimit:10;" d="M 5075.507812 3800.3125 C 5104.21875 3701.484375 5123.710938 3600.898438 5135.703125 3488.515625 " transform="matrix(0.1,0,0,-0.1,0,792)"/>
<path style="fill:none;stroke-width:262.858;stroke-linecap:butt;stroke-linejoin:miter;stroke:rgb(100%,100%,100%);stroke-opacity:1;stroke-miterlimit:10;" d="M 5093.90625 2836.796875 C 5066.40625 2721.09375 5030.898438 2615 4983.789062 2507.8125 " transform="matrix(0.1,0,0,-0.1,0,792)"/>
<path style="fill:none;stroke-width:131.429;stroke-linecap:round;stroke-linejoin:miter;stroke:rgb(0%,0%,0%);stroke-opacity:1;stroke-miterlimit:10;" d="M 5093.90625 2836.796875 C 5066.40625 2721.09375 5030.898438 2615 4983.789062 2507.8125 " transform="matrix(0.1,0,0,-0.1,0,792)"/>
<path style="fill:none;stroke-width:262.858;stroke-linecap:butt;stroke-linejoin:miter;stroke:rgb(100%,100%,100%);stroke-opacity:1;stroke-miterlimit:10;" d="M 5134.609375 3499.21875 C 5146.71875 3386.796875 5148.984375 3277.1875 5141.71875 3159.296875 " transform="matrix(0.1,0,0,-0.1,0,792)"/>
<path style="fill:none;stroke-width:131.429;stroke-linecap:round;stroke-linejoin:miter;stroke:rgb(0%,0%,0%);stroke-opacity:1;stroke-miterlimit:10;" d="M 5134.609375 3499.21875 C 5146.71875 3386.796875 5148.984375 3277.1875 5141.71875 3159.296875 " transform="matrix(0.1,0,0,-0.1,0,792)"/>
<path style="fill:none;stroke-width:262.858;stroke-linecap:butt;stroke-linejoin:miter;stroke:rgb(100%,100%,100%);stroke-opacity:1;stroke-miterlimit:10;" d="M 5142.382812 3170.507812 C 5135.195312 3052.617188 5118.710938 2941.40625 5091.289062 2825.78125 " transform="matrix(0.1,0,0,-0.1,0,792)"/>
<path style="fill:none;stroke-width:131.429;stroke-linecap:round;stroke-linejoin:miter;stroke:rgb(0%,0%,0%);stroke-opacity:1;stroke-miterlimit:10;" d="M 5142.382812 3170.507812 C 5135.195312 3052.617188 5118.710938 2941.40625 5091.289062 2825.78125 " transform="matrix(0.1,0,0,-0.1,0,792)"/>
</g>
</svg>
