<?xml version="1.0" encoding="UTF-8"?>
<svg xmlns="http://www.w3.org/2000/svg" xmlns:xlink="http://www.w3.org/1999/xlink" width="612pt" height="792pt" viewBox="0 0 612 792" version="1.1">
<g id="surface1">
<path style="fill:none;stroke-width:9.9978;stroke-linecap:butt;stroke-linejoin:miter;stroke:rgb(17.97055%,70.455482%,25.732815%);stroke-opacity:1;stroke-miterlimit:10;" d="M 3031.835938 6507.617188 L 2795.390625 6333.671875 " transform="matrix(0.1,0,0,-0.1,0,792)"/>
<path style="fill:none;stroke-width:9.9978;stroke-linecap:butt;stroke-linejoin:miter;stroke:rgb(17.97055%,70.455482%,25.732815%);stroke-opacity:1;stroke-miterlimit:10;" d="M 2795.195312 6338.125 L 2296.289062 6143.007812 " transform="matrix(0.1,0,0,-0.1,0,792)"/>
<path style="fill:none;stroke-width:9.9978;stroke-linecap:butt;stroke-linejoin:miter;stroke:rgb(17.97055%,70.455482%,25.732815%);stroke-opacity:1;stroke-miterlimit:10;" d="M 1916.171875 6410.15625 L 1916.992188 6687.382812 " transform="matrix(0.1,0,0,-0.1,0,792)"/>
<path style="fill:none;stroke-width:9.9978;stroke-linecap:butt;stroke-linejoin:miter;stroke:rgb(17.97055%,70.455482%,25.732815%);stroke-opacity:1;stroke-miterlimit:10;" d="M 1916.171875 6410.15625 L 1534.335938 6608.007812 " transform="matrix(0.1,0,0,-0.1,0,792)"/>
<path style="fill:none;stroke-width:9.9978;stroke-linecap:butt;stroke-linejoin:miter;stroke:rgb(17.97055%,70.455482%,25.732815%);stroke-opacity:1;stroke-miterlimit:10;" d="M 1712.773438 6772.890625 L 1917.03125 6687.382812 " transform="matrix(0.1,0,0,-0.1,0,792)"/>
<path style="fill:none;stroke-width:9.9978;stroke-linecap:butt;stroke-linejoin:miter;stroke:rgb(17.97055%,70.455482%,25.732815%);stroke-opacity:1;stroke-miterlimit:10;" d="M 1534.335938 6608.007812 L 1712.773438 6772.890625 " transform="matrix(0.1,0,0,-0.1,0,792)"/>
<path style="fill:none;stroke-width:9.9978;stroke-linecap:butt;stroke-linejoin:miter;stroke:rgb(17.97055%,70.455482%,25.732815%);stroke-opacity:1;stroke-miterlimit:10;" d="M 1916.171875 6410.195312 L 1754.882812 6160.078125 " transform="matrix(0.1,0,0,-0.1,0,792)"/>
<path style="fill:none;stroke-width:9.9978;stroke-linecap:butt;stroke-linejoin:miter;stroke:rgb(17.97055%,70.455482%,25.732815%);stroke-opacity:1;stroke-miterlimit:10;" d="M 1754.882812 6160.078125 L 1900.898438 5911.835938 " transform="matrix(0.1,0,0,-0.1,0,792)"/>
<path style="fill:none;stroke-width:9.9978;stroke-linecap:butt;stroke-linejoin:miter;stroke:rgb(17.97055%,70.455482%,25.732815%);stroke-opacity:1;stroke-miterlimit:10;" d="M 1900.898438 5911.835938 L 1890.820312 5742.1875 " transform="matrix(0.1,0,0,-0.1,0,792)"/>
<path style="fill:none;stroke-width:9.9978;stroke-linecap:butt;stroke-linejoin:miter;stroke:rgb(17.97055%,70.455482%,25.732815%);stroke-opacity:1;stroke-miterlimit:10;" d="M 1890.820312 5742.1875 L 1704.53125 5527.695312 " transform="matrix(0.1,0,0,-0.1,0,792)"/>
<path style="fill:none;stroke-width:9.9978;stroke-linecap:butt;stroke-linejoin:miter;stroke:rgb(17.97055%,70.455482%,25.732815%);stroke-opacity:1;stroke-miterlimit:10;" d="M 1890.820312 5742.1875 L 2055.9375 5521.992188 " transform="matrix(0.1,0,0,-0.1,0,792)"/>
<path style="fill:none;stroke-width:9.9978;stroke-linecap:butt;stroke-linejoin:miter;stroke:rgb(17.97055%,70.455482%,25.732815%);stroke-opacity:1;stroke-miterlimit:10;" d="M 1890.820312 5742.1875 L 2043.203125 5732.578125 " transform="matrix(0.1,0,0,-0.1,0,792)"/>
<path style="fill:none;stroke-width:9.9978;stroke-linecap:butt;stroke-linejoin:miter;stroke:rgb(17.97055%,70.455482%,25.732815%);stroke-opacity:1;stroke-miterlimit:10;" d="M 2043.203125 5732.539062 L 1900.898438 5911.835938 " transform="matrix(0.1,0,0,-0.1,0,792)"/>
<path style="fill:none;stroke-width:9.9978;stroke-linecap:butt;stroke-linejoin:miter;stroke:rgb(17.97055%,70.455482%,25.732815%);stroke-opacity:1;stroke-miterlimit:10;" d="M 2296.289062 6143.007812 L 2735.3125 5928.398438 " transform="matrix(0.1,0,0,-0.1,0,792)"/>
<path style="fill:none;stroke-width:9.99724;stroke-linecap:butt;stroke-linejoin:miter;stroke:rgb(17.97055%,70.455482%,25.732815%);stroke-opacity:1;stroke-miterlimit:10;" d="M 2738.085938 5926.132812 L 2714.882812 5746.054688 " transform="matrix(0.1,0,0,-0.1,0,792)"/>
<path style="fill:none;stroke-width:9.9978;stroke-linecap:butt;stroke-linejoin:miter;stroke:rgb(17.97055%,70.455482%,25.732815%);stroke-opacity:1;stroke-miterlimit:10;" d="M 2716.640625 5741.328125 L 2546.953125 5536.09375 " transform="matrix(0.1,0,0,-0.1,0,792)"/>
<path style="fill:none;stroke-width:9.9978;stroke-linecap:butt;stroke-linejoin:miter;stroke:rgb(17.97055%,70.455482%,25.732815%);stroke-opacity:1;stroke-miterlimit:10;" d="M 2714.882812 5746.054688 L 2791.992188 5539.53125 " transform="matrix(0.1,0,0,-0.1,0,792)"/>
<path style="fill:none;stroke-width:9.99724;stroke-linecap:butt;stroke-linejoin:miter;stroke:rgb(17.97055%,70.455482%,25.732815%);stroke-opacity:1;stroke-miterlimit:10;" d="M 2714.882812 5746.054688 L 2932.1875 5732.734375 " transform="matrix(0.1,0,0,-0.1,0,792)"/>
<path style="fill:none;stroke-width:9.9978;stroke-linecap:butt;stroke-linejoin:miter;stroke:rgb(17.97055%,70.455482%,25.732815%);stroke-opacity:1;stroke-miterlimit:10;" d="M 2932.1875 5732.734375 L 3016.679688 5541.992188 " transform="matrix(0.1,0,0,-0.1,0,792)"/>
<path style="fill:none;stroke-width:9.9978;stroke-linecap:butt;stroke-linejoin:miter;stroke:rgb(17.97055%,70.455482%,25.732815%);stroke-opacity:1;stroke-miterlimit:10;" d="M 2929.0625 5735.820312 L 3137.5 5539.765625 " transform="matrix(0.1,0,0,-0.1,0,792)"/>
<path style="fill:none;stroke-width:9.99724;stroke-linecap:butt;stroke-linejoin:miter;stroke:rgb(17.97055%,70.455482%,25.732815%);stroke-opacity:1;stroke-miterlimit:10;" d="M 2932.1875 5732.734375 L 2738.046875 5926.132812 " transform="matrix(0.1,0,0,-0.1,0,792)"/>
<path style="fill:none;stroke-width:9.9978;stroke-linecap:butt;stroke-linejoin:miter;stroke:rgb(17.97055%,70.455482%,25.732815%);stroke-opacity:1;stroke-miterlimit:10;" d="M 2735.3125 5928.398438 L 3058.164062 6073.398438 " transform="matrix(0.1,0,0,-0.1,0,792)"/>
<path style="fill:none;stroke-width:9.9978;stroke-linecap:butt;stroke-linejoin:miter;stroke:rgb(17.97055%,70.455482%,25.732815%);stroke-opacity:1;stroke-miterlimit:10;" d="M 3058.164062 6073.398438 L 2795.195312 6338.125 " transform="matrix(0.1,0,0,-0.1,0,792)"/>
<path style="fill:none;stroke-width:9.9978;stroke-linecap:butt;stroke-linejoin:miter;stroke:rgb(17.97055%,70.455482%,25.732815%);stroke-opacity:1;stroke-miterlimit:10;" d="M 1916.171875 6410.195312 L 2296.289062 6143.007812 " transform="matrix(0.1,0,0,-0.1,0,792)"/>
<path style="fill:none;stroke-width:9.9978;stroke-linecap:butt;stroke-linejoin:miter;stroke:rgb(17.97055%,70.455482%,25.732815%);stroke-opacity:1;stroke-miterlimit:10;" d="M 3031.679688 6512.070312 L 3201.328125 6595.898438 " transform="matrix(0.1,0,0,-0.1,0,792)"/>
<path style="fill:none;stroke-width:9.9978;stroke-linecap:butt;stroke-linejoin:miter;stroke:rgb(17.97055%,70.455482%,25.732815%);stroke-opacity:1;stroke-miterlimit:10;" d="M 3031.679688 6512.070312 L 3045.15625 6700.9375 " transform="matrix(0.1,0,0,-0.1,0,792)"/>
<path style=" stroke:none;fill-rule:evenodd;fill:rgb(13.730068%,12.159915%,12.54902%);fill-opacity:1;" d="M 303.382812 139.816406 C 302.84375 139.699219 302.308594 140.039062 302.191406 140.578125 C 302.070312 141.121094 302.414062 141.652344 302.953125 141.769531 C 303.492188 141.890625 304.027344 141.546875 304.144531 141.007812 C 304.261719 140.46875 303.921875 139.9375 303.382812 139.816406 "/>
<path style=" stroke:none;fill-rule:evenodd;fill:rgb(13.730068%,12.159915%,12.54902%);fill-opacity:1;" d="M 279.855469 157.335938 C 279.316406 157.214844 278.78125 157.558594 278.664062 158.097656 C 278.546875 158.636719 278.886719 159.171875 279.429688 159.289062 C 279.96875 159.40625 280.5 159.0625 280.617188 158.523438 C 280.738281 157.984375 280.394531 157.453125 279.855469 157.335938 "/>
<path style=" stroke:none;fill-rule:evenodd;fill:rgb(13.730068%,12.159915%,12.54902%);fill-opacity:1;" d="M 191.734375 150.207031 C 191.195312 150.089844 190.660156 150.429688 190.542969 150.972656 C 190.425781 151.511719 190.765625 152.042969 191.304688 152.160156 C 191.84375 152.28125 192.378906 151.9375 192.496094 151.398438 C 192.613281 150.859375 192.273438 150.324219 191.734375 150.207031 "/>
<path style=" stroke:none;fill-rule:evenodd;fill:rgb(13.730068%,12.159915%,12.54902%);fill-opacity:1;" d="M 175.703125 175.015625 C 175.164062 174.898438 174.628906 175.242188 174.511719 175.78125 C 174.394531 176.320312 174.734375 176.851562 175.273438 176.972656 C 175.816406 177.089844 176.347656 176.746094 176.464844 176.207031 C 176.585938 175.667969 176.242188 175.136719 175.703125 175.015625 "/>
<path style=" stroke:none;fill-rule:evenodd;fill:rgb(13.730068%,12.159915%,12.54902%);fill-opacity:1;" d="M 189.296875 216.804688 C 188.757812 216.683594 188.222656 217.027344 188.105469 217.566406 C 187.988281 218.105469 188.328125 218.636719 188.867188 218.757812 C 189.40625 218.875 189.941406 218.535156 190.058594 217.992188 C 190.175781 217.453125 189.835938 216.921875 189.296875 216.804688 "/>
<path style=" stroke:none;fill-rule:evenodd;fill:rgb(13.730068%,12.159915%,12.54902%);fill-opacity:1;" d="M 205.832031 238.496094 C 205.292969 238.378906 204.757812 238.71875 204.640625 239.257812 C 204.523438 239.796875 204.863281 240.332031 205.402344 240.449219 C 205.941406 240.566406 206.476562 240.226562 206.59375 239.6875 C 206.714844 239.148438 206.371094 238.613281 205.832031 238.496094 "/>
<path style=" stroke:none;fill-rule:evenodd;fill:rgb(13.730068%,12.159915%,12.54902%);fill-opacity:1;" d="M 204.535156 217.769531 C 203.996094 217.648438 203.460938 217.992188 203.34375 218.53125 C 203.226562 219.070312 203.566406 219.601562 204.105469 219.722656 C 204.644531 219.839844 205.179688 219.496094 205.296875 218.960938 C 205.414062 218.417969 205.074219 217.886719 204.535156 217.769531 "/>
<path style=" stroke:none;fill-rule:evenodd;fill:rgb(13.730068%,12.159915%,12.54902%);fill-opacity:1;" d="M 271.703125 216.417969 C 271.160156 216.300781 270.628906 216.640625 270.511719 217.179688 C 270.394531 217.71875 270.734375 218.253906 271.273438 218.371094 C 271.8125 218.488281 272.347656 218.148438 272.464844 217.609375 C 272.582031 217.070312 272.242188 216.535156 271.703125 216.417969 "/>
<path style=" stroke:none;fill-rule:evenodd;fill:rgb(13.730068%,12.159915%,12.54902%);fill-opacity:1;" d="M 254.910156 237.410156 C 254.371094 237.296875 253.839844 237.636719 253.71875 238.175781 C 253.601562 238.714844 253.941406 239.246094 254.484375 239.367188 C 255.023438 239.484375 255.554688 239.144531 255.675781 238.605469 C 255.792969 238.0625 255.449219 237.53125 254.910156 237.410156 "/>
<path style=" stroke:none;fill-rule:evenodd;fill:rgb(13.730068%,12.159915%,12.54902%);fill-opacity:1;" d="M 279.410156 237.070312 C 278.871094 236.953125 278.339844 237.292969 278.222656 237.832031 C 278.101562 238.371094 278.445312 238.90625 278.984375 239.023438 C 279.523438 239.140625 280.054688 238.800781 280.175781 238.261719 C 280.292969 237.722656 279.949219 237.1875 279.410156 237.070312 "/>
<path style=" stroke:none;fill-rule:evenodd;fill:rgb(13.730068%,12.159915%,12.54902%);fill-opacity:1;" d="M 293.121094 217.441406 C 292.582031 217.324219 292.046875 217.664062 291.929688 218.203125 C 291.8125 218.742188 292.152344 219.277344 292.691406 219.394531 C 293.230469 219.511719 293.765625 219.171875 293.882812 218.632812 C 294.003906 218.09375 293.660156 217.558594 293.121094 217.441406 "/>
<path style=" stroke:none;fill-rule:evenodd;fill:rgb(13.730068%,12.159915%,12.54902%);fill-opacity:1;" d="M 301.882812 236.820312 C 301.339844 236.703125 300.808594 237.046875 300.691406 237.585938 C 300.570312 238.125 300.914062 238.65625 301.453125 238.773438 C 301.992188 238.894531 302.527344 238.550781 302.644531 238.011719 C 302.761719 237.472656 302.421875 236.941406 301.882812 236.820312 "/>
<path style=" stroke:none;fill-rule:evenodd;fill:rgb(13.730068%,12.159915%,12.54902%);fill-opacity:1;" d="M 306.03125 183.683594 C 305.492188 183.566406 304.957031 183.90625 304.839844 184.445312 C 304.722656 184.988281 305.0625 185.519531 305.601562 185.636719 C 306.140625 185.757812 306.675781 185.414062 306.792969 184.875 C 306.910156 184.335938 306.570312 183.804688 306.03125 183.683594 "/>
<path style=" stroke:none;fill-rule:evenodd;fill:rgb(13.730068%,12.159915%,12.54902%);fill-opacity:1;" d="M 320.347656 131.4375 C 319.808594 131.316406 319.273438 131.660156 319.15625 132.199219 C 319.039062 132.738281 319.378906 133.269531 319.921875 133.390625 C 320.460938 133.507812 320.992188 133.164062 321.109375 132.628906 C 321.230469 132.085938 320.886719 131.554688 320.347656 131.4375 "/>
<path style="fill:none;stroke-width:9.9978;stroke-linecap:butt;stroke-linejoin:miter;stroke:rgb(0%,65.099565%,31.369497%);stroke-opacity:1;stroke-miterlimit:2.61313;" d="M 1534.335938 6608.007812 L 1717.96875 6615.859375 " transform="matrix(0.1,0,0,-0.1,0,792)"/>
<path style=" stroke:none;fill-rule:evenodd;fill:rgb(13.730068%,12.159915%,12.54902%);fill-opacity:1;" d="M 171.589844 129.457031 C 171.050781 129.339844 170.519531 129.679688 170.398438 130.21875 C 170.28125 130.757812 170.621094 131.292969 171.164062 131.410156 C 171.703125 131.527344 172.234375 131.1875 172.355469 130.648438 C 172.472656 130.109375 172.128906 129.574219 171.589844 129.457031 "/>
<path style=" stroke:none;fill-rule:evenodd;fill:rgb(13.730068%,12.159915%,12.54902%);fill-opacity:1;" d="M 170.667969 238.253906 C 170.128906 238.132812 169.59375 238.476562 169.476562 239.015625 C 169.359375 239.554688 169.699219 240.089844 170.238281 240.207031 C 170.777344 240.324219 171.3125 239.984375 171.429688 239.445312 C 171.550781 238.902344 171.207031 238.371094 170.667969 238.253906 "/>
<path style=" stroke:none;fill-rule:evenodd;fill:rgb(13.730068%,12.159915%,12.54902%);fill-opacity:1;" d="M 190.304688 199.839844 C 189.765625 199.722656 189.230469 200.0625 189.113281 200.601562 C 188.992188 201.144531 189.335938 201.675781 189.875 201.792969 C 190.414062 201.910156 190.949219 201.570312 191.066406 201.03125 C 191.183594 200.492188 190.84375 199.960938 190.304688 199.839844 "/>
<path style="fill:none;stroke-width:9.9978;stroke-linecap:butt;stroke-linejoin:miter;stroke:rgb(0%,65.099565%,31.369497%);stroke-opacity:1;stroke-miterlimit:2.61313;" d="M 1900.898438 5911.835938 L 2296.289062 6143.007812 " transform="matrix(0.1,0,0,-0.1,0,792)"/>
<path style=" stroke:none;fill-rule:evenodd;fill:rgb(13.730068%,12.159915%,12.54902%);fill-opacity:1;" d="M 229.839844 176.722656 C 229.300781 176.601562 228.769531 176.945312 228.648438 177.484375 C 228.53125 178.023438 228.871094 178.554688 229.414062 178.675781 C 229.953125 178.792969 230.484375 178.453125 230.601562 177.910156 C 230.722656 177.371094 230.378906 176.839844 229.839844 176.722656 "/>
<path style=" stroke:none;fill-rule:evenodd;fill:rgb(13.730068%,12.159915%,12.54902%);fill-opacity:1;" d="M 273.746094 198.183594 C 273.203125 198.066406 272.671875 198.40625 272.554688 198.949219 C 272.4375 199.488281 272.777344 200.019531 273.316406 200.140625 C 273.855469 200.257812 274.390625 199.914062 274.507812 199.375 C 274.625 198.835938 274.285156 198.304688 273.746094 198.183594 "/>
<path style=" stroke:none;fill-rule:evenodd;fill:rgb(13.730068%,12.159915%,12.54902%);fill-opacity:1;" d="M 153.648438 130.222656 C 153.109375 130.105469 152.574219 130.445312 152.457031 130.988281 C 152.339844 131.527344 152.679688 132.058594 153.21875 132.179688 C 153.761719 132.296875 154.292969 131.953125 154.410156 131.414062 C 154.527344 130.875 154.1875 130.34375 153.648438 130.222656 "/>
<path style=" stroke:none;fill-rule:evenodd;fill:rgb(13.730068%,12.159915%,12.54902%);fill-opacity:1;" d="M 191.914062 122.285156 C 191.378906 122.164062 190.84375 122.507812 190.726562 123.046875 C 190.605469 123.585938 190.949219 124.121094 191.488281 124.238281 C 192.027344 124.355469 192.5625 124.015625 192.679688 123.476562 C 192.796875 122.9375 192.457031 122.402344 191.914062 122.285156 "/>
<path style=" stroke:none;fill-rule:evenodd;fill:rgb(13.730068%,12.159915%,12.54902%);fill-opacity:1;" d="M 171.488281 113.734375 C 170.949219 113.613281 170.417969 113.957031 170.300781 114.496094 C 170.179688 115.035156 170.523438 115.570312 171.0625 115.6875 C 171.601562 115.804688 172.132812 115.464844 172.253906 114.925781 C 172.371094 114.386719 172.03125 113.851562 171.488281 113.734375 "/>
<path style=" stroke:none;fill-rule:evenodd;fill:rgb(13.730068%,12.159915%,12.54902%);fill-opacity:1;" d="M 304.730469 120.933594 C 304.191406 120.8125 303.65625 121.15625 303.539062 121.695312 C 303.421875 122.234375 303.761719 122.765625 304.300781 122.886719 C 304.839844 123.003906 305.375 122.660156 305.492188 122.121094 C 305.609375 121.582031 305.269531 121.050781 304.730469 120.933594 "/>
<path style=" stroke:none;fill-rule:evenodd;fill:rgb(13.730068%,12.159915%,12.54902%);fill-opacity:1;" d="M 313.964844 237.050781 C 313.425781 236.929688 312.890625 237.273438 312.773438 237.8125 C 312.65625 238.351562 312.996094 238.882812 313.535156 239.003906 C 314.074219 239.121094 314.609375 238.777344 314.726562 238.238281 C 314.847656 237.699219 314.503906 237.167969 313.964844 237.050781 "/>
<path style="fill:none;stroke-width:9.9978;stroke-linecap:butt;stroke-linejoin:miter;stroke:rgb(92.941176%,10.978866%,14.119173%);stroke-opacity:1;stroke-miterlimit:10;" d="M 4189.648438 6013.4375 C 4050.117188 6167.890625 3943.085938 6350.039062 3878.984375 6568.75 " transform="matrix(0.1,0,0,-0.1,0,792)"/>
<path style="fill:none;stroke-width:9.9978;stroke-linecap:butt;stroke-linejoin:miter;stroke:rgb(92.941176%,10.978866%,14.119173%);stroke-opacity:1;stroke-miterlimit:10;" d="M 4189.140625 6014.375 C 4081.757812 6467.421875 3944.375 6510.625 3878.4375 6569.726562 " transform="matrix(0.1,0,0,-0.1,0,792)"/>
<path style="fill:none;stroke-width:9.9978;stroke-linecap:butt;stroke-linejoin:miter;stroke:rgb(92.941176%,10.978866%,14.119173%);stroke-opacity:1;stroke-miterlimit:10;" d="M 4189.140625 6014.375 C 3996.835938 6475.898438 3895.3125 6543.671875 3878.4375 6569.726562 " transform="matrix(0.1,0,0,-0.1,0,792)"/>
<path style="fill:none;stroke-width:9.9978;stroke-linecap:butt;stroke-linejoin:miter;stroke:rgb(92.941176%,10.978866%,14.119173%);stroke-opacity:1;stroke-miterlimit:10;" d="M 4189.648438 6013.4375 C 4086.132812 6198.515625 3982.539062 6383.632812 3878.984375 6568.75 " transform="matrix(0.1,0,0,-0.1,0,792)"/>
<path style="fill:none;stroke-width:9.9978;stroke-linecap:butt;stroke-linejoin:miter;stroke:rgb(17.97055%,70.455482%,25.732815%);stroke-opacity:1;stroke-miterlimit:10;" d="M 4662.773438 6498.242188 L 4193.476562 6011.171875 " transform="matrix(0.1,0,0,-0.1,0,792)"/>
<path style="fill:none;stroke-width:9.9978;stroke-linecap:butt;stroke-linejoin:miter;stroke:rgb(17.97055%,70.455482%,25.732815%);stroke-opacity:1;stroke-miterlimit:10;" d="M 4748.554688 6400.664062 L 4191.445312 6009.453125 " transform="matrix(0.1,0,0,-0.1,0,792)"/>
<path style="fill:none;stroke-width:9.9978;stroke-linecap:butt;stroke-linejoin:miter;stroke:rgb(17.97055%,70.455482%,25.732815%);stroke-opacity:1;stroke-miterlimit:10;" d="M 4710.976562 6450.820312 L 4191.015625 6009.0625 " transform="matrix(0.1,0,0,-0.1,0,792)"/>
<path style=" stroke:none;fill-rule:evenodd;fill:rgb(13.730068%,12.159915%,12.54902%);fill-opacity:1;" d="M 467.289062 142.945312 C 466.863281 143.503906 466.066406 143.609375 465.507812 143.183594 C 464.949219 142.761719 464.839844 141.964844 465.265625 141.402344 C 465.691406 140.847656 466.488281 140.738281 467.046875 141.164062 C 467.605469 141.589844 467.714844 142.386719 467.289062 142.945312 "/>
<path style=" stroke:none;fill-rule:evenodd;fill:rgb(13.730068%,12.159915%,12.54902%);fill-opacity:1;" d="M 472.109375 147.6875 C 471.683594 148.246094 470.886719 148.355469 470.328125 147.929688 C 469.769531 147.503906 469.660156 146.707031 470.085938 146.148438 C 470.511719 145.589844 471.308594 145.480469 471.867188 145.90625 C 472.425781 146.332031 472.535156 147.128906 472.109375 147.6875 "/>
<path style=" stroke:none;fill-rule:evenodd;fill:rgb(13.730068%,12.159915%,12.54902%);fill-opacity:1;" d="M 475.867188 152.707031 C 475.441406 153.265625 474.644531 153.371094 474.085938 152.945312 C 473.527344 152.519531 473.421875 151.722656 473.847656 151.164062 C 474.269531 150.605469 475.066406 150.496094 475.628906 150.925781 C 476.1875 151.347656 476.292969 152.148438 475.867188 152.707031 "/>
<path style="fill:none;stroke-width:9.9978;stroke-linecap:butt;stroke-linejoin:miter;stroke:rgb(92.941176%,10.978866%,14.119173%);stroke-opacity:1;stroke-miterlimit:10;" d="M 4188.945312 6020.585938 C 4205.976562 6233.085938 4266.328125 6440.820312 4384.21875 6642.304688 " transform="matrix(0.1,0,0,-0.1,0,792)"/>
<path style="fill:none;stroke-width:9.9978;stroke-linecap:butt;stroke-linejoin:miter;stroke:rgb(92.941176%,10.978866%,14.119173%);stroke-opacity:1;stroke-miterlimit:10;" d="M 4189.296875 6021.640625 C 4373.90625 6400.039062 4369.765625 6548.242188 4384.53125 6643.359375 " transform="matrix(0.1,0,0,-0.1,0,792)"/>
<path style="fill:none;stroke-width:9.9978;stroke-linecap:butt;stroke-linejoin:miter;stroke:rgb(92.941176%,10.978866%,14.119173%);stroke-opacity:1;stroke-miterlimit:10;" d="M 4189.296875 6021.640625 L 4384.53125 6643.359375 " transform="matrix(0.1,0,0,-0.1,0,792)"/>
<path style=" stroke:none;fill-rule:evenodd;fill:rgb(13.730068%,12.159915%,12.54902%);fill-opacity:1;" d="M 438.554688 129.035156 C 437.855469 129.105469 437.226562 128.597656 437.15625 127.902344 C 437.082031 127.203125 437.589844 126.578125 438.285156 126.503906 C 438.984375 126.429688 439.609375 126.9375 439.683594 127.636719 C 439.757812 128.332031 439.253906 128.957031 438.554688 129.035156 "/>
<path style="fill:none;stroke-width:9.9978;stroke-linecap:butt;stroke-linejoin:miter;stroke:rgb(92.941176%,10.978866%,14.119173%);stroke-opacity:1;stroke-miterlimit:10;" d="M 4442.773438 5700.195312 C 4337.617188 5783.59375 4250.15625 5888.046875 4186.09375 6020.351562 " transform="matrix(0.1,0,0,-0.1,0,792)"/>
<path style="fill:none;stroke-width:9.9978;stroke-linecap:butt;stroke-linejoin:miter;stroke:rgb(92.941176%,10.978866%,14.119173%);stroke-opacity:1;stroke-miterlimit:10;" d="M 4442.34375 5700.742188 C 4309.21875 5929.960938 4230.195312 5979.804688 4185.664062 6020.898438 " transform="matrix(0.1,0,0,-0.1,0,792)"/>
<path style="fill:none;stroke-width:9.9978;stroke-linecap:butt;stroke-linejoin:miter;stroke:rgb(92.941176%,10.978866%,14.119173%);stroke-opacity:1;stroke-miterlimit:10;" d="M 4442.34375 5700.742188 L 4185.664062 6020.898438 " transform="matrix(0.1,0,0,-0.1,0,792)"/>
<path style=" stroke:none;fill-rule:evenodd;fill:rgb(13.730068%,12.159915%,12.54902%);fill-opacity:1;" d="M 444.703125 222.285156 C 444.277344 222.84375 443.480469 222.949219 442.921875 222.523438 C 442.363281 222.101562 442.253906 221.300781 442.679688 220.742188 C 443.105469 220.183594 443.902344 220.078125 444.460938 220.503906 C 445.019531 220.929688 445.128906 221.726562 444.703125 222.285156 "/>
<path style=" stroke:none;fill-rule:evenodd;fill:rgb(13.730068%,12.159915%,12.54902%);fill-opacity:1;" d="M 420.113281 191.863281 C 419.6875 192.425781 418.890625 192.53125 418.328125 192.105469 C 417.773438 191.679688 417.664062 190.882812 418.089844 190.324219 C 418.515625 189.765625 419.3125 189.65625 419.871094 190.082031 C 420.429688 190.507812 420.539062 191.308594 420.113281 191.863281 "/>
<path style="fill:none;stroke-width:9.9978;stroke-linecap:butt;stroke-linejoin:miter;stroke:rgb(92.941176%,10.978866%,14.119173%);stroke-opacity:1;stroke-miterlimit:10;" d="M 3888.085938 5752.695312 C 3968.671875 5860.039062 4070.742188 5950.273438 4201.289062 6017.8125 " transform="matrix(0.1,0,0,-0.1,0,792)"/>
<path style="fill:none;stroke-width:9.9978;stroke-linecap:butt;stroke-linejoin:miter;stroke:rgb(92.941176%,10.978866%,14.119173%);stroke-opacity:1;stroke-miterlimit:10;" d="M 3888.59375 5753.164062 C 4114.21875 5892.34375 4161.953125 5972.617188 4201.835938 6018.242188 " transform="matrix(0.1,0,0,-0.1,0,792)"/>
<path style="fill:none;stroke-width:9.9978;stroke-linecap:butt;stroke-linejoin:miter;stroke:rgb(92.941176%,10.978866%,14.119173%);stroke-opacity:1;stroke-miterlimit:10;" d="M 3888.632812 5753.125 L 4201.835938 6018.242188 " transform="matrix(0.1,0,0,-0.1,0,792)"/>
<path style="fill:none;stroke-width:9.9978;stroke-linecap:butt;stroke-linejoin:miter;stroke:rgb(0%,65.099565%,31.369497%);stroke-opacity:1;stroke-miterlimit:2.61313;" d="M 4222.304688 5680.664062 L 4196.25 6000 L 4160.976562 5680.664062 " transform="matrix(0.1,0,0,-0.1,0,792)"/>
<path style="fill:none;stroke-width:9.9978;stroke-linecap:butt;stroke-linejoin:miter;stroke:rgb(0%,65.099565%,31.369497%);stroke-opacity:1;stroke-miterlimit:2.61313;" d="M 4191.132812 5684.609375 L 4196.132812 6011.5625 L 4125.625 5692.148438 " transform="matrix(0.1,0,0,-0.1,0,792)"/>
<path style="fill:none;stroke-width:9.9978;stroke-linecap:butt;stroke-linejoin:miter;stroke:rgb(0%,65.099565%,31.369497%);stroke-opacity:1;stroke-miterlimit:2.61313;" d="M 4254.492188 5694.296875 L 4191.015625 6009.0625 L 4085.898438 5700.703125 " transform="matrix(0.1,0,0,-0.1,0,792)"/>
<path style="fill:none;stroke-width:9.9978;stroke-linecap:butt;stroke-linejoin:miter;stroke:rgb(0%,65.099565%,31.369497%);stroke-opacity:1;stroke-miterlimit:2.61313;" d="M 4191.015625 6009.0625 L 4292.070312 5701.796875 " transform="matrix(0.1,0,0,-0.1,0,792)"/>
<path style=" stroke:none;fill-rule:evenodd;fill:rgb(13.730068%,12.159915%,12.54902%);fill-opacity:1;" d="M 430.21875 222.589844 C 429.792969 223.148438 428.996094 223.257812 428.4375 222.832031 C 427.878906 222.40625 427.769531 221.609375 428.195312 221.050781 C 428.621094 220.492188 429.417969 220.382812 429.976562 220.808594 C 430.535156 221.234375 430.644531 222.03125 430.21875 222.589844 "/>
<path style=" stroke:none;fill-rule:evenodd;fill:rgb(13.730068%,12.159915%,12.54902%);fill-opacity:1;" d="M 426.460938 223.34375 C 426.035156 223.902344 425.238281 224.007812 424.679688 223.582031 C 424.121094 223.15625 424.011719 222.359375 424.4375 221.800781 C 424.863281 221.242188 425.660156 221.136719 426.21875 221.5625 C 426.777344 221.984375 426.886719 222.785156 426.460938 223.34375 "/>
<path style=" stroke:none;fill-rule:evenodd;fill:rgb(13.730068%,12.159915%,12.54902%);fill-opacity:1;" d="M 423.242188 224.703125 C 422.816406 225.261719 422.019531 225.367188 421.460938 224.941406 C 420.902344 224.519531 420.796875 223.71875 421.21875 223.160156 C 421.644531 222.601562 422.441406 222.496094 423.003906 222.921875 C 423.558594 223.347656 423.667969 224.144531 423.242188 224.703125 "/>
<path style=" stroke:none;fill-rule:evenodd;fill:rgb(13.730068%,12.159915%,12.54902%);fill-opacity:1;" d="M 420.125 224.308594 C 419.699219 224.867188 418.902344 224.976562 418.34375 224.550781 C 417.785156 224.125 417.675781 223.324219 418.101562 222.769531 C 418.527344 222.210938 419.324219 222.101562 419.882812 222.527344 C 420.441406 222.953125 420.550781 223.75 420.125 224.308594 "/>
<path style=" stroke:none;fill-rule:evenodd;fill:rgb(13.730068%,12.159915%,12.54902%);fill-opacity:1;" d="M 417.167969 224.171875 C 416.742188 224.730469 415.945312 224.839844 415.386719 224.410156 C 414.828125 223.988281 414.71875 223.1875 415.144531 222.628906 C 415.570312 222.070312 416.367188 221.964844 416.925781 222.390625 C 417.484375 222.816406 417.59375 223.613281 417.167969 224.171875 "/>
<path style=" stroke:none;fill-rule:evenodd;fill:rgb(13.730068%,12.159915%,12.54902%);fill-opacity:1;" d="M 413.574219 223.558594 C 413.148438 224.117188 412.351562 224.222656 411.789062 223.796875 C 411.234375 223.371094 411.125 222.574219 411.550781 222.015625 C 411.976562 221.457031 412.773438 221.351562 413.332031 221.773438 C 413.890625 222.199219 414 222.996094 413.574219 223.558594 "/>
<path style=" stroke:none;fill-rule:evenodd;fill:rgb(13.730068%,12.159915%,12.54902%);fill-opacity:1;" d="M 409.601562 222.699219 C 409.175781 223.257812 408.378906 223.363281 407.816406 222.9375 C 407.261719 222.511719 407.152344 221.714844 407.578125 221.15625 C 408.003906 220.597656 408.800781 220.492188 409.359375 220.914062 C 409.917969 221.339844 410.023438 222.140625 409.601562 222.699219 "/>
<path style="fill:none;stroke-width:9.9978;stroke-linecap:butt;stroke-linejoin:miter;stroke:rgb(92.941176%,10.978866%,14.119173%);stroke-opacity:1;stroke-miterlimit:2.61313;" d="M 4196.132812 6011.5625 C 5365.078125 5904.960938 3949.296875 5266.992188 3888.085938 5752.695312 " transform="matrix(0.1,0,0,-0.1,0,792)"/>
<path style="fill:none;stroke-width:9.9978;stroke-linecap:butt;stroke-linejoin:miter;stroke:rgb(92.941176%,10.978866%,14.119173%);stroke-opacity:1;stroke-miterlimit:2.61313;" d="M 4196.132812 6011.5625 C 4951.523438 6291.757812 5004.375 5610.742188 4309.453125 5507.421875 C 3589.101562 5400.390625 3690.898438 6026.328125 4201.367188 6016.445312 " transform="matrix(0.1,0,0,-0.1,0,792)"/>
<path style=" stroke:none;fill-rule:evenodd;fill:rgb(13.730068%,12.159915%,12.54902%);fill-opacity:1;" d="M 418.746094 191.769531 C 418.175781 191.359375 418.046875 190.5625 418.457031 189.992188 C 418.867188 189.421875 419.664062 189.292969 420.230469 189.703125 C 420.800781 190.113281 420.929688 190.910156 420.519531 191.480469 C 420.105469 192.046875 419.316406 192.175781 418.746094 191.769531 "/>
<path style=" stroke:none;fill-rule:evenodd;fill:rgb(13.730068%,12.159915%,12.54902%);fill-opacity:1;" d="M 388.117188 217.71875 C 387.550781 217.308594 387.421875 216.511719 387.828125 215.941406 C 388.242188 215.371094 389.035156 215.242188 389.605469 215.65625 C 390.175781 216.066406 390.304688 216.859375 389.894531 217.429688 C 389.480469 217.996094 388.6875 218.128906 388.117188 217.71875 "/>
<path style=" stroke:none;fill-rule:evenodd;fill:rgb(13.730068%,12.159915%,12.54902%);fill-opacity:1;" d="M 388.03125 136.390625 C 387.335938 136.460938 386.707031 135.953125 386.632812 135.257812 C 386.5625 134.558594 387.066406 133.933594 387.765625 133.859375 C 388.460938 133.785156 389.089844 134.292969 389.164062 134.992188 C 389.234375 135.6875 388.730469 136.3125 388.03125 136.390625 "/>
</g>
</svg>
