<?xml version="1.0" encoding="UTF-8"?>
<svg xmlns="http://www.w3.org/2000/svg" xmlns:xlink="http://www.w3.org/1999/xlink" width="612pt" height="792pt" viewBox="0 0 612 792" version="1.1">
<g id="surface1">
<path style="fill:none;stroke-width:7.5005;stroke-linecap:butt;stroke-linejoin:miter;stroke:rgb(0%,65.099565%,31.369497%);stroke-opacity:1;stroke-miterlimit:2.61313;" d="M 2875.273438 6684.375 C 2882.109375 6647.890625 2900.195312 6619.492188 2929.453125 6599.21875 " transform="matrix(0.1,0,0,-0.1,0,792)"/>
<path style="fill:none;stroke-width:7.5005;stroke-linecap:butt;stroke-linejoin:miter;stroke:rgb(0%,65.099565%,31.369497%);stroke-opacity:1;stroke-miterlimit:2.61313;" d="M 3019.140625 6474.375 C 2999.414062 6433.710938 2980.351562 6405.625 2961.992188 6390.078125 " transform="matrix(0.1,0,0,-0.1,0,792)"/>
<path style="fill:none;stroke-width:7.5005;stroke-linecap:butt;stroke-linejoin:miter;stroke:rgb(0%,65.099565%,31.369497%);stroke-opacity:1;stroke-miterlimit:2.61313;" d="M 3201.289062 6719.414062 C 3187.070312 6758.398438 3166.015625 6782.851562 3138.125 6792.8125 " transform="matrix(0.1,0,0,-0.1,0,792)"/>
<path style="fill:none;stroke-width:7.5005;stroke-linecap:butt;stroke-linejoin:miter;stroke:rgb(0%,65.099565%,31.369497%);stroke-opacity:1;stroke-miterlimit:2.61313;" d="M 3318.710938 6699.375 C 3325.859375 6731.835938 3352.109375 6748.320312 3397.5 6748.867188 " transform="matrix(0.1,0,0,-0.1,0,792)"/>
<path style="fill:none;stroke-width:7.5005;stroke-linecap:butt;stroke-linejoin:miter;stroke:rgb(0%,65.099565%,31.369497%);stroke-opacity:1;stroke-miterlimit:2.61313;" d="M 3388.554688 6428.632812 C 3427.03125 6449.453125 3459.296875 6450.3125 3485.3125 6431.289062 " transform="matrix(0.1,0,0,-0.1,0,792)"/>
<path style="fill:none;stroke-width:7.5005;stroke-linecap:butt;stroke-linejoin:miter;stroke:rgb(0%,65.099565%,31.369497%);stroke-opacity:1;stroke-miterlimit:2.61313;" d="M 3260.46875 6263.90625 C 3273.242188 6239.179688 3272.460938 6206.914062 3258.085938 6167.109375 " transform="matrix(0.1,0,0,-0.1,0,792)"/>
<path style="fill:none;stroke-width:7.5005;stroke-linecap:butt;stroke-linejoin:miter;stroke:rgb(0%,65.099565%,31.369497%);stroke-opacity:1;stroke-miterlimit:2.61313;" d="M 2810.546875 6288.671875 C 2839.335938 6309.570312 2869.921875 6316.992188 2902.382812 6310.859375 " transform="matrix(0.1,0,0,-0.1,0,792)"/>
<path style="fill:none;stroke-width:7.5005;stroke-linecap:butt;stroke-linejoin:miter;stroke:rgb(92.941176%,10.978866%,14.119173%);stroke-opacity:1;stroke-miterlimit:2.61313;" d="M 3388.867188 6101.171875 C 3422.265625 6115.234375 3454.414062 6122.1875 3485.351562 6122.109375 " transform="matrix(0.1,0,0,-0.1,0,792)"/>
<path style="fill:none;stroke-width:7.5005;stroke-linecap:butt;stroke-linejoin:miter;stroke:rgb(92.941176%,10.978866%,14.119173%);stroke-opacity:1;stroke-miterlimit:2.61313;" d="M 3568.945312 6187.890625 C 3582.1875 6229.882812 3588.359375 6263.476562 3587.460938 6288.59375 " transform="matrix(0.1,0,0,-0.1,0,792)"/>
<path style="fill:none;stroke-width:7.5005;stroke-linecap:butt;stroke-linejoin:miter;stroke:rgb(0%,65.099565%,31.369497%);stroke-opacity:1;stroke-miterlimit:2.61313;" d="M 2521.835938 6865.15625 C 2499.0625 6839.6875 2484.921875 6808.710938 2479.375 6772.1875 " transform="matrix(0.1,0,0,-0.1,0,792)"/>
<path style="fill:none;stroke-width:7.5005;stroke-linecap:butt;stroke-linejoin:miter;stroke:rgb(92.941176%,10.978866%,14.119173%);stroke-opacity:1;stroke-miterlimit:2.61313;" d="M 2263.164062 6817.03125 C 2295.9375 6798.4375 2318.203125 6773.515625 2329.882812 6742.265625 " transform="matrix(0.1,0,0,-0.1,0,792)"/>
<path style="fill:none;stroke-width:7.5005;stroke-linecap:butt;stroke-linejoin:miter;stroke:rgb(92.941176%,10.978866%,14.119173%);stroke-opacity:1;stroke-miterlimit:2.61313;" d="M 2093.554688 6493.75 C 2125.078125 6468.164062 2157.109375 6463.984375 2189.570312 6481.25 " transform="matrix(0.1,0,0,-0.1,0,792)"/>
<path style="fill:none;stroke-width:7.5005;stroke-linecap:butt;stroke-linejoin:miter;stroke:rgb(0%,65.099565%,31.369497%);stroke-opacity:1;stroke-miterlimit:2.61313;" d="M 2292.421875 6442.773438 C 2292.929688 6410.585938 2309.648438 6382.96875 2342.539062 6359.921875 " transform="matrix(0.1,0,0,-0.1,0,792)"/>
<path style="fill:none;stroke-width:7.5005;stroke-linecap:butt;stroke-linejoin:miter;stroke:rgb(0%,65.099565%,31.369497%);stroke-opacity:1;stroke-miterlimit:2.61313;" d="M 2511.953125 6553.867188 C 2528.164062 6520.507812 2537.34375 6489.609375 2539.53125 6461.054688 " transform="matrix(0.1,0,0,-0.1,0,792)"/>
<path style="fill:none;stroke-width:7.5005;stroke-linecap:butt;stroke-linejoin:miter;stroke:rgb(0%,65.099565%,31.369497%);stroke-opacity:1;stroke-miterlimit:2.61313;" d="M 2684.765625 6598.046875 C 2713.203125 6604.960938 2738.007812 6627.773438 2759.257812 6666.445312 " transform="matrix(0.1,0,0,-0.1,0,792)"/>
<path style="fill:none;stroke-width:7.5005;stroke-linecap:butt;stroke-linejoin:miter;stroke:rgb(0%,65.099565%,31.369497%);stroke-opacity:1;stroke-miterlimit:2.61313;" d="M 2582.539062 6388.125 C 2600.273438 6366.757812 2619.960938 6341.171875 2641.640625 6311.445312 " transform="matrix(0.1,0,0,-0.1,0,792)"/>
<path style="fill:none;stroke-width:7.5005;stroke-linecap:butt;stroke-linejoin:miter;stroke:rgb(0%,65.099565%,31.369497%);stroke-opacity:1;stroke-miterlimit:2.61313;" d="M 2558.359375 5947.265625 C 2573.710938 5984.960938 2589.101562 6015.3125 2604.492188 6038.359375 " transform="matrix(0.1,0,0,-0.1,0,792)"/>
<path style="fill:none;stroke-width:7.5005;stroke-linecap:butt;stroke-linejoin:miter;stroke:rgb(0%,65.099565%,31.369497%);stroke-opacity:1;stroke-miterlimit:2.61313;" d="M 2728.007812 6026.875 C 2730.3125 5984.335938 2745.820312 5954.375 2774.492188 5936.953125 " transform="matrix(0.1,0,0,-0.1,0,792)"/>
<path style="fill:none;stroke-width:7.5005;stroke-linecap:butt;stroke-linejoin:miter;stroke:rgb(13.730068%,12.159915%,12.54902%);stroke-opacity:1;stroke-miterlimit:2.61313;" d="M 2329.882812 6742.265625 C 2385.78125 6776.640625 2435.625 6786.601562 2479.375 6772.1875 " transform="matrix(0.1,0,0,-0.1,0,792)"/>
<path style="fill:none;stroke-width:7.5005;stroke-linecap:butt;stroke-linejoin:miter;stroke:rgb(13.730068%,12.159915%,12.54902%);stroke-opacity:1;stroke-miterlimit:2.61313;" d="M 2262.265625 6811.523438 C 2318.4375 6902.34375 2404.648438 6918.398438 2520.9375 6859.648438 " transform="matrix(0.1,0,0,-0.1,0,792)"/>
<path style="fill:none;stroke-width:7.5005;stroke-linecap:butt;stroke-linejoin:miter;stroke:rgb(13.730068%,12.159915%,12.54902%);stroke-opacity:1;stroke-miterlimit:2.61313;" d="M 2188.671875 6475.78125 C 2169.335938 6371.171875 2203.90625 6360.15625 2292.421875 6442.773438 " transform="matrix(0.1,0,0,-0.1,0,792)"/>
<path style="fill:none;stroke-width:7.5005;stroke-linecap:butt;stroke-linejoin:miter;stroke:rgb(13.730068%,12.159915%,12.54902%);stroke-opacity:1;stroke-miterlimit:2.61313;" d="M 2093.554688 6493.75 C 1944.257812 6159.453125 2027.265625 6114.84375 2342.539062 6359.921875 " transform="matrix(0.1,0,0,-0.1,0,792)"/>
<path style="fill:none;stroke-width:7.5005;stroke-linecap:butt;stroke-linejoin:miter;stroke:rgb(13.730068%,12.159915%,12.54902%);stroke-opacity:1;stroke-miterlimit:2.61313;" d="M 2603.59375 6032.851562 C 2660.78125 5999.140625 2701.992188 5995.351562 2727.109375 6021.40625 " transform="matrix(0.1,0,0,-0.1,0,792)"/>
<path style="fill:none;stroke-width:7.5005;stroke-linecap:butt;stroke-linejoin:miter;stroke:rgb(13.730068%,12.159915%,12.54902%);stroke-opacity:1;stroke-miterlimit:2.61313;" d="M 2558.359375 5947.265625 C 2633.75 5852.734375 2705.78125 5849.296875 2774.492188 5936.953125 " transform="matrix(0.1,0,0,-0.1,0,792)"/>
<path style="fill:none;stroke-width:7.5005;stroke-linecap:butt;stroke-linejoin:miter;stroke:rgb(13.730068%,12.159915%,12.54902%);stroke-opacity:1;stroke-miterlimit:2.61313;" d="M 2758.359375 6660.976562 C 2800.351562 6610.625 2839.0625 6616.601562 2874.375 6678.867188 " transform="matrix(0.1,0,0,-0.1,0,792)"/>
<path style="fill:none;stroke-width:7.5005;stroke-linecap:butt;stroke-linejoin:miter;stroke:rgb(13.730068%,12.159915%,12.54902%);stroke-opacity:1;stroke-miterlimit:2.61313;" d="M 2684.765625 6598.046875 C 2718.4375 6562.226562 2660.820312 6547.5 2511.953125 6553.867188 " transform="matrix(0.1,0,0,-0.1,0,792)"/>
<path style="fill:none;stroke-width:7.5005;stroke-linecap:butt;stroke-linejoin:miter;stroke:rgb(13.730068%,12.159915%,12.54902%);stroke-opacity:1;stroke-miterlimit:2.61313;" d="M 2539.53125 6461.054688 C 2697.734375 6496.40625 2712.070312 6472.070312 2582.539062 6388.125 " transform="matrix(0.1,0,0,-0.1,0,792)"/>
<path style="fill:none;stroke-width:7.5005;stroke-linecap:butt;stroke-linejoin:miter;stroke:rgb(13.730068%,12.159915%,12.54902%);stroke-opacity:1;stroke-miterlimit:2.61313;" d="M 2641.640625 6311.445312 C 2762.8125 6424.375 2818.828125 6414.921875 2809.609375 6283.203125 " transform="matrix(0.1,0,0,-0.1,0,792)"/>
<path style="fill:none;stroke-width:7.5005;stroke-linecap:butt;stroke-linejoin:miter;stroke:rgb(13.730068%,12.159915%,12.54902%);stroke-opacity:1;stroke-miterlimit:2.61313;" d="M 2902.382812 6310.859375 C 2838.75 6422.539062 2858.59375 6448.945312 2961.992188 6390.078125 " transform="matrix(0.1,0,0,-0.1,0,792)"/>
<path style="fill:none;stroke-width:7.5005;stroke-linecap:butt;stroke-linejoin:miter;stroke:rgb(13.730068%,12.159915%,12.54902%);stroke-opacity:1;stroke-miterlimit:2.61313;" d="M 3018.242188 6468.90625 C 2877.734375 6485.15625 2848.164062 6528.59375 2929.453125 6599.257812 " transform="matrix(0.1,0,0,-0.1,0,792)"/>
<path style="fill:none;stroke-width:7.5005;stroke-linecap:butt;stroke-linejoin:miter;stroke:rgb(13.730068%,12.159915%,12.54902%);stroke-opacity:1;stroke-miterlimit:2.61313;" d="M 3201.289062 6719.414062 C 3252.304688 6768.945312 3291.171875 6760.429688 3317.8125 6693.90625 " transform="matrix(0.1,0,0,-0.1,0,792)"/>
<path style="fill:none;stroke-width:7.5005;stroke-linecap:butt;stroke-linejoin:miter;stroke:rgb(13.730068%,12.159915%,12.54902%);stroke-opacity:1;stroke-miterlimit:2.61313;" d="M 3138.125 6792.8125 C 3225.742188 6925.195312 3312.226562 6910.546875 3397.5 6748.867188 " transform="matrix(0.1,0,0,-0.1,0,792)"/>
<path style="fill:none;stroke-width:7.5005;stroke-linecap:butt;stroke-linejoin:miter;stroke:rgb(13.730068%,12.159915%,12.54902%);stroke-opacity:1;stroke-miterlimit:2.61313;" d="M 3484.414062 6425.78125 C 3447.109375 6328.671875 3481.171875 6281.09375 3586.5625 6283.085938 " transform="matrix(0.1,0,0,-0.1,0,792)"/>
<path style="fill:none;stroke-width:7.5005;stroke-linecap:butt;stroke-linejoin:miter;stroke:rgb(13.730068%,12.159915%,12.54902%);stroke-opacity:1;stroke-miterlimit:2.61313;" d="M 3568.945312 6187.890625 C 3492.421875 6218.007812 3464.257812 6194.257812 3484.414062 6116.601562 " transform="matrix(0.1,0,0,-0.1,0,792)"/>
<path style="fill:none;stroke-width:7.5005;stroke-linecap:butt;stroke-linejoin:miter;stroke:rgb(13.730068%,12.159915%,12.54902%);stroke-opacity:1;stroke-miterlimit:2.61313;" d="M 3388.867188 6101.171875 C 3407.382812 6184.296875 3363.789062 6206.289062 3258.085938 6167.109375 " transform="matrix(0.1,0,0,-0.1,0,792)"/>
<path style="fill:none;stroke-width:7.5005;stroke-linecap:butt;stroke-linejoin:miter;stroke:rgb(13.730068%,12.159915%,12.54902%);stroke-opacity:1;stroke-miterlimit:2.61313;" d="M 3260.46875 6263.90625 C 3378.28125 6267.890625 3420.664062 6320.976562 3387.65625 6423.164062 " transform="matrix(0.1,0,0,-0.1,0,792)"/>
<path style="fill:none;stroke-width:7.5005;stroke-linecap:butt;stroke-linejoin:miter;stroke:rgb(92.941176%,10.978866%,14.119173%);stroke-opacity:1;stroke-miterlimit:2.61313;" d="M 2094.453125 6499.21875 C 2099.53125 6642.617188 2155.78125 6748.515625 2263.164062 6817.03125 " transform="matrix(0.1,0,0,-0.1,0,792)"/>
<path style="fill:none;stroke-width:7.5005;stroke-linecap:butt;stroke-linejoin:miter;stroke:rgb(0%,65.099565%,31.369497%);stroke-opacity:1;stroke-miterlimit:2.61313;" d="M 2521.835938 6865.15625 C 2626.914062 6842.96875 2706.054688 6776.757812 2759.257812 6666.445312 " transform="matrix(0.1,0,0,-0.1,0,792)"/>
<path style="fill:none;stroke-width:7.5005;stroke-linecap:butt;stroke-linejoin:miter;stroke:rgb(0%,65.099565%,31.369497%);stroke-opacity:1;stroke-miterlimit:2.61313;" d="M 2480.3125 6777.695312 C 2562.539062 6747.460938 2630.976562 6689.414062 2685.703125 6603.515625 " transform="matrix(0.1,0,0,-0.1,0,792)"/>
<path style="fill:none;stroke-width:7.5005;stroke-linecap:butt;stroke-linejoin:miter;stroke:rgb(92.941176%,10.978866%,14.119173%);stroke-opacity:1;stroke-miterlimit:2.61313;" d="M 2189.570312 6481.25 C 2229.023438 6614.257812 2276.09375 6703.085938 2330.820312 6747.773438 " transform="matrix(0.1,0,0,-0.1,0,792)"/>
<path style="fill:none;stroke-width:7.5005;stroke-linecap:butt;stroke-linejoin:miter;stroke:rgb(0%,65.099565%,31.369497%);stroke-opacity:1;stroke-miterlimit:2.61313;" d="M 2293.359375 6448.28125 C 2345.15625 6519.570312 2418.320312 6556.601562 2512.890625 6559.335938 " transform="matrix(0.1,0,0,-0.1,0,792)"/>
<path style="fill:none;stroke-width:7.5005;stroke-linecap:butt;stroke-linejoin:miter;stroke:rgb(0%,65.099565%,31.369497%);stroke-opacity:1;stroke-miterlimit:2.61313;" d="M 2343.4375 6365.390625 C 2407.773438 6423.4375 2473.476562 6457.148438 2540.429688 6466.523438 " transform="matrix(0.1,0,0,-0.1,0,792)"/>
<path style="fill:none;stroke-width:7.5005;stroke-linecap:butt;stroke-linejoin:miter;stroke:rgb(0%,65.099565%,31.369497%);stroke-opacity:1;stroke-miterlimit:2.61313;" d="M 2930.351562 6604.726562 C 3107.226562 6663.320312 3197.851562 6703.398438 3202.1875 6724.882812 " transform="matrix(0.1,0,0,-0.1,0,792)"/>
<path style="fill:none;stroke-width:7.5005;stroke-linecap:butt;stroke-linejoin:miter;stroke:rgb(0%,65.099565%,31.369497%);stroke-opacity:1;stroke-miterlimit:2.61313;" d="M 2875.273438 6684.375 C 3003.945312 6743.828125 3091.875 6781.835938 3139.023438 6798.28125 " transform="matrix(0.1,0,0,-0.1,0,792)"/>
<path style="fill:none;stroke-width:7.5005;stroke-linecap:butt;stroke-linejoin:miter;stroke:rgb(0%,65.099565%,31.369497%);stroke-opacity:1;stroke-miterlimit:2.61313;" d="M 3318.710938 6699.375 C 3371.132812 6601.835938 3394.414062 6511.601562 3388.554688 6428.632812 " transform="matrix(0.1,0,0,-0.1,0,792)"/>
<path style="fill:none;stroke-width:7.5005;stroke-linecap:butt;stroke-linejoin:miter;stroke:rgb(0%,65.099565%,31.369497%);stroke-opacity:1;stroke-miterlimit:2.61313;" d="M 3398.398438 6754.375 C 3468.710938 6642.382812 3497.695312 6534.6875 3485.3125 6431.289062 " transform="matrix(0.1,0,0,-0.1,0,792)"/>
<path style="fill:none;stroke-width:7.5005;stroke-linecap:butt;stroke-linejoin:miter;stroke:rgb(0%,65.099565%,31.369497%);stroke-opacity:1;stroke-miterlimit:2.61313;" d="M 3019.140625 6474.375 C 3092.851562 6425.585938 3179.296875 6357.265625 3278.398438 6269.414062 " transform="matrix(0.1,0,0,-0.1,0,792)"/>
<path style="fill:none;stroke-width:7.5005;stroke-linecap:butt;stroke-linejoin:miter;stroke:rgb(0%,65.099565%,31.369497%);stroke-opacity:1;stroke-miterlimit:2.61313;" d="M 2962.890625 6395.585938 C 3121.445312 6223.007812 3220.15625 6148.671875 3258.984375 6172.617188 " transform="matrix(0.1,0,0,-0.1,0,792)"/>
<path style="fill:none;stroke-width:7.5005;stroke-linecap:butt;stroke-linejoin:miter;stroke:rgb(92.941176%,10.978866%,14.119173%);stroke-opacity:1;stroke-miterlimit:2.61313;" d="M 3485.351562 6122.109375 C 3527.578125 5846.210938 3842.578125 6108.4375 3569.882812 6193.398438 " transform="matrix(0.1,0,0,-0.1,0,792)"/>
<path style="fill:none;stroke-width:7.5005;stroke-linecap:butt;stroke-linejoin:miter;stroke:rgb(92.941176%,10.978866%,14.119173%);stroke-opacity:1;stroke-miterlimit:2.61313;" d="M 3390.46875 6101.875 C 3454.101562 5343.945312 4270.742188 6268.007812 3587.460938 6288.59375 " transform="matrix(0.1,0,0,-0.1,0,792)"/>
<path style="fill:none;stroke-width:7.5005;stroke-linecap:butt;stroke-linejoin:miter;stroke:rgb(0%,65.099565%,31.369497%);stroke-opacity:1;stroke-miterlimit:2.61313;" d="M 2604.492188 6038.359375 C 2509.140625 6127.929688 2521.835938 6220.78125 2642.539062 6316.914062 " transform="matrix(0.1,0,0,-0.1,0,792)"/>
<path style="fill:none;stroke-width:7.5005;stroke-linecap:butt;stroke-linejoin:miter;stroke:rgb(0%,65.099565%,31.369497%);stroke-opacity:1;stroke-miterlimit:2.61313;" d="M 2559.257812 5952.734375 C 2360.3125 6080.273438 2368.398438 6227.226562 2583.4375 6393.59375 " transform="matrix(0.1,0,0,-0.1,0,792)"/>
<path style="fill:none;stroke-width:7.5005;stroke-linecap:butt;stroke-linejoin:miter;stroke:rgb(0%,65.099565%,31.369497%);stroke-opacity:1;stroke-miterlimit:2.61313;" d="M 2810.546875 6288.671875 C 2831.523438 6174.882812 2804.023438 6087.617188 2728.007812 6026.875 " transform="matrix(0.1,0,0,-0.1,0,792)"/>
<path style="fill:none;stroke-width:7.5005;stroke-linecap:butt;stroke-linejoin:miter;stroke:rgb(0%,65.099565%,31.369497%);stroke-opacity:1;stroke-miterlimit:2.61313;" d="M 2775.390625 5942.460938 C 2891.914062 6017.617188 2934.53125 6142.265625 2903.320312 6316.328125 " transform="matrix(0.1,0,0,-0.1,0,792)"/>
<path style=" stroke:none;fill-rule:evenodd;fill:rgb(13.730068%,12.159915%,12.54902%);fill-opacity:1;" d="M 226.160156 112.550781 C 225.21875 112.515625 224.484375 111.722656 224.519531 110.78125 C 224.558594 109.839844 225.351562 109.105469 226.289062 109.140625 C 227.230469 109.179688 227.964844 109.972656 227.929688 110.910156 C 227.890625 111.851562 227.097656 112.585938 226.160156 112.550781 "/>
<path style="fill:none;stroke-width:10.0006;stroke-linecap:butt;stroke-linejoin:miter;stroke:rgb(13.730068%,12.159915%,12.54902%);stroke-opacity:1;stroke-miterlimit:2.61313;" d="M 2261.601562 6794.492188 C 2252.1875 6794.84375 2244.84375 6802.773438 2245.195312 6812.1875 C 2245.585938 6821.601562 2253.515625 6828.945312 2262.890625 6828.59375 C 2272.304688 6828.203125 2279.648438 6820.273438 2279.296875 6810.898438 C 2278.90625 6801.484375 2270.976562 6794.140625 2261.601562 6794.492188 Z M 2261.601562 6794.492188 " transform="matrix(0.1,0,0,-0.1,0,792)"/>
<path style=" stroke:none;fill-rule:evenodd;fill:rgb(100%,100%,100%);fill-opacity:1;" d="M 232.925781 119.476562 C 231.984375 119.4375 231.25 118.644531 231.285156 117.707031 C 231.324219 116.765625 232.113281 116.03125 233.054688 116.066406 C 233.996094 116.105469 234.730469 116.898438 234.695312 117.839844 C 234.65625 118.777344 233.863281 119.511719 232.925781 119.476562 "/>
<path style="fill:none;stroke-width:10.0006;stroke-linecap:butt;stroke-linejoin:miter;stroke:rgb(13.730068%,12.159915%,12.54902%);stroke-opacity:1;stroke-miterlimit:2.61313;" d="M 2329.257812 6725.234375 C 2319.84375 6725.625 2312.5 6733.554688 2312.851562 6742.929688 C 2313.242188 6752.34375 2321.132812 6759.6875 2330.546875 6759.335938 C 2339.960938 6758.945312 2347.304688 6751.015625 2346.953125 6741.601562 C 2346.5625 6732.226562 2338.632812 6724.882812 2329.257812 6725.234375 Z M 2329.257812 6725.234375 " transform="matrix(0.1,0,0,-0.1,0,792)"/>
<path style=" stroke:none;fill-rule:evenodd;fill:rgb(13.730068%,12.159915%,12.54902%);fill-opacity:1;" d="M 249.5625 114.25 C 249.851562 115.144531 249.363281 116.109375 248.46875 116.402344 C 247.574219 116.691406 246.609375 116.203125 246.316406 115.308594 C 246.027344 114.414062 246.515625 113.449219 247.410156 113.160156 C 248.304688 112.867188 249.269531 113.355469 249.5625 114.25 "/>
<path style="fill:none;stroke-width:10.0006;stroke-linecap:butt;stroke-linejoin:miter;stroke:rgb(13.730068%,12.159915%,12.54902%);stroke-opacity:1;stroke-miterlimit:2.61313;" d="M 2495.625 6777.5 C 2498.515625 6768.554688 2493.632812 6758.90625 2484.6875 6755.976562 C 2475.742188 6753.085938 2466.09375 6757.96875 2463.164062 6766.914062 C 2460.273438 6775.859375 2465.15625 6785.507812 2474.101562 6788.398438 C 2483.046875 6791.328125 2492.695312 6786.445312 2495.625 6777.5 Z M 2495.625 6777.5 " transform="matrix(0.1,0,0,-0.1,0,792)"/>
<path style=" stroke:none;fill-rule:evenodd;fill:rgb(13.730068%,12.159915%,12.54902%);fill-opacity:1;" d="M 313.640625 114.414062 C 312.703125 114.320312 312.019531 113.484375 312.117188 112.546875 C 312.210938 111.609375 313.046875 110.925781 313.984375 111.023438 C 314.921875 111.117188 315.605469 111.957031 315.507812 112.894531 C 315.414062 113.828125 314.574219 114.511719 313.640625 114.414062 "/>
<path style="fill:none;stroke-width:10.0006;stroke-linecap:butt;stroke-linejoin:miter;stroke:rgb(13.730068%,12.159915%,12.54902%);stroke-opacity:1;stroke-miterlimit:2.61313;" d="M 3136.40625 6775.859375 C 3127.03125 6776.796875 3120.195312 6785.15625 3121.171875 6794.53125 C 3122.109375 6803.90625 3130.46875 6810.742188 3139.84375 6809.765625 C 3149.21875 6808.828125 3156.054688 6800.429688 3155.078125 6791.054688 C 3154.140625 6781.71875 3145.742188 6774.882812 3136.40625 6775.859375 Z M 3136.40625 6775.859375 " transform="matrix(0.1,0,0,-0.1,0,792)"/>
<path style=" stroke:none;fill-rule:evenodd;fill:rgb(100%,100%,100%);fill-opacity:1;" d="M 319.953125 121.753906 C 319.019531 121.660156 318.335938 120.820312 318.429688 119.882812 C 318.527344 118.949219 319.363281 118.265625 320.300781 118.359375 C 321.238281 118.457031 321.921875 119.292969 321.824219 120.230469 C 321.726562 121.167969 320.890625 121.851562 319.953125 121.753906 "/>
<path style="fill:none;stroke-width:10.0006;stroke-linecap:butt;stroke-linejoin:miter;stroke:rgb(13.730068%,12.159915%,12.54902%);stroke-opacity:1;stroke-miterlimit:2.61313;" d="M 3199.53125 6702.460938 C 3190.195312 6703.398438 3183.359375 6711.796875 3184.296875 6721.171875 C 3185.273438 6730.507812 3193.632812 6737.34375 3203.007812 6736.40625 C 3212.382812 6735.429688 3219.21875 6727.070312 3218.242188 6717.695312 C 3217.265625 6708.320312 3208.90625 6701.484375 3199.53125 6702.460938 Z M 3199.53125 6702.460938 " transform="matrix(0.1,0,0,-0.1,0,792)"/>
<path style=" stroke:none;fill-rule:evenodd;fill:rgb(13.730068%,12.159915%,12.54902%);fill-opacity:1;" d="M 333.449219 122.964844 C 333.253906 123.886719 332.351562 124.476562 331.429688 124.28125 C 330.507812 124.085938 329.917969 123.179688 330.113281 122.257812 C 330.308594 121.339844 331.210938 120.746094 332.132812 120.941406 C 333.054688 121.136719 333.644531 122.042969 333.449219 122.964844 "/>
<path style="fill:none;stroke-width:10.0006;stroke-linecap:butt;stroke-linejoin:miter;stroke:rgb(13.730068%,12.159915%,12.54902%);stroke-opacity:1;stroke-miterlimit:2.61313;" d="M 3334.492188 6690.351562 C 3332.539062 6681.132812 3323.515625 6675.234375 3314.296875 6677.1875 C 3305.078125 6679.140625 3299.179688 6688.203125 3301.132812 6697.421875 C 3303.085938 6706.601562 3312.109375 6712.539062 3321.328125 6710.585938 C 3330.546875 6708.632812 3336.445312 6699.570312 3334.492188 6690.351562 Z M 3334.492188 6690.351562 " transform="matrix(0.1,0,0,-0.1,0,792)"/>
<path style=" stroke:none;fill-rule:evenodd;fill:rgb(100%,100%,100%);fill-opacity:1;" d="M 341.417969 117.464844 C 341.222656 118.386719 340.316406 118.976562 339.398438 118.78125 C 338.476562 118.585938 337.886719 117.679688 338.082031 116.761719 C 338.277344 115.839844 339.179688 115.25 340.101562 115.445312 C 341.023438 115.640625 341.613281 116.542969 341.417969 117.464844 "/>
<path style="fill:none;stroke-width:10.0006;stroke-linecap:butt;stroke-linejoin:miter;stroke:rgb(13.730068%,12.159915%,12.54902%);stroke-opacity:1;stroke-miterlimit:2.61313;" d="M 3414.179688 6745.351562 C 3412.226562 6736.132812 3403.164062 6730.234375 3393.984375 6732.1875 C 3384.765625 6734.140625 3378.867188 6743.203125 3380.820312 6752.382812 C 3382.773438 6761.601562 3391.796875 6767.5 3401.015625 6765.546875 C 3410.234375 6763.59375 3416.132812 6754.570312 3414.179688 6745.351562 Z M 3414.179688 6745.351562 " transform="matrix(0.1,0,0,-0.1,0,792)"/>
<path style=" stroke:none;fill-rule:evenodd;fill:rgb(13.730068%,12.159915%,12.54902%);fill-opacity:1;" d="M 347.234375 148.214844 C 347.902344 147.546875 348.980469 147.546875 349.648438 148.214844 C 350.3125 148.878906 350.3125 149.960938 349.648438 150.625 C 348.980469 151.289062 347.902344 151.289062 347.234375 150.625 C 346.570312 149.960938 346.570312 148.878906 347.234375 148.214844 "/>
<path style="fill:none;stroke-width:10.0006;stroke-linecap:butt;stroke-linejoin:miter;stroke:rgb(13.730068%,12.159915%,12.54902%);stroke-opacity:1;stroke-miterlimit:2.61313;" d="M 3472.34375 6437.851562 C 3479.023438 6444.53125 3489.804688 6444.53125 3496.484375 6437.851562 C 3503.125 6431.210938 3503.125 6420.390625 3496.484375 6413.75 C 3489.804688 6407.109375 3479.023438 6407.109375 3472.34375 6413.75 C 3465.703125 6420.390625 3465.703125 6431.210938 3472.34375 6437.851562 Z M 3472.34375 6437.851562 " transform="matrix(0.1,0,0,-0.1,0,792)"/>
<path style=" stroke:none;fill-rule:evenodd;fill:rgb(100%,100%,100%);fill-opacity:1;" d="M 337.558594 148.476562 C 338.222656 147.8125 339.304688 147.8125 339.96875 148.476562 C 340.636719 149.140625 340.636719 150.222656 339.96875 150.886719 C 339.304688 151.554688 338.222656 151.554688 337.558594 150.890625 C 336.894531 150.222656 336.890625 149.144531 337.558594 148.476562 "/>
<path style="fill:none;stroke-width:10.0006;stroke-linecap:butt;stroke-linejoin:miter;stroke:rgb(13.730068%,12.159915%,12.54902%);stroke-opacity:1;stroke-miterlimit:2.61313;" d="M 3375.585938 6435.234375 C 3382.226562 6441.875 3393.046875 6441.875 3399.6875 6435.234375 C 3406.367188 6428.59375 3406.367188 6417.773438 3399.6875 6411.132812 C 3393.046875 6404.453125 3382.226562 6404.453125 3375.585938 6411.09375 C 3368.945312 6417.773438 3368.90625 6428.554688 3375.585938 6435.234375 Z M 3375.585938 6435.234375 " transform="matrix(0.1,0,0,-0.1,0,792)"/>
<path style=" stroke:none;fill-rule:evenodd;fill:rgb(13.730068%,12.159915%,12.54902%);fill-opacity:1;" d="M 358.328125 172.28125 C 358.839844 173.070312 358.613281 174.128906 357.824219 174.640625 C 357.035156 175.152344 355.980469 174.929688 355.464844 174.136719 C 354.953125 173.347656 355.179688 172.292969 355.96875 171.777344 C 356.757812 171.265625 357.816406 171.492188 358.328125 172.28125 "/>
<path style="fill:none;stroke-width:10.0006;stroke-linecap:butt;stroke-linejoin:miter;stroke:rgb(13.730068%,12.159915%,12.54902%);stroke-opacity:1;stroke-miterlimit:2.61313;" d="M 3583.28125 6197.1875 C 3588.398438 6189.296875 3586.132812 6178.710938 3578.242188 6173.59375 C 3570.351562 6168.476562 3559.804688 6170.703125 3554.648438 6178.632812 C 3549.53125 6186.523438 3551.796875 6197.070312 3559.6875 6202.226562 C 3567.578125 6207.34375 3578.164062 6205.078125 3583.28125 6197.1875 Z M 3583.28125 6197.1875 " transform="matrix(0.1,0,0,-0.1,0,792)"/>
<path style=" stroke:none;fill-rule:evenodd;fill:rgb(100%,100%,100%);fill-opacity:1;" d="M 360.089844 162.761719 C 360.601562 163.550781 360.375 164.605469 359.585938 165.121094 C 358.796875 165.632812 357.738281 165.40625 357.226562 164.617188 C 356.714844 163.828125 356.9375 162.769531 357.730469 162.257812 C 358.519531 161.746094 359.574219 161.972656 360.089844 162.761719 "/>
<path style="fill:none;stroke-width:10.0006;stroke-linecap:butt;stroke-linejoin:miter;stroke:rgb(13.730068%,12.159915%,12.54902%);stroke-opacity:1;stroke-miterlimit:2.61313;" d="M 3600.898438 6292.382812 C 3606.015625 6284.492188 3603.75 6273.945312 3595.859375 6268.789062 C 3587.96875 6263.671875 3577.382812 6265.9375 3572.265625 6273.828125 C 3567.148438 6281.71875 3569.375 6292.304688 3577.304688 6297.421875 C 3585.195312 6302.539062 3595.742188 6300.273438 3600.898438 6292.382812 Z M 3600.898438 6292.382812 " transform="matrix(0.1,0,0,-0.1,0,792)"/>
<path style=" stroke:none;fill-rule:evenodd;fill:rgb(13.730068%,12.159915%,12.54902%);fill-opacity:1;" d="M 340.242188 182.917969 C 339.671875 183.664062 338.597656 183.808594 337.851562 183.238281 C 337.101562 182.664062 336.960938 181.59375 337.53125 180.847656 C 338.101562 180.097656 339.171875 179.953125 339.921875 180.527344 C 340.667969 181.097656 340.8125 182.167969 340.242188 182.917969 "/>
<path style="fill:none;stroke-width:10.0006;stroke-linecap:butt;stroke-linejoin:miter;stroke:rgb(13.730068%,12.159915%,12.54902%);stroke-opacity:1;stroke-miterlimit:2.61313;" d="M 3402.421875 6090.820312 C 3396.71875 6083.359375 3385.976562 6081.914062 3378.515625 6087.617188 C 3371.015625 6093.359375 3369.609375 6104.0625 3375.3125 6111.523438 C 3381.015625 6119.023438 3391.71875 6120.46875 3399.21875 6114.726562 C 3406.679688 6109.023438 3408.125 6098.320312 3402.421875 6090.820312 Z M 3402.421875 6090.820312 " transform="matrix(0.1,0,0,-0.1,0,792)"/>
<path style=" stroke:none;fill-rule:evenodd;fill:rgb(100%,100%,100%);fill-opacity:1;" d="M 349.800781 181.371094 C 349.226562 182.121094 348.15625 182.265625 347.410156 181.691406 C 346.660156 181.121094 346.515625 180.050781 347.089844 179.304688 C 347.660156 178.554688 348.730469 178.410156 349.480469 178.984375 C 350.226562 179.554688 350.371094 180.625 349.800781 181.371094 "/>
<path style="fill:none;stroke-width:10.0006;stroke-linecap:butt;stroke-linejoin:miter;stroke:rgb(13.730068%,12.159915%,12.54902%);stroke-opacity:1;stroke-miterlimit:2.61313;" d="M 3498.007812 6106.289062 C 3492.265625 6098.789062 3481.5625 6097.34375 3474.101562 6103.085938 C 3466.601562 6108.789062 3465.15625 6119.492188 3470.898438 6126.953125 C 3476.601562 6134.453125 3487.304688 6135.898438 3494.804688 6130.15625 C 3502.265625 6124.453125 3503.710938 6113.75 3498.007812 6106.289062 Z M 3498.007812 6106.289062 " transform="matrix(0.1,0,0,-0.1,0,792)"/>
<path style=" stroke:none;fill-rule:evenodd;fill:rgb(13.730068%,12.159915%,12.54902%);fill-opacity:1;" d="M 324.78125 166.75 C 324.148438 166.050781 324.203125 164.972656 324.902344 164.34375 C 325.605469 163.710938 326.683594 163.765625 327.3125 164.46875 C 327.941406 165.164062 327.886719 166.246094 327.1875 166.875 C 326.488281 167.507812 325.410156 167.449219 324.78125 166.75 "/>
<path style="fill:none;stroke-width:10.0006;stroke-linecap:butt;stroke-linejoin:miter;stroke:rgb(13.730068%,12.159915%,12.54902%);stroke-opacity:1;stroke-miterlimit:2.61313;" d="M 3247.8125 6252.5 C 3241.484375 6259.492188 3242.03125 6270.273438 3249.023438 6276.5625 C 3256.054688 6282.890625 3266.835938 6282.34375 3273.125 6275.3125 C 3279.414062 6268.359375 3278.867188 6257.539062 3271.875 6251.25 C 3264.882812 6244.921875 3254.101562 6245.507812 3247.8125 6252.5 Z M 3247.8125 6252.5 " transform="matrix(0.1,0,0,-0.1,0,792)"/>
<path style=" stroke:none;fill-rule:evenodd;fill:rgb(100%,100%,100%);fill-opacity:1;" d="M 324.539062 176.429688 C 323.910156 175.730469 323.964844 174.652344 324.664062 174.019531 C 325.363281 173.390625 326.441406 173.445312 327.074219 174.144531 C 327.703125 174.84375 327.648438 175.921875 326.949219 176.554688 C 326.25 177.183594 325.171875 177.128906 324.539062 176.429688 "/>
<path style="fill:none;stroke-width:10.0006;stroke-linecap:butt;stroke-linejoin:miter;stroke:rgb(13.730068%,12.159915%,12.54902%);stroke-opacity:1;stroke-miterlimit:2.61313;" d="M 3245.390625 6155.703125 C 3239.101562 6162.695312 3239.648438 6173.476562 3246.640625 6179.804688 C 3253.632812 6186.09375 3264.414062 6185.546875 3270.742188 6178.554688 C 3277.03125 6171.5625 3276.484375 6160.78125 3269.492188 6154.453125 C 3262.5 6148.164062 3251.71875 6148.710938 3245.390625 6155.703125 Z M 3245.390625 6155.703125 " transform="matrix(0.1,0,0,-0.1,0,792)"/>
<path style=" stroke:none;fill-rule:evenodd;fill:rgb(13.730068%,12.159915%,12.54902%);fill-opacity:1;" d="M 293.296875 130.40625 C 294.214844 130.601562 294.804688 131.507812 294.613281 132.429688 C 294.417969 133.347656 293.511719 133.9375 292.59375 133.746094 C 291.671875 133.550781 291.082031 132.644531 291.273438 131.726562 C 291.46875 130.804688 292.371094 130.214844 293.296875 130.40625 "/>
<path style="fill:none;stroke-width:10.0006;stroke-linecap:butt;stroke-linejoin:miter;stroke:rgb(13.730068%,12.159915%,12.54902%);stroke-opacity:1;stroke-miterlimit:2.61313;" d="M 2932.96875 6615.9375 C 2942.148438 6613.984375 2948.046875 6604.921875 2946.132812 6595.703125 C 2944.179688 6586.523438 2935.117188 6580.625 2925.9375 6582.539062 C 2916.71875 6584.492188 2910.820312 6593.554688 2912.734375 6602.734375 C 2914.6875 6611.953125 2923.710938 6617.851562 2932.96875 6615.9375 Z M 2932.96875 6615.9375 " transform="matrix(0.1,0,0,-0.1,0,792)"/>
<path style=" stroke:none;fill-rule:evenodd;fill:rgb(100%,100%,100%);fill-opacity:1;" d="M 287.789062 122.441406 C 288.710938 122.636719 289.300781 123.542969 289.105469 124.464844 C 288.914062 125.386719 288.007812 125.976562 287.085938 125.78125 C 286.164062 125.585938 285.574219 124.683594 285.769531 123.761719 C 285.964844 122.839844 286.867188 122.25 287.789062 122.441406 "/>
<path style="fill:none;stroke-width:10.0006;stroke-linecap:butt;stroke-linejoin:miter;stroke:rgb(13.730068%,12.159915%,12.54902%);stroke-opacity:1;stroke-miterlimit:2.61313;" d="M 2877.890625 6695.585938 C 2887.109375 6693.632812 2893.007812 6684.570312 2891.054688 6675.351562 C 2889.140625 6666.132812 2880.078125 6660.234375 2870.859375 6662.1875 C 2861.640625 6664.140625 2855.742188 6673.164062 2857.695312 6682.382812 C 2859.648438 6691.601562 2868.671875 6697.5 2877.890625 6695.585938 Z M 2877.890625 6695.585938 " transform="matrix(0.1,0,0,-0.1,0,792)"/>
<path style=" stroke:none;fill-rule:evenodd;fill:rgb(13.730068%,12.159915%,12.54902%);fill-opacity:1;" d="M 297.890625 152.753906 C 298.019531 153.6875 297.367188 154.550781 296.433594 154.679688 C 295.503906 154.808594 294.640625 154.160156 294.511719 153.226562 C 294.382812 152.292969 295.03125 151.433594 295.964844 151.300781 C 296.898438 151.171875 297.757812 151.824219 297.890625 152.753906 "/>
<path style="fill:none;stroke-width:10.0006;stroke-linecap:butt;stroke-linejoin:miter;stroke:rgb(13.730068%,12.159915%,12.54902%);stroke-opacity:1;stroke-miterlimit:2.61313;" d="M 2978.90625 6392.460938 C 2980.195312 6383.125 2973.671875 6374.492188 2964.335938 6373.203125 C 2955.039062 6371.914062 2946.40625 6378.398438 2945.117188 6387.734375 C 2943.828125 6397.070312 2950.3125 6405.664062 2959.648438 6406.992188 C 2968.984375 6408.28125 2977.578125 6401.757812 2978.90625 6392.460938 Z M 2978.90625 6392.460938 " transform="matrix(0.1,0,0,-0.1,0,792)"/>
<path style=" stroke:none;fill-rule:evenodd;fill:rgb(100%,100%,100%);fill-opacity:1;" d="M 303.511719 144.875 C 303.644531 145.808594 302.992188 146.667969 302.058594 146.800781 C 301.128906 146.929688 300.265625 146.277344 300.136719 145.347656 C 300.003906 144.414062 300.65625 143.550781 301.589844 143.421875 C 302.519531 143.289062 303.382812 143.941406 303.511719 144.875 "/>
<path style="fill:none;stroke-width:10.0006;stroke-linecap:butt;stroke-linejoin:miter;stroke:rgb(13.730068%,12.159915%,12.54902%);stroke-opacity:1;stroke-miterlimit:2.61313;" d="M 3035.117188 6471.25 C 3036.445312 6461.914062 3029.921875 6453.320312 3020.585938 6451.992188 C 3011.289062 6450.703125 3002.65625 6457.226562 3001.367188 6466.523438 C 3000.039062 6475.859375 3006.5625 6484.492188 3015.898438 6485.78125 C 3025.195312 6487.109375 3033.828125 6480.585938 3035.117188 6471.25 Z M 3035.117188 6471.25 " transform="matrix(0.1,0,0,-0.1,0,792)"/>
<path style=" stroke:none;fill-rule:evenodd;fill:rgb(13.730068%,12.159915%,12.54902%);fill-opacity:1;" d="M 282.4375 164.53125 C 281.96875 165.347656 280.925781 165.628906 280.109375 165.15625 C 279.296875 164.6875 279.015625 163.644531 279.484375 162.828125 C 279.953125 162.011719 280.996094 161.730469 281.8125 162.203125 C 282.628906 162.671875 282.910156 163.714844 282.4375 164.53125 "/>
<path style="fill:none;stroke-width:10.0006;stroke-linecap:butt;stroke-linejoin:miter;stroke:rgb(13.730068%,12.159915%,12.54902%);stroke-opacity:1;stroke-miterlimit:2.61313;" d="M 2824.375 6274.6875 C 2819.6875 6266.523438 2809.257812 6263.710938 2801.09375 6268.4375 C 2792.96875 6273.125 2790.15625 6283.554688 2794.84375 6291.71875 C 2799.53125 6299.882812 2809.960938 6302.695312 2818.125 6297.96875 C 2826.289062 6293.28125 2829.101562 6282.851562 2824.375 6274.6875 Z M 2824.375 6274.6875 " transform="matrix(0.1,0,0,-0.1,0,792)"/>
<path style=" stroke:none;fill-rule:evenodd;fill:rgb(100%,100%,100%);fill-opacity:1;" d="M 291.71875 161.765625 C 291.246094 162.582031 290.203125 162.863281 289.390625 162.390625 C 288.574219 161.921875 288.292969 160.878906 288.761719 160.0625 C 289.234375 159.246094 290.277344 158.96875 291.09375 159.4375 C 291.90625 159.90625 292.1875 160.949219 291.71875 161.765625 "/>
<path style="fill:none;stroke-width:10.0006;stroke-linecap:butt;stroke-linejoin:miter;stroke:rgb(13.730068%,12.159915%,12.54902%);stroke-opacity:1;stroke-miterlimit:2.61313;" d="M 2917.1875 6302.34375 C 2912.460938 6294.179688 2902.03125 6291.367188 2893.90625 6296.09375 C 2885.742188 6300.78125 2882.929688 6311.210938 2887.617188 6319.375 C 2892.34375 6327.539062 2902.773438 6330.3125 2910.9375 6325.625 C 2919.0625 6320.9375 2921.875 6310.507812 2917.1875 6302.34375 Z M 2917.1875 6302.34375 " transform="matrix(0.1,0,0,-0.1,0,792)"/>
<path style=" stroke:none;fill-rule:evenodd;fill:rgb(13.730068%,12.159915%,12.54902%);fill-opacity:1;" d="M 277.953125 196.675781 C 278.855469 196.953125 279.359375 197.910156 279.078125 198.808594 C 278.800781 199.707031 277.84375 200.210938 276.945312 199.929688 C 276.046875 199.652344 275.542969 198.695312 275.820312 197.796875 C 276.101562 196.898438 277.054688 196.394531 277.953125 196.675781 "/>
<path style="fill:none;stroke-width:10.0006;stroke-linecap:butt;stroke-linejoin:miter;stroke:rgb(13.730068%,12.159915%,12.54902%);stroke-opacity:1;stroke-miterlimit:2.61313;" d="M 2779.53125 5953.242188 C 2788.554688 5950.46875 2793.59375 5940.898438 2790.78125 5931.914062 C 2788.007812 5922.929688 2778.4375 5917.890625 2769.453125 5920.703125 C 2760.46875 5923.476562 2755.429688 5933.046875 2758.203125 5942.03125 C 2761.015625 5951.015625 2770.546875 5956.054688 2779.53125 5953.242188 Z M 2779.53125 5953.242188 " transform="matrix(0.1,0,0,-0.1,0,792)"/>
<path style=" stroke:none;fill-rule:evenodd;fill:rgb(100%,100%,100%);fill-opacity:1;" d="M 273.214844 188.230469 C 274.117188 188.511719 274.617188 189.464844 274.339844 190.367188 C 274.0625 191.265625 273.105469 191.769531 272.203125 191.488281 C 271.304688 191.210938 270.804688 190.253906 271.082031 189.355469 C 271.359375 188.453125 272.316406 187.953125 273.214844 188.230469 "/>
<path style="fill:none;stroke-width:10.0006;stroke-linecap:butt;stroke-linejoin:miter;stroke:rgb(13.730068%,12.159915%,12.54902%);stroke-opacity:1;stroke-miterlimit:2.61313;" d="M 2732.148438 6037.695312 C 2741.171875 6034.882812 2746.171875 6025.351562 2743.398438 6016.328125 C 2740.625 6007.34375 2731.054688 6002.304688 2722.03125 6005.117188 C 2713.046875 6007.890625 2708.046875 6017.460938 2710.820312 6026.445312 C 2713.59375 6035.46875 2723.164062 6040.46875 2732.148438 6037.695312 Z M 2732.148438 6037.695312 " transform="matrix(0.1,0,0,-0.1,0,792)"/>
<path style=" stroke:none;fill-rule:evenodd;fill:rgb(13.730068%,12.159915%,12.54902%);fill-opacity:1;" d="M 217.945312 142.988281 C 218.738281 142.480469 219.792969 142.707031 220.300781 143.5 C 220.8125 144.292969 220.582031 145.347656 219.789062 145.855469 C 218.996094 146.367188 217.941406 146.136719 217.433594 145.34375 C 216.925781 144.554688 217.152344 143.496094 217.945312 142.988281 "/>
<path style="fill:none;stroke-width:10.0006;stroke-linecap:butt;stroke-linejoin:miter;stroke:rgb(13.730068%,12.159915%,12.54902%);stroke-opacity:1;stroke-miterlimit:2.61313;" d="M 2179.453125 6490.117188 C 2187.382812 6495.195312 2197.929688 6492.929688 2203.007812 6485 C 2208.125 6477.070312 2205.820312 6466.523438 2197.890625 6461.445312 C 2189.960938 6456.328125 2179.414062 6458.632812 2174.335938 6466.5625 C 2169.257812 6474.453125 2171.523438 6485.039062 2179.453125 6490.117188 Z M 2179.453125 6490.117188 " transform="matrix(0.1,0,0,-0.1,0,792)"/>
<path style=" stroke:none;fill-rule:evenodd;fill:rgb(100%,100%,100%);fill-opacity:1;" d="M 208.433594 141.191406 C 209.222656 140.679688 210.277344 140.910156 210.789062 141.703125 C 211.296875 142.492188 211.070312 143.550781 210.277344 144.058594 C 209.484375 144.570312 208.429688 144.339844 207.921875 143.546875 C 207.410156 142.753906 207.640625 141.699219 208.433594 141.191406 "/>
<path style="fill:none;stroke-width:10.0006;stroke-linecap:butt;stroke-linejoin:miter;stroke:rgb(13.730068%,12.159915%,12.54902%);stroke-opacity:1;stroke-miterlimit:2.61313;" d="M 2084.335938 6508.085938 C 2092.226562 6513.203125 2102.773438 6510.898438 2107.890625 6502.96875 C 2112.96875 6495.078125 2110.703125 6484.492188 2102.773438 6479.414062 C 2094.84375 6474.296875 2084.296875 6476.601562 2079.21875 6484.53125 C 2074.101562 6492.460938 2076.40625 6503.007812 2084.335938 6508.085938 Z M 2084.335938 6508.085938 " transform="matrix(0.1,0,0,-0.1,0,792)"/>
<path style=" stroke:none;fill-rule:evenodd;fill:rgb(13.730068%,12.159915%,12.54902%);fill-opacity:1;" d="M 258.714844 189.171875 C 258.460938 188.265625 258.992188 187.324219 259.898438 187.070312 C 260.808594 186.816406 261.746094 187.347656 262 188.253906 C 262.253906 189.160156 261.722656 190.101562 260.816406 190.355469 C 259.910156 190.609375 258.96875 190.078125 258.714844 189.171875 "/>
<path style="fill:none;stroke-width:10.0006;stroke-linecap:butt;stroke-linejoin:miter;stroke:rgb(13.730068%,12.159915%,12.54902%);stroke-opacity:1;stroke-miterlimit:2.61313;" d="M 2587.148438 6028.28125 C 2584.609375 6037.34375 2589.921875 6046.757812 2598.984375 6049.296875 C 2608.085938 6051.835938 2617.460938 6046.523438 2620 6037.460938 C 2622.539062 6028.398438 2617.226562 6018.984375 2608.164062 6016.445312 C 2599.101562 6013.90625 2589.6875 6019.21875 2587.148438 6028.28125 Z M 2587.148438 6028.28125 " transform="matrix(0.1,0,0,-0.1,0,792)"/>
<path style=" stroke:none;fill-rule:evenodd;fill:rgb(100%,100%,100%);fill-opacity:1;" d="M 254.191406 197.730469 C 253.9375 196.824219 254.46875 195.882812 255.375 195.632812 C 256.28125 195.378906 257.222656 195.90625 257.476562 196.816406 C 257.730469 197.722656 257.199219 198.660156 256.292969 198.914062 C 255.386719 199.167969 254.445312 198.640625 254.191406 197.730469 "/>
<path style="fill:none;stroke-width:10.0006;stroke-linecap:butt;stroke-linejoin:miter;stroke:rgb(13.730068%,12.159915%,12.54902%);stroke-opacity:1;stroke-miterlimit:2.61313;" d="M 2541.914062 5942.695312 C 2539.375 5951.757812 2544.6875 5961.171875 2553.75 5963.671875 C 2562.8125 5966.210938 2572.226562 5960.9375 2574.765625 5951.835938 C 2577.304688 5942.773438 2571.992188 5933.398438 2562.929688 5930.859375 C 2553.867188 5928.320312 2544.453125 5933.59375 2541.914062 5942.695312 Z M 2541.914062 5942.695312 " transform="matrix(0.1,0,0,-0.1,0,792)"/>
<path style=" stroke:none;fill-rule:evenodd;fill:rgb(13.730068%,12.159915%,12.54902%);fill-opacity:1;" d="M 257.988281 154.875 C 257.058594 154.726562 256.421875 153.855469 256.566406 152.925781 C 256.714844 151.996094 257.585938 151.359375 258.515625 151.503906 C 259.445312 151.652344 260.082031 152.523438 259.9375 153.453125 C 259.792969 154.382812 258.917969 155.019531 257.988281 154.875 "/>
<path style="fill:none;stroke-width:10.0006;stroke-linecap:butt;stroke-linejoin:miter;stroke:rgb(13.730068%,12.159915%,12.54902%);stroke-opacity:1;stroke-miterlimit:2.61313;" d="M 2579.882812 6371.25 C 2570.585938 6372.734375 2564.21875 6381.445312 2565.664062 6390.742188 C 2567.148438 6400.039062 2575.859375 6406.40625 2585.15625 6404.960938 C 2594.453125 6403.476562 2600.820312 6394.765625 2599.375 6385.46875 C 2597.929688 6376.171875 2589.179688 6369.804688 2579.882812 6371.25 Z M 2579.882812 6371.25 " transform="matrix(0.1,0,0,-0.1,0,792)"/>
<path style=" stroke:none;fill-rule:evenodd;fill:rgb(100%,100%,100%);fill-opacity:1;" d="M 263.898438 162.539062 C 262.96875 162.394531 262.335938 161.523438 262.480469 160.59375 C 262.625 159.660156 263.496094 159.027344 264.429688 159.171875 C 265.359375 159.316406 265.996094 160.191406 265.847656 161.121094 C 265.703125 162.050781 264.828125 162.6875 263.898438 162.539062 "/>
<path style="fill:none;stroke-width:10.0006;stroke-linecap:butt;stroke-linejoin:miter;stroke:rgb(13.730068%,12.159915%,12.54902%);stroke-opacity:1;stroke-miterlimit:2.61313;" d="M 2638.984375 6294.609375 C 2629.6875 6296.054688 2623.359375 6304.765625 2624.804688 6314.0625 C 2626.25 6323.398438 2634.960938 6329.726562 2644.296875 6328.28125 C 2653.59375 6326.835938 2659.960938 6318.085938 2658.476562 6308.789062 C 2657.03125 6299.492188 2648.28125 6293.125 2638.984375 6294.609375 Z M 2638.984375 6294.609375 " transform="matrix(0.1,0,0,-0.1,0,792)"/>
<path style=" stroke:none;fill-rule:evenodd;fill:rgb(13.730068%,12.159915%,12.54902%);fill-opacity:1;" d="M 234.707031 154.363281 C 235.613281 154.613281 236.148438 155.550781 235.898438 156.460938 C 235.648438 157.367188 234.710938 157.898438 233.800781 157.652344 C 232.894531 157.402344 232.359375 156.460938 232.609375 155.554688 C 232.859375 154.644531 233.796875 154.113281 234.707031 154.363281 "/>
<path style="fill:none;stroke-width:10.0006;stroke-linecap:butt;stroke-linejoin:miter;stroke:rgb(13.730068%,12.159915%,12.54902%);stroke-opacity:1;stroke-miterlimit:2.61313;" d="M 2347.070312 6376.367188 C 2356.132812 6373.867188 2361.484375 6364.492188 2358.984375 6355.390625 C 2356.484375 6346.328125 2347.109375 6341.015625 2338.007812 6343.476562 C 2328.945312 6345.976562 2323.59375 6355.390625 2326.09375 6364.453125 C 2328.59375 6373.554688 2337.96875 6378.867188 2347.070312 6376.367188 Z M 2347.070312 6376.367188 " transform="matrix(0.1,0,0,-0.1,0,792)"/>
<path style=" stroke:none;fill-rule:evenodd;fill:rgb(100%,100%,100%);fill-opacity:1;" d="M 229.695312 146.078125 C 230.605469 146.328125 231.136719 147.265625 230.886719 148.175781 C 230.636719 149.082031 229.699219 149.613281 228.789062 149.363281 C 227.882812 149.117188 227.351562 148.175781 227.601562 147.269531 C 227.851562 146.359375 228.789062 145.828125 229.695312 146.078125 "/>
<path style="fill:none;stroke-width:10.0006;stroke-linecap:butt;stroke-linejoin:miter;stroke:rgb(13.730068%,12.159915%,12.54902%);stroke-opacity:1;stroke-miterlimit:2.61313;" d="M 2296.953125 6459.21875 C 2306.054688 6456.71875 2311.367188 6447.34375 2308.867188 6438.242188 C 2306.367188 6429.179688 2296.992188 6423.867188 2287.890625 6426.367188 C 2278.828125 6428.828125 2273.515625 6438.242188 2276.015625 6447.304688 C 2278.515625 6456.40625 2287.890625 6461.71875 2296.953125 6459.21875 Z M 2296.953125 6459.21875 " transform="matrix(0.1,0,0,-0.1,0,792)"/>
<path style=" stroke:none;fill-rule:evenodd;fill:rgb(13.730068%,12.159915%,12.54902%);fill-opacity:1;" d="M 274.140625 125.726562 C 274.238281 124.789062 275.078125 124.109375 276.015625 124.207031 C 276.949219 124.304688 277.628906 125.144531 277.53125 126.082031 C 277.433594 127.019531 276.59375 127.699219 275.65625 127.597656 C 274.722656 127.5 274.039062 126.660156 274.140625 125.726562 "/>
<path style="fill:none;stroke-width:10.0006;stroke-linecap:butt;stroke-linejoin:miter;stroke:rgb(13.730068%,12.159915%,12.54902%);stroke-opacity:1;stroke-miterlimit:2.61313;" d="M 2741.40625 6662.734375 C 2742.382812 6672.109375 2750.78125 6678.90625 2760.15625 6677.929688 C 2769.492188 6676.953125 2776.289062 6668.554688 2775.3125 6659.179688 C 2774.335938 6649.804688 2765.9375 6643.007812 2756.5625 6644.023438 C 2747.226562 6645 2740.390625 6653.398438 2741.40625 6662.734375 Z M 2741.40625 6662.734375 " transform="matrix(0.1,0,0,-0.1,0,792)"/>
<path style=" stroke:none;fill-rule:evenodd;fill:rgb(100%,100%,100%);fill-opacity:1;" d="M 266.78125 132.019531 C 266.882812 131.082031 267.71875 130.402344 268.65625 130.5 C 269.59375 130.597656 270.273438 131.4375 270.175781 132.375 C 270.074219 133.3125 269.234375 133.992188 268.300781 133.890625 C 267.363281 133.792969 266.683594 132.953125 266.78125 132.019531 "/>
<path style="fill:none;stroke-width:10.0006;stroke-linecap:butt;stroke-linejoin:miter;stroke:rgb(13.730068%,12.159915%,12.54902%);stroke-opacity:1;stroke-miterlimit:2.61313;" d="M 2667.8125 6599.804688 C 2668.828125 6609.179688 2677.1875 6615.976562 2686.5625 6615 C 2695.9375 6614.023438 2702.734375 6605.625 2701.757812 6596.25 C 2700.742188 6586.875 2692.34375 6580.078125 2683.007812 6581.09375 C 2673.632812 6582.070312 2666.835938 6590.46875 2667.8125 6599.804688 Z M 2667.8125 6599.804688 " transform="matrix(0.1,0,0,-0.1,0,792)"/>
<path style=" stroke:none;fill-rule:evenodd;fill:rgb(13.730068%,12.159915%,12.54902%);fill-opacity:1;" d="M 250.34375 138.089844 C 249.527344 137.621094 249.25 136.578125 249.722656 135.761719 C 250.191406 134.945312 251.234375 134.664062 252.050781 135.136719 C 252.867188 135.609375 253.144531 136.652344 252.675781 137.46875 C 252.203125 138.28125 251.160156 138.5625 250.34375 138.089844 "/>
<path style="fill:none;stroke-width:10.0006;stroke-linecap:butt;stroke-linejoin:miter;stroke:rgb(13.730068%,12.159915%,12.54902%);stroke-opacity:1;stroke-miterlimit:2.61313;" d="M 2503.4375 6539.101562 C 2495.273438 6543.789062 2492.5 6554.21875 2497.226562 6562.382812 C 2501.914062 6570.546875 2512.34375 6573.359375 2520.507812 6568.632812 C 2528.671875 6563.90625 2531.445312 6553.476562 2526.757812 6545.3125 C 2522.03125 6537.1875 2511.601562 6534.375 2503.4375 6539.101562 Z M 2503.4375 6539.101562 " transform="matrix(0.1,0,0,-0.1,0,792)"/>
<path style=" stroke:none;fill-rule:evenodd;fill:rgb(100%,100%,100%);fill-opacity:1;" d="M 253.101562 147.371094 C 252.285156 146.902344 252.007812 145.859375 252.476562 145.042969 C 252.949219 144.226562 253.992188 143.949219 254.804688 144.417969 C 255.621094 144.890625 255.902344 145.933594 255.429688 146.746094 C 254.960938 147.5625 253.914062 147.84375 253.101562 147.371094 "/>
<path style="fill:none;stroke-width:10.0006;stroke-linecap:butt;stroke-linejoin:miter;stroke:rgb(13.730068%,12.159915%,12.54902%);stroke-opacity:1;stroke-miterlimit:2.61313;" d="M 2531.015625 6446.289062 C 2522.851562 6450.976562 2520.078125 6461.40625 2524.765625 6469.570312 C 2529.492188 6477.734375 2539.921875 6480.507812 2548.046875 6475.820312 C 2556.210938 6471.09375 2559.023438 6460.664062 2554.296875 6452.539062 C 2549.609375 6444.375 2539.140625 6441.5625 2531.015625 6446.289062 Z M 2531.015625 6446.289062 " transform="matrix(0.1,0,0,-0.1,0,792)"/>
<path style=" stroke:none;fill-rule:evenodd;fill:rgb(100%,100%,100%);fill-opacity:1;" d="M 251.097656 105.40625 C 251.199219 104.46875 252.035156 103.789062 252.972656 103.890625 C 253.910156 103.988281 254.589844 104.828125 254.492188 105.761719 C 254.390625 106.699219 253.554688 107.378906 252.617188 107.28125 C 251.679688 107.183594 251 106.34375 251.097656 105.40625 "/>
<path style="fill:none;stroke-width:10.0006;stroke-linecap:butt;stroke-linejoin:miter;stroke:rgb(13.730068%,12.159915%,12.54902%);stroke-opacity:1;stroke-miterlimit:2.61313;" d="M 2510.976562 6865.9375 C 2511.992188 6875.3125 2520.351562 6882.109375 2529.726562 6881.09375 C 2539.101562 6880.117188 2545.898438 6871.71875 2544.921875 6862.382812 C 2543.90625 6853.007812 2535.546875 6846.210938 2526.171875 6847.1875 C 2516.796875 6848.164062 2510 6856.5625 2510.976562 6865.9375 Z M 2510.976562 6865.9375 " transform="matrix(0.1,0,0,-0.1,0,792)"/>
</g>
</svg>
