<?xml version="1.0" encoding="UTF-8"?>
<svg xmlns="http://www.w3.org/2000/svg" xmlns:xlink="http://www.w3.org/1999/xlink" width="612pt" height="792pt" viewBox="0 0 612 792" version="1.1">
<g id="surface1">
<path style="fill:none;stroke-width:20.0013;stroke-linecap:butt;stroke-linejoin:miter;stroke:rgb(13.730068%,12.159915%,12.54902%);stroke-opacity:1;stroke-miterlimit:2.6131;" d="M 1192.226562 7416.171875 C 1175.742188 7393.007812 1160.585938 7369.296875 1147.03125 7346.289062 M 1105.664062 7258.359375 C 1079.492188 7178.710938 1096.210938 7113.90625 1213.945312 7114.6875 C 1441.953125 7116.132812 1919.882812 7702.460938 1923.164062 7820.351562 " transform="matrix(0.1,0,0,-0.1,0,792)"/>
<path style="fill:none;stroke-width:20.0013;stroke-linecap:butt;stroke-linejoin:miter;stroke:rgb(13.730068%,12.159915%,12.54902%);stroke-opacity:1;stroke-miterlimit:2.6131;" d="M 1663.320312 7531.953125 C 1565.898438 7732.8125 1447.65625 7925.703125 1254.140625 7899.453125 C 974.648438 7861.5625 1156.953125 7424.570312 1288.515625 7415.234375 C 1432.226562 7405.078125 1403.59375 7617.96875 1299.84375 7534.609375 C 1280.976562 7519.453125 1262.8125 7501.914062 1245.585938 7482.929688 " transform="matrix(0.1,0,0,-0.1,0,792)"/>
<path style="fill:none;stroke-width:20.0013;stroke-linecap:butt;stroke-linejoin:miter;stroke:rgb(13.730068%,12.159915%,12.54902%);stroke-opacity:1;stroke-miterlimit:2.6131;" d="M 1927.734375 7119.921875 C 1848.203125 7141.953125 1785.585938 7270.703125 1717.148438 7417.578125 " transform="matrix(0.1,0,0,-0.1,0,792)"/>
<path style="fill:none;stroke-width:20.0013;stroke-linecap:butt;stroke-linejoin:miter;stroke:rgb(13.730068%,12.159915%,12.54902%);stroke-opacity:1;stroke-miterlimit:2.6131;" d="M 913.632812 7372.96875 C 830.507812 7222.03125 849.453125 7007.421875 625.546875 6992.695312 " transform="matrix(0.1,0,0,-0.1,0,792)"/>
<path style="fill:none;stroke-width:20.0013;stroke-linecap:butt;stroke-linejoin:miter;stroke:rgb(13.730068%,12.159915%,12.54902%);stroke-opacity:1;stroke-miterlimit:2.6131;" d="M 1086.640625 7535.46875 C 1055.117188 7512.578125 1027.96875 7491.40625 1008.4375 7476.484375 " transform="matrix(0.1,0,0,-0.1,0,792)"/>
<path style="fill:none;stroke-width:20.0013;stroke-linecap:butt;stroke-linejoin:miter;stroke:rgb(13.730068%,12.159915%,12.54902%);stroke-opacity:1;stroke-miterlimit:2.6131;" d="M 607.421875 7855.585938 C 914.101562 7773.242188 835.898438 7204.726562 1325.273438 7308.125 C 1442.304688 7332.851562 1521.054688 7496.640625 1466.679688 7609.023438 C 1417.929688 7708.554688 1298.125 7667.96875 1189.101562 7603.554688 " transform="matrix(0.1,0,0,-0.1,0,792)"/>
<path style="fill:none;stroke-width:20.0013;stroke-linecap:butt;stroke-linejoin:miter;stroke:rgb(13.730068%,12.159915%,12.54902%);stroke-opacity:1;stroke-miterlimit:2.6131;" d="M 2835.703125 7020.976562 C 2779.0625 6897.382812 2796.40625 6806.25 2949.140625 6815.078125 C 3243.515625 6832.109375 1877.226562 7904.023438 2971.132812 7902.226562 C 3421.328125 7901.445312 3818.59375 7583.632812 3799.21875 8088.203125 " transform="matrix(0.1,0,0,-0.1,0,792)"/>
<path style="fill:none;stroke-width:20.0013;stroke-linecap:butt;stroke-linejoin:miter;stroke:rgb(13.730068%,12.159915%,12.54902%);stroke-opacity:1;stroke-miterlimit:2.6131;" d="M 2983.75 7238.984375 C 2953.671875 7204.765625 2925.9375 7170.117188 2901.445312 7136.09375 " transform="matrix(0.1,0,0,-0.1,0,792)"/>
<path style="fill:none;stroke-width:20.0013;stroke-linecap:butt;stroke-linejoin:miter;stroke:rgb(13.730068%,12.159915%,12.54902%);stroke-opacity:1;stroke-miterlimit:2.6131;" d="M 3069.296875 7378.789062 L 3046.445312 7345.195312 L 3028.203125 7312.773438 " transform="matrix(0.1,0,0,-0.1,0,792)"/>
<path style="fill:none;stroke-width:20.0013;stroke-linecap:butt;stroke-linejoin:miter;stroke:rgb(13.730068%,12.159915%,12.54902%);stroke-opacity:1;stroke-miterlimit:2.6131;" d="M 3746.210938 7101.71875 C 3648.828125 7302.578125 3334.140625 7748.90625 3139.023438 7740.546875 C 2898.164062 7730.195312 3054.609375 7402.304688 3142.421875 7361.757812 C 3273.203125 7301.367188 3257.5 7564.453125 3153.710938 7481.09375 C 3144.296875 7473.515625 3135.039062 7465.351562 3125.976562 7456.71875 " transform="matrix(0.1,0,0,-0.1,0,792)"/>
<path style="fill:none;stroke-width:20.0013;stroke-linecap:butt;stroke-linejoin:miter;stroke:rgb(13.730068%,12.159915%,12.54902%);stroke-opacity:1;stroke-miterlimit:2.6131;" d="M 2698.085938 7211.875 C 2629.882812 7079.960938 2568.59375 6943.554688 2393.710938 6932.03125 " transform="matrix(0.1,0,0,-0.1,0,792)"/>
<path style="fill:none;stroke-width:20.0013;stroke-linecap:butt;stroke-linejoin:miter;stroke:rgb(13.730068%,12.159915%,12.54902%);stroke-opacity:1;stroke-miterlimit:2.6131;" d="M 2831.054688 7399.21875 C 2797.96875 7371.953125 2771.328125 7337.96875 2747.851562 7300.898438 " transform="matrix(0.1,0,0,-0.1,0,792)"/>
<path style="fill:none;stroke-width:20.0013;stroke-linecap:butt;stroke-linejoin:miter;stroke:rgb(13.730068%,12.159915%,12.54902%);stroke-opacity:1;stroke-miterlimit:2.6131;" d="M 2986.171875 7513.984375 C 2958.28125 7495.15625 2932.265625 7476.09375 2909.726562 7459.140625 " transform="matrix(0.1,0,0,-0.1,0,792)"/>
<path style="fill:none;stroke-width:20.0013;stroke-linecap:butt;stroke-linejoin:miter;stroke:rgb(13.730068%,12.159915%,12.54902%);stroke-opacity:1;stroke-miterlimit:2.6131;" d="M 2616.757812 7701.015625 C 2801.71875 7553.554688 2894.179688 7238.75 3179.179688 7254.609375 C 3298.59375 7261.25 3374.960938 7443.125 3320.585938 7555.546875 C 3277.5 7643.476562 3178.945312 7622.03125 3081.367188 7571.367188 " transform="matrix(0.1,0,0,-0.1,0,792)"/>
<path style="fill:none;stroke-width:20.0013;stroke-linecap:butt;stroke-linejoin:miter;stroke:rgb(13.730068%,12.159915%,12.54902%);stroke-opacity:1;stroke-miterlimit:2.6131;" d="M 2382.734375 7830.664062 C 2421.054688 7820.351562 2454.609375 7802.03125 2484.921875 7778.046875 " transform="matrix(0.1,0,0,-0.1,0,792)"/>
<path style="fill:none;stroke-width:20.0013;stroke-linecap:butt;stroke-linejoin:miter;stroke:rgb(13.730068%,12.159915%,12.54902%);stroke-opacity:1;stroke-miterlimit:2.6131;" d="M 4783.554688 7119.492188 C 4776.09375 6395.117188 3765.507812 7707.539062 4694.84375 7895.546875 C 4895.078125 7936.054688 5480.078125 7503.359375 5460.703125 8007.890625 " transform="matrix(0.1,0,0,-0.1,0,792)"/>
<path style="fill:none;stroke-width:20.0013;stroke-linecap:butt;stroke-linejoin:miter;stroke:rgb(13.730068%,12.159915%,12.54902%);stroke-opacity:1;stroke-miterlimit:2.6131;" d="M 5407.695312 7021.40625 C 5310.3125 7222.265625 4963.945312 7783.984375 4769.53125 7765.664062 C 4586.445312 7748.398438 4796.367188 7485.78125 4788.320312 7247.265625 " transform="matrix(0.1,0,0,-0.1,0,792)"/>
<path style="fill:none;stroke-width:20.0013;stroke-linecap:butt;stroke-linejoin:miter;stroke:rgb(13.730068%,12.159915%,12.54902%);stroke-opacity:1;stroke-miterlimit:2.6131;" d="M 4366.640625 7075.195312 C 4331.132812 6966.445312 4289.492188 6868.671875 4140.976562 6858.90625 " transform="matrix(0.1,0,0,-0.1,0,792)"/>
<path style="fill:none;stroke-width:20.0013;stroke-linecap:butt;stroke-linejoin:miter;stroke:rgb(13.730068%,12.159915%,12.54902%);stroke-opacity:1;stroke-miterlimit:2.6131;" d="M 4475.898438 7303.320312 C 4447.578125 7274.453125 4427.539062 7240.039062 4411.484375 7203.320312 " transform="matrix(0.1,0,0,-0.1,0,792)"/>
<path style="fill:none;stroke-width:20.0013;stroke-linecap:butt;stroke-linejoin:miter;stroke:rgb(13.730068%,12.159915%,12.54902%);stroke-opacity:1;stroke-miterlimit:2.6131;" d="M 4705.507812 7470.351562 C 4656.054688 7441.210938 4608.75 7407.109375 4571.210938 7378.867188 " transform="matrix(0.1,0,0,-0.1,0,792)"/>
<path style="fill:none;stroke-width:20.0013;stroke-linecap:butt;stroke-linejoin:miter;stroke:rgb(13.730068%,12.159915%,12.54902%);stroke-opacity:1;stroke-miterlimit:2.6131;" d="M 4371.289062 7543.007812 C 4499.570312 7401.25 4552.617188 7147.65625 4840.664062 7174.296875 C 4959.765625 7185.3125 5036.445312 7362.851562 4982.070312 7475.234375 C 4948.671875 7543.4375 4881.875 7545.859375 4808.046875 7519.84375 " transform="matrix(0.1,0,0,-0.1,0,792)"/>
<path style="fill:none;stroke-width:20.0013;stroke-linecap:butt;stroke-linejoin:miter;stroke:rgb(13.730068%,12.159915%,12.54902%);stroke-opacity:1;stroke-miterlimit:2.6131;" d="M 4122.8125 7721.757812 C 4180.3125 7706.328125 4224.296875 7673.789062 4261.015625 7631.835938 " transform="matrix(0.1,0,0,-0.1,0,792)"/>
<path style="fill:none;stroke-width:20.0013;stroke-linecap:butt;stroke-linejoin:miter;stroke:rgb(13.730068%,12.159915%,12.54902%);stroke-opacity:1;stroke-miterlimit:2.6131;" d="M 1036.796875 5920.351562 C 1006.992188 5797.539062 1387.421875 5561.484375 1227.304688 5450.3125 C 1002.265625 5294.101562 454.570312 6429.179688 1153.125 6461.835938 C 1357.1875 6471.367188 1938.359375 6069.648438 1918.984375 6574.179688 " transform="matrix(0.1,0,0,-0.1,0,792)"/>
<path style="fill:none;stroke-width:20.0013;stroke-linecap:butt;stroke-linejoin:miter;stroke:rgb(13.730068%,12.159915%,12.54902%);stroke-opacity:1;stroke-miterlimit:2.6131;" d="M 1875.703125 5572.539062 C 1778.320312 5773.398438 1536.953125 6147.421875 1350.46875 6205.351562 C 1265.78125 6231.640625 1080.234375 6152.734375 1062.148438 6021.796875 " transform="matrix(0.1,0,0,-0.1,0,792)"/>
<path style="fill:none;stroke-width:20.0013;stroke-linecap:butt;stroke-linejoin:miter;stroke:rgb(13.730068%,12.159915%,12.54902%);stroke-opacity:1;stroke-miterlimit:2.6131;" d="M 993.867188 5495.898438 C 892.65625 5427.382812 743.632812 5388.007812 608.945312 5410 " transform="matrix(0.1,0,0,-0.1,0,792)"/>
<path style="fill:none;stroke-width:20.0013;stroke-linecap:butt;stroke-linejoin:miter;stroke:rgb(13.730068%,12.159915%,12.54902%);stroke-opacity:1;stroke-miterlimit:2.6131;" d="M 1145.15625 5659.453125 C 1116.835938 5626.40625 1087.578125 5594.492188 1057.578125 5565.3125 " transform="matrix(0.1,0,0,-0.1,0,792)"/>
<path style="fill:none;stroke-width:20.0013;stroke-linecap:butt;stroke-linejoin:miter;stroke:rgb(13.730068%,12.159915%,12.54902%);stroke-opacity:1;stroke-miterlimit:2.6131;" d="M 1261.796875 5805.429688 C 1244.882812 5783.320312 1227.460938 5760.742188 1209.609375 5738.125 " transform="matrix(0.1,0,0,-0.1,0,792)"/>
<path style="fill:none;stroke-width:20.0013;stroke-linecap:butt;stroke-linejoin:miter;stroke:rgb(13.730068%,12.159915%,12.54902%);stroke-opacity:1;stroke-miterlimit:2.6131;" d="M 873.75 6103.828125 C 1040.351562 5962.226562 1195.976562 5793.125 1425.273438 5810.585938 C 1614.0625 5824.960938 1524.375 6082.851562 1450.078125 6026.367188 C 1411.796875 5997.226562 1366.289062 5941.367188 1314.960938 5874.84375 " transform="matrix(0.1,0,0,-0.1,0,792)"/>
<path style="fill:none;stroke-width:20.0013;stroke-linecap:butt;stroke-linejoin:miter;stroke:rgb(13.730068%,12.159915%,12.54902%);stroke-opacity:1;stroke-miterlimit:2.6131;" d="M 590.820312 6272.890625 C 643.554688 6258.710938 692.460938 6235 739.101562 6205.546875 " transform="matrix(0.1,0,0,-0.1,0,792)"/>
<path style="fill:none;stroke-width:20.0013;stroke-linecap:butt;stroke-linejoin:miter;stroke:rgb(13.730068%,12.159915%,12.54902%);stroke-opacity:1;stroke-miterlimit:2.6131;" d="M 2602.109375 5849.765625 C 2422.265625 5938.710938 2368.632812 6424.726562 2837.96875 6446.640625 C 3042.03125 6456.210938 3623.203125 6054.453125 3603.867188 6558.984375 " transform="matrix(0.1,0,0,-0.1,0,792)"/>
<path style="fill:none;stroke-width:20.0013;stroke-linecap:butt;stroke-linejoin:miter;stroke:rgb(13.730068%,12.159915%,12.54902%);stroke-opacity:1;stroke-miterlimit:2.6131;" d="M 2701.25 5884.960938 C 2669.0625 5844.882812 2636.132812 5825.703125 2602.109375 5849.765625 " transform="matrix(0.1,0,0,-0.1,0,792)"/>
<path style="fill:none;stroke-width:20.0013;stroke-linecap:butt;stroke-linejoin:miter;stroke:rgb(13.730068%,12.159915%,12.54902%);stroke-opacity:1;stroke-miterlimit:2.6131;" d="M 3550.859375 5572.539062 C 3453.4375 5773.398438 3134.21875 6232.304688 2938.984375 6227.890625 C 2885.195312 6226.71875 2831.875 6113.476562 2777.070312 6009.53125 " transform="matrix(0.1,0,0,-0.1,0,792)"/>
<path style="fill:none;stroke-width:20.0013;stroke-linecap:butt;stroke-linejoin:miter;stroke:rgb(13.730068%,12.159915%,12.54902%);stroke-opacity:1;stroke-miterlimit:2.6131;" d="M 2905.585938 5765.195312 C 2754.882812 5573.945312 2557.65625 5365.273438 2284.101562 5410 " transform="matrix(0.1,0,0,-0.1,0,792)"/>
<path style="fill:none;stroke-width:20.0013;stroke-linecap:butt;stroke-linejoin:miter;stroke:rgb(13.730068%,12.159915%,12.54902%);stroke-opacity:1;stroke-miterlimit:2.6131;" d="M 2545.9375 6106.328125 C 2713.632812 5964.257812 2869.765625 5793.046875 3100.390625 5810.585938 C 3289.21875 5824.960938 3199.492188 6082.851562 3125.195312 6026.367188 C 3088.320312 5998.28125 3047.929688 5949.609375 3002.851562 5891.445312 " transform="matrix(0.1,0,0,-0.1,0,792)"/>
<path style="fill:none;stroke-width:20.0013;stroke-linecap:butt;stroke-linejoin:miter;stroke:rgb(13.730068%,12.159915%,12.54902%);stroke-opacity:1;stroke-miterlimit:2.6131;" d="M 2265.976562 6272.890625 C 2323.476562 6257.460938 2376.445312 6230.625 2426.914062 6197.382812 " transform="matrix(0.1,0,0,-0.1,0,792)"/>
<path style="fill:none;stroke-width:20.0013;stroke-linecap:butt;stroke-linejoin:miter;stroke:rgb(13.730068%,12.159915%,12.54902%);stroke-opacity:1;stroke-miterlimit:2.6131;" d="M 4567.03125 5800.859375 C 4381.679688 6076.445312 4606.132812 6485.742188 5152.148438 6550.117188 " transform="matrix(0.1,0,0,-0.1,0,792)"/>
<path style="fill:none;stroke-width:20.0013;stroke-linecap:butt;stroke-linejoin:miter;stroke:rgb(13.730068%,12.159915%,12.54902%);stroke-opacity:1;stroke-miterlimit:2.6131;" d="M 5142.109375 5548.4375 C 4938.398438 5558.828125 4785.78125 5610.625 4680.859375 5685.703125 " transform="matrix(0.1,0,0,-0.1,0,792)"/>
<path style="fill:none;stroke-width:20.0013;stroke-linecap:butt;stroke-linejoin:miter;stroke:rgb(13.730068%,12.159915%,12.54902%);stroke-opacity:1;stroke-miterlimit:2.6131;" d="M 4476.210938 6218.476562 C 4347.382812 6334.101562 4247.1875 6446.757812 4247.1875 6498.242188 " transform="matrix(0.1,0,0,-0.1,0,792)"/>
<path style="fill:none;stroke-width:20.0013;stroke-linecap:butt;stroke-linejoin:miter;stroke:rgb(13.730068%,12.159915%,12.54902%);stroke-opacity:1;stroke-miterlimit:2.6131;" d="M 4857.03125 6047.460938 C 5106.015625 6276.953125 5302.1875 5930.351562 5028.359375 5916.757812 C 4957.304688 5913.242188 4752.421875 5989.882812 4587.148438 6123.945312 " transform="matrix(0.1,0,0,-0.1,0,792)"/>
<path style="fill:none;stroke-width:20.0013;stroke-linecap:butt;stroke-linejoin:miter;stroke:rgb(13.730068%,12.159915%,12.54902%);stroke-opacity:1;stroke-miterlimit:2.6131;" d="M 4180.351562 5515.78125 C 4431.992188 5515.78125 4597.1875 5747.070312 4750.585938 5903.515625 " transform="matrix(0.1,0,0,-0.1,0,792)"/>
</g>
</svg>
