<?xml version="1.0" encoding="UTF-8"?>
<svg xmlns="http://www.w3.org/2000/svg" xmlns:xlink="http://www.w3.org/1999/xlink" width="612pt" height="792pt" viewBox="0 0 612 792" version="1.1">
<g id="surface1">
<path style="fill:none;stroke-width:0.844061;stroke-linecap:butt;stroke-linejoin:miter;stroke:rgb(13.730068%,12.159915%,12.54902%);stroke-opacity:1;stroke-miterlimit:10;" d="M 2543.398438 7084.921875 L 2546.757812 7048.75 " transform="matrix(0.1,0,0,-0.1,0,792)"/>
<path style="fill:none;stroke-width:0.844061;stroke-linecap:butt;stroke-linejoin:miter;stroke:rgb(13.730068%,12.159915%,12.54902%);stroke-opacity:1;stroke-miterlimit:10;" d="M 2541.171875 7066.484375 L 2548.984375 7067.1875 " transform="matrix(0.1,0,0,-0.1,0,792)"/>
<path style="fill:none;stroke-width:0.844061;stroke-linecap:butt;stroke-linejoin:miter;stroke:rgb(13.730068%,12.159915%,12.54902%);stroke-opacity:1;stroke-miterlimit:10;" d="M 2543.398438 7084.921875 L 2527.539062 7099.414062 " transform="matrix(0.1,0,0,-0.1,0,792)"/>
<path style="fill:none;stroke-width:0.844061;stroke-linecap:butt;stroke-linejoin:miter;stroke:rgb(13.730068%,12.159915%,12.54902%);stroke-opacity:1;stroke-miterlimit:10;" d="M 2538.867188 7094.375 L 2533.59375 7088.554688 " transform="matrix(0.1,0,0,-0.1,0,792)"/>
<path style="fill:none;stroke-width:0.844061;stroke-linecap:butt;stroke-linejoin:miter;stroke:rgb(13.730068%,12.159915%,12.54902%);stroke-opacity:1;stroke-miterlimit:10;" d="M 2537.34375 7095.78125 L 2532.03125 7089.960938 " transform="matrix(0.1,0,0,-0.1,0,792)"/>
<path style="fill:none;stroke-width:0.844061;stroke-linecap:butt;stroke-linejoin:miter;stroke:rgb(13.730068%,12.159915%,12.54902%);stroke-opacity:1;stroke-miterlimit:10;" d="M 2543.398438 7084.921875 L 2555.9375 7106.601562 " transform="matrix(0.1,0,0,-0.1,0,792)"/>
<path style="fill:none;stroke-width:0.844061;stroke-linecap:butt;stroke-linejoin:miter;stroke:rgb(13.730068%,12.159915%,12.54902%);stroke-opacity:1;stroke-miterlimit:10;" d="M 2552.03125 7091.953125 L 2545.195312 7095.898438 " transform="matrix(0.1,0,0,-0.1,0,792)"/>
<path style="fill:none;stroke-width:0.844061;stroke-linecap:butt;stroke-linejoin:miter;stroke:rgb(13.730068%,12.159915%,12.54902%);stroke-opacity:1;stroke-miterlimit:10;" d="M 2553.085938 7093.789062 L 2546.25 7097.734375 " transform="matrix(0.1,0,0,-0.1,0,792)"/>
<path style="fill:none;stroke-width:0.844061;stroke-linecap:butt;stroke-linejoin:miter;stroke:rgb(13.730068%,12.159915%,12.54902%);stroke-opacity:1;stroke-miterlimit:10;" d="M 2554.140625 7095.625 L 2547.304688 7099.53125 " transform="matrix(0.1,0,0,-0.1,0,792)"/>
<path style="fill:none;stroke-width:0.844061;stroke-linecap:butt;stroke-linejoin:miter;stroke:rgb(13.730068%,12.159915%,12.54902%);stroke-opacity:1;stroke-miterlimit:10;" d="M 2743.710938 7087.382812 L 2653.984375 6931.914062 " transform="matrix(0.1,0,0,-0.1,0,792)"/>
<path style="fill:none;stroke-width:0.844061;stroke-linecap:butt;stroke-linejoin:miter;stroke:rgb(13.730068%,12.159915%,12.54902%);stroke-opacity:1;stroke-miterlimit:10;" d="M 2695.429688 7011.601562 L 2702.265625 7007.65625 " transform="matrix(0.1,0,0,-0.1,0,792)"/>
<path style="fill:none;stroke-width:0.844061;stroke-linecap:butt;stroke-linejoin:miter;stroke:rgb(13.730068%,12.159915%,12.54902%);stroke-opacity:1;stroke-miterlimit:10;" d="M 2743.710938 7087.382812 L 2653.984375 7242.8125 " transform="matrix(0.1,0,0,-0.1,0,792)"/>
<path style="fill:none;stroke-width:0.844061;stroke-linecap:butt;stroke-linejoin:miter;stroke:rgb(13.730068%,12.159915%,12.54902%);stroke-opacity:1;stroke-miterlimit:10;" d="M 2702.773438 7166.132812 L 2695.9375 7162.1875 " transform="matrix(0.1,0,0,-0.1,0,792)"/>
<path style="fill:none;stroke-width:0.844061;stroke-linecap:butt;stroke-linejoin:miter;stroke:rgb(13.730068%,12.159915%,12.54902%);stroke-opacity:1;stroke-miterlimit:10;" d="M 2701.71875 7167.96875 L 2694.882812 7164.023438 " transform="matrix(0.1,0,0,-0.1,0,792)"/>
<path style="fill:none;stroke-width:0.844061;stroke-linecap:butt;stroke-linejoin:miter;stroke:rgb(13.730068%,12.159915%,12.54902%);stroke-opacity:1;stroke-miterlimit:10;" d="M 2743.710938 7087.382812 L 2668.554688 7058.007812 " transform="matrix(0.1,0,0,-0.1,0,792)"/>
<path style="fill:none;stroke-width:0.844061;stroke-linecap:butt;stroke-linejoin:miter;stroke:rgb(13.730068%,12.159915%,12.54902%);stroke-opacity:1;stroke-miterlimit:10;" d="M 2706.640625 7077.109375 L 2709.53125 7069.765625 " transform="matrix(0.1,0,0,-0.1,0,792)"/>
<path style="fill:none;stroke-width:0.844061;stroke-linecap:butt;stroke-linejoin:miter;stroke:rgb(13.730068%,12.159915%,12.54902%);stroke-opacity:1;stroke-miterlimit:10;" d="M 2704.6875 7076.367188 L 2707.578125 7069.023438 " transform="matrix(0.1,0,0,-0.1,0,792)"/>
<path style="fill:none;stroke-width:0.844061;stroke-linecap:butt;stroke-linejoin:miter;stroke:rgb(13.730068%,12.159915%,12.54902%);stroke-opacity:1;stroke-miterlimit:10;" d="M 2702.734375 7075.585938 L 2705.585938 7068.242188 " transform="matrix(0.1,0,0,-0.1,0,792)"/>
<path style="fill:none;stroke-width:0.844061;stroke-linecap:butt;stroke-linejoin:miter;stroke:rgb(13.730068%,12.159915%,12.54902%);stroke-opacity:1;stroke-miterlimit:10;" d="M 2653.984375 6931.914062 L 2474.453125 6931.914062 " transform="matrix(0.1,0,0,-0.1,0,792)"/>
<path style="fill:none;stroke-width:0.844061;stroke-linecap:butt;stroke-linejoin:miter;stroke:rgb(13.730068%,12.159915%,12.54902%);stroke-opacity:1;stroke-miterlimit:10;" d="M 2565.273438 6935.859375 L 2565.273438 6927.96875 " transform="matrix(0.1,0,0,-0.1,0,792)"/>
<path style="fill:none;stroke-width:0.844061;stroke-linecap:butt;stroke-linejoin:miter;stroke:rgb(13.730068%,12.159915%,12.54902%);stroke-opacity:1;stroke-miterlimit:10;" d="M 2563.164062 6935.859375 L 2563.164062 6927.96875 " transform="matrix(0.1,0,0,-0.1,0,792)"/>
<path style="fill:none;stroke-width:0.844061;stroke-linecap:butt;stroke-linejoin:miter;stroke:rgb(13.730068%,12.159915%,12.54902%);stroke-opacity:1;stroke-miterlimit:10;" d="M 2653.984375 6931.914062 L 2641.796875 7011.679688 " transform="matrix(0.1,0,0,-0.1,0,792)"/>
<path style="fill:none;stroke-width:0.844061;stroke-linecap:butt;stroke-linejoin:miter;stroke:rgb(13.730068%,12.159915%,12.54902%);stroke-opacity:1;stroke-miterlimit:10;" d="M 2652.109375 6970.3125 L 2644.296875 6969.101562 " transform="matrix(0.1,0,0,-0.1,0,792)"/>
<path style="fill:none;stroke-width:0.844061;stroke-linecap:butt;stroke-linejoin:miter;stroke:rgb(13.730068%,12.159915%,12.54902%);stroke-opacity:1;stroke-miterlimit:10;" d="M 2651.796875 6972.382812 L 2643.984375 6971.210938 " transform="matrix(0.1,0,0,-0.1,0,792)"/>
<path style="fill:none;stroke-width:0.844061;stroke-linecap:butt;stroke-linejoin:miter;stroke:rgb(13.730068%,12.159915%,12.54902%);stroke-opacity:1;stroke-miterlimit:10;" d="M 2651.445312 6974.492188 L 2643.671875 6973.28125 " transform="matrix(0.1,0,0,-0.1,0,792)"/>
<path style="fill:none;stroke-width:0.844061;stroke-linecap:butt;stroke-linejoin:miter;stroke:rgb(13.730068%,12.159915%,12.54902%);stroke-opacity:1;stroke-miterlimit:10;" d="M 2590.742188 7183.710938 L 2529.335938 7186.601562 " transform="matrix(0.1,0,0,-0.1,0,792)"/>
<path style="fill:none;stroke-width:0.844061;stroke-linecap:butt;stroke-linejoin:miter;stroke:rgb(13.730068%,12.159915%,12.54902%);stroke-opacity:1;stroke-miterlimit:10;" d="M 2560.234375 7189.101562 L 2559.84375 7181.210938 " transform="matrix(0.1,0,0,-0.1,0,792)"/>
<path style="fill:none;stroke-width:0.844061;stroke-linecap:butt;stroke-linejoin:miter;stroke:rgb(13.730068%,12.159915%,12.54902%);stroke-opacity:1;stroke-miterlimit:10;" d="M 2590.742188 7183.710938 L 2588.945312 7121.757812 " transform="matrix(0.1,0,0,-0.1,0,792)"/>
<path style="fill:none;stroke-width:0.844061;stroke-linecap:butt;stroke-linejoin:miter;stroke:rgb(13.730068%,12.159915%,12.54902%);stroke-opacity:1;stroke-miterlimit:10;" d="M 2585.9375 7153.90625 L 2593.789062 7153.710938 " transform="matrix(0.1,0,0,-0.1,0,792)"/>
<path style="fill:none;stroke-width:0.844061;stroke-linecap:butt;stroke-linejoin:miter;stroke:rgb(13.730068%,12.159915%,12.54902%);stroke-opacity:1;stroke-miterlimit:10;" d="M 2585.898438 7151.835938 L 2593.75 7151.5625 " transform="matrix(0.1,0,0,-0.1,0,792)"/>
<path style="fill:none;stroke-width:0.844061;stroke-linecap:butt;stroke-linejoin:miter;stroke:rgb(13.730068%,12.159915%,12.54902%);stroke-opacity:1;stroke-miterlimit:10;" d="M 2590.742188 7183.710938 L 2653.984375 7242.8125 " transform="matrix(0.1,0,0,-0.1,0,792)"/>
<path style="fill:none;stroke-width:0.844061;stroke-linecap:butt;stroke-linejoin:miter;stroke:rgb(13.730068%,12.159915%,12.54902%);stroke-opacity:1;stroke-miterlimit:10;" d="M 2623.515625 7208.945312 L 2618.125 7214.726562 " transform="matrix(0.1,0,0,-0.1,0,792)"/>
<path style="fill:none;stroke-width:0.844061;stroke-linecap:butt;stroke-linejoin:miter;stroke:rgb(13.730068%,12.159915%,12.54902%);stroke-opacity:1;stroke-miterlimit:10;" d="M 2625.039062 7210.390625 L 2619.648438 7216.171875 " transform="matrix(0.1,0,0,-0.1,0,792)"/>
<path style="fill:none;stroke-width:0.844061;stroke-linecap:butt;stroke-linejoin:miter;stroke:rgb(13.730068%,12.159915%,12.54902%);stroke-opacity:1;stroke-miterlimit:10;" d="M 2626.601562 7211.835938 L 2621.210938 7217.578125 " transform="matrix(0.1,0,0,-0.1,0,792)"/>
<path style="fill:none;stroke-width:0.844061;stroke-linecap:butt;stroke-linejoin:miter;stroke:rgb(13.730068%,12.159915%,12.54902%);stroke-opacity:1;stroke-miterlimit:10;" d="M 2529.335938 7186.601562 L 2522.8125 7133.320312 " transform="matrix(0.1,0,0,-0.1,0,792)"/>
<path style="fill:none;stroke-width:0.844061;stroke-linecap:butt;stroke-linejoin:miter;stroke:rgb(13.730068%,12.159915%,12.54902%);stroke-opacity:1;stroke-miterlimit:10;" d="M 2522.304688 7161.484375 L 2530.117188 7160.546875 " transform="matrix(0.1,0,0,-0.1,0,792)"/>
<path style="fill:none;stroke-width:0.844061;stroke-linecap:butt;stroke-linejoin:miter;stroke:rgb(13.730068%,12.159915%,12.54902%);stroke-opacity:1;stroke-miterlimit:10;" d="M 2522.03125 7159.414062 L 2529.882812 7158.4375 " transform="matrix(0.1,0,0,-0.1,0,792)"/>
<path style="fill:none;stroke-width:0.844061;stroke-linecap:butt;stroke-linejoin:miter;stroke:rgb(13.730068%,12.159915%,12.54902%);stroke-opacity:1;stroke-miterlimit:10;" d="M 2529.335938 7186.601562 L 2474.453125 7242.8125 " transform="matrix(0.1,0,0,-0.1,0,792)"/>
<path style="fill:none;stroke-width:0.844061;stroke-linecap:butt;stroke-linejoin:miter;stroke:rgb(13.730068%,12.159915%,12.54902%);stroke-opacity:1;stroke-miterlimit:10;" d="M 2506.171875 7215.976562 L 2500.585938 7210.46875 " transform="matrix(0.1,0,0,-0.1,0,792)"/>
<path style="fill:none;stroke-width:0.844061;stroke-linecap:butt;stroke-linejoin:miter;stroke:rgb(13.730068%,12.159915%,12.54902%);stroke-opacity:1;stroke-miterlimit:10;" d="M 2504.726562 7217.460938 L 2499.101562 7211.953125 " transform="matrix(0.1,0,0,-0.1,0,792)"/>
<path style="fill:none;stroke-width:0.844061;stroke-linecap:butt;stroke-linejoin:miter;stroke:rgb(13.730068%,12.159915%,12.54902%);stroke-opacity:1;stroke-miterlimit:10;" d="M 2503.242188 7218.984375 L 2497.617188 7213.476562 " transform="matrix(0.1,0,0,-0.1,0,792)"/>
<path style="fill:none;stroke-width:0.844061;stroke-linecap:butt;stroke-linejoin:miter;stroke:rgb(13.730068%,12.159915%,12.54902%);stroke-opacity:1;stroke-miterlimit:10;" d="M 2546.757812 7048.75 L 2494.023438 7016.171875 " transform="matrix(0.1,0,0,-0.1,0,792)"/>
<path style="fill:none;stroke-width:0.844061;stroke-linecap:butt;stroke-linejoin:miter;stroke:rgb(13.730068%,12.159915%,12.54902%);stroke-opacity:1;stroke-miterlimit:10;" d="M 2519.21875 7036.367188 L 2523.359375 7029.6875 " transform="matrix(0.1,0,0,-0.1,0,792)"/>
<path style="fill:none;stroke-width:0.844061;stroke-linecap:butt;stroke-linejoin:miter;stroke:rgb(13.730068%,12.159915%,12.54902%);stroke-opacity:1;stroke-miterlimit:10;" d="M 2517.421875 7035.273438 L 2521.5625 7028.554688 " transform="matrix(0.1,0,0,-0.1,0,792)"/>
<path style="fill:none;stroke-width:0.844061;stroke-linecap:butt;stroke-linejoin:miter;stroke:rgb(13.730068%,12.159915%,12.54902%);stroke-opacity:1;stroke-miterlimit:10;" d="M 2546.757812 7048.75 L 2602.890625 7045.15625 " transform="matrix(0.1,0,0,-0.1,0,792)"/>
<path style="fill:none;stroke-width:0.844061;stroke-linecap:butt;stroke-linejoin:miter;stroke:rgb(13.730068%,12.159915%,12.54902%);stroke-opacity:1;stroke-miterlimit:10;" d="M 2572.5 7043.125 L 2573.007812 7051.015625 " transform="matrix(0.1,0,0,-0.1,0,792)"/>
<path style="fill:none;stroke-width:0.844061;stroke-linecap:butt;stroke-linejoin:miter;stroke:rgb(13.730068%,12.159915%,12.54902%);stroke-opacity:1;stroke-miterlimit:10;" d="M 2574.609375 7043.007812 L 2575.117188 7050.898438 " transform="matrix(0.1,0,0,-0.1,0,792)"/>
<path style="fill:none;stroke-width:0.844061;stroke-linecap:butt;stroke-linejoin:miter;stroke:rgb(13.730068%,12.159915%,12.54902%);stroke-opacity:1;stroke-miterlimit:10;" d="M 2576.71875 7042.890625 L 2577.1875 7050.742188 " transform="matrix(0.1,0,0,-0.1,0,792)"/>
<path style="fill:none;stroke-width:0.844061;stroke-linecap:butt;stroke-linejoin:miter;stroke:rgb(13.730068%,12.159915%,12.54902%);stroke-opacity:1;stroke-miterlimit:10;" d="M 2494.023438 7016.171875 L 2460.820312 7067.929688 " transform="matrix(0.1,0,0,-0.1,0,792)"/>
<path style="fill:none;stroke-width:0.844061;stroke-linecap:butt;stroke-linejoin:miter;stroke:rgb(13.730068%,12.159915%,12.54902%);stroke-opacity:1;stroke-miterlimit:10;" d="M 2480.742188 7044.179688 L 2474.101562 7039.921875 " transform="matrix(0.1,0,0,-0.1,0,792)"/>
<path style="fill:none;stroke-width:0.844061;stroke-linecap:butt;stroke-linejoin:miter;stroke:rgb(13.730068%,12.159915%,12.54902%);stroke-opacity:1;stroke-miterlimit:10;" d="M 2494.023438 7016.171875 L 2474.453125 6931.914062 " transform="matrix(0.1,0,0,-0.1,0,792)"/>
<path style="fill:none;stroke-width:0.844061;stroke-linecap:butt;stroke-linejoin:miter;stroke:rgb(13.730068%,12.159915%,12.54902%);stroke-opacity:1;stroke-miterlimit:10;" d="M 2480.898438 6976.992188 L 2488.554688 6975.234375 " transform="matrix(0.1,0,0,-0.1,0,792)"/>
<path style="fill:none;stroke-width:0.844061;stroke-linecap:butt;stroke-linejoin:miter;stroke:rgb(13.730068%,12.159915%,12.54902%);stroke-opacity:1;stroke-miterlimit:10;" d="M 2480.390625 6974.921875 L 2488.085938 6973.164062 " transform="matrix(0.1,0,0,-0.1,0,792)"/>
<path style="fill:none;stroke-width:0.844061;stroke-linecap:butt;stroke-linejoin:miter;stroke:rgb(13.730068%,12.159915%,12.54902%);stroke-opacity:1;stroke-miterlimit:10;" d="M 2479.921875 6972.890625 L 2487.617188 6971.09375 " transform="matrix(0.1,0,0,-0.1,0,792)"/>
<path style="fill:none;stroke-width:0.844061;stroke-linecap:butt;stroke-linejoin:miter;stroke:rgb(13.730068%,12.159915%,12.54902%);stroke-opacity:1;stroke-miterlimit:10;" d="M 2522.8125 7133.320312 L 2535.390625 7113.125 " transform="matrix(0.1,0,0,-0.1,0,792)"/>
<path style="fill:none;stroke-width:0.844061;stroke-linecap:butt;stroke-linejoin:miter;stroke:rgb(13.730068%,12.159915%,12.54902%);stroke-opacity:1;stroke-miterlimit:10;" d="M 2525.78125 7121.132812 L 2532.460938 7125.3125 " transform="matrix(0.1,0,0,-0.1,0,792)"/>
<path style="fill:none;stroke-width:0.844061;stroke-linecap:butt;stroke-linejoin:miter;stroke:rgb(13.730068%,12.159915%,12.54902%);stroke-opacity:1;stroke-miterlimit:10;" d="M 2522.8125 7133.320312 L 2503.710938 7100.234375 " transform="matrix(0.1,0,0,-0.1,0,792)"/>
<path style="fill:none;stroke-width:0.844061;stroke-linecap:butt;stroke-linejoin:miter;stroke:rgb(13.730068%,12.159915%,12.54902%);stroke-opacity:1;stroke-miterlimit:10;" d="M 2510.898438 7120.546875 L 2517.734375 7116.640625 " transform="matrix(0.1,0,0,-0.1,0,792)"/>
<path style="fill:none;stroke-width:0.844061;stroke-linecap:butt;stroke-linejoin:miter;stroke:rgb(13.730068%,12.159915%,12.54902%);stroke-opacity:1;stroke-miterlimit:10;" d="M 2509.882812 7118.75 L 2516.679688 7114.804688 " transform="matrix(0.1,0,0,-0.1,0,792)"/>
<path style="fill:none;stroke-width:0.844061;stroke-linecap:butt;stroke-linejoin:miter;stroke:rgb(13.730068%,12.159915%,12.54902%);stroke-opacity:1;stroke-miterlimit:10;" d="M 2508.789062 7116.914062 L 2515.625 7112.96875 " transform="matrix(0.1,0,0,-0.1,0,792)"/>
<path style="fill:none;stroke-width:0.844061;stroke-linecap:butt;stroke-linejoin:miter;stroke:rgb(13.730068%,12.159915%,12.54902%);stroke-opacity:1;stroke-miterlimit:10;" d="M 2535.390625 7113.125 L 2555.9375 7106.601562 " transform="matrix(0.1,0,0,-0.1,0,792)"/>
<path style="fill:none;stroke-width:0.844061;stroke-linecap:butt;stroke-linejoin:miter;stroke:rgb(13.730068%,12.159915%,12.54902%);stroke-opacity:1;stroke-miterlimit:10;" d="M 2543.476562 7106.40625 L 2545.859375 7113.945312 " transform="matrix(0.1,0,0,-0.1,0,792)"/>
<path style="fill:none;stroke-width:0.844061;stroke-linecap:butt;stroke-linejoin:miter;stroke:rgb(13.730068%,12.159915%,12.54902%);stroke-opacity:1;stroke-miterlimit:10;" d="M 2545.46875 7105.78125 L 2547.851562 7113.28125 " transform="matrix(0.1,0,0,-0.1,0,792)"/>
<path style="fill:none;stroke-width:0.844061;stroke-linecap:butt;stroke-linejoin:miter;stroke:rgb(13.730068%,12.159915%,12.54902%);stroke-opacity:1;stroke-miterlimit:10;" d="M 2535.390625 7113.125 L 2527.539062 7099.414062 " transform="matrix(0.1,0,0,-0.1,0,792)"/>
<path style="fill:none;stroke-width:0.844061;stroke-linecap:butt;stroke-linejoin:miter;stroke:rgb(13.730068%,12.159915%,12.54902%);stroke-opacity:1;stroke-miterlimit:10;" d="M 2529.101562 7110.078125 L 2535.9375 7106.09375 " transform="matrix(0.1,0,0,-0.1,0,792)"/>
<path style="fill:none;stroke-width:0.844061;stroke-linecap:butt;stroke-linejoin:miter;stroke:rgb(13.730068%,12.159915%,12.54902%);stroke-opacity:1;stroke-miterlimit:10;" d="M 2528.046875 7108.242188 L 2534.882812 7104.296875 " transform="matrix(0.1,0,0,-0.1,0,792)"/>
<path style="fill:none;stroke-width:0.844061;stroke-linecap:butt;stroke-linejoin:miter;stroke:rgb(13.730068%,12.159915%,12.54902%);stroke-opacity:1;stroke-miterlimit:10;" d="M 2526.992188 7106.40625 L 2533.828125 7102.460938 " transform="matrix(0.1,0,0,-0.1,0,792)"/>
<path style="fill:none;stroke-width:0.844061;stroke-linecap:butt;stroke-linejoin:miter;stroke:rgb(13.730068%,12.159915%,12.54902%);stroke-opacity:1;stroke-miterlimit:10;" d="M 2641.796875 7011.679688 L 2668.554688 7058.007812 " transform="matrix(0.1,0,0,-0.1,0,792)"/>
<path style="fill:none;stroke-width:0.844061;stroke-linecap:butt;stroke-linejoin:miter;stroke:rgb(13.730068%,12.159915%,12.54902%);stroke-opacity:1;stroke-miterlimit:10;" d="M 2658.59375 7032.890625 L 2651.757812 7036.796875 " transform="matrix(0.1,0,0,-0.1,0,792)"/>
<path style="fill:none;stroke-width:0.844061;stroke-linecap:butt;stroke-linejoin:miter;stroke:rgb(13.730068%,12.159915%,12.54902%);stroke-opacity:1;stroke-miterlimit:10;" d="M 2641.796875 7011.679688 L 2602.890625 7045.15625 " transform="matrix(0.1,0,0,-0.1,0,792)"/>
<path style="fill:none;stroke-width:0.844061;stroke-linecap:butt;stroke-linejoin:miter;stroke:rgb(13.730068%,12.159915%,12.54902%);stroke-opacity:1;stroke-miterlimit:10;" d="M 2625.703125 7030.703125 L 2620.585938 7024.726562 " transform="matrix(0.1,0,0,-0.1,0,792)"/>
<path style="fill:none;stroke-width:0.844061;stroke-linecap:butt;stroke-linejoin:miter;stroke:rgb(13.730068%,12.159915%,12.54902%);stroke-opacity:1;stroke-miterlimit:10;" d="M 2624.101562 7032.070312 L 2618.984375 7026.09375 " transform="matrix(0.1,0,0,-0.1,0,792)"/>
<path style="fill:none;stroke-width:0.844061;stroke-linecap:butt;stroke-linejoin:miter;stroke:rgb(13.730068%,12.159915%,12.54902%);stroke-opacity:1;stroke-miterlimit:10;" d="M 2668.554688 7058.007812 L 2620.117188 7074.960938 " transform="matrix(0.1,0,0,-0.1,0,792)"/>
<path style="fill:none;stroke-width:0.844061;stroke-linecap:butt;stroke-linejoin:miter;stroke:rgb(13.730068%,12.159915%,12.54902%);stroke-opacity:1;stroke-miterlimit:10;" d="M 2646.640625 7069.84375 L 2644.023438 7062.421875 " transform="matrix(0.1,0,0,-0.1,0,792)"/>
<path style="fill:none;stroke-width:0.844061;stroke-linecap:butt;stroke-linejoin:miter;stroke:rgb(13.730068%,12.159915%,12.54902%);stroke-opacity:1;stroke-miterlimit:10;" d="M 2644.648438 7070.546875 L 2642.03125 7063.125 " transform="matrix(0.1,0,0,-0.1,0,792)"/>
<path style="fill:none;stroke-width:0.844061;stroke-linecap:butt;stroke-linejoin:miter;stroke:rgb(13.730068%,12.159915%,12.54902%);stroke-opacity:1;stroke-miterlimit:10;" d="M 2460.820312 7067.929688 L 2503.710938 7100.234375 " transform="matrix(0.1,0,0,-0.1,0,792)"/>
<path style="fill:none;stroke-width:0.844061;stroke-linecap:butt;stroke-linejoin:miter;stroke:rgb(13.730068%,12.159915%,12.54902%);stroke-opacity:1;stroke-miterlimit:10;" d="M 2483.789062 7080.273438 L 2479.0625 7086.601562 " transform="matrix(0.1,0,0,-0.1,0,792)"/>
<path style="fill:none;stroke-width:0.844061;stroke-linecap:butt;stroke-linejoin:miter;stroke:rgb(13.730068%,12.159915%,12.54902%);stroke-opacity:1;stroke-miterlimit:10;" d="M 2485.46875 7081.5625 L 2480.742188 7087.851562 " transform="matrix(0.1,0,0,-0.1,0,792)"/>
<path style="fill:none;stroke-width:0.844061;stroke-linecap:butt;stroke-linejoin:miter;stroke:rgb(13.730068%,12.159915%,12.54902%);stroke-opacity:1;stroke-miterlimit:10;" d="M 2460.820312 7067.929688 L 2384.726562 7087.382812 " transform="matrix(0.1,0,0,-0.1,0,792)"/>
<path style="fill:none;stroke-width:0.844061;stroke-linecap:butt;stroke-linejoin:miter;stroke:rgb(13.730068%,12.159915%,12.54902%);stroke-opacity:1;stroke-miterlimit:10;" d="M 2425.78125 7080.9375 L 2423.828125 7073.28125 " transform="matrix(0.1,0,0,-0.1,0,792)"/>
<path style="fill:none;stroke-width:0.844061;stroke-linecap:butt;stroke-linejoin:miter;stroke:rgb(13.730068%,12.159915%,12.54902%);stroke-opacity:1;stroke-miterlimit:10;" d="M 2423.75 7081.445312 L 2421.796875 7073.828125 " transform="matrix(0.1,0,0,-0.1,0,792)"/>
<path style="fill:none;stroke-width:0.844061;stroke-linecap:butt;stroke-linejoin:miter;stroke:rgb(13.730068%,12.159915%,12.54902%);stroke-opacity:1;stroke-miterlimit:10;" d="M 2421.71875 7081.953125 L 2419.765625 7074.375 " transform="matrix(0.1,0,0,-0.1,0,792)"/>
<path style="fill:none;stroke-width:0.844061;stroke-linecap:butt;stroke-linejoin:miter;stroke:rgb(13.730068%,12.159915%,12.54902%);stroke-opacity:1;stroke-miterlimit:10;" d="M 2503.710938 7100.234375 L 2527.539062 7099.414062 " transform="matrix(0.1,0,0,-0.1,0,792)"/>
<path style="fill:none;stroke-width:0.844061;stroke-linecap:butt;stroke-linejoin:miter;stroke:rgb(13.730068%,12.159915%,12.54902%);stroke-opacity:1;stroke-miterlimit:10;" d="M 2515.46875 7095.898438 L 2515.742188 7103.75 " transform="matrix(0.1,0,0,-0.1,0,792)"/>
<path style="fill:none;stroke-width:0.844061;stroke-linecap:butt;stroke-linejoin:miter;stroke:rgb(13.730068%,12.159915%,12.54902%);stroke-opacity:1;stroke-miterlimit:10;" d="M 2620.117188 7074.960938 L 2602.890625 7045.15625 " transform="matrix(0.1,0,0,-0.1,0,792)"/>
<path style="fill:none;stroke-width:0.844061;stroke-linecap:butt;stroke-linejoin:miter;stroke:rgb(13.730068%,12.159915%,12.54902%);stroke-opacity:1;stroke-miterlimit:10;" d="M 2608.125 7062.03125 L 2614.921875 7058.085938 " transform="matrix(0.1,0,0,-0.1,0,792)"/>
<path style="fill:none;stroke-width:0.844061;stroke-linecap:butt;stroke-linejoin:miter;stroke:rgb(13.730068%,12.159915%,12.54902%);stroke-opacity:1;stroke-miterlimit:10;" d="M 2620.117188 7074.960938 L 2588.945312 7121.757812 " transform="matrix(0.1,0,0,-0.1,0,792)"/>
<path style="fill:none;stroke-width:0.844061;stroke-linecap:butt;stroke-linejoin:miter;stroke:rgb(13.730068%,12.159915%,12.54902%);stroke-opacity:1;stroke-miterlimit:10;" d="M 2608.984375 7098.789062 L 2602.421875 7094.414062 " transform="matrix(0.1,0,0,-0.1,0,792)"/>
<path style="fill:none;stroke-width:0.844061;stroke-linecap:butt;stroke-linejoin:miter;stroke:rgb(13.730068%,12.159915%,12.54902%);stroke-opacity:1;stroke-miterlimit:10;" d="M 2607.8125 7100.546875 L 2601.25 7096.210938 " transform="matrix(0.1,0,0,-0.1,0,792)"/>
<path style="fill:none;stroke-width:0.844061;stroke-linecap:butt;stroke-linejoin:miter;stroke:rgb(13.730068%,12.159915%,12.54902%);stroke-opacity:1;stroke-miterlimit:10;" d="M 2606.640625 7102.304688 L 2600.078125 7097.96875 " transform="matrix(0.1,0,0,-0.1,0,792)"/>
<path style="fill:none;stroke-width:0.844061;stroke-linecap:butt;stroke-linejoin:miter;stroke:rgb(13.730068%,12.159915%,12.54902%);stroke-opacity:1;stroke-miterlimit:10;" d="M 2474.453125 7242.8125 L 2653.984375 7242.8125 " transform="matrix(0.1,0,0,-0.1,0,792)"/>
<path style="fill:none;stroke-width:0.844061;stroke-linecap:butt;stroke-linejoin:miter;stroke:rgb(13.730068%,12.159915%,12.54902%);stroke-opacity:1;stroke-miterlimit:10;" d="M 2564.21875 7238.867188 L 2564.21875 7246.757812 " transform="matrix(0.1,0,0,-0.1,0,792)"/>
<path style="fill:none;stroke-width:0.844061;stroke-linecap:butt;stroke-linejoin:miter;stroke:rgb(13.730068%,12.159915%,12.54902%);stroke-opacity:1;stroke-miterlimit:10;" d="M 2474.453125 7242.8125 L 2384.726562 7087.382812 " transform="matrix(0.1,0,0,-0.1,0,792)"/>
<path style="fill:none;stroke-width:0.844061;stroke-linecap:butt;stroke-linejoin:miter;stroke:rgb(13.730068%,12.159915%,12.54902%);stroke-opacity:1;stroke-miterlimit:10;" d="M 2426.71875 7167.96875 L 2433.554688 7164.023438 " transform="matrix(0.1,0,0,-0.1,0,792)"/>
<path style="fill:none;stroke-width:0.844061;stroke-linecap:butt;stroke-linejoin:miter;stroke:rgb(13.730068%,12.159915%,12.54902%);stroke-opacity:1;stroke-miterlimit:10;" d="M 2425.625 7166.132812 L 2432.460938 7162.1875 " transform="matrix(0.1,0,0,-0.1,0,792)"/>
<path style="fill:none;stroke-width:0.844061;stroke-linecap:butt;stroke-linejoin:miter;stroke:rgb(13.730068%,12.159915%,12.54902%);stroke-opacity:1;stroke-miterlimit:10;" d="M 2384.726562 7087.382812 L 2474.453125 6931.914062 " transform="matrix(0.1,0,0,-0.1,0,792)"/>
<path style="fill:none;stroke-width:0.844061;stroke-linecap:butt;stroke-linejoin:miter;stroke:rgb(13.730068%,12.159915%,12.54902%);stroke-opacity:1;stroke-miterlimit:10;" d="M 2426.171875 7007.65625 L 2433.007812 7011.601562 " transform="matrix(0.1,0,0,-0.1,0,792)"/>
<path style="fill:none;stroke-width:0.844061;stroke-linecap:butt;stroke-linejoin:miter;stroke:rgb(13.730068%,12.159915%,12.54902%);stroke-opacity:1;stroke-miterlimit:10;" d="M 2555.9375 7106.601562 L 2588.945312 7121.757812 " transform="matrix(0.1,0,0,-0.1,0,792)"/>
<path style="fill:none;stroke-width:0.844061;stroke-linecap:butt;stroke-linejoin:miter;stroke:rgb(13.730068%,12.159915%,12.54902%);stroke-opacity:1;stroke-miterlimit:10;" d="M 2574.0625 7110.585938 L 2570.78125 7117.773438 " transform="matrix(0.1,0,0,-0.1,0,792)"/>
<path style=" stroke:none;fill-rule:evenodd;fill:rgb(13.730068%,12.159915%,12.54902%);fill-opacity:1;" d="M 254.339844 83.507812 L 254.734375 83.507812 C 254.734375 83.726562 254.558594 83.902344 254.339844 83.902344 C 254.121094 83.902344 253.945312 83.726562 253.945312 83.507812 C 253.945312 83.289062 254.121094 83.113281 254.339844 83.113281 C 254.558594 83.113281 254.734375 83.289062 254.734375 83.507812 L 254.339844 83.507812 "/>
<path style=" stroke:none;fill-rule:evenodd;fill:rgb(13.730068%,12.159915%,12.54902%);fill-opacity:1;" d="M 274.371094 83.261719 L 274.765625 83.261719 C 274.765625 83.480469 274.589844 83.65625 274.371094 83.65625 C 274.152344 83.65625 273.976562 83.480469 273.976562 83.261719 C 273.976562 83.046875 274.152344 82.871094 274.371094 82.871094 C 274.589844 82.871094 274.765625 83.046875 274.765625 83.261719 L 274.371094 83.261719 "/>
<path style=" stroke:none;fill-rule:evenodd;fill:rgb(13.730068%,12.159915%,12.54902%);fill-opacity:1;" d="M 265.398438 98.808594 L 265.789062 98.808594 C 265.789062 99.027344 265.613281 99.203125 265.398438 99.203125 C 265.179688 99.203125 265.003906 99.027344 265.003906 98.808594 C 265.003906 98.589844 265.179688 98.414062 265.398438 98.414062 C 265.613281 98.414062 265.789062 98.589844 265.789062 98.808594 L 265.398438 98.808594 "/>
<path style=" stroke:none;fill-rule:evenodd;fill:rgb(13.730068%,12.159915%,12.54902%);fill-opacity:1;" d="M 259.074219 73.628906 L 259.46875 73.628906 C 259.46875 73.84375 259.292969 74.019531 259.074219 74.019531 C 258.855469 74.019531 258.679688 73.84375 258.679688 73.628906 C 258.679688 73.410156 258.855469 73.234375 259.074219 73.234375 C 259.292969 73.234375 259.46875 73.410156 259.46875 73.628906 L 259.074219 73.628906 "/>
<path style=" stroke:none;fill-rule:evenodd;fill:rgb(13.730068%,12.159915%,12.54902%);fill-opacity:1;" d="M 252.933594 73.339844 L 253.328125 73.339844 C 253.328125 73.554688 253.152344 73.730469 252.933594 73.730469 C 252.71875 73.730469 252.539062 73.554688 252.539062 73.339844 C 252.539062 73.121094 252.71875 72.945312 252.933594 72.945312 C 253.152344 72.945312 253.328125 73.121094 253.328125 73.339844 L 252.933594 73.339844 "/>
<path style=" stroke:none;fill-rule:evenodd;fill:rgb(13.730068%,12.159915%,12.54902%);fill-opacity:1;" d="M 254.675781 87.125 L 255.070312 87.125 C 255.070312 87.34375 254.894531 87.519531 254.675781 87.519531 C 254.460938 87.519531 254.28125 87.34375 254.28125 87.125 C 254.28125 86.90625 254.460938 86.730469 254.675781 86.730469 C 254.894531 86.730469 255.070312 86.90625 255.070312 87.125 L 254.675781 87.125 "/>
<path style=" stroke:none;fill-rule:evenodd;fill:rgb(13.730068%,12.159915%,12.54902%);fill-opacity:1;" d="M 249.402344 90.382812 L 249.796875 90.382812 C 249.796875 90.597656 249.617188 90.773438 249.402344 90.773438 C 249.1875 90.773438 249.007812 90.597656 249.007812 90.382812 C 249.007812 90.164062 249.1875 89.988281 249.402344 89.988281 C 249.617188 89.988281 249.796875 90.164062 249.796875 90.382812 L 249.402344 90.382812 "/>
<path style=" stroke:none;fill-rule:evenodd;fill:rgb(13.730068%,12.159915%,12.54902%);fill-opacity:1;" d="M 252.28125 78.667969 L 252.675781 78.667969 C 252.675781 78.886719 252.5 79.0625 252.28125 79.0625 C 252.066406 79.0625 251.890625 78.886719 251.890625 78.667969 C 251.890625 78.449219 252.066406 78.273438 252.28125 78.273438 C 252.5 78.273438 252.675781 78.449219 252.675781 78.667969 L 252.28125 78.667969 "/>
<path style=" stroke:none;fill-rule:evenodd;fill:rgb(13.730068%,12.159915%,12.54902%);fill-opacity:1;" d="M 253.539062 80.6875 L 253.9375 80.6875 C 253.9375 80.90625 253.761719 81.082031 253.539062 81.082031 C 253.324219 81.082031 253.148438 80.90625 253.148438 80.6875 C 253.148438 80.472656 253.324219 80.292969 253.539062 80.292969 C 253.761719 80.292969 253.9375 80.472656 253.9375 80.6875 L 253.539062 80.6875 "/>
<path style=" stroke:none;fill-rule:evenodd;fill:rgb(13.730068%,12.159915%,12.54902%);fill-opacity:1;" d="M 264.179688 90.832031 L 264.574219 90.832031 C 264.574219 91.050781 264.398438 91.226562 264.179688 91.226562 C 263.964844 91.226562 263.785156 91.050781 263.785156 90.832031 C 263.785156 90.613281 263.964844 90.4375 264.179688 90.4375 C 264.398438 90.4375 264.574219 90.613281 264.574219 90.832031 L 264.179688 90.832031 "/>
<path style=" stroke:none;fill-rule:evenodd;fill:rgb(13.730068%,12.159915%,12.54902%);fill-opacity:1;" d="M 266.855469 86.199219 L 267.25 86.199219 C 267.25 86.417969 267.074219 86.59375 266.855469 86.59375 C 266.636719 86.59375 266.460938 86.417969 266.460938 86.199219 C 266.460938 85.980469 266.636719 85.804688 266.855469 85.804688 C 267.074219 85.804688 267.25 85.980469 267.25 86.199219 L 266.855469 86.199219 "/>
<path style=" stroke:none;fill-rule:evenodd;fill:rgb(13.730068%,12.159915%,12.54902%);fill-opacity:1;" d="M 246.082031 85.207031 L 246.476562 85.207031 C 246.476562 85.425781 246.300781 85.601562 246.082031 85.601562 C 245.863281 85.601562 245.6875 85.425781 245.6875 85.207031 C 245.6875 84.988281 245.863281 84.8125 246.082031 84.8125 C 246.300781 84.8125 246.476562 84.988281 246.476562 85.207031 L 246.082031 85.207031 "/>
<path style=" stroke:none;fill-rule:evenodd;fill:rgb(13.730068%,12.159915%,12.54902%);fill-opacity:1;" d="M 250.371094 81.976562 L 250.765625 81.976562 C 250.765625 82.195312 250.589844 82.371094 250.371094 82.371094 C 250.152344 82.371094 249.976562 82.195312 249.976562 81.976562 C 249.976562 81.761719 250.152344 81.585938 250.371094 81.585938 C 250.589844 81.585938 250.765625 81.761719 250.765625 81.976562 L 250.371094 81.976562 "/>
<path style=" stroke:none;fill-rule:evenodd;fill:rgb(13.730068%,12.159915%,12.54902%);fill-opacity:1;" d="M 262.011719 84.503906 L 262.40625 84.503906 C 262.40625 84.722656 262.230469 84.898438 262.011719 84.898438 C 261.796875 84.898438 261.617188 84.722656 261.617188 84.503906 C 261.617188 84.285156 261.796875 84.109375 262.011719 84.109375 C 262.230469 84.109375 262.40625 84.285156 262.40625 84.503906 L 262.011719 84.503906 "/>
<path style=" stroke:none;fill-rule:evenodd;fill:rgb(13.730068%,12.159915%,12.54902%);fill-opacity:1;" d="M 260.289062 87.484375 L 260.683594 87.484375 C 260.683594 87.703125 260.507812 87.882812 260.289062 87.882812 C 260.074219 87.882812 259.894531 87.703125 259.894531 87.484375 C 259.894531 87.269531 260.074219 87.09375 260.289062 87.09375 C 260.507812 87.09375 260.683594 87.269531 260.683594 87.484375 L 260.289062 87.484375 "/>
<path style=" stroke:none;fill-rule:evenodd;fill:rgb(13.730068%,12.159915%,12.54902%);fill-opacity:1;" d="M 247.445312 67.71875 L 247.839844 67.71875 C 247.839844 67.9375 247.664062 68.113281 247.445312 68.113281 C 247.230469 68.113281 247.054688 67.9375 247.054688 67.71875 C 247.054688 67.503906 247.230469 67.324219 247.445312 67.324219 C 247.664062 67.324219 247.839844 67.503906 247.839844 67.71875 L 247.445312 67.71875 "/>
<path style=" stroke:none;fill-rule:evenodd;fill:rgb(13.730068%,12.159915%,12.54902%);fill-opacity:1;" d="M 265.398438 67.71875 L 265.789062 67.71875 C 265.789062 67.9375 265.613281 68.113281 265.398438 68.113281 C 265.179688 68.113281 265.003906 67.9375 265.003906 67.71875 C 265.003906 67.503906 265.179688 67.324219 265.398438 67.324219 C 265.613281 67.324219 265.789062 67.503906 265.789062 67.71875 L 265.398438 67.71875 "/>
<path style=" stroke:none;fill-rule:evenodd;fill:rgb(13.730068%,12.159915%,12.54902%);fill-opacity:1;" d="M 252.753906 82.058594 L 253.144531 82.058594 C 253.144531 82.273438 252.96875 82.453125 252.753906 82.453125 C 252.535156 82.453125 252.355469 82.273438 252.355469 82.058594 C 252.355469 81.839844 252.535156 81.664062 252.753906 81.664062 C 252.96875 81.664062 253.144531 81.839844 253.144531 82.058594 L 252.753906 82.058594 "/>
<path style=" stroke:none;fill-rule:evenodd;fill:rgb(13.730068%,12.159915%,12.54902%);fill-opacity:1;" d="M 238.472656 83.261719 L 238.863281 83.261719 C 238.863281 83.480469 238.6875 83.65625 238.472656 83.65625 C 238.253906 83.65625 238.078125 83.480469 238.078125 83.261719 C 238.078125 83.046875 238.253906 82.871094 238.472656 82.871094 C 238.6875 82.871094 238.863281 83.046875 238.863281 83.261719 L 238.472656 83.261719 "/>
<path style=" stroke:none;fill-rule:evenodd;fill:rgb(13.730068%,12.159915%,12.54902%);fill-opacity:1;" d="M 255.59375 81.339844 L 255.984375 81.339844 C 255.984375 81.558594 255.808594 81.734375 255.59375 81.734375 C 255.375 81.734375 255.195312 81.558594 255.195312 81.339844 C 255.195312 81.121094 255.375 80.945312 255.59375 80.945312 C 255.808594 80.945312 255.984375 81.121094 255.984375 81.339844 L 255.59375 81.339844 "/>
<path style=" stroke:none;fill-rule:evenodd;fill:rgb(13.730068%,12.159915%,12.54902%);fill-opacity:1;" d="M 258.894531 79.824219 L 259.285156 79.824219 C 259.285156 80.039062 259.109375 80.21875 258.894531 80.21875 C 258.675781 80.21875 258.5 80.039062 258.5 79.824219 C 258.5 79.605469 258.675781 79.429688 258.894531 79.429688 C 259.109375 79.429688 259.285156 79.605469 259.285156 79.824219 L 258.894531 79.824219 "/>
<path style=" stroke:none;fill-rule:evenodd;fill:rgb(13.730068%,12.159915%,12.54902%);fill-opacity:1;" d="M 247.445312 98.808594 L 247.839844 98.808594 C 247.839844 99.027344 247.664062 99.203125 247.445312 99.203125 C 247.230469 99.203125 247.054688 99.027344 247.054688 98.808594 C 247.054688 98.589844 247.230469 98.414062 247.445312 98.414062 C 247.664062 98.414062 247.839844 98.589844 247.839844 98.808594 L 247.445312 98.808594 "/>
<path style="fill:none;stroke-width:2.16;stroke-linecap:butt;stroke-linejoin:miter;stroke:rgb(97.053483%,60.277714%,66.70634%);stroke-opacity:1;stroke-miterlimit:2.61313;" d="M 2543.398438 7084.921875 C 2646.40625 7098.867188 2713.203125 7099.648438 2743.710938 7087.382812 " transform="matrix(0.1,0,0,-0.1,0,792)"/>
<path style="fill:none;stroke-width:2.16;stroke-linecap:butt;stroke-linejoin:miter;stroke:rgb(97.053483%,60.277714%,66.70634%);stroke-opacity:1;stroke-miterlimit:2.61313;" d="M 2653.984375 6931.914062 C 2716.328125 7085.664062 2695.234375 7169.609375 2590.742188 7183.710938 " transform="matrix(0.1,0,0,-0.1,0,792)"/>
<path style="fill:none;stroke-width:2.16;stroke-linecap:butt;stroke-linejoin:miter;stroke:rgb(97.053483%,60.277714%,66.70634%);stroke-opacity:1;stroke-miterlimit:2.61313;" d="M 2529.335938 7186.601562 C 2468.164062 7116.445312 2473.984375 7070.507812 2546.757812 7048.75 " transform="matrix(0.1,0,0,-0.1,0,792)"/>
<path style="fill:none;stroke-width:2.16;stroke-linecap:butt;stroke-linejoin:miter;stroke:rgb(97.053483%,60.277714%,66.70634%);stroke-opacity:1;stroke-miterlimit:2.61313;" d="M 2494.023438 7016.171875 C 2458.203125 7112.851562 2467.773438 7151.914062 2522.8125 7133.320312 " transform="matrix(0.1,0,0,-0.1,0,792)"/>
<path style="fill:none;stroke-width:2.16;stroke-linecap:butt;stroke-linejoin:miter;stroke:rgb(97.053483%,60.277714%,66.70634%);stroke-opacity:1;stroke-miterlimit:2.61313;" d="M 2641.796875 7011.679688 C 2661.015625 7147.03125 2625.585938 7180.859375 2535.390625 7113.125 " transform="matrix(0.1,0,0,-0.1,0,792)"/>
<path style="fill:none;stroke-width:2.16;stroke-linecap:butt;stroke-linejoin:miter;stroke:rgb(97.053483%,60.277714%,66.70634%);stroke-opacity:1;stroke-miterlimit:2.61313;" d="M 2668.554688 7058.007812 C 2607.421875 6992.695312 2538.164062 6996.015625 2460.820312 7067.929688 " transform="matrix(0.1,0,0,-0.1,0,792)"/>
<path style="fill:none;stroke-width:2.16;stroke-linecap:butt;stroke-linejoin:miter;stroke:rgb(97.053483%,60.277714%,66.70634%);stroke-opacity:1;stroke-miterlimit:2.61313;" d="M 2503.710938 7100.234375 C 2509.882812 7074.570312 2548.671875 7066.171875 2620.117188 7074.960938 " transform="matrix(0.1,0,0,-0.1,0,792)"/>
<path style="fill:none;stroke-width:2.16;stroke-linecap:butt;stroke-linejoin:miter;stroke:rgb(97.053483%,60.277714%,66.70634%);stroke-opacity:1;stroke-miterlimit:2.61313;" d="M 2602.890625 7045.15625 C 2570.9375 7165.898438 2527.1875 7232.734375 2471.679688 7245.585938 " transform="matrix(0.1,0,0,-0.1,0,792)"/>
<path style="fill:none;stroke-width:2.16;stroke-linecap:butt;stroke-linejoin:miter;stroke:rgb(97.053483%,60.277714%,66.70634%);stroke-opacity:1;stroke-miterlimit:2.61313;" d="M 2527.539062 7099.414062 C 2453.242188 7177.65625 2495.390625 7225.429688 2653.984375 7242.8125 " transform="matrix(0.1,0,0,-0.1,0,792)"/>
<path style="fill:none;stroke-width:2.16;stroke-linecap:butt;stroke-linejoin:miter;stroke:rgb(97.053483%,60.277714%,66.70634%);stroke-opacity:1;stroke-miterlimit:2.61313;" d="M 2555.9375 7106.601562 C 2476.796875 7029.765625 2419.726562 7023.359375 2384.726562 7087.382812 " transform="matrix(0.1,0,0,-0.1,0,792)"/>
<path style="fill:none;stroke-width:2.16;stroke-linecap:butt;stroke-linejoin:miter;stroke:rgb(97.053483%,60.277714%,66.70634%);stroke-opacity:1;stroke-miterlimit:2.61313;" d="M 2474.453125 6931.914062 C 2518.398438 6938.789062 2556.5625 7002.070312 2588.945312 7121.757812 " transform="matrix(0.1,0,0,-0.1,0,792)"/>
<path style="fill:none;stroke-width:7.29552;stroke-linecap:butt;stroke-linejoin:miter;stroke:rgb(13.730068%,12.159915%,12.54902%);stroke-opacity:1;stroke-miterlimit:10;" d="M 2034.726562 7087.34375 L 2034.726562 7129.882812 " transform="matrix(0.1,0,0,-0.1,0,792)"/>
<path style="fill:none;stroke-width:7.29552;stroke-linecap:butt;stroke-linejoin:miter;stroke:rgb(13.730068%,12.159915%,12.54902%);stroke-opacity:1;stroke-miterlimit:10;" d="M 2094.570312 7087.34375 L 2050.273438 7087.34375 " transform="matrix(0.1,0,0,-0.1,0,792)"/>
<path style="fill:none;stroke-width:7.29552;stroke-linecap:butt;stroke-linejoin:miter;stroke:rgb(13.730068%,12.159915%,12.54902%);stroke-opacity:1;stroke-miterlimit:10;" d="M 2094.570312 7087.34375 L 2124.492188 7087.34375 C 2154.414062 7087.34375 2154.414062 7087.34375 2154.414062 7057.421875 C 2154.414062 7027.5 2154.414062 7027.5 2154.414062 6997.578125 C 2154.414062 6967.65625 2154.414062 6967.65625 2094.570312 6967.65625 C 2034.726562 6967.65625 2034.726562 6967.65625 2004.804688 6967.65625 C 1974.882812 6967.65625 1974.882812 6967.65625 1944.960938 6967.65625 C 1915.039062 6967.65625 1915.039062 6967.65625 1915.039062 7057.421875 C 1915.039062 7147.226562 1915.039062 7147.226562 1915.039062 7177.148438 C 1915.039062 7207.070312 1915.039062 7207.070312 1974.882812 7207.070312 C 2034.726562 7207.070312 2034.726562 7207.070312 2034.726562 7180.742188 L 2034.726562 7164.53125 " transform="matrix(0.1,0,0,-0.1,0,792)"/>
<path style="fill:none;stroke-width:7.29552;stroke-linecap:butt;stroke-linejoin:miter;stroke:rgb(13.730068%,12.159915%,12.54902%);stroke-opacity:1;stroke-miterlimit:10;" d="M 2034.726562 7087.34375 L 2034.726562 7057.421875 C 2034.726562 7027.5 2034.726562 7027.5 2064.648438 7027.5 C 2094.570312 7027.5 2094.570312 7027.5 2094.570312 7053.828125 L 2094.570312 7073.007812 " transform="matrix(0.1,0,0,-0.1,0,792)"/>
<path style="fill:none;stroke-width:7.29552;stroke-linecap:butt;stroke-linejoin:miter;stroke:rgb(13.730068%,12.159915%,12.54902%);stroke-opacity:1;stroke-miterlimit:10;" d="M 2034.726562 7147.226562 L 2064.648438 7147.226562 C 2094.570312 7147.226562 2094.570312 7147.226562 2094.570312 7120.898438 L 2094.570312 7101.71875 " transform="matrix(0.1,0,0,-0.1,0,792)"/>
<path style="fill:none;stroke-width:7.29552;stroke-linecap:butt;stroke-linejoin:miter;stroke:rgb(13.730068%,12.159915%,12.54902%);stroke-opacity:1;stroke-miterlimit:10;" d="M 2034.726562 7147.226562 L 2004.804688 7147.226562 C 1974.882812 7147.226562 1974.882812 7147.226562 1974.882812 7117.265625 C 1974.882812 7087.34375 1974.882812 7087.34375 2001.210938 7087.34375 L 2019.804688 7087.34375 " transform="matrix(0.1,0,0,-0.1,0,792)"/>
<path style="fill:none;stroke-width:10.0006;stroke-linecap:butt;stroke-linejoin:miter;stroke:rgb(0%,65.099565%,31.369497%);stroke-opacity:1;stroke-miterlimit:2.61313;" d="M 1397.5 7000.976562 L 1510.78125 7175.703125 L 1618.320312 7000.976562 Z M 1397.5 7000.976562 " transform="matrix(0.1,0,0,-0.1,0,792)"/>
<path style=" stroke:none;fill-rule:evenodd;fill:rgb(13.730068%,12.159915%,12.54902%);fill-opacity:1;" d="M 151.078125 73.15625 C 151.78125 73.15625 152.351562 73.726562 152.351562 74.429688 C 152.351562 75.132812 151.78125 75.703125 151.078125 75.703125 C 150.375 75.703125 149.804688 75.132812 149.804688 74.429688 C 149.804688 73.726562 150.375 73.15625 151.078125 73.15625 "/>
<path style="fill:none;stroke-width:2.16;stroke-linecap:butt;stroke-linejoin:miter;stroke:rgb(13.730068%,12.159915%,12.54902%);stroke-opacity:1;stroke-miterlimit:2.61313;" d="M 1510.78125 7188.4375 C 1517.8125 7188.4375 1523.515625 7182.734375 1523.515625 7175.703125 C 1523.515625 7168.671875 1517.8125 7162.96875 1510.78125 7162.96875 C 1503.75 7162.96875 1498.046875 7168.671875 1498.046875 7175.703125 C 1498.046875 7182.734375 1503.75 7188.4375 1510.78125 7188.4375 Z M 1510.78125 7188.4375 " transform="matrix(0.1,0,0,-0.1,0,792)"/>
<path style=" stroke:none;fill-rule:evenodd;fill:rgb(13.730068%,12.159915%,12.54902%);fill-opacity:1;" d="M 161.832031 90.632812 C 162.535156 90.632812 163.101562 91.199219 163.101562 91.902344 C 163.101562 92.605469 162.535156 93.175781 161.832031 93.175781 C 161.128906 93.175781 160.558594 92.605469 160.558594 91.902344 C 160.558594 91.199219 161.128906 90.632812 161.832031 90.632812 "/>
<path style="fill:none;stroke-width:2.16;stroke-linecap:butt;stroke-linejoin:miter;stroke:rgb(13.730068%,12.159915%,12.54902%);stroke-opacity:1;stroke-miterlimit:2.61313;" d="M 1618.320312 7013.671875 C 1625.351562 7013.671875 1631.015625 7008.007812 1631.015625 7000.976562 C 1631.015625 6993.945312 1625.351562 6988.242188 1618.320312 6988.242188 C 1611.289062 6988.242188 1605.585938 6993.945312 1605.585938 7000.976562 C 1605.585938 7008.007812 1611.289062 7013.671875 1618.320312 7013.671875 Z M 1618.320312 7013.671875 " transform="matrix(0.1,0,0,-0.1,0,792)"/>
<path style=" stroke:none;fill-rule:evenodd;fill:rgb(13.730068%,12.159915%,12.54902%);fill-opacity:1;" d="M 139.492188 90.828125 C 140.195312 90.828125 140.765625 91.398438 140.765625 92.101562 C 140.765625 92.800781 140.195312 93.371094 139.492188 93.371094 C 138.792969 93.371094 138.222656 92.800781 138.222656 92.101562 C 138.222656 91.398438 138.792969 90.828125 139.492188 90.828125 "/>
<path style="fill:none;stroke-width:2.16;stroke-linecap:butt;stroke-linejoin:miter;stroke:rgb(13.730068%,12.159915%,12.54902%);stroke-opacity:1;stroke-miterlimit:2.61313;" d="M 1394.921875 7011.71875 C 1401.953125 7011.71875 1407.65625 7006.015625 1407.65625 6998.984375 C 1407.65625 6991.992188 1401.953125 6986.289062 1394.921875 6986.289062 C 1387.929688 6986.289062 1382.226562 6991.992188 1382.226562 6998.984375 C 1382.226562 7006.015625 1387.929688 7011.71875 1394.921875 7011.71875 Z M 1394.921875 7011.71875 " transform="matrix(0.1,0,0,-0.1,0,792)"/>
</g>
</svg>
