<?xml version="1.0" encoding="UTF-8"?>
<svg xmlns="http://www.w3.org/2000/svg" xmlns:xlink="http://www.w3.org/1999/xlink" width="612pt" height="792pt" viewBox="0 0 612 792" version="1.1">
<g id="surface1">
<path style="fill:none;stroke-width:10.0006;stroke-linecap:butt;stroke-linejoin:miter;stroke:rgb(0%,65.099565%,31.369497%);stroke-opacity:1;stroke-miterlimit:2.61313;" d="M 1326.289062 7039.84375 L 1188.554688 6931.445312 " transform="matrix(0.1,0,0,-0.1,0,792)"/>
<path style="fill:none;stroke-width:10.0006;stroke-linecap:butt;stroke-linejoin:miter;stroke:rgb(92.941176%,10.978866%,14.119173%);stroke-opacity:1;stroke-miterlimit:2.61313;" d="M 1188.554688 7145 L 1326.289062 7039.84375 " transform="matrix(0.1,0,0,-0.1,0,792)"/>
<path style="fill:none;stroke-width:10.0006;stroke-linecap:butt;stroke-linejoin:miter;stroke:rgb(0%,65.099565%,31.369497%);stroke-opacity:1;stroke-miterlimit:2.61313;" d="M 965.703125 6931.445312 L 965.703125 7145 " transform="matrix(0.1,0,0,-0.1,0,792)"/>
<path style="fill:none;stroke-width:10.0006;stroke-linecap:butt;stroke-linejoin:miter;stroke:rgb(92.941176%,10.978866%,14.119173%);stroke-opacity:1;stroke-miterlimit:2.61313;" d="M 1188.554688 6931.445312 L 965.703125 6931.445312 " transform="matrix(0.1,0,0,-0.1,0,792)"/>
<path style="fill:none;stroke-width:10.0006;stroke-linecap:butt;stroke-linejoin:miter;stroke:rgb(0%,65.099565%,31.369497%);stroke-opacity:1;stroke-miterlimit:2.61313;" d="M 1188.554688 7145 L 1188.554688 6931.445312 " transform="matrix(0.1,0,0,-0.1,0,792)"/>
<path style="fill:none;stroke-width:10.0006;stroke-linecap:butt;stroke-linejoin:miter;stroke:rgb(0%,65.099565%,31.369497%);stroke-opacity:1;stroke-miterlimit:2.61313;" d="M 965.703125 7145 L 1188.554688 7145 " transform="matrix(0.1,0,0,-0.1,0,792)"/>
<path style=" stroke:none;fill-rule:evenodd;fill:rgb(13.730068%,12.159915%,12.54902%);fill-opacity:1;" d="M 96.570312 76.082031 C 97.351562 76.082031 97.988281 76.714844 97.988281 77.5 C 97.988281 78.28125 97.351562 78.914062 96.570312 78.914062 C 95.789062 78.914062 95.152344 78.28125 95.152344 77.5 C 95.152344 76.714844 95.789062 76.082031 96.570312 76.082031 "/>
<path style="fill:none;stroke-width:2.16;stroke-linecap:butt;stroke-linejoin:miter;stroke:rgb(13.730068%,12.159915%,12.54902%);stroke-opacity:1;stroke-miterlimit:2.61313;" d="M 965.703125 7159.179688 C 973.515625 7159.179688 979.882812 7152.851562 979.882812 7145 C 979.882812 7137.1875 973.515625 7130.859375 965.703125 7130.859375 C 957.890625 7130.859375 951.523438 7137.1875 951.523438 7145 C 951.523438 7152.851562 957.890625 7159.179688 965.703125 7159.179688 Z M 965.703125 7159.179688 " transform="matrix(0.1,0,0,-0.1,0,792)"/>
<path style=" stroke:none;fill-rule:evenodd;fill:rgb(13.730068%,12.159915%,12.54902%);fill-opacity:1;" d="M 118.855469 76.082031 C 119.640625 76.082031 120.273438 76.714844 120.273438 77.5 C 120.273438 78.28125 119.640625 78.914062 118.855469 78.914062 C 118.074219 78.914062 117.441406 78.28125 117.441406 77.5 C 117.441406 76.714844 118.074219 76.082031 118.855469 76.082031 "/>
<path style="fill:none;stroke-width:2.16;stroke-linecap:butt;stroke-linejoin:miter;stroke:rgb(13.730068%,12.159915%,12.54902%);stroke-opacity:1;stroke-miterlimit:2.61313;" d="M 1188.554688 7159.179688 C 1196.40625 7159.179688 1202.734375 7152.851562 1202.734375 7145 C 1202.734375 7137.1875 1196.40625 7130.859375 1188.554688 7130.859375 C 1180.742188 7130.859375 1174.414062 7137.1875 1174.414062 7145 C 1174.414062 7152.851562 1180.742188 7159.179688 1188.554688 7159.179688 Z M 1188.554688 7159.179688 " transform="matrix(0.1,0,0,-0.1,0,792)"/>
<path style=" stroke:none;fill-rule:evenodd;fill:rgb(13.730068%,12.159915%,12.54902%);fill-opacity:1;" d="M 132.980469 86.597656 C 133.761719 86.597656 134.394531 87.234375 134.394531 88.015625 C 134.394531 88.796875 133.761719 89.433594 132.980469 89.433594 C 132.195312 89.433594 131.5625 88.796875 131.5625 88.015625 C 131.5625 87.234375 132.195312 86.597656 132.980469 86.597656 "/>
<path style="fill:none;stroke-width:2.16;stroke-linecap:butt;stroke-linejoin:miter;stroke:rgb(13.730068%,12.159915%,12.54902%);stroke-opacity:1;stroke-miterlimit:2.61313;" d="M 1329.804688 7054.023438 C 1337.617188 7054.023438 1343.945312 7047.65625 1343.945312 7039.84375 C 1343.945312 7032.03125 1337.617188 7025.664062 1329.804688 7025.664062 C 1321.953125 7025.664062 1315.625 7032.03125 1315.625 7039.84375 C 1315.625 7047.65625 1321.953125 7054.023438 1329.804688 7054.023438 Z M 1329.804688 7054.023438 " transform="matrix(0.1,0,0,-0.1,0,792)"/>
<path style=" stroke:none;fill-rule:evenodd;fill:rgb(13.730068%,12.159915%,12.54902%);fill-opacity:1;" d="M 118.90625 97.136719 C 119.691406 97.136719 120.324219 97.773438 120.324219 98.554688 C 120.324219 99.339844 119.691406 99.972656 118.90625 99.972656 C 118.125 99.972656 117.492188 99.339844 117.492188 98.554688 C 117.492188 97.773438 118.125 97.136719 118.90625 97.136719 "/>
<path style="fill:none;stroke-width:2.16;stroke-linecap:butt;stroke-linejoin:miter;stroke:rgb(13.730068%,12.159915%,12.54902%);stroke-opacity:1;stroke-miterlimit:2.61313;" d="M 1189.0625 6948.632812 C 1196.914062 6948.632812 1203.242188 6942.265625 1203.242188 6934.453125 C 1203.242188 6926.601562 1196.914062 6920.273438 1189.0625 6920.273438 C 1181.25 6920.273438 1174.921875 6926.601562 1174.921875 6934.453125 C 1174.921875 6942.265625 1181.25 6948.632812 1189.0625 6948.632812 Z M 1189.0625 6948.632812 " transform="matrix(0.1,0,0,-0.1,0,792)"/>
<path style=" stroke:none;fill-rule:evenodd;fill:rgb(13.730068%,12.159915%,12.54902%);fill-opacity:1;" d="M 96.371094 97.460938 C 97.15625 97.460938 97.789062 98.097656 97.789062 98.878906 C 97.789062 99.660156 97.15625 100.296875 96.371094 100.296875 C 95.589844 100.296875 94.957031 99.660156 94.957031 98.878906 C 94.957031 98.097656 95.589844 97.460938 96.371094 97.460938 "/>
<path style="fill:none;stroke-width:2.16;stroke-linecap:butt;stroke-linejoin:miter;stroke:rgb(13.730068%,12.159915%,12.54902%);stroke-opacity:1;stroke-miterlimit:2.61313;" d="M 963.710938 6945.390625 C 971.5625 6945.390625 977.890625 6939.023438 977.890625 6931.210938 C 977.890625 6923.398438 971.5625 6917.03125 963.710938 6917.03125 C 955.898438 6917.03125 949.570312 6923.398438 949.570312 6931.210938 C 949.570312 6939.023438 955.898438 6945.390625 963.710938 6945.390625 Z M 963.710938 6945.390625 " transform="matrix(0.1,0,0,-0.1,0,792)"/>
<path style="fill:none;stroke-width:9.9978;stroke-linecap:butt;stroke-linejoin:miter;stroke:rgb(13.730068%,12.159915%,12.54902%);stroke-opacity:1;stroke-miterlimit:2.61313;" d="M 1374.648438 7099.414062 L 1476.25 7099.414062 " transform="matrix(0.1,0,0,-0.1,0,792)"/>
<path style="fill:none;stroke-width:10.08;stroke-linecap:butt;stroke-linejoin:miter;stroke:rgb(13.730068%,12.159915%,12.54902%);stroke-opacity:1;stroke-miterlimit:2.61313;" d="M 1444.296875 7125.195312 L 1484.0625 7099.414062 L 1444.296875 7073.59375 " transform="matrix(0.1,0,0,-0.1,0,792)"/>
<path style="fill:none;stroke-width:10.0006;stroke-linecap:butt;stroke-linejoin:miter;stroke:rgb(0%,65.099565%,31.369497%);stroke-opacity:1;stroke-miterlimit:2.61313;" d="M 1551.71875 7037.382812 L 1689.414062 6928.984375 " transform="matrix(0.1,0,0,-0.1,0,792)"/>
<path style="fill:none;stroke-width:10.0006;stroke-linecap:butt;stroke-linejoin:miter;stroke:rgb(92.941176%,10.978866%,14.119173%);stroke-opacity:1;stroke-miterlimit:2.61313;" d="M 1689.414062 7142.539062 L 1551.71875 7037.382812 " transform="matrix(0.1,0,0,-0.1,0,792)"/>
<path style="fill:none;stroke-width:10.0006;stroke-linecap:butt;stroke-linejoin:miter;stroke:rgb(0%,65.099565%,31.369497%);stroke-opacity:1;stroke-miterlimit:2.61313;" d="M 1912.304688 6928.984375 L 1912.304688 7142.539062 " transform="matrix(0.1,0,0,-0.1,0,792)"/>
<path style="fill:none;stroke-width:10.0006;stroke-linecap:butt;stroke-linejoin:miter;stroke:rgb(92.941176%,10.978866%,14.119173%);stroke-opacity:1;stroke-miterlimit:2.61313;" d="M 1689.414062 6928.984375 L 1912.304688 6928.984375 " transform="matrix(0.1,0,0,-0.1,0,792)"/>
<path style="fill:none;stroke-width:10.0006;stroke-linecap:butt;stroke-linejoin:miter;stroke:rgb(0%,65.099565%,31.369497%);stroke-opacity:1;stroke-miterlimit:2.61313;" d="M 1689.414062 7142.539062 L 1689.414062 6928.984375 " transform="matrix(0.1,0,0,-0.1,0,792)"/>
<path style="fill:none;stroke-width:10.0006;stroke-linecap:butt;stroke-linejoin:miter;stroke:rgb(0%,65.099565%,31.369497%);stroke-opacity:1;stroke-miterlimit:2.61313;" d="M 1912.304688 7142.539062 L 1689.414062 7142.539062 " transform="matrix(0.1,0,0,-0.1,0,792)"/>
<path style=" stroke:none;fill-rule:evenodd;fill:rgb(13.730068%,12.159915%,12.54902%);fill-opacity:1;" d="M 191.230469 76.328125 C 190.445312 76.328125 189.8125 76.964844 189.8125 77.746094 C 189.8125 78.527344 190.445312 79.164062 191.230469 79.164062 C 192.011719 79.164062 192.644531 78.527344 192.644531 77.746094 C 192.644531 76.964844 192.011719 76.328125 191.230469 76.328125 "/>
<path style="fill:none;stroke-width:2.16;stroke-linecap:butt;stroke-linejoin:miter;stroke:rgb(13.730068%,12.159915%,12.54902%);stroke-opacity:1;stroke-miterlimit:2.61313;" d="M 1912.304688 7156.71875 C 1904.453125 7156.71875 1898.125 7150.351562 1898.125 7142.539062 C 1898.125 7134.726562 1904.453125 7128.359375 1912.304688 7128.359375 C 1920.117188 7128.359375 1926.445312 7134.726562 1926.445312 7142.539062 C 1926.445312 7150.351562 1920.117188 7156.71875 1912.304688 7156.71875 Z M 1912.304688 7156.71875 " transform="matrix(0.1,0,0,-0.1,0,792)"/>
<path style=" stroke:none;fill-rule:evenodd;fill:rgb(13.730068%,12.159915%,12.54902%);fill-opacity:1;" d="M 168.941406 76.328125 C 168.160156 76.328125 167.523438 76.964844 167.523438 77.746094 C 167.523438 78.527344 168.160156 79.164062 168.941406 79.164062 C 169.726562 79.164062 170.359375 78.527344 170.359375 77.746094 C 170.359375 76.964844 169.726562 76.328125 168.941406 76.328125 "/>
<path style="fill:none;stroke-width:2.16;stroke-linecap:butt;stroke-linejoin:miter;stroke:rgb(13.730068%,12.159915%,12.54902%);stroke-opacity:1;stroke-miterlimit:2.61313;" d="M 1689.414062 7156.71875 C 1681.601562 7156.71875 1675.234375 7150.351562 1675.234375 7142.539062 C 1675.234375 7134.726562 1681.601562 7128.359375 1689.414062 7128.359375 C 1697.265625 7128.359375 1703.59375 7134.726562 1703.59375 7142.539062 C 1703.59375 7150.351562 1697.265625 7156.71875 1689.414062 7156.71875 Z M 1689.414062 7156.71875 " transform="matrix(0.1,0,0,-0.1,0,792)"/>
<path style=" stroke:none;fill-rule:evenodd;fill:rgb(13.730068%,12.159915%,12.54902%);fill-opacity:1;" d="M 154.820312 86.84375 C 154.039062 86.84375 153.402344 87.480469 153.402344 88.261719 C 153.402344 89.046875 154.039062 89.679688 154.820312 89.679688 C 155.601562 89.679688 156.238281 89.046875 156.238281 88.261719 C 156.238281 87.480469 155.601562 86.84375 154.820312 86.84375 "/>
<path style="fill:none;stroke-width:2.16;stroke-linecap:butt;stroke-linejoin:miter;stroke:rgb(13.730068%,12.159915%,12.54902%);stroke-opacity:1;stroke-miterlimit:2.61313;" d="M 1548.203125 7051.5625 C 1540.390625 7051.5625 1534.023438 7045.195312 1534.023438 7037.382812 C 1534.023438 7029.53125 1540.390625 7023.203125 1548.203125 7023.203125 C 1556.015625 7023.203125 1562.382812 7029.53125 1562.382812 7037.382812 C 1562.382812 7045.195312 1556.015625 7051.5625 1548.203125 7051.5625 Z M 1548.203125 7051.5625 " transform="matrix(0.1,0,0,-0.1,0,792)"/>
<path style=" stroke:none;fill-rule:evenodd;fill:rgb(13.730068%,12.159915%,12.54902%);fill-opacity:1;" d="M 168.890625 97.382812 C 168.109375 97.382812 167.472656 98.019531 167.472656 98.800781 C 167.472656 99.585938 168.109375 100.21875 168.890625 100.21875 C 169.675781 100.21875 170.308594 99.585938 170.308594 98.800781 C 170.308594 98.019531 169.675781 97.382812 168.890625 97.382812 "/>
<path style="fill:none;stroke-width:2.16;stroke-linecap:butt;stroke-linejoin:miter;stroke:rgb(13.730068%,12.159915%,12.54902%);stroke-opacity:1;stroke-miterlimit:2.61313;" d="M 1688.90625 6946.171875 C 1681.09375 6946.171875 1674.726562 6939.804688 1674.726562 6931.992188 C 1674.726562 6924.140625 1681.09375 6917.8125 1688.90625 6917.8125 C 1696.757812 6917.8125 1703.085938 6924.140625 1703.085938 6931.992188 C 1703.085938 6939.804688 1696.757812 6946.171875 1688.90625 6946.171875 Z M 1688.90625 6946.171875 " transform="matrix(0.1,0,0,-0.1,0,792)"/>
<path style=" stroke:none;fill-rule:evenodd;fill:rgb(13.730068%,12.159915%,12.54902%);fill-opacity:1;" d="M 191.425781 97.707031 C 190.644531 97.707031 190.007812 98.34375 190.007812 99.125 C 190.007812 99.90625 190.644531 100.542969 191.425781 100.542969 C 192.210938 100.542969 192.84375 99.90625 192.84375 99.125 C 192.84375 98.34375 192.210938 97.707031 191.425781 97.707031 "/>
<path style="fill:none;stroke-width:2.16;stroke-linecap:butt;stroke-linejoin:miter;stroke:rgb(13.730068%,12.159915%,12.54902%);stroke-opacity:1;stroke-miterlimit:2.61313;" d="M 1914.257812 6942.929688 C 1906.445312 6942.929688 1900.078125 6936.5625 1900.078125 6928.75 C 1900.078125 6920.9375 1906.445312 6914.570312 1914.257812 6914.570312 C 1922.109375 6914.570312 1928.4375 6920.9375 1928.4375 6928.75 C 1928.4375 6936.5625 1922.109375 6942.929688 1914.257812 6942.929688 Z M 1914.257812 6942.929688 " transform="matrix(0.1,0,0,-0.1,0,792)"/>
</g>
</svg>
