<?xml version="1.0" encoding="UTF-8"?>
<svg xmlns="http://www.w3.org/2000/svg" xmlns:xlink="http://www.w3.org/1999/xlink" width="612pt" height="792pt" viewBox="0 0 612 792" version="1.1">
<g id="surface1">
<path style="fill:none;stroke-width:10.0006;stroke-linecap:butt;stroke-linejoin:miter;stroke:rgb(0%,65.099565%,31.369497%);stroke-opacity:1;stroke-miterlimit:2.61313;" d="M 3828.632812 7154.765625 L 3690.898438 7046.40625 " transform="matrix(0.1,0,0,-0.1,0,792)"/>
<path style="fill:none;stroke-width:10.0006;stroke-linecap:butt;stroke-linejoin:miter;stroke:rgb(92.941176%,10.978866%,14.119173%);stroke-opacity:1;stroke-miterlimit:2.61313;" d="M 3690.898438 7259.960938 L 3828.632812 7154.765625 " transform="matrix(0.1,0,0,-0.1,0,792)"/>
<path style="fill:none;stroke-width:10.0006;stroke-linecap:butt;stroke-linejoin:miter;stroke:rgb(0%,65.099565%,31.369497%);stroke-opacity:1;stroke-miterlimit:2.61313;" d="M 3468.046875 7046.367188 L 3468.046875 7259.960938 " transform="matrix(0.1,0,0,-0.1,0,792)"/>
<path style="fill:none;stroke-width:10.0006;stroke-linecap:butt;stroke-linejoin:miter;stroke:rgb(92.941176%,10.978866%,14.119173%);stroke-opacity:1;stroke-miterlimit:2.61313;" d="M 3690.898438 7046.367188 L 3468.046875 7046.367188 " transform="matrix(0.1,0,0,-0.1,0,792)"/>
<path style="fill:none;stroke-width:10.0006;stroke-linecap:butt;stroke-linejoin:miter;stroke:rgb(0%,65.099565%,31.369497%);stroke-opacity:1;stroke-miterlimit:2.61313;" d="M 3690.898438 7259.960938 L 3690.898438 7046.367188 " transform="matrix(0.1,0,0,-0.1,0,792)"/>
<path style="fill:none;stroke-width:10.0006;stroke-linecap:butt;stroke-linejoin:miter;stroke:rgb(0%,65.099565%,31.369497%);stroke-opacity:1;stroke-miterlimit:2.61313;" d="M 3468.046875 7259.960938 L 3690.898438 7259.960938 " transform="matrix(0.1,0,0,-0.1,0,792)"/>
<path style=" stroke:none;fill-rule:evenodd;fill:rgb(13.730068%,12.159915%,12.54902%);fill-opacity:1;" d="M 346.804688 64.589844 C 347.589844 64.589844 348.222656 65.222656 348.222656 66.003906 C 348.222656 66.789062 347.589844 67.421875 346.804688 67.421875 C 346.023438 67.421875 345.390625 66.789062 345.390625 66.003906 C 345.390625 65.222656 346.023438 64.589844 346.804688 64.589844 "/>
<path style="fill:none;stroke-width:2.16;stroke-linecap:butt;stroke-linejoin:miter;stroke:rgb(13.730068%,12.159915%,12.54902%);stroke-opacity:1;stroke-miterlimit:2.61313;" d="M 3468.046875 7274.101562 C 3475.898438 7274.101562 3482.226562 7267.773438 3482.226562 7259.960938 C 3482.226562 7252.109375 3475.898438 7245.78125 3468.046875 7245.78125 C 3460.234375 7245.78125 3453.90625 7252.109375 3453.90625 7259.960938 C 3453.90625 7267.773438 3460.234375 7274.101562 3468.046875 7274.101562 Z M 3468.046875 7274.101562 " transform="matrix(0.1,0,0,-0.1,0,792)"/>
<path style=" stroke:none;fill-rule:evenodd;fill:rgb(13.730068%,12.159915%,12.54902%);fill-opacity:1;" d="M 369.09375 64.589844 C 369.875 64.589844 370.511719 65.222656 370.511719 66.003906 C 370.511719 66.789062 369.875 67.421875 369.09375 67.421875 C 368.308594 67.421875 367.675781 66.789062 367.675781 66.003906 C 367.675781 65.222656 368.308594 64.589844 369.09375 64.589844 "/>
<path style="fill:none;stroke-width:2.16;stroke-linecap:butt;stroke-linejoin:miter;stroke:rgb(13.730068%,12.159915%,12.54902%);stroke-opacity:1;stroke-miterlimit:2.61313;" d="M 3690.9375 7274.101562 C 3698.75 7274.101562 3705.117188 7267.773438 3705.117188 7259.960938 C 3705.117188 7252.109375 3698.75 7245.78125 3690.9375 7245.78125 C 3683.085938 7245.78125 3676.757812 7252.109375 3676.757812 7259.960938 C 3676.757812 7267.773438 3683.085938 7274.101562 3690.9375 7274.101562 Z M 3690.9375 7274.101562 " transform="matrix(0.1,0,0,-0.1,0,792)"/>
<path style=" stroke:none;fill-rule:evenodd;fill:rgb(13.730068%,12.159915%,12.54902%);fill-opacity:1;" d="M 383.214844 75.105469 C 383.996094 75.105469 384.632812 75.738281 384.632812 76.519531 C 384.632812 77.304688 383.996094 77.9375 383.214844 77.9375 C 382.433594 77.9375 381.796875 77.304688 381.796875 76.519531 C 381.796875 75.738281 382.433594 75.105469 383.214844 75.105469 "/>
<path style="fill:none;stroke-width:2.16;stroke-linecap:butt;stroke-linejoin:miter;stroke:rgb(13.730068%,12.159915%,12.54902%);stroke-opacity:1;stroke-miterlimit:2.61313;" d="M 3832.148438 7168.945312 C 3839.960938 7168.945312 3846.328125 7162.617188 3846.328125 7154.804688 C 3846.328125 7146.953125 3839.960938 7140.625 3832.148438 7140.625 C 3824.335938 7140.625 3817.96875 7146.953125 3817.96875 7154.804688 C 3817.96875 7162.617188 3824.335938 7168.945312 3832.148438 7168.945312 Z M 3832.148438 7168.945312 " transform="matrix(0.1,0,0,-0.1,0,792)"/>
<path style=" stroke:none;fill-rule:evenodd;fill:rgb(13.730068%,12.159915%,12.54902%);fill-opacity:1;" d="M 369.144531 85.644531 C 369.925781 85.644531 370.5625 86.277344 370.5625 87.0625 C 370.5625 87.84375 369.925781 88.480469 369.144531 88.480469 C 368.359375 88.480469 367.726562 87.84375 367.726562 87.0625 C 367.726562 86.277344 368.359375 85.644531 369.144531 85.644531 "/>
<path style="fill:none;stroke-width:2.16;stroke-linecap:butt;stroke-linejoin:miter;stroke:rgb(13.730068%,12.159915%,12.54902%);stroke-opacity:1;stroke-miterlimit:2.61313;" d="M 3691.445312 7063.554688 C 3699.257812 7063.554688 3705.625 7057.226562 3705.625 7049.375 C 3705.625 7041.5625 3699.257812 7035.195312 3691.445312 7035.195312 C 3683.59375 7035.195312 3677.265625 7041.5625 3677.265625 7049.375 C 3677.265625 7057.226562 3683.59375 7063.554688 3691.445312 7063.554688 Z M 3691.445312 7063.554688 " transform="matrix(0.1,0,0,-0.1,0,792)"/>
<path style=" stroke:none;fill-rule:evenodd;fill:rgb(13.730068%,12.159915%,12.54902%);fill-opacity:1;" d="M 346.609375 85.96875 C 347.390625 85.96875 348.027344 86.601562 348.027344 87.386719 C 348.027344 88.167969 347.390625 88.800781 346.609375 88.800781 C 345.824219 88.800781 345.191406 88.167969 345.191406 87.386719 C 345.191406 86.601562 345.824219 85.96875 346.609375 85.96875 "/>
<path style="fill:none;stroke-width:2.16;stroke-linecap:butt;stroke-linejoin:miter;stroke:rgb(13.730068%,12.159915%,12.54902%);stroke-opacity:1;stroke-miterlimit:2.61313;" d="M 3466.09375 7060.3125 C 3473.90625 7060.3125 3480.273438 7053.984375 3480.273438 7046.132812 C 3480.273438 7038.320312 3473.90625 7031.992188 3466.09375 7031.992188 C 3458.242188 7031.992188 3451.914062 7038.320312 3451.914062 7046.132812 C 3451.914062 7053.984375 3458.242188 7060.3125 3466.09375 7060.3125 Z M 3466.09375 7060.3125 " transform="matrix(0.1,0,0,-0.1,0,792)"/>
<path style="fill:none;stroke-width:9.9978;stroke-linecap:butt;stroke-linejoin:miter;stroke:rgb(13.730068%,12.159915%,12.54902%);stroke-opacity:1;stroke-miterlimit:2.61313;" d="M 3876.992188 7214.335938 L 3978.59375 7214.335938 " transform="matrix(0.1,0,0,-0.1,0,792)"/>
<path style="fill:none;stroke-width:10.08;stroke-linecap:butt;stroke-linejoin:miter;stroke:rgb(13.730068%,12.159915%,12.54902%);stroke-opacity:1;stroke-miterlimit:2.61313;" d="M 3946.640625 7240.117188 L 3986.445312 7214.335938 L 3946.640625 7188.554688 " transform="matrix(0.1,0,0,-0.1,0,792)"/>
<path style="fill:none;stroke-width:10.0006;stroke-linecap:butt;stroke-linejoin:miter;stroke:rgb(92.941176%,10.978866%,14.119173%);stroke-opacity:1;stroke-miterlimit:2.61313;" d="M 4221.25 7151.445312 C 4221.25 7218.867188 4221.25 7286.289062 4221.25 7353.671875 " transform="matrix(0.1,0,0,-0.1,0,792)"/>
<path style="fill:none;stroke-width:10.0006;stroke-linecap:butt;stroke-linejoin:miter;stroke:rgb(92.941176%,10.978866%,14.119173%);stroke-opacity:1;stroke-miterlimit:2.61313;" d="M 4221.25 7353.671875 C 4033.242188 7269.257812 4017.96875 7120.351562 4221.25 7151.445312 C 4288.046875 7161.328125 4342.890625 7161.328125 4385.898438 7151.445312 C 4429.765625 6929.921875 4588.359375 7127.96875 4480.585938 7322.539062 C 4444.492188 7387.695312 4334.21875 7369.023438 4221.25 7353.671875 Z M 4221.25 7353.671875 " transform="matrix(0.1,0,0,-0.1,0,792)"/>
<path style="fill:none;stroke-width:10.0006;stroke-linecap:butt;stroke-linejoin:miter;stroke:rgb(0%,65.099565%,31.369497%);stroke-opacity:1;stroke-miterlimit:2.61313;" d="M 4221.25 7151.445312 C 4249.023438 7055.976562 4126.054688 6832.34375 4049.335938 7096.210938 C 3979.6875 7335.703125 4090.3125 7364.960938 4221.25 7353.671875 " transform="matrix(0.1,0,0,-0.1,0,792)"/>
<path style="fill:none;stroke-width:10.0006;stroke-linecap:butt;stroke-linejoin:miter;stroke:rgb(0%,65.099565%,31.369497%);stroke-opacity:1;stroke-miterlimit:2.61313;" d="M 4385.898438 7151.445312 C 4494.179688 7218.867188 4439.296875 7286.289062 4221.25 7353.671875 " transform="matrix(0.1,0,0,-0.1,0,792)"/>
<path style=" stroke:none;fill-rule:evenodd;fill:rgb(13.730068%,12.159915%,12.54902%);fill-opacity:1;" d="M 422.125 75.4375 C 422.90625 75.4375 423.542969 76.070312 423.542969 76.855469 C 423.542969 77.636719 422.90625 78.273438 422.125 78.273438 C 421.34375 78.273438 420.707031 77.636719 420.707031 76.855469 C 420.707031 76.070312 421.34375 75.4375 422.125 75.4375 "/>
<path style="fill:none;stroke-width:2.16;stroke-linecap:butt;stroke-linejoin:miter;stroke:rgb(13.730068%,12.159915%,12.54902%);stroke-opacity:1;stroke-miterlimit:2.61313;" d="M 4221.25 7165.625 C 4229.0625 7165.625 4235.429688 7159.296875 4235.429688 7151.445312 C 4235.429688 7143.632812 4229.0625 7137.265625 4221.25 7137.265625 C 4213.4375 7137.265625 4207.070312 7143.632812 4207.070312 7151.445312 C 4207.070312 7159.296875 4213.4375 7165.625 4221.25 7165.625 Z M 4221.25 7165.625 " transform="matrix(0.1,0,0,-0.1,0,792)"/>
<path style=" stroke:none;fill-rule:evenodd;fill:rgb(13.730068%,12.159915%,12.54902%);fill-opacity:1;" d="M 438.589844 75.4375 C 439.371094 75.4375 440.007812 76.070312 440.007812 76.855469 C 440.007812 77.636719 439.371094 78.273438 438.589844 78.273438 C 437.804688 78.273438 437.171875 77.636719 437.171875 76.855469 C 437.171875 76.070312 437.804688 75.4375 438.589844 75.4375 "/>
<path style="fill:none;stroke-width:2.16;stroke-linecap:butt;stroke-linejoin:miter;stroke:rgb(13.730068%,12.159915%,12.54902%);stroke-opacity:1;stroke-miterlimit:2.61313;" d="M 4385.898438 7165.625 C 4393.710938 7165.625 4400.078125 7159.296875 4400.078125 7151.445312 C 4400.078125 7143.632812 4393.710938 7137.265625 4385.898438 7137.265625 C 4378.046875 7137.265625 4371.71875 7143.632812 4371.71875 7151.445312 C 4371.71875 7159.296875 4378.046875 7165.625 4385.898438 7165.625 Z M 4385.898438 7165.625 " transform="matrix(0.1,0,0,-0.1,0,792)"/>
<path style=" stroke:none;fill-rule:evenodd;fill:rgb(13.730068%,12.159915%,12.54902%);fill-opacity:1;" d="M 422.066406 55.214844 C 422.847656 55.214844 423.484375 55.851562 423.484375 56.632812 C 423.484375 57.414062 422.847656 58.050781 422.066406 58.050781 C 421.28125 58.050781 420.648438 57.414062 420.648438 56.632812 C 420.648438 55.851562 421.28125 55.214844 422.066406 55.214844 "/>
<path style="fill:none;stroke-width:2.16;stroke-linecap:butt;stroke-linejoin:miter;stroke:rgb(13.730068%,12.159915%,12.54902%);stroke-opacity:1;stroke-miterlimit:2.61313;" d="M 4220.664062 7367.851562 C 4228.476562 7367.851562 4234.84375 7361.484375 4234.84375 7353.671875 C 4234.84375 7345.859375 4228.476562 7339.492188 4220.664062 7339.492188 C 4212.8125 7339.492188 4206.484375 7345.859375 4206.484375 7353.671875 C 4206.484375 7361.484375 4212.8125 7367.851562 4220.664062 7367.851562 Z M 4220.664062 7367.851562 " transform="matrix(0.1,0,0,-0.1,0,792)"/>
</g>
</svg>
