<?xml version="1.0" encoding="UTF-8"?>
<svg xmlns="http://www.w3.org/2000/svg" xmlns:xlink="http://www.w3.org/1999/xlink" width="612pt" height="792pt" viewBox="0 0 612 792" version="1.1">
<g id="surface1">
<path style="fill:none;stroke-width:10.0006;stroke-linecap:butt;stroke-linejoin:miter;stroke:rgb(0%,65.099565%,31.369497%);stroke-opacity:1;stroke-miterlimit:2.61313;" d="M 3417.460938 7045.976562 L 3279.765625 6937.578125 " transform="matrix(0.1,0,0,-0.1,0,792)"/>
<path style="fill:none;stroke-width:10.0006;stroke-linecap:butt;stroke-linejoin:miter;stroke:rgb(92.941176%,10.978866%,14.119173%);stroke-opacity:1;stroke-miterlimit:2.61313;" d="M 3279.765625 7151.132812 L 3417.460938 7045.976562 " transform="matrix(0.1,0,0,-0.1,0,792)"/>
<path style="fill:none;stroke-width:10.0006;stroke-linecap:butt;stroke-linejoin:miter;stroke:rgb(0%,65.099565%,31.369497%);stroke-opacity:1;stroke-miterlimit:2.61313;" d="M 3056.914062 6937.578125 L 3056.914062 7151.132812 " transform="matrix(0.1,0,0,-0.1,0,792)"/>
<path style="fill:none;stroke-width:10.0006;stroke-linecap:butt;stroke-linejoin:miter;stroke:rgb(92.941176%,10.978866%,14.119173%);stroke-opacity:1;stroke-miterlimit:2.61313;" d="M 3279.765625 6937.578125 L 3056.914062 6937.578125 " transform="matrix(0.1,0,0,-0.1,0,792)"/>
<path style="fill:none;stroke-width:10.0006;stroke-linecap:butt;stroke-linejoin:miter;stroke:rgb(0%,65.099565%,31.369497%);stroke-opacity:1;stroke-miterlimit:2.61313;" d="M 3279.765625 7151.132812 L 3279.765625 6937.578125 " transform="matrix(0.1,0,0,-0.1,0,792)"/>
<path style="fill:none;stroke-width:10.0006;stroke-linecap:butt;stroke-linejoin:miter;stroke:rgb(0%,65.099565%,31.369497%);stroke-opacity:1;stroke-miterlimit:2.61313;" d="M 3056.914062 7151.132812 L 3279.765625 7151.132812 " transform="matrix(0.1,0,0,-0.1,0,792)"/>
<path style=" stroke:none;fill-rule:evenodd;fill:rgb(13.730068%,12.159915%,12.54902%);fill-opacity:1;" d="M 305.691406 75.46875 C 306.472656 75.46875 307.109375 76.101562 307.109375 76.886719 C 307.109375 77.667969 306.472656 78.300781 305.691406 78.300781 C 304.910156 78.300781 304.273438 77.667969 304.273438 76.886719 C 304.273438 76.101562 304.910156 75.46875 305.691406 75.46875 "/>
<path style="fill:none;stroke-width:2.16;stroke-linecap:butt;stroke-linejoin:miter;stroke:rgb(13.730068%,12.159915%,12.54902%);stroke-opacity:1;stroke-miterlimit:2.61313;" d="M 3056.914062 7165.3125 C 3064.726562 7165.3125 3071.09375 7158.984375 3071.09375 7151.132812 C 3071.09375 7143.320312 3064.726562 7136.992188 3056.914062 7136.992188 C 3049.101562 7136.992188 3042.734375 7143.320312 3042.734375 7151.132812 C 3042.734375 7158.984375 3049.101562 7165.3125 3056.914062 7165.3125 Z M 3056.914062 7165.3125 " transform="matrix(0.1,0,0,-0.1,0,792)"/>
<path style=" stroke:none;fill-rule:evenodd;fill:rgb(13.730068%,12.159915%,12.54902%);fill-opacity:1;" d="M 327.976562 75.46875 C 328.761719 75.46875 329.394531 76.101562 329.394531 76.886719 C 329.394531 77.667969 328.761719 78.300781 327.976562 78.300781 C 327.195312 78.300781 326.5625 77.667969 326.5625 76.886719 C 326.5625 76.101562 327.195312 75.46875 327.976562 75.46875 "/>
<path style="fill:none;stroke-width:2.16;stroke-linecap:butt;stroke-linejoin:miter;stroke:rgb(13.730068%,12.159915%,12.54902%);stroke-opacity:1;stroke-miterlimit:2.61313;" d="M 3279.765625 7165.3125 C 3287.617188 7165.3125 3293.945312 7158.984375 3293.945312 7151.132812 C 3293.945312 7143.320312 3287.617188 7136.992188 3279.765625 7136.992188 C 3271.953125 7136.992188 3265.625 7143.320312 3265.625 7151.132812 C 3265.625 7158.984375 3271.953125 7165.3125 3279.765625 7165.3125 Z M 3279.765625 7165.3125 " transform="matrix(0.1,0,0,-0.1,0,792)"/>
<path style=" stroke:none;fill-rule:evenodd;fill:rgb(13.730068%,12.159915%,12.54902%);fill-opacity:1;" d="M 342.101562 85.984375 C 342.882812 85.984375 343.515625 86.617188 343.515625 87.402344 C 343.515625 88.183594 342.882812 88.820312 342.101562 88.820312 C 341.316406 88.820312 340.683594 88.183594 340.683594 87.402344 C 340.683594 86.617188 341.316406 85.984375 342.101562 85.984375 "/>
<path style="fill:none;stroke-width:2.16;stroke-linecap:butt;stroke-linejoin:miter;stroke:rgb(13.730068%,12.159915%,12.54902%);stroke-opacity:1;stroke-miterlimit:2.61313;" d="M 3421.015625 7060.15625 C 3428.828125 7060.15625 3435.15625 7053.828125 3435.15625 7045.976562 C 3435.15625 7038.164062 3428.828125 7031.796875 3421.015625 7031.796875 C 3413.164062 7031.796875 3406.835938 7038.164062 3406.835938 7045.976562 C 3406.835938 7053.828125 3413.164062 7060.15625 3421.015625 7060.15625 Z M 3421.015625 7060.15625 " transform="matrix(0.1,0,0,-0.1,0,792)"/>
<path style=" stroke:none;fill-rule:evenodd;fill:rgb(13.730068%,12.159915%,12.54902%);fill-opacity:1;" d="M 328.027344 96.523438 C 328.8125 96.523438 329.445312 97.160156 329.445312 97.941406 C 329.445312 98.722656 328.8125 99.359375 328.027344 99.359375 C 327.246094 99.359375 326.613281 98.722656 326.613281 97.941406 C 326.613281 97.160156 327.246094 96.523438 328.027344 96.523438 "/>
<path style="fill:none;stroke-width:2.16;stroke-linecap:butt;stroke-linejoin:miter;stroke:rgb(13.730068%,12.159915%,12.54902%);stroke-opacity:1;stroke-miterlimit:2.61313;" d="M 3280.273438 6954.765625 C 3288.125 6954.765625 3294.453125 6948.398438 3294.453125 6940.585938 C 3294.453125 6932.773438 3288.125 6926.40625 3280.273438 6926.40625 C 3272.460938 6926.40625 3266.132812 6932.773438 3266.132812 6940.585938 C 3266.132812 6948.398438 3272.460938 6954.765625 3280.273438 6954.765625 Z M 3280.273438 6954.765625 " transform="matrix(0.1,0,0,-0.1,0,792)"/>
<path style=" stroke:none;fill-rule:evenodd;fill:rgb(13.730068%,12.159915%,12.54902%);fill-opacity:1;" d="M 305.492188 96.847656 C 306.277344 96.847656 306.910156 97.480469 306.910156 98.265625 C 306.910156 99.046875 306.277344 99.683594 305.492188 99.683594 C 304.710938 99.683594 304.074219 99.046875 304.074219 98.265625 C 304.074219 97.480469 304.710938 96.847656 305.492188 96.847656 "/>
<path style="fill:none;stroke-width:2.16;stroke-linecap:butt;stroke-linejoin:miter;stroke:rgb(13.730068%,12.159915%,12.54902%);stroke-opacity:1;stroke-miterlimit:2.61313;" d="M 3054.921875 6951.523438 C 3062.773438 6951.523438 3069.101562 6945.195312 3069.101562 6937.34375 C 3069.101562 6929.53125 3062.773438 6923.164062 3054.921875 6923.164062 C 3047.109375 6923.164062 3040.742188 6929.53125 3040.742188 6937.34375 C 3040.742188 6945.195312 3047.109375 6951.523438 3054.921875 6951.523438 Z M 3054.921875 6951.523438 " transform="matrix(0.1,0,0,-0.1,0,792)"/>
<path style="fill:none;stroke-width:9.9978;stroke-linecap:butt;stroke-linejoin:miter;stroke:rgb(13.730068%,12.159915%,12.54902%);stroke-opacity:1;stroke-miterlimit:2.61313;" d="M 3465.859375 7105.546875 L 3567.460938 7105.546875 " transform="matrix(0.1,0,0,-0.1,0,792)"/>
<path style="fill:none;stroke-width:10.08;stroke-linecap:butt;stroke-linejoin:miter;stroke:rgb(13.730068%,12.159915%,12.54902%);stroke-opacity:1;stroke-miterlimit:2.61313;" d="M 3535.507812 7131.328125 L 3575.273438 7105.546875 L 3535.507812 7079.726562 " transform="matrix(0.1,0,0,-0.1,0,792)"/>
<path style="fill:none;stroke-width:10.0006;stroke-linecap:butt;stroke-linejoin:miter;stroke:rgb(92.941176%,10.978866%,14.119173%);stroke-opacity:1;stroke-miterlimit:2.61313;" d="M 3895.9375 7041.40625 C 3895.9375 7108.828125 3895.9375 7176.210938 3895.9375 7243.632812 " transform="matrix(0.1,0,0,-0.1,0,792)"/>
<path style="fill:none;stroke-width:10.0006;stroke-linecap:butt;stroke-linejoin:miter;stroke:rgb(92.941176%,10.978866%,14.119173%);stroke-opacity:1;stroke-miterlimit:2.61313;" d="M 3895.9375 7243.632812 C 4083.945312 7159.21875 4099.257812 7010.3125 3895.9375 7041.40625 C 3829.140625 7051.289062 3774.296875 7051.289062 3731.289062 7041.40625 C 3687.421875 6819.882812 3528.828125 7017.890625 3636.601562 7212.460938 C 3672.695312 7277.65625 3783.007812 7259.023438 3895.9375 7243.632812 Z M 3895.9375 7243.632812 " transform="matrix(0.1,0,0,-0.1,0,792)"/>
<path style="fill:none;stroke-width:10.0006;stroke-linecap:butt;stroke-linejoin:miter;stroke:rgb(0%,65.099565%,31.369497%);stroke-opacity:1;stroke-miterlimit:2.61313;" d="M 3895.9375 7041.40625 C 3868.164062 6945.9375 3991.132812 6722.304688 4067.851562 6986.210938 C 4137.5 7225.664062 4026.875 7254.921875 3895.9375 7243.632812 " transform="matrix(0.1,0,0,-0.1,0,792)"/>
<path style="fill:none;stroke-width:10.0006;stroke-linecap:butt;stroke-linejoin:miter;stroke:rgb(0%,65.099565%,31.369497%);stroke-opacity:1;stroke-miterlimit:2.61313;" d="M 3731.289062 7041.40625 C 3623.007812 7108.828125 3677.890625 7176.210938 3895.9375 7243.632812 " transform="matrix(0.1,0,0,-0.1,0,792)"/>
<path style=" stroke:none;fill-rule:evenodd;fill:rgb(13.730068%,12.159915%,12.54902%);fill-opacity:1;" d="M 389.59375 86.441406 C 388.8125 86.441406 388.175781 87.074219 388.175781 87.859375 C 388.175781 88.640625 388.8125 89.277344 389.59375 89.277344 C 390.378906 89.277344 391.011719 88.640625 391.011719 87.859375 C 391.011719 87.074219 390.378906 86.441406 389.59375 86.441406 "/>
<path style="fill:none;stroke-width:2.16;stroke-linecap:butt;stroke-linejoin:miter;stroke:rgb(13.730068%,12.159915%,12.54902%);stroke-opacity:1;stroke-miterlimit:2.61313;" d="M 3895.9375 7055.585938 C 3888.125 7055.585938 3881.757812 7049.257812 3881.757812 7041.40625 C 3881.757812 7033.59375 3888.125 7027.226562 3895.9375 7027.226562 C 3903.789062 7027.226562 3910.117188 7033.59375 3910.117188 7041.40625 C 3910.117188 7049.257812 3903.789062 7055.585938 3895.9375 7055.585938 Z M 3895.9375 7055.585938 " transform="matrix(0.1,0,0,-0.1,0,792)"/>
<path style=" stroke:none;fill-rule:evenodd;fill:rgb(13.730068%,12.159915%,12.54902%);fill-opacity:1;" d="M 373.128906 86.441406 C 372.347656 86.441406 371.714844 87.074219 371.714844 87.859375 C 371.714844 88.640625 372.347656 89.277344 373.128906 89.277344 C 373.914062 89.277344 374.546875 88.640625 374.546875 87.859375 C 374.546875 87.074219 373.914062 86.441406 373.128906 86.441406 "/>
<path style="fill:none;stroke-width:2.16;stroke-linecap:butt;stroke-linejoin:miter;stroke:rgb(13.730068%,12.159915%,12.54902%);stroke-opacity:1;stroke-miterlimit:2.61313;" d="M 3731.289062 7055.585938 C 3723.476562 7055.585938 3717.148438 7049.257812 3717.148438 7041.40625 C 3717.148438 7033.59375 3723.476562 7027.226562 3731.289062 7027.226562 C 3739.140625 7027.226562 3745.46875 7033.59375 3745.46875 7041.40625 C 3745.46875 7049.257812 3739.140625 7055.585938 3731.289062 7055.585938 Z M 3731.289062 7055.585938 " transform="matrix(0.1,0,0,-0.1,0,792)"/>
<path style=" stroke:none;fill-rule:evenodd;fill:rgb(13.730068%,12.159915%,12.54902%);fill-opacity:1;" d="M 389.652344 66.21875 C 388.871094 66.21875 388.234375 66.855469 388.234375 67.636719 C 388.234375 68.417969 388.871094 69.054688 389.652344 69.054688 C 390.4375 69.054688 391.070312 68.417969 391.070312 67.636719 C 391.070312 66.855469 390.4375 66.21875 389.652344 66.21875 "/>
<path style="fill:none;stroke-width:2.16;stroke-linecap:butt;stroke-linejoin:miter;stroke:rgb(13.730068%,12.159915%,12.54902%);stroke-opacity:1;stroke-miterlimit:2.61313;" d="M 3896.523438 7257.8125 C 3888.710938 7257.8125 3882.34375 7251.445312 3882.34375 7243.632812 C 3882.34375 7235.820312 3888.710938 7229.453125 3896.523438 7229.453125 C 3904.375 7229.453125 3910.703125 7235.820312 3910.703125 7243.632812 C 3910.703125 7251.445312 3904.375 7257.8125 3896.523438 7257.8125 Z M 3896.523438 7257.8125 " transform="matrix(0.1,0,0,-0.1,0,792)"/>
</g>
</svg>
