<?xml version="1.0" encoding="UTF-8"?>
<svg xmlns="http://www.w3.org/2000/svg" xmlns:xlink="http://www.w3.org/1999/xlink" width="612pt" height="792pt" viewBox="0 0 612 792" version="1.1">
<g id="surface1">
<path style="fill:none;stroke-width:10.0006;stroke-linecap:butt;stroke-linejoin:miter;stroke:rgb(0%,65.099565%,31.369497%);stroke-opacity:1;stroke-miterlimit:2.61313;" d="M 2755 6389.921875 L 2617.304688 6281.5625 " transform="matrix(0.1,0,0,-0.1,0,792)"/>
<path style="fill:none;stroke-width:10.0006;stroke-linecap:butt;stroke-linejoin:miter;stroke:rgb(92.941176%,10.978866%,14.119173%);stroke-opacity:1;stroke-miterlimit:2.61313;" d="M 2617.304688 6495.117188 L 2755 6389.921875 " transform="matrix(0.1,0,0,-0.1,0,792)"/>
<path style="fill:none;stroke-width:10.0006;stroke-linecap:butt;stroke-linejoin:miter;stroke:rgb(0%,65.099565%,31.369497%);stroke-opacity:1;stroke-miterlimit:2.61313;" d="M 2394.453125 6281.523438 L 2394.453125 6495.117188 " transform="matrix(0.1,0,0,-0.1,0,792)"/>
<path style="fill:none;stroke-width:10.0006;stroke-linecap:butt;stroke-linejoin:miter;stroke:rgb(92.941176%,10.978866%,14.119173%);stroke-opacity:1;stroke-miterlimit:2.61313;" d="M 2617.304688 6281.523438 L 2394.453125 6281.523438 " transform="matrix(0.1,0,0,-0.1,0,792)"/>
<path style="fill:none;stroke-width:10.0006;stroke-linecap:butt;stroke-linejoin:miter;stroke:rgb(0%,65.099565%,31.369497%);stroke-opacity:1;stroke-miterlimit:2.61313;" d="M 2617.304688 6495.117188 L 2617.304688 6281.523438 " transform="matrix(0.1,0,0,-0.1,0,792)"/>
<path style="fill:none;stroke-width:10.0006;stroke-linecap:butt;stroke-linejoin:miter;stroke:rgb(0%,65.099565%,31.369497%);stroke-opacity:1;stroke-miterlimit:2.61313;" d="M 2394.453125 6495.117188 L 2617.304688 6495.117188 " transform="matrix(0.1,0,0,-0.1,0,792)"/>
<path style=" stroke:none;fill-rule:evenodd;fill:rgb(13.730068%,12.159915%,12.54902%);fill-opacity:1;" d="M 239.441406 141.070312 C 240.226562 141.070312 240.859375 141.707031 240.859375 142.488281 C 240.859375 143.273438 240.226562 143.90625 239.441406 143.90625 C 238.660156 143.90625 238.027344 143.273438 238.027344 142.488281 C 238.027344 141.707031 238.660156 141.070312 239.441406 141.070312 "/>
<path style="fill:none;stroke-width:2.16;stroke-linecap:butt;stroke-linejoin:miter;stroke:rgb(13.730068%,12.159915%,12.54902%);stroke-opacity:1;stroke-miterlimit:2.61313;" d="M 2394.414062 6509.296875 C 2402.265625 6509.296875 2408.59375 6502.929688 2408.59375 6495.117188 C 2408.59375 6487.265625 2402.265625 6480.9375 2394.414062 6480.9375 C 2386.601562 6480.9375 2380.273438 6487.265625 2380.273438 6495.117188 C 2380.273438 6502.929688 2386.601562 6509.296875 2394.414062 6509.296875 Z M 2394.414062 6509.296875 " transform="matrix(0.1,0,0,-0.1,0,792)"/>
<path style=" stroke:none;fill-rule:evenodd;fill:rgb(13.730068%,12.159915%,12.54902%);fill-opacity:1;" d="M 261.730469 141.070312 C 262.511719 141.070312 263.148438 141.707031 263.148438 142.488281 C 263.148438 143.273438 262.511719 143.90625 261.730469 143.90625 C 260.949219 143.90625 260.3125 143.273438 260.3125 142.488281 C 260.3125 141.707031 260.949219 141.070312 261.730469 141.070312 "/>
<path style="fill:none;stroke-width:2.16;stroke-linecap:butt;stroke-linejoin:miter;stroke:rgb(13.730068%,12.159915%,12.54902%);stroke-opacity:1;stroke-miterlimit:2.61313;" d="M 2617.304688 6509.296875 C 2625.117188 6509.296875 2631.484375 6502.929688 2631.484375 6495.117188 C 2631.484375 6487.265625 2625.117188 6480.9375 2617.304688 6480.9375 C 2609.492188 6480.9375 2603.125 6487.265625 2603.125 6495.117188 C 2603.125 6502.929688 2609.492188 6509.296875 2617.304688 6509.296875 Z M 2617.304688 6509.296875 " transform="matrix(0.1,0,0,-0.1,0,792)"/>
<path style=" stroke:none;fill-rule:evenodd;fill:rgb(13.730068%,12.159915%,12.54902%);fill-opacity:1;" d="M 275.851562 151.589844 C 276.632812 151.589844 277.269531 152.222656 277.269531 153.007812 C 277.269531 153.789062 276.632812 154.421875 275.851562 154.421875 C 275.070312 154.421875 274.433594 153.789062 274.433594 153.007812 C 274.433594 152.222656 275.070312 151.589844 275.851562 151.589844 "/>
<path style="fill:none;stroke-width:2.16;stroke-linecap:butt;stroke-linejoin:miter;stroke:rgb(13.730068%,12.159915%,12.54902%);stroke-opacity:1;stroke-miterlimit:2.61313;" d="M 2758.515625 6404.101562 C 2766.328125 6404.101562 2772.695312 6397.773438 2772.695312 6389.921875 C 2772.695312 6382.109375 2766.328125 6375.78125 2758.515625 6375.78125 C 2750.703125 6375.78125 2744.335938 6382.109375 2744.335938 6389.921875 C 2744.335938 6397.773438 2750.703125 6404.101562 2758.515625 6404.101562 Z M 2758.515625 6404.101562 " transform="matrix(0.1,0,0,-0.1,0,792)"/>
<path style=" stroke:none;fill-rule:evenodd;fill:rgb(13.730068%,12.159915%,12.54902%);fill-opacity:1;" d="M 261.78125 162.128906 C 262.5625 162.128906 263.199219 162.761719 263.199219 163.546875 C 263.199219 164.328125 262.5625 164.964844 261.78125 164.964844 C 260.996094 164.964844 260.363281 164.328125 260.363281 163.546875 C 260.363281 162.761719 260.996094 162.128906 261.78125 162.128906 "/>
<path style="fill:none;stroke-width:2.16;stroke-linecap:butt;stroke-linejoin:miter;stroke:rgb(13.730068%,12.159915%,12.54902%);stroke-opacity:1;stroke-miterlimit:2.61313;" d="M 2617.8125 6298.710938 C 2625.625 6298.710938 2631.992188 6292.382812 2631.992188 6284.53125 C 2631.992188 6276.71875 2625.625 6270.351562 2617.8125 6270.351562 C 2609.960938 6270.351562 2603.632812 6276.71875 2603.632812 6284.53125 C 2603.632812 6292.382812 2609.960938 6298.710938 2617.8125 6298.710938 Z M 2617.8125 6298.710938 " transform="matrix(0.1,0,0,-0.1,0,792)"/>
<path style=" stroke:none;fill-rule:evenodd;fill:rgb(13.730068%,12.159915%,12.54902%);fill-opacity:1;" d="M 239.246094 162.453125 C 240.027344 162.453125 240.664062 163.085938 240.664062 163.871094 C 240.664062 164.652344 240.027344 165.285156 239.246094 165.285156 C 238.464844 165.285156 237.828125 164.652344 237.828125 163.871094 C 237.828125 163.085938 238.464844 162.453125 239.246094 162.453125 "/>
<path style="fill:none;stroke-width:2.16;stroke-linecap:butt;stroke-linejoin:miter;stroke:rgb(13.730068%,12.159915%,12.54902%);stroke-opacity:1;stroke-miterlimit:2.61313;" d="M 2392.460938 6295.46875 C 2400.273438 6295.46875 2406.640625 6289.140625 2406.640625 6281.289062 C 2406.640625 6273.476562 2400.273438 6267.148438 2392.460938 6267.148438 C 2384.648438 6267.148438 2378.28125 6273.476562 2378.28125 6281.289062 C 2378.28125 6289.140625 2384.648438 6295.46875 2392.460938 6295.46875 Z M 2392.460938 6295.46875 " transform="matrix(0.1,0,0,-0.1,0,792)"/>
<path style="fill:none;stroke-width:9.9978;stroke-linecap:butt;stroke-linejoin:miter;stroke:rgb(13.730068%,12.159915%,12.54902%);stroke-opacity:1;stroke-miterlimit:2.61313;" d="M 2848.398438 6449.492188 L 2950 6449.492188 " transform="matrix(0.1,0,0,-0.1,0,792)"/>
<path style="fill:none;stroke-width:10.08;stroke-linecap:butt;stroke-linejoin:miter;stroke:rgb(13.730068%,12.159915%,12.54902%);stroke-opacity:1;stroke-miterlimit:2.61313;" d="M 2918.046875 6475.273438 L 2957.8125 6449.492188 L 2918.046875 6423.671875 " transform="matrix(0.1,0,0,-0.1,0,792)"/>
<path style="fill:none;stroke-width:10.0006;stroke-linecap:butt;stroke-linejoin:miter;stroke:rgb(0%,65.099565%,31.369497%);stroke-opacity:1;stroke-miterlimit:2.61313;" d="M 3103.476562 6402.8125 L 3241.171875 6294.414062 " transform="matrix(0.1,0,0,-0.1,0,792)"/>
<path style="fill:none;stroke-width:10.0006;stroke-linecap:butt;stroke-linejoin:miter;stroke:rgb(92.941176%,10.978866%,14.119173%);stroke-opacity:1;stroke-miterlimit:2.61313;" d="M 3241.171875 6507.96875 L 3103.476562 6402.8125 " transform="matrix(0.1,0,0,-0.1,0,792)"/>
<path style="fill:none;stroke-width:10.0006;stroke-linecap:butt;stroke-linejoin:miter;stroke:rgb(0%,65.099565%,31.369497%);stroke-opacity:1;stroke-miterlimit:2.61313;" d="M 3464.023438 6294.414062 L 3464.023438 6507.96875 " transform="matrix(0.1,0,0,-0.1,0,792)"/>
<path style="fill:none;stroke-width:10.0006;stroke-linecap:butt;stroke-linejoin:miter;stroke:rgb(92.941176%,10.978866%,14.119173%);stroke-opacity:1;stroke-miterlimit:2.61313;" d="M 3241.171875 6294.414062 L 3464.023438 6294.414062 " transform="matrix(0.1,0,0,-0.1,0,792)"/>
<path style="fill:none;stroke-width:10.0006;stroke-linecap:butt;stroke-linejoin:miter;stroke:rgb(0%,65.099565%,31.369497%);stroke-opacity:1;stroke-miterlimit:2.61313;" d="M 3241.171875 6507.96875 L 3241.171875 6294.414062 " transform="matrix(0.1,0,0,-0.1,0,792)"/>
<path style="fill:none;stroke-width:10.0006;stroke-linecap:butt;stroke-linejoin:miter;stroke:rgb(0%,65.099565%,31.369497%);stroke-opacity:1;stroke-miterlimit:2.61313;" d="M 3464.023438 6507.96875 L 3241.171875 6507.96875 " transform="matrix(0.1,0,0,-0.1,0,792)"/>
<path style=" stroke:none;fill-rule:evenodd;fill:rgb(13.730068%,12.159915%,12.54902%);fill-opacity:1;" d="M 346.402344 139.785156 C 345.621094 139.785156 344.984375 140.421875 344.984375 141.203125 C 344.984375 141.984375 345.621094 142.621094 346.402344 142.621094 C 347.1875 142.621094 347.820312 141.984375 347.820312 141.203125 C 347.820312 140.421875 347.1875 139.785156 346.402344 139.785156 "/>
<path style="fill:none;stroke-width:2.16;stroke-linecap:butt;stroke-linejoin:miter;stroke:rgb(13.730068%,12.159915%,12.54902%);stroke-opacity:1;stroke-miterlimit:2.61313;" d="M 3464.023438 6522.148438 C 3456.210938 6522.148438 3449.84375 6515.78125 3449.84375 6507.96875 C 3449.84375 6500.15625 3456.210938 6493.789062 3464.023438 6493.789062 C 3471.875 6493.789062 3478.203125 6500.15625 3478.203125 6507.96875 C 3478.203125 6515.78125 3471.875 6522.148438 3464.023438 6522.148438 Z M 3464.023438 6522.148438 " transform="matrix(0.1,0,0,-0.1,0,792)"/>
<path style=" stroke:none;fill-rule:evenodd;fill:rgb(13.730068%,12.159915%,12.54902%);fill-opacity:1;" d="M 324.117188 139.785156 C 323.335938 139.785156 322.699219 140.421875 322.699219 141.203125 C 322.699219 141.984375 323.335938 142.621094 324.117188 142.621094 C 324.898438 142.621094 325.535156 141.984375 325.535156 141.203125 C 325.535156 140.421875 324.898438 139.785156 324.117188 139.785156 "/>
<path style="fill:none;stroke-width:2.16;stroke-linecap:butt;stroke-linejoin:miter;stroke:rgb(13.730068%,12.159915%,12.54902%);stroke-opacity:1;stroke-miterlimit:2.61313;" d="M 3241.171875 6522.148438 C 3233.359375 6522.148438 3226.992188 6515.78125 3226.992188 6507.96875 C 3226.992188 6500.15625 3233.359375 6493.789062 3241.171875 6493.789062 C 3248.984375 6493.789062 3255.351562 6500.15625 3255.351562 6507.96875 C 3255.351562 6515.78125 3248.984375 6522.148438 3241.171875 6522.148438 Z M 3241.171875 6522.148438 " transform="matrix(0.1,0,0,-0.1,0,792)"/>
<path style=" stroke:none;fill-rule:evenodd;fill:rgb(13.730068%,12.159915%,12.54902%);fill-opacity:1;" d="M 309.996094 150.300781 C 309.210938 150.300781 308.578125 150.9375 308.578125 151.71875 C 308.578125 152.503906 309.210938 153.136719 309.996094 153.136719 C 310.777344 153.136719 311.410156 152.503906 311.410156 151.71875 C 311.410156 150.9375 310.777344 150.300781 309.996094 150.300781 "/>
<path style="fill:none;stroke-width:2.16;stroke-linecap:butt;stroke-linejoin:miter;stroke:rgb(13.730068%,12.159915%,12.54902%);stroke-opacity:1;stroke-miterlimit:2.61313;" d="M 3099.960938 6416.992188 C 3092.109375 6416.992188 3085.78125 6410.625 3085.78125 6402.8125 C 3085.78125 6394.960938 3092.109375 6388.632812 3099.960938 6388.632812 C 3107.773438 6388.632812 3114.101562 6394.960938 3114.101562 6402.8125 C 3114.101562 6410.625 3107.773438 6416.992188 3099.960938 6416.992188 Z M 3099.960938 6416.992188 " transform="matrix(0.1,0,0,-0.1,0,792)"/>
<path style=" stroke:none;fill-rule:evenodd;fill:rgb(13.730068%,12.159915%,12.54902%);fill-opacity:1;" d="M 324.066406 160.84375 C 323.28125 160.84375 322.648438 161.476562 322.648438 162.261719 C 322.648438 163.042969 323.28125 163.675781 324.066406 163.675781 C 324.847656 163.675781 325.484375 163.042969 325.484375 162.261719 C 325.484375 161.476562 324.847656 160.84375 324.066406 160.84375 "/>
<path style="fill:none;stroke-width:2.16;stroke-linecap:butt;stroke-linejoin:miter;stroke:rgb(13.730068%,12.159915%,12.54902%);stroke-opacity:1;stroke-miterlimit:2.61313;" d="M 3240.664062 6311.5625 C 3232.8125 6311.5625 3226.484375 6305.234375 3226.484375 6297.382812 C 3226.484375 6289.570312 3232.8125 6283.242188 3240.664062 6283.242188 C 3248.476562 6283.242188 3254.84375 6289.570312 3254.84375 6297.382812 C 3254.84375 6305.234375 3248.476562 6311.5625 3240.664062 6311.5625 Z M 3240.664062 6311.5625 " transform="matrix(0.1,0,0,-0.1,0,792)"/>
<path style=" stroke:none;fill-rule:evenodd;fill:rgb(13.730068%,12.159915%,12.54902%);fill-opacity:1;" d="M 346.601562 161.164062 C 345.820312 161.164062 345.183594 161.800781 345.183594 162.582031 C 345.183594 163.367188 345.820312 164 346.601562 164 C 347.382812 164 348.019531 163.367188 348.019531 162.582031 C 348.019531 161.800781 347.382812 161.164062 346.601562 161.164062 "/>
<path style="fill:none;stroke-width:2.16;stroke-linecap:butt;stroke-linejoin:miter;stroke:rgb(13.730068%,12.159915%,12.54902%);stroke-opacity:1;stroke-miterlimit:2.61313;" d="M 3466.015625 6308.359375 C 3458.203125 6308.359375 3451.835938 6301.992188 3451.835938 6294.179688 C 3451.835938 6286.328125 3458.203125 6280 3466.015625 6280 C 3473.828125 6280 3480.195312 6286.328125 3480.195312 6294.179688 C 3480.195312 6301.992188 3473.828125 6308.359375 3466.015625 6308.359375 Z M 3466.015625 6308.359375 " transform="matrix(0.1,0,0,-0.1,0,792)"/>
</g>
</svg>
