<?xml version="1.0" encoding="UTF-8"?>
<svg xmlns="http://www.w3.org/2000/svg" xmlns:xlink="http://www.w3.org/1999/xlink" width="612pt" height="792pt" viewBox="0 0 612 792" version="1.1">
<g id="surface1">
<path style="fill:none;stroke-width:19.9984;stroke-linecap:butt;stroke-linejoin:miter;stroke:rgb(13.730068%,12.159915%,12.54902%);stroke-opacity:1;stroke-miterlimit:22.9256;" d="M 2070.976562 7689.335938 C 2241.757812 7689.335938 2380.273438 7550.859375 2380.273438 7380.078125 C 2380.273438 7209.296875 2241.757812 7070.78125 2070.976562 7070.78125 C 1900.195312 7070.78125 1761.71875 7209.296875 1761.71875 7380.078125 C 1761.71875 7550.859375 1900.195312 7689.335938 2070.976562 7689.335938 Z M 2070.976562 7689.335938 " transform="matrix(0.1,0,0,-0.1,0,792)"/>
<path style="fill:none;stroke-width:19.9984;stroke-linecap:butt;stroke-linejoin:miter;stroke:rgb(13.730068%,12.159915%,12.54902%);stroke-opacity:1;stroke-miterlimit:22.9256;" d="M 2177.890625 7249.6875 C 2177.890625 7190.039062 2129.53125 7141.71875 2069.921875 7141.71875 C 2010.273438 7141.71875 1961.914062 7190.039062 1961.914062 7249.6875 " transform="matrix(0.1,0,0,-0.1,0,792)"/>
<path style=" stroke:none;fill-rule:evenodd;fill:rgb(13.730068%,12.159915%,12.54902%);fill-opacity:1;" d="M 194.773438 40.304688 C 197.300781 40.304688 199.355469 42.355469 199.355469 44.886719 C 199.355469 47.414062 197.300781 49.46875 194.773438 49.46875 C 192.242188 49.46875 190.191406 47.414062 190.191406 44.886719 C 190.191406 42.355469 192.242188 40.304688 194.773438 40.304688 "/>
<path style="fill:none;stroke-width:2.16;stroke-linecap:butt;stroke-linejoin:miter;stroke:rgb(13.730068%,12.159915%,12.54902%);stroke-opacity:1;stroke-miterlimit:22.9256;" d="M 1947.734375 7516.953125 C 1973.007812 7516.953125 1993.554688 7496.445312 1993.554688 7471.132812 C 1993.554688 7445.859375 1973.007812 7425.3125 1947.734375 7425.3125 C 1922.421875 7425.3125 1901.914062 7445.859375 1901.914062 7471.132812 C 1901.914062 7496.445312 1922.421875 7516.953125 1947.734375 7516.953125 Z M 1947.734375 7516.953125 " transform="matrix(0.1,0,0,-0.1,0,792)"/>
<path style=" stroke:none;fill-rule:evenodd;fill:rgb(13.730068%,12.159915%,12.54902%);fill-opacity:1;" d="M 218.445312 39.539062 C 220.976562 39.539062 223.027344 41.589844 223.027344 44.121094 C 223.027344 46.652344 220.976562 48.703125 218.445312 48.703125 C 215.914062 48.703125 213.863281 46.652344 213.863281 44.121094 C 213.863281 41.589844 215.914062 39.539062 218.445312 39.539062 "/>
<path style="fill:none;stroke-width:2.16;stroke-linecap:butt;stroke-linejoin:miter;stroke:rgb(13.730068%,12.159915%,12.54902%);stroke-opacity:1;stroke-miterlimit:22.9256;" d="M 2184.453125 7524.609375 C 2209.765625 7524.609375 2230.273438 7504.101562 2230.273438 7478.789062 C 2230.273438 7453.476562 2209.765625 7432.96875 2184.453125 7432.96875 C 2159.140625 7432.96875 2138.632812 7453.476562 2138.632812 7478.789062 C 2138.632812 7504.101562 2159.140625 7524.609375 2184.453125 7524.609375 Z M 2184.453125 7524.609375 " transform="matrix(0.1,0,0,-0.1,0,792)"/>
<path style="fill:none;stroke-width:19.9984;stroke-linecap:butt;stroke-linejoin:miter;stroke:rgb(13.730068%,12.159915%,12.54902%);stroke-opacity:1;stroke-miterlimit:22.9256;" d="M 3946.328125 7257.578125 L 3945.546875 7163.125 " transform="matrix(0.1,0,0,-0.1,0,792)"/>
<path style="fill:none;stroke-width:19.9984;stroke-linecap:butt;stroke-linejoin:miter;stroke:rgb(13.730068%,12.159915%,12.54902%);stroke-opacity:1;stroke-miterlimit:22.9256;" d="M 1961.289062 7081.054688 C 1961.289062 6858.007812 1774.414062 6299.101562 1464.921875 6531.210938 " transform="matrix(0.1,0,0,-0.1,0,792)"/>
<path style="fill:none;stroke-width:19.9984;stroke-linecap:butt;stroke-linejoin:miter;stroke:rgb(13.730068%,12.159915%,12.54902%);stroke-opacity:1;stroke-miterlimit:22.9256;" d="M 2183.085938 7094.960938 C 2183.085938 6871.914062 2370 6313.046875 2679.492188 6545.15625 " transform="matrix(0.1,0,0,-0.1,0,792)"/>
<path style="fill:none;stroke-width:19.9984;stroke-linecap:butt;stroke-linejoin:miter;stroke:rgb(13.730068%,12.159915%,12.54902%);stroke-opacity:1;stroke-miterlimit:22.9256;" d="M 3946.328125 6948.28125 C 4117.109375 6948.28125 4255.625 7086.796875 4255.625 7257.578125 C 4255.625 7428.359375 4117.109375 7566.875 3946.328125 7566.875 C 3775.546875 7566.875 3637.03125 7428.359375 3637.03125 7257.578125 C 3637.03125 7086.796875 3775.546875 6948.28125 3946.328125 6948.28125 Z M 3946.328125 6948.28125 " transform="matrix(0.1,0,0,-0.1,0,792)"/>
<path style="fill:none;stroke-width:19.9984;stroke-linecap:butt;stroke-linejoin:miter;stroke:rgb(13.730068%,12.159915%,12.54902%);stroke-opacity:1;stroke-miterlimit:22.9256;" d="M 4053.242188 7441.953125 C 4053.242188 7382.304688 4004.882812 7333.945312 3945.234375 7333.945312 C 3885.625 7333.945312 3837.265625 7382.304688 3837.265625 7441.953125 " transform="matrix(0.1,0,0,-0.1,0,792)"/>
<path style=" stroke:none;fill-rule:evenodd;fill:rgb(13.730068%,12.159915%,12.54902%);fill-opacity:1;" d="M 382.304688 84.515625 C 384.835938 84.515625 386.886719 82.460938 386.886719 79.933594 C 386.886719 77.402344 384.835938 75.351562 382.304688 75.351562 C 379.777344 75.351562 377.722656 77.402344 377.722656 79.933594 C 377.722656 82.460938 379.777344 84.515625 382.304688 84.515625 "/>
<path style="fill:none;stroke-width:2.16;stroke-linecap:butt;stroke-linejoin:miter;stroke:rgb(13.730068%,12.159915%,12.54902%);stroke-opacity:1;stroke-miterlimit:22.9256;" d="M 3823.046875 7074.84375 C 3848.359375 7074.84375 3868.867188 7095.390625 3868.867188 7120.664062 C 3868.867188 7145.976562 3848.359375 7166.484375 3823.046875 7166.484375 C 3797.773438 7166.484375 3777.226562 7145.976562 3777.226562 7120.664062 C 3777.226562 7095.390625 3797.773438 7074.84375 3823.046875 7074.84375 Z M 3823.046875 7074.84375 " transform="matrix(0.1,0,0,-0.1,0,792)"/>
<path style=" stroke:none;fill-rule:evenodd;fill:rgb(13.730068%,12.159915%,12.54902%);fill-opacity:1;" d="M 405.980469 85.277344 C 408.511719 85.277344 410.5625 83.226562 410.5625 80.695312 C 410.5625 78.164062 408.511719 76.113281 405.980469 76.113281 C 403.449219 76.113281 401.398438 78.164062 401.398438 80.695312 C 401.398438 83.226562 403.449219 85.277344 405.980469 85.277344 "/>
<path style="fill:none;stroke-width:2.16;stroke-linecap:butt;stroke-linejoin:miter;stroke:rgb(13.730068%,12.159915%,12.54902%);stroke-opacity:1;stroke-miterlimit:22.9256;" d="M 4059.804688 7067.226562 C 4085.117188 7067.226562 4105.625 7087.734375 4105.625 7113.046875 C 4105.625 7138.359375 4085.117188 7158.867188 4059.804688 7158.867188 C 4034.492188 7158.867188 4013.984375 7138.359375 4013.984375 7113.046875 C 4013.984375 7087.734375 4034.492188 7067.226562 4059.804688 7067.226562 Z M 4059.804688 7067.226562 " transform="matrix(0.1,0,0,-0.1,0,792)"/>
<path style="fill:none;stroke-width:19.9984;stroke-linecap:butt;stroke-linejoin:miter;stroke:rgb(13.730068%,12.159915%,12.54902%);stroke-opacity:1;stroke-miterlimit:22.9256;" d="M 2070.195312 7372.304688 L 2069.375 7277.8125 " transform="matrix(0.1,0,0,-0.1,0,792)"/>
<path style="fill:none;stroke-width:19.9984;stroke-linecap:butt;stroke-linejoin:miter;stroke:rgb(13.730068%,12.159915%,12.54902%);stroke-opacity:1;stroke-miterlimit:22.9256;" d="M 3340.273438 6408.75 C 3358.007812 6596.054688 3243.828125 6768.125 3243.828125 6963.671875 C 3243.828125 7219.609375 3820.742188 7582.96875 3459.179688 7830.3125 C 3304.414062 7936.171875 3243.828125 7774.765625 3243.828125 7650.820312 C 3243.828125 7502.460938 3460.351562 7609.804688 3515.585938 7609.804688 " transform="matrix(0.1,0,0,-0.1,0,792)"/>
<path style="fill:none;stroke-width:19.9984;stroke-linecap:butt;stroke-linejoin:miter;stroke:rgb(13.730068%,12.159915%,12.54902%);stroke-opacity:1;stroke-miterlimit:22.9256;" d="M 3633.515625 7614.921875 C 3663.710938 7614.921875 3704.414062 7619.375 3730.976562 7609.804688 C 3743.828125 7605.15625 3778.046875 7591.601562 3782.226562 7584.140625 C 3792.5 7566.015625 3791.289062 7553.398438 3799.648438 7529.921875 " transform="matrix(0.1,0,0,-0.1,0,792)"/>
<path style="fill:none;stroke-width:19.9984;stroke-linecap:butt;stroke-linejoin:miter;stroke:rgb(13.730068%,12.159915%,12.54902%);stroke-opacity:1;stroke-miterlimit:22.9256;" d="M 4550.3125 6425.507812 C 4532.539062 6612.8125 4646.757812 6784.84375 4646.757812 6980.429688 C 4646.757812 7236.328125 4069.804688 7599.726562 4431.40625 7847.03125 C 4586.132812 7952.890625 4646.757812 7791.523438 4646.757812 7667.578125 C 4646.757812 7519.21875 4430.195312 7626.523438 4374.960938 7626.523438 " transform="matrix(0.1,0,0,-0.1,0,792)"/>
<path style="fill:none;stroke-width:19.9984;stroke-linecap:butt;stroke-linejoin:miter;stroke:rgb(13.730068%,12.159915%,12.54902%);stroke-opacity:1;stroke-miterlimit:22.9256;" d="M 4249.882812 7626.132812 C 4219.6875 7626.132812 4178.984375 7630.625 4152.460938 7621.015625 C 4139.570312 7616.367188 4105.351562 7602.8125 4101.171875 7595.390625 C 4090.898438 7577.226562 4092.148438 7564.648438 4083.789062 7541.132812 " transform="matrix(0.1,0,0,-0.1,0,792)"/>
</g>
</svg>
