<?xml version="1.0" encoding="UTF-8"?>
<svg xmlns="http://www.w3.org/2000/svg" xmlns:xlink="http://www.w3.org/1999/xlink" width="612pt" height="792pt" viewBox="0 0 612 792" version="1.1">
<g id="surface1">
<path style="fill:none;stroke-width:20.0013;stroke-linecap:butt;stroke-linejoin:miter;stroke:rgb(0%,65.099565%,31.369497%);stroke-opacity:1;stroke-miterlimit:22.9256;" d="M 2198.554688 7287.96875 L 2479.6875 7006.835938 L 2339.140625 6866.25 L 2198.554688 6725.703125 L 1917.421875 7006.835938 L 2058.007812 7147.382812 Z M 2198.554688 7287.96875 " transform="matrix(0.1,0,0,-0.1,0,792)"/>
<path style="fill:none;stroke-width:20.0013;stroke-linecap:butt;stroke-linejoin:miter;stroke:rgb(92.941176%,10.978866%,14.119173%);stroke-opacity:1;stroke-miterlimit:22.9256;" d="M 2770.546875 7297.65625 L 3063.320312 7004.882812 L 2916.914062 6858.515625 L 2770.546875 6712.109375 L 2477.773438 7004.882812 L 2624.140625 7151.289062 Z M 2770.546875 7297.65625 " transform="matrix(0.1,0,0,-0.1,0,792)"/>
<path style=" stroke:none;fill-rule:evenodd;fill:rgb(13.730068%,12.159915%,12.54902%);fill-opacity:1;" d="M 247.96875 88.480469 C 249.535156 88.480469 250.804688 89.753906 250.804688 91.316406 C 250.804688 92.882812 249.535156 94.152344 247.96875 94.152344 C 246.40625 94.152344 245.136719 92.882812 245.136719 91.316406 C 245.136719 89.753906 246.40625 88.480469 247.96875 88.480469 "/>
<path style="fill:none;stroke-width:2.16;stroke-linecap:butt;stroke-linejoin:miter;stroke:rgb(13.730068%,12.159915%,12.54902%);stroke-opacity:1;stroke-miterlimit:22.9256;" d="M 2479.6875 7035.195312 C 2495.351562 7035.195312 2508.046875 7022.460938 2508.046875 7006.835938 C 2508.046875 6991.171875 2495.351562 6978.476562 2479.6875 6978.476562 C 2464.0625 6978.476562 2451.367188 6991.171875 2451.367188 7006.835938 C 2451.367188 7022.460938 2464.0625 7035.195312 2479.6875 7035.195312 Z M 2479.6875 7035.195312 " transform="matrix(0.1,0,0,-0.1,0,792)"/>
<path style=" stroke:none;fill-rule:evenodd;fill:rgb(13.730068%,12.159915%,12.54902%);fill-opacity:1;" d="M 306.332031 88.675781 C 307.894531 88.675781 309.164062 89.945312 309.164062 91.511719 C 309.164062 93.074219 307.894531 94.34375 306.332031 94.34375 C 304.765625 94.34375 303.496094 93.074219 303.496094 91.511719 C 303.496094 89.945312 304.765625 88.675781 306.332031 88.675781 "/>
<path style="fill:none;stroke-width:2.16;stroke-linecap:butt;stroke-linejoin:miter;stroke:rgb(13.730068%,12.159915%,12.54902%);stroke-opacity:1;stroke-miterlimit:22.9256;" d="M 3063.320312 7033.242188 C 3078.945312 7033.242188 3091.640625 7020.546875 3091.640625 7004.882812 C 3091.640625 6989.257812 3078.945312 6976.5625 3063.320312 6976.5625 C 3047.65625 6976.5625 3034.960938 6989.257812 3034.960938 7004.882812 C 3034.960938 7020.546875 3047.65625 7033.242188 3063.320312 7033.242188 Z M 3063.320312 7033.242188 " transform="matrix(0.1,0,0,-0.1,0,792)"/>
<path style=" stroke:none;fill-rule:evenodd;fill:rgb(13.730068%,12.159915%,12.54902%);fill-opacity:1;" d="M 191.742188 88.480469 C 193.308594 88.480469 194.578125 89.753906 194.578125 91.316406 C 194.578125 92.882812 193.308594 94.152344 191.742188 94.152344 C 190.175781 94.152344 188.90625 92.882812 188.90625 91.316406 C 188.90625 89.753906 190.175781 88.480469 191.742188 88.480469 "/>
<path style="fill:none;stroke-width:2.16;stroke-linecap:butt;stroke-linejoin:miter;stroke:rgb(13.730068%,12.159915%,12.54902%);stroke-opacity:1;stroke-miterlimit:22.9256;" d="M 1917.421875 7035.195312 C 1933.085938 7035.195312 1945.78125 7022.460938 1945.78125 7006.835938 C 1945.78125 6991.171875 1933.085938 6978.476562 1917.421875 6978.476562 C 1901.757812 6978.476562 1889.0625 6991.171875 1889.0625 7006.835938 C 1889.0625 7022.460938 1901.757812 7035.195312 1917.421875 7035.195312 Z M 1917.421875 7035.195312 " transform="matrix(0.1,0,0,-0.1,0,792)"/>
<path style="fill:none;stroke-width:20.0013;stroke-linecap:butt;stroke-linejoin:miter;stroke:rgb(0%,65.099565%,31.369497%);stroke-opacity:1;stroke-miterlimit:22.9256;" d="M 2198.554688 7287.96875 L 1993.398438 7497.773438 " transform="matrix(0.1,0,0,-0.1,0,792)"/>
<path style="fill:none;stroke-width:20.0013;stroke-linecap:butt;stroke-linejoin:miter;stroke:rgb(0%,65.099565%,31.369497%);stroke-opacity:1;stroke-miterlimit:22.9256;" d="M 2205.585938 7292.421875 L 2428.4375 7507.265625 " transform="matrix(0.1,0,0,-0.1,0,792)"/>
<path style=" stroke:none;fill-rule:evenodd;fill:rgb(13.730068%,12.159915%,12.54902%);fill-opacity:1;" d="M 219.855469 60.367188 C 221.421875 60.367188 222.691406 61.636719 222.691406 63.203125 C 222.691406 64.769531 221.421875 66.039062 219.855469 66.039062 C 218.289062 66.039062 217.019531 64.769531 217.019531 63.203125 C 217.019531 61.636719 218.289062 60.367188 219.855469 60.367188 "/>
<path style="fill:none;stroke-width:2.16;stroke-linecap:butt;stroke-linejoin:miter;stroke:rgb(13.730068%,12.159915%,12.54902%);stroke-opacity:1;stroke-miterlimit:22.9256;" d="M 2198.554688 7316.328125 C 2214.21875 7316.328125 2226.914062 7303.632812 2226.914062 7287.96875 C 2226.914062 7272.304688 2214.21875 7259.609375 2198.554688 7259.609375 C 2182.890625 7259.609375 2170.195312 7272.304688 2170.195312 7287.96875 C 2170.195312 7303.632812 2182.890625 7316.328125 2198.554688 7316.328125 Z M 2198.554688 7316.328125 " transform="matrix(0.1,0,0,-0.1,0,792)"/>
<path style="fill:none;stroke-width:20.0013;stroke-linecap:butt;stroke-linejoin:miter;stroke:rgb(92.941176%,10.978866%,14.119173%);stroke-opacity:1;stroke-miterlimit:22.9256;" d="M 2772.617188 7293.164062 L 2551.132812 7521.171875 " transform="matrix(0.1,0,0,-0.1,0,792)"/>
<path style="fill:none;stroke-width:20.0013;stroke-linecap:butt;stroke-linejoin:miter;stroke:rgb(92.941176%,10.978866%,14.119173%);stroke-opacity:1;stroke-miterlimit:22.9256;" d="M 2779.648438 7297.578125 L 3010.078125 7525.078125 " transform="matrix(0.1,0,0,-0.1,0,792)"/>
<path style="fill:none;stroke-width:20.0013;stroke-linecap:butt;stroke-linejoin:miter;stroke:rgb(0%,65.099565%,31.369497%);stroke-opacity:1;stroke-miterlimit:22.9256;" d="M 2203.476562 6718.554688 L 2003.359375 6521.367188 " transform="matrix(0.1,0,0,-0.1,0,792)"/>
<path style="fill:none;stroke-width:20.0013;stroke-linecap:butt;stroke-linejoin:miter;stroke:rgb(92.941176%,10.978866%,14.119173%);stroke-opacity:1;stroke-miterlimit:22.9256;" d="M 2772.304688 6716.132812 L 2564.648438 6506.289062 " transform="matrix(0.1,0,0,-0.1,0,792)"/>
<path style="fill:none;stroke-width:20.0013;stroke-linecap:butt;stroke-linejoin:miter;stroke:rgb(92.941176%,10.978866%,14.119173%);stroke-opacity:1;stroke-miterlimit:22.9256;" d="M 2779.335938 6711.679688 L 2976.914062 6511.953125 " transform="matrix(0.1,0,0,-0.1,0,792)"/>
<path style=" stroke:none;fill-rule:evenodd;fill:rgb(13.730068%,12.159915%,12.54902%);fill-opacity:1;" d="M 277.054688 117.953125 C 278.617188 117.953125 279.886719 119.222656 279.886719 120.789062 C 279.886719 122.351562 278.617188 123.621094 277.054688 123.621094 C 275.488281 123.621094 274.21875 122.351562 274.21875 120.789062 C 274.21875 119.222656 275.488281 117.953125 277.054688 117.953125 "/>
<path style="fill:none;stroke-width:2.16;stroke-linecap:butt;stroke-linejoin:miter;stroke:rgb(13.730068%,12.159915%,12.54902%);stroke-opacity:1;stroke-miterlimit:22.9256;" d="M 2770.546875 6740.46875 C 2786.171875 6740.46875 2798.867188 6727.773438 2798.867188 6712.109375 C 2798.867188 6696.484375 2786.171875 6683.789062 2770.546875 6683.789062 C 2754.882812 6683.789062 2742.1875 6696.484375 2742.1875 6712.109375 C 2742.1875 6727.773438 2754.882812 6740.46875 2770.546875 6740.46875 Z M 2770.546875 6740.46875 " transform="matrix(0.1,0,0,-0.1,0,792)"/>
<path style=" stroke:none;fill-rule:evenodd;fill:rgb(13.730068%,12.159915%,12.54902%);fill-opacity:1;" d="M 242.84375 38.4375 C 244.40625 38.4375 245.675781 39.707031 245.675781 41.273438 C 245.675781 42.839844 244.40625 44.105469 242.84375 44.105469 C 241.277344 44.105469 240.007812 42.839844 240.007812 41.273438 C 240.007812 39.707031 241.277344 38.4375 242.84375 38.4375 "/>
<path style="fill:none;stroke-width:2.16;stroke-linecap:butt;stroke-linejoin:miter;stroke:rgb(13.730068%,12.159915%,12.54902%);stroke-opacity:1;stroke-miterlimit:22.9256;" d="M 2428.4375 7535.625 C 2444.0625 7535.625 2456.757812 7522.929688 2456.757812 7507.265625 C 2456.757812 7491.601562 2444.0625 7478.945312 2428.4375 7478.945312 C 2412.773438 7478.945312 2400.078125 7491.601562 2400.078125 7507.265625 C 2400.078125 7522.929688 2412.773438 7535.625 2428.4375 7535.625 Z M 2428.4375 7535.625 " transform="matrix(0.1,0,0,-0.1,0,792)"/>
<path style=" stroke:none;fill-rule:evenodd;fill:rgb(13.730068%,12.159915%,12.54902%);fill-opacity:1;" d="M 255.113281 37.046875 C 256.675781 37.046875 257.945312 38.316406 257.945312 39.882812 C 257.945312 41.445312 256.675781 42.71875 255.113281 42.71875 C 253.546875 42.71875 252.277344 41.445312 252.277344 39.882812 C 252.277344 38.316406 253.546875 37.046875 255.113281 37.046875 "/>
<path style="fill:none;stroke-width:2.16;stroke-linecap:butt;stroke-linejoin:miter;stroke:rgb(13.730068%,12.159915%,12.54902%);stroke-opacity:1;stroke-miterlimit:22.9256;" d="M 2551.132812 7549.53125 C 2566.757812 7549.53125 2579.453125 7536.835938 2579.453125 7521.171875 C 2579.453125 7505.546875 2566.757812 7492.8125 2551.132812 7492.8125 C 2535.46875 7492.8125 2522.773438 7505.546875 2522.773438 7521.171875 C 2522.773438 7536.835938 2535.46875 7549.53125 2551.132812 7549.53125 Z M 2551.132812 7549.53125 " transform="matrix(0.1,0,0,-0.1,0,792)"/>
<path style=" stroke:none;fill-rule:evenodd;fill:rgb(13.730068%,12.159915%,12.54902%);fill-opacity:1;" d="M 199.339844 39.386719 C 200.902344 39.386719 202.175781 40.65625 202.175781 42.222656 C 202.175781 43.785156 200.902344 45.054688 199.339844 45.054688 C 197.773438 45.054688 196.503906 43.785156 196.503906 42.222656 C 196.503906 40.65625 197.773438 39.386719 199.339844 39.386719 "/>
<path style="fill:none;stroke-width:2.16;stroke-linecap:butt;stroke-linejoin:miter;stroke:rgb(13.730068%,12.159915%,12.54902%);stroke-opacity:1;stroke-miterlimit:22.9256;" d="M 1993.398438 7526.132812 C 2009.023438 7526.132812 2021.757812 7513.4375 2021.757812 7497.773438 C 2021.757812 7482.148438 2009.023438 7469.453125 1993.398438 7469.453125 C 1977.734375 7469.453125 1965.039062 7482.148438 1965.039062 7497.773438 C 1965.039062 7513.4375 1977.734375 7526.132812 1993.398438 7526.132812 Z M 1993.398438 7526.132812 " transform="matrix(0.1,0,0,-0.1,0,792)"/>
<path style=" stroke:none;fill-rule:evenodd;fill:rgb(13.730068%,12.159915%,12.54902%);fill-opacity:1;" d="M 301.007812 36.65625 C 302.570312 36.65625 303.84375 37.925781 303.84375 39.492188 C 303.84375 41.054688 302.570312 42.324219 301.007812 42.324219 C 299.441406 42.324219 298.171875 41.054688 298.171875 39.492188 C 298.171875 37.925781 299.441406 36.65625 301.007812 36.65625 "/>
<path style="fill:none;stroke-width:2.16;stroke-linecap:butt;stroke-linejoin:miter;stroke:rgb(13.730068%,12.159915%,12.54902%);stroke-opacity:1;stroke-miterlimit:22.9256;" d="M 3010.078125 7553.4375 C 3025.703125 7553.4375 3038.4375 7540.742188 3038.4375 7525.078125 C 3038.4375 7509.453125 3025.703125 7496.757812 3010.078125 7496.757812 C 2994.414062 7496.757812 2981.71875 7509.453125 2981.71875 7525.078125 C 2981.71875 7540.742188 2994.414062 7553.4375 3010.078125 7553.4375 Z M 3010.078125 7553.4375 " transform="matrix(0.1,0,0,-0.1,0,792)"/>
<path style="fill:none;stroke-width:20.0013;stroke-linecap:butt;stroke-linejoin:miter;stroke:rgb(0%,65.099565%,31.369497%);stroke-opacity:1;stroke-miterlimit:22.9256;" d="M 2403.671875 6518.007812 L 2198.515625 6727.8125 " transform="matrix(0.1,0,0,-0.1,0,792)"/>
<path style=" stroke:none;fill-rule:evenodd;fill:rgb(13.730068%,12.159915%,12.54902%);fill-opacity:1;" d="M 277.054688 59.398438 C 278.617188 59.398438 279.886719 60.667969 279.886719 62.234375 C 279.886719 63.796875 278.617188 65.066406 277.054688 65.066406 C 275.488281 65.066406 274.21875 63.796875 274.21875 62.234375 C 274.21875 60.667969 275.488281 59.398438 277.054688 59.398438 "/>
<path style="fill:none;stroke-width:2.16;stroke-linecap:butt;stroke-linejoin:miter;stroke:rgb(13.730068%,12.159915%,12.54902%);stroke-opacity:1;stroke-miterlimit:22.9256;" d="M 2770.546875 7326.015625 C 2786.171875 7326.015625 2798.867188 7313.320312 2798.867188 7297.65625 C 2798.867188 7282.03125 2786.171875 7269.335938 2770.546875 7269.335938 C 2754.882812 7269.335938 2742.1875 7282.03125 2742.1875 7297.65625 C 2742.1875 7313.320312 2754.882812 7326.015625 2770.546875 7326.015625 Z M 2770.546875 7326.015625 " transform="matrix(0.1,0,0,-0.1,0,792)"/>
<path style=" stroke:none;fill-rule:evenodd;fill:rgb(13.730068%,12.159915%,12.54902%);fill-opacity:1;" d="M 219.855469 116.597656 C 221.421875 116.597656 222.691406 117.867188 222.691406 119.429688 C 222.691406 120.996094 221.421875 122.265625 219.855469 122.265625 C 218.289062 122.265625 217.019531 120.996094 217.019531 119.429688 C 217.019531 117.867188 218.289062 116.597656 219.855469 116.597656 "/>
<path style="fill:none;stroke-width:2.16;stroke-linecap:butt;stroke-linejoin:miter;stroke:rgb(13.730068%,12.159915%,12.54902%);stroke-opacity:1;stroke-miterlimit:22.9256;" d="M 2198.554688 6754.023438 C 2214.21875 6754.023438 2226.914062 6741.328125 2226.914062 6725.703125 C 2226.914062 6710.039062 2214.21875 6697.34375 2198.554688 6697.34375 C 2182.890625 6697.34375 2170.195312 6710.039062 2170.195312 6725.703125 C 2170.195312 6741.328125 2182.890625 6754.023438 2198.554688 6754.023438 Z M 2198.554688 6754.023438 " transform="matrix(0.1,0,0,-0.1,0,792)"/>
<path style=" stroke:none;fill-rule:evenodd;fill:rgb(13.730068%,12.159915%,12.54902%);fill-opacity:1;" d="M 200.335938 137.027344 C 201.898438 137.027344 203.171875 138.296875 203.171875 139.863281 C 203.171875 141.425781 201.898438 142.695312 200.335938 142.695312 C 198.769531 142.695312 197.5 141.425781 197.5 139.863281 C 197.5 138.296875 198.769531 137.027344 200.335938 137.027344 "/>
<path style="fill:none;stroke-width:2.16;stroke-linecap:butt;stroke-linejoin:miter;stroke:rgb(13.730068%,12.159915%,12.54902%);stroke-opacity:1;stroke-miterlimit:22.9256;" d="M 2003.359375 6549.726562 C 2018.984375 6549.726562 2031.71875 6537.03125 2031.71875 6521.367188 C 2031.71875 6505.742188 2018.984375 6493.046875 2003.359375 6493.046875 C 1987.695312 6493.046875 1975 6505.742188 1975 6521.367188 C 1975 6537.03125 1987.695312 6549.726562 2003.359375 6549.726562 Z M 2003.359375 6549.726562 " transform="matrix(0.1,0,0,-0.1,0,792)"/>
<path style=" stroke:none;fill-rule:evenodd;fill:rgb(13.730068%,12.159915%,12.54902%);fill-opacity:1;" d="M 240.367188 137.367188 C 241.933594 137.367188 243.203125 138.636719 243.203125 140.199219 C 243.203125 141.765625 241.933594 143.035156 240.367188 143.035156 C 238.800781 143.035156 237.53125 141.765625 237.53125 140.199219 C 237.53125 138.636719 238.800781 137.367188 240.367188 137.367188 "/>
<path style="fill:none;stroke-width:2.16;stroke-linecap:butt;stroke-linejoin:miter;stroke:rgb(13.730068%,12.159915%,12.54902%);stroke-opacity:1;stroke-miterlimit:22.9256;" d="M 2403.671875 6546.328125 C 2419.335938 6546.328125 2432.03125 6533.632812 2432.03125 6518.007812 C 2432.03125 6502.34375 2419.335938 6489.648438 2403.671875 6489.648438 C 2388.007812 6489.648438 2375.3125 6502.34375 2375.3125 6518.007812 C 2375.3125 6533.632812 2388.007812 6546.328125 2403.671875 6546.328125 Z M 2403.671875 6546.328125 " transform="matrix(0.1,0,0,-0.1,0,792)"/>
<path style=" stroke:none;fill-rule:evenodd;fill:rgb(13.730068%,12.159915%,12.54902%);fill-opacity:1;" d="M 256.464844 138.382812 C 258.027344 138.382812 259.296875 139.722656 259.296875 141.371094 C 259.296875 143.019531 258.027344 144.355469 256.464844 144.355469 C 254.898438 144.355469 253.628906 143.019531 253.628906 141.371094 C 253.628906 139.722656 254.898438 138.382812 256.464844 138.382812 "/>
<path style="fill:none;stroke-width:2.16;stroke-linecap:butt;stroke-linejoin:miter;stroke:rgb(13.730068%,12.159915%,12.54902%);stroke-opacity:1;stroke-miterlimit:22.9256;" d="M 2564.648438 6536.171875 C 2580.273438 6536.171875 2592.96875 6522.773438 2592.96875 6506.289062 C 2592.96875 6489.804688 2580.273438 6476.445312 2564.648438 6476.445312 C 2548.984375 6476.445312 2536.289062 6489.804688 2536.289062 6506.289062 C 2536.289062 6522.773438 2548.984375 6536.171875 2564.648438 6536.171875 Z M 2564.648438 6536.171875 " transform="matrix(0.1,0,0,-0.1,0,792)"/>
<path style=" stroke:none;fill-rule:evenodd;fill:rgb(13.730068%,12.159915%,12.54902%);fill-opacity:1;" d="M 297.691406 137.816406 C 299.257812 137.816406 300.527344 139.152344 300.527344 140.804688 C 300.527344 142.453125 299.257812 143.789062 297.691406 143.789062 C 296.128906 143.789062 294.859375 142.453125 294.859375 140.804688 C 294.859375 139.152344 296.128906 137.816406 297.691406 137.816406 "/>
<path style="fill:none;stroke-width:2.16;stroke-linecap:butt;stroke-linejoin:miter;stroke:rgb(13.730068%,12.159915%,12.54902%);stroke-opacity:1;stroke-miterlimit:22.9256;" d="M 2976.914062 6541.835938 C 2992.578125 6541.835938 3005.273438 6528.476562 3005.273438 6511.953125 C 3005.273438 6495.46875 2992.578125 6482.109375 2976.914062 6482.109375 C 2961.289062 6482.109375 2948.59375 6495.46875 2948.59375 6511.953125 C 2948.59375 6528.476562 2961.289062 6541.835938 2976.914062 6541.835938 Z M 2976.914062 6541.835938 " transform="matrix(0.1,0,0,-0.1,0,792)"/>
</g>
</svg>
