<?xml version="1.0" encoding="UTF-8"?>
<svg xmlns="http://www.w3.org/2000/svg" xmlns:xlink="http://www.w3.org/1999/xlink" width="612pt" height="792pt" viewBox="0 0 612 792" version="1.1">
<g id="surface1">
<path style="fill:none;stroke-width:39.9997;stroke-linecap:butt;stroke-linejoin:miter;stroke:rgb(92.941176%,10.978866%,14.119173%);stroke-opacity:1;stroke-miterlimit:2.6131;" d="M 4321.5625 3880.390625 L 4321.5625 4238.320312 " transform="matrix(0.1,0,0,-0.1,0,792)"/>
<path style="fill:none;stroke-width:39.9997;stroke-linecap:butt;stroke-linejoin:miter;stroke:rgb(92.941176%,10.978866%,14.119173%);stroke-opacity:1;stroke-miterlimit:2.6131;" d="M 5037.460938 3880.390625 L 5037.460938 4238.320312 " transform="matrix(0.1,0,0,-0.1,0,792)"/>
<path style="fill:none;stroke-width:39.9997;stroke-linecap:butt;stroke-linejoin:miter;stroke:rgb(0%,65.099565%,31.369497%);stroke-opacity:1;stroke-miterlimit:2.6131;" d="M 5037.03125 4248.710938 L 5037.03125 4606.640625 " transform="matrix(0.1,0,0,-0.1,0,792)"/>
<path style="fill:none;stroke-width:39.9997;stroke-linecap:butt;stroke-linejoin:miter;stroke:rgb(92.941176%,10.978866%,14.119173%);stroke-opacity:1;stroke-miterlimit:2.6131;" d="M 5037.460938 4596.210938 L 5037.460938 4954.101562 " transform="matrix(0.1,0,0,-0.1,0,792)"/>
<path style="fill:none;stroke-width:39.9997;stroke-linecap:butt;stroke-linejoin:miter;stroke:rgb(0%,65.099565%,31.369497%);stroke-opacity:1;stroke-miterlimit:2.6131;" d="M 5034.765625 4958.789062 L 5034.765625 5179.765625 " transform="matrix(0.1,0,0,-0.1,0,792)"/>
<path style="fill:none;stroke-width:39.9997;stroke-linecap:butt;stroke-linejoin:miter;stroke:rgb(0%,65.099565%,31.369497%);stroke-opacity:1;stroke-miterlimit:2.6131;" d="M 5037.460938 3522.5 L 5037.460938 3880.390625 " transform="matrix(0.1,0,0,-0.1,0,792)"/>
<path style="fill:none;stroke-width:39.9997;stroke-linecap:butt;stroke-linejoin:miter;stroke:rgb(92.941176%,10.978866%,14.119173%);stroke-opacity:1;stroke-miterlimit:2.6131;" d="M 5031.523438 2448.789062 L 5037.460938 3522.5 " transform="matrix(0.1,0,0,-0.1,0,792)"/>
<path style="fill:none;stroke-width:39.9997;stroke-linecap:butt;stroke-linejoin:miter;stroke:rgb(92.941176%,10.978866%,14.119173%);stroke-opacity:1;stroke-miterlimit:2.6131;" d="M 4679.453125 3880.390625 L 4679.453125 4238.320312 " transform="matrix(0.1,0,0,-0.1,0,792)"/>
<path style="fill:none;stroke-width:39.9997;stroke-linecap:butt;stroke-linejoin:miter;stroke:rgb(0%,65.099565%,31.369497%);stroke-opacity:1;stroke-miterlimit:2.6131;" d="M 4679.023438 4248.710938 L 4679.023438 4606.640625 " transform="matrix(0.1,0,0,-0.1,0,792)"/>
<path style="fill:none;stroke-width:39.9997;stroke-linecap:butt;stroke-linejoin:miter;stroke:rgb(92.941176%,10.978866%,14.119173%);stroke-opacity:1;stroke-miterlimit:2.6131;" d="M 4679.453125 4596.210938 L 4679.453125 4954.101562 " transform="matrix(0.1,0,0,-0.1,0,792)"/>
<path style="fill:none;stroke-width:39.9997;stroke-linecap:butt;stroke-linejoin:miter;stroke:rgb(0%,65.099565%,31.369497%);stroke-opacity:1;stroke-miterlimit:2.6131;" d="M 4676.757812 4958.789062 L 4676.757812 5179.765625 " transform="matrix(0.1,0,0,-0.1,0,792)"/>
<path style="fill:none;stroke-width:39.9997;stroke-linecap:butt;stroke-linejoin:miter;stroke:rgb(0%,65.099565%,31.369497%);stroke-opacity:1;stroke-miterlimit:2.6131;" d="M 4679.453125 3522.5 L 4679.453125 3880.390625 " transform="matrix(0.1,0,0,-0.1,0,792)"/>
<path style="fill:none;stroke-width:39.9997;stroke-linecap:butt;stroke-linejoin:miter;stroke:rgb(92.941176%,10.978866%,14.119173%);stroke-opacity:1;stroke-miterlimit:2.6131;" d="M 4673.515625 2448.789062 L 4679.453125 3522.5 " transform="matrix(0.1,0,0,-0.1,0,792)"/>
<path style="fill:none;stroke-width:39.9997;stroke-linecap:butt;stroke-linejoin:miter;stroke:rgb(0%,65.099565%,31.369497%);stroke-opacity:1;stroke-miterlimit:2.6131;" d="M 4321.5625 3522.5 L 4321.5625 3880.390625 " transform="matrix(0.1,0,0,-0.1,0,792)"/>
<path style="fill:none;stroke-width:39.9997;stroke-linecap:butt;stroke-linejoin:miter;stroke:rgb(97.053483%,60.277714%,66.70634%);stroke-opacity:1;stroke-miterlimit:2.6131;" d="M 4681.132812 4236.953125 L 5039.023438 4236.953125 " transform="matrix(0.1,0,0,-0.1,0,792)"/>
<path style="fill:none;stroke-width:39.9997;stroke-linecap:butt;stroke-linejoin:miter;stroke:rgb(18.039216%,19.220264%,57.250324%);stroke-opacity:1;stroke-miterlimit:2.6131;" d="M 4321.5625 4238.320312 L 4679.453125 4238.320312 " transform="matrix(0.1,0,0,-0.1,0,792)"/>
<path style="fill:none;stroke-width:39.9997;stroke-linecap:butt;stroke-linejoin:miter;stroke:rgb(97.053483%,60.277714%,66.70634%);stroke-opacity:1;stroke-miterlimit:2.6131;" d="M 3273.320312 4238.320312 L 4321.5625 4238.320312 " transform="matrix(0.1,0,0,-0.1,0,792)"/>
<path style="fill:none;stroke-width:39.9997;stroke-linecap:butt;stroke-linejoin:miter;stroke:rgb(18.039216%,19.220264%,57.250324%);stroke-opacity:1;stroke-miterlimit:2.6131;" d="M 5039.023438 4236.953125 L 5514.570312 4238.320312 " transform="matrix(0.1,0,0,-0.1,0,792)"/>
<path style="fill:none;stroke-width:39.9997;stroke-linecap:butt;stroke-linejoin:miter;stroke:rgb(97.053483%,60.277714%,66.70634%);stroke-opacity:1;stroke-miterlimit:2.6131;" d="M 4681.132812 3880.390625 L 5039.023438 3880.390625 " transform="matrix(0.1,0,0,-0.1,0,792)"/>
<path style="fill:none;stroke-width:39.9997;stroke-linecap:butt;stroke-linejoin:miter;stroke:rgb(18.039216%,19.220264%,57.250324%);stroke-opacity:1;stroke-miterlimit:2.6131;" d="M 4321.5625 3881.71875 L 4679.453125 3881.71875 " transform="matrix(0.1,0,0,-0.1,0,792)"/>
<path style="fill:none;stroke-width:39.9997;stroke-linecap:butt;stroke-linejoin:miter;stroke:rgb(97.053483%,60.277714%,66.70634%);stroke-opacity:1;stroke-miterlimit:2.6131;" d="M 3273.320312 3881.71875 L 4321.5625 3881.71875 " transform="matrix(0.1,0,0,-0.1,0,792)"/>
<path style="fill:none;stroke-width:39.9997;stroke-linecap:butt;stroke-linejoin:miter;stroke:rgb(18.039216%,19.220264%,57.250324%);stroke-opacity:1;stroke-miterlimit:2.6131;" d="M 5039.023438 3880.390625 L 5514.570312 3881.71875 " transform="matrix(0.1,0,0,-0.1,0,792)"/>
<path style="fill:none;stroke-width:39.9997;stroke-linecap:butt;stroke-linejoin:miter;stroke:rgb(97.053483%,60.277714%,66.70634%);stroke-opacity:1;stroke-miterlimit:2.6131;" d="M 4681.132812 3522.5 L 5039.023438 3522.5 " transform="matrix(0.1,0,0,-0.1,0,792)"/>
<path style="fill:none;stroke-width:39.9997;stroke-linecap:butt;stroke-linejoin:miter;stroke:rgb(18.039216%,19.220264%,57.250324%);stroke-opacity:1;stroke-miterlimit:2.6131;" d="M 4321.5625 3523.828125 L 4679.453125 3523.828125 " transform="matrix(0.1,0,0,-0.1,0,792)"/>
<path style="fill:none;stroke-width:39.9997;stroke-linecap:butt;stroke-linejoin:miter;stroke:rgb(97.053483%,60.277714%,66.70634%);stroke-opacity:1;stroke-miterlimit:2.6131;" d="M 3273.320312 3523.828125 L 4321.5625 3523.828125 " transform="matrix(0.1,0,0,-0.1,0,792)"/>
<path style="fill:none;stroke-width:39.9997;stroke-linecap:butt;stroke-linejoin:miter;stroke:rgb(18.039216%,19.220264%,57.250324%);stroke-opacity:1;stroke-miterlimit:2.6131;" d="M 5039.023438 3522.5 L 5514.570312 3523.828125 " transform="matrix(0.1,0,0,-0.1,0,792)"/>
<path style="fill:none;stroke-width:39.9997;stroke-linecap:butt;stroke-linejoin:miter;stroke:rgb(97.053483%,60.277714%,66.70634%);stroke-opacity:1;stroke-miterlimit:2.6131;" d="M 4681.132812 4952.773438 L 5039.023438 4952.773438 " transform="matrix(0.1,0,0,-0.1,0,792)"/>
<path style="fill:none;stroke-width:39.9997;stroke-linecap:butt;stroke-linejoin:miter;stroke:rgb(18.039216%,19.220264%,57.250324%);stroke-opacity:1;stroke-miterlimit:2.6131;" d="M 4321.5625 4954.101562 L 4679.453125 4954.101562 " transform="matrix(0.1,0,0,-0.1,0,792)"/>
<path style="fill:none;stroke-width:39.9997;stroke-linecap:butt;stroke-linejoin:miter;stroke:rgb(97.053483%,60.277714%,66.70634%);stroke-opacity:1;stroke-miterlimit:2.6131;" d="M 3273.320312 4954.101562 L 4321.5625 4954.101562 " transform="matrix(0.1,0,0,-0.1,0,792)"/>
<path style="fill:none;stroke-width:39.9997;stroke-linecap:butt;stroke-linejoin:miter;stroke:rgb(18.039216%,19.220264%,57.250324%);stroke-opacity:1;stroke-miterlimit:2.6131;" d="M 5039.023438 4952.773438 L 5514.570312 4954.101562 " transform="matrix(0.1,0,0,-0.1,0,792)"/>
<path style="fill:none;stroke-width:39.9997;stroke-linecap:butt;stroke-linejoin:miter;stroke:rgb(97.053483%,60.277714%,66.70634%);stroke-opacity:1;stroke-miterlimit:2.6131;" d="M 4681.132812 4591.171875 L 5039.023438 4591.171875 " transform="matrix(0.1,0,0,-0.1,0,792)"/>
<path style="fill:none;stroke-width:39.9997;stroke-linecap:butt;stroke-linejoin:miter;stroke:rgb(18.039216%,19.220264%,57.250324%);stroke-opacity:1;stroke-miterlimit:2.6131;" d="M 4321.5625 4592.5 L 4679.453125 4592.5 " transform="matrix(0.1,0,0,-0.1,0,792)"/>
<path style="fill:none;stroke-width:39.9997;stroke-linecap:butt;stroke-linejoin:miter;stroke:rgb(97.053483%,60.277714%,66.70634%);stroke-opacity:1;stroke-miterlimit:2.6131;" d="M 3273.320312 4592.5 L 4321.5625 4592.5 " transform="matrix(0.1,0,0,-0.1,0,792)"/>
<path style="fill:none;stroke-width:39.9997;stroke-linecap:butt;stroke-linejoin:miter;stroke:rgb(18.039216%,19.220264%,57.250324%);stroke-opacity:1;stroke-miterlimit:2.6131;" d="M 5039.023438 4591.171875 L 5514.570312 4592.5 " transform="matrix(0.1,0,0,-0.1,0,792)"/>
<path style="fill:none;stroke-width:39.9997;stroke-linecap:butt;stroke-linejoin:miter;stroke:rgb(0%,65.099565%,31.369497%);stroke-opacity:1;stroke-miterlimit:2.6131;" d="M 4321.132812 4248.710938 L 4321.132812 4606.640625 " transform="matrix(0.1,0,0,-0.1,0,792)"/>
<path style="fill:none;stroke-width:39.9997;stroke-linecap:butt;stroke-linejoin:miter;stroke:rgb(92.941176%,10.978866%,14.119173%);stroke-opacity:1;stroke-miterlimit:2.6131;" d="M 4321.5625 4596.210938 L 4321.5625 4954.101562 " transform="matrix(0.1,0,0,-0.1,0,792)"/>
<path style="fill:none;stroke-width:39.9997;stroke-linecap:butt;stroke-linejoin:miter;stroke:rgb(0%,65.099565%,31.369497%);stroke-opacity:1;stroke-miterlimit:2.6131;" d="M 4318.828125 4958.789062 L 4318.828125 5179.765625 " transform="matrix(0.1,0,0,-0.1,0,792)"/>
<path style="fill:none;stroke-width:39.9997;stroke-linecap:butt;stroke-linejoin:miter;stroke:rgb(0%,65.099565%,31.369497%);stroke-opacity:1;stroke-miterlimit:2.6131;" d="M 4321.5625 3522.5 L 4321.5625 3880.390625 " transform="matrix(0.1,0,0,-0.1,0,792)"/>
<path style="fill:none;stroke-width:39.9997;stroke-linecap:butt;stroke-linejoin:miter;stroke:rgb(92.941176%,10.978866%,14.119173%);stroke-opacity:1;stroke-miterlimit:2.6131;" d="M 4315.585938 2448.789062 L 4321.5625 3522.5 " transform="matrix(0.1,0,0,-0.1,0,792)"/>
<path style="fill:none;stroke-width:39.9997;stroke-linecap:butt;stroke-linejoin:miter;stroke:rgb(92.941176%,10.978866%,14.119173%);stroke-opacity:1;stroke-dasharray:39.9997,39.9997;stroke-miterlimit:2.6131;" d="M 3963.632812 3164.609375 L 3963.632812 3522.5 " transform="matrix(0.1,0,0,-0.1,0,792)"/>
<path style="fill:none;stroke-width:39.9997;stroke-linecap:butt;stroke-linejoin:miter;stroke:rgb(92.941176%,10.978866%,14.119173%);stroke-opacity:1;stroke-dasharray:39.9997,39.9997;stroke-miterlimit:2.6131;" d="M 3963.632812 3880.390625 L 3963.632812 4238.320312 " transform="matrix(0.1,0,0,-0.1,0,792)"/>
<path style="fill:none;stroke-width:39.9997;stroke-linecap:butt;stroke-linejoin:miter;stroke:rgb(92.941176%,10.978866%,14.119173%);stroke-opacity:1;stroke-dasharray:39.9997,39.9997;stroke-miterlimit:2.6131;" d="M 3963.632812 4596.210938 L 3963.632812 4954.101562 " transform="matrix(0.1,0,0,-0.1,0,792)"/>
<path style="fill:none;stroke-width:39.9997;stroke-linecap:butt;stroke-linejoin:miter;stroke:rgb(0%,65.099565%,31.369497%);stroke-opacity:1;stroke-dasharray:39.9997,39.9997;stroke-miterlimit:2.6131;" d="M 3963.632812 3522.5 L 3963.632812 3880.390625 " transform="matrix(0.1,0,0,-0.1,0,792)"/>
<path style="fill:none;stroke-width:39.9997;stroke-linecap:butt;stroke-linejoin:miter;stroke:rgb(0%,65.099565%,31.369497%);stroke-opacity:1;stroke-dasharray:39.9997,39.9997;stroke-miterlimit:2.6131;" d="M 3963.632812 4238.320312 L 3963.632812 4596.210938 " transform="matrix(0.1,0,0,-0.1,0,792)"/>
<path style="fill:none;stroke-width:39.9997;stroke-linecap:butt;stroke-linejoin:miter;stroke:rgb(0%,65.099565%,31.369497%);stroke-opacity:1;stroke-dasharray:39.9997,39.9997;stroke-miterlimit:2.6131;" d="M 3963.632812 3164.609375 C 3486.445312 3283.90625 3486.445312 4715.507812 3963.632812 4954.101562 " transform="matrix(0.1,0,0,-0.1,0,792)"/>
<path style="fill:none;stroke-width:39.9997;stroke-linecap:butt;stroke-linejoin:miter;stroke:rgb(18.039216%,19.220264%,57.250324%);stroke-opacity:1;stroke-dasharray:39.9997,39.9997;stroke-miterlimit:2.6131;" d="M 3963.632812 3164.609375 C 4202.265625 2687.382812 4798.75 2687.382812 5037.382812 3164.609375 " transform="matrix(0.1,0,0,-0.1,0,792)"/>
<path style="fill:none;stroke-width:39.9997;stroke-linecap:butt;stroke-linejoin:miter;stroke:rgb(18.039216%,19.220264%,57.250324%);stroke-opacity:1;stroke-dasharray:39.9997,39.9997;stroke-miterlimit:2.6131;" d="M 4321.5625 3164.609375 L 4679.453125 3164.609375 " transform="matrix(0.1,0,0,-0.1,0,792)"/>
<path style="fill:none;stroke-width:39.9997;stroke-linecap:butt;stroke-linejoin:miter;stroke:rgb(97.053483%,60.277714%,66.70634%);stroke-opacity:1;stroke-dasharray:39.9997,39.9997;stroke-miterlimit:2.6131;" d="M 3963.632812 3164.609375 L 4321.5625 3164.609375 " transform="matrix(0.1,0,0,-0.1,0,792)"/>
<path style="fill:none;stroke-width:39.9997;stroke-linecap:butt;stroke-linejoin:miter;stroke:rgb(97.053483%,60.277714%,66.70634%);stroke-opacity:1;stroke-dasharray:39.9997,39.9997;stroke-miterlimit:2.6131;" d="M 4679.453125 3164.609375 L 5037.382812 3164.609375 " transform="matrix(0.1,0,0,-0.1,0,792)"/>
<path style=" stroke:none;fill-rule:evenodd;fill:rgb(100%,100%,100%);fill-opacity:1;" d="M 396.363281 472.558594 C 398.011719 472.558594 399.347656 473.894531 399.347656 475.539062 C 399.347656 477.1875 398.011719 478.523438 396.363281 478.523438 C 394.71875 478.523438 393.382812 477.1875 393.382812 475.539062 C 393.382812 473.894531 394.71875 472.558594 396.363281 472.558594 "/>
<path style="fill:none;stroke-width:9.9978;stroke-linecap:butt;stroke-linejoin:miter;stroke:rgb(0%,0%,0%);stroke-opacity:1;stroke-miterlimit:2.6131;" d="M 3963.632812 3194.414062 C 3980.117188 3194.414062 3993.476562 3181.054688 3993.476562 3164.609375 C 3993.476562 3148.125 3980.117188 3134.765625 3963.632812 3134.765625 C 3947.1875 3134.765625 3933.828125 3148.125 3933.828125 3164.609375 C 3933.828125 3181.054688 3947.1875 3194.414062 3963.632812 3194.414062 Z M 3963.632812 3194.414062 " transform="matrix(0.1,0,0,-0.1,0,792)"/>
<path style=" stroke:none;fill-rule:evenodd;fill:rgb(100%,100%,100%);fill-opacity:1;" d="M 432.15625 472.558594 C 433.804688 472.558594 435.136719 473.894531 435.136719 475.539062 C 435.136719 477.1875 433.804688 478.523438 432.15625 478.523438 C 430.507812 478.523438 429.171875 477.1875 429.171875 475.539062 C 429.171875 473.894531 430.507812 472.558594 432.15625 472.558594 "/>
<path style="fill:none;stroke-width:9.9978;stroke-linecap:butt;stroke-linejoin:miter;stroke:rgb(0%,0%,0%);stroke-opacity:1;stroke-miterlimit:2.6131;" d="M 4321.5625 3194.414062 C 4338.046875 3194.414062 4351.367188 3181.054688 4351.367188 3164.609375 C 4351.367188 3148.125 4338.046875 3134.765625 4321.5625 3134.765625 C 4305.078125 3134.765625 4291.71875 3148.125 4291.71875 3164.609375 C 4291.71875 3181.054688 4305.078125 3194.414062 4321.5625 3194.414062 Z M 4321.5625 3194.414062 " transform="matrix(0.1,0,0,-0.1,0,792)"/>
<path style=" stroke:none;fill-rule:evenodd;fill:rgb(100%,100%,100%);fill-opacity:1;" d="M 467.945312 472.558594 C 469.59375 472.558594 470.929688 473.894531 470.929688 475.539062 C 470.929688 477.1875 469.59375 478.523438 467.945312 478.523438 C 466.300781 478.523438 464.964844 477.1875 464.964844 475.539062 C 464.964844 473.894531 466.300781 472.558594 467.945312 472.558594 "/>
<path style="fill:none;stroke-width:9.9978;stroke-linecap:butt;stroke-linejoin:miter;stroke:rgb(0%,0%,0%);stroke-opacity:1;stroke-miterlimit:2.6131;" d="M 4679.453125 3194.414062 C 4695.9375 3194.414062 4709.296875 3181.054688 4709.296875 3164.609375 C 4709.296875 3148.125 4695.9375 3134.765625 4679.453125 3134.765625 C 4663.007812 3134.765625 4649.648438 3148.125 4649.648438 3164.609375 C 4649.648438 3181.054688 4663.007812 3194.414062 4679.453125 3194.414062 Z M 4679.453125 3194.414062 " transform="matrix(0.1,0,0,-0.1,0,792)"/>
<path style=" stroke:none;fill-rule:evenodd;fill:rgb(100%,100%,100%);fill-opacity:1;" d="M 503.738281 472.558594 C 505.382812 472.558594 506.71875 473.894531 506.71875 475.539062 C 506.71875 477.1875 505.382812 478.523438 503.738281 478.523438 C 502.089844 478.523438 500.753906 477.1875 500.753906 475.539062 C 500.753906 473.894531 502.089844 472.558594 503.738281 472.558594 "/>
<path style="fill:none;stroke-width:9.9978;stroke-linecap:butt;stroke-linejoin:miter;stroke:rgb(0%,0%,0%);stroke-opacity:1;stroke-miterlimit:2.6131;" d="M 5037.382812 3194.414062 C 5053.828125 3194.414062 5067.1875 3181.054688 5067.1875 3164.609375 C 5067.1875 3148.125 5053.828125 3134.765625 5037.382812 3134.765625 C 5020.898438 3134.765625 5007.539062 3148.125 5007.539062 3164.609375 C 5007.539062 3181.054688 5020.898438 3194.414062 5037.382812 3194.414062 Z M 5037.382812 3194.414062 " transform="matrix(0.1,0,0,-0.1,0,792)"/>
<path style=" stroke:none;fill-rule:evenodd;fill:rgb(100%,100%,100%);fill-opacity:1;" d="M 396.363281 436.769531 C 398.011719 436.769531 399.347656 438.105469 399.347656 439.75 C 399.347656 441.398438 398.011719 442.734375 396.363281 442.734375 C 394.71875 442.734375 393.382812 441.398438 393.382812 439.75 C 393.382812 438.105469 394.71875 436.769531 396.363281 436.769531 "/>
<path style="fill:none;stroke-width:9.9978;stroke-linecap:butt;stroke-linejoin:miter;stroke:rgb(0%,0%,0%);stroke-opacity:1;stroke-miterlimit:2.6131;" d="M 3963.632812 3552.304688 C 3980.117188 3552.304688 3993.476562 3538.945312 3993.476562 3522.5 C 3993.476562 3506.015625 3980.117188 3492.65625 3963.632812 3492.65625 C 3947.1875 3492.65625 3933.828125 3506.015625 3933.828125 3522.5 C 3933.828125 3538.945312 3947.1875 3552.304688 3963.632812 3552.304688 Z M 3963.632812 3552.304688 " transform="matrix(0.1,0,0,-0.1,0,792)"/>
<path style=" stroke:none;fill-rule:evenodd;fill:rgb(100%,100%,100%);fill-opacity:1;" d="M 396.363281 400.976562 C 398.011719 400.976562 399.347656 402.3125 399.347656 403.960938 C 399.347656 405.605469 398.011719 406.941406 396.363281 406.941406 C 394.71875 406.941406 393.382812 405.605469 393.382812 403.960938 C 393.382812 402.3125 394.71875 400.976562 396.363281 400.976562 "/>
<path style="fill:none;stroke-width:9.9978;stroke-linecap:butt;stroke-linejoin:miter;stroke:rgb(0%,0%,0%);stroke-opacity:1;stroke-miterlimit:2.6131;" d="M 3963.632812 3910.234375 C 3980.117188 3910.234375 3993.476562 3896.875 3993.476562 3880.390625 C 3993.476562 3863.945312 3980.117188 3850.585938 3963.632812 3850.585938 C 3947.1875 3850.585938 3933.828125 3863.945312 3933.828125 3880.390625 C 3933.828125 3896.875 3947.1875 3910.234375 3963.632812 3910.234375 Z M 3963.632812 3910.234375 " transform="matrix(0.1,0,0,-0.1,0,792)"/>
<path style=" stroke:none;fill-rule:evenodd;fill:rgb(100%,100%,100%);fill-opacity:1;" d="M 396.363281 365.1875 C 398.011719 365.1875 399.347656 366.523438 399.347656 368.171875 C 399.347656 369.816406 398.011719 371.152344 396.363281 371.152344 C 394.71875 371.152344 393.382812 369.816406 393.382812 368.171875 C 393.382812 366.523438 394.71875 365.1875 396.363281 365.1875 "/>
<path style="fill:none;stroke-width:9.9978;stroke-linecap:butt;stroke-linejoin:miter;stroke:rgb(0%,0%,0%);stroke-opacity:1;stroke-miterlimit:2.6131;" d="M 3963.632812 4268.125 C 3980.117188 4268.125 3993.476562 4254.765625 3993.476562 4238.28125 C 3993.476562 4221.835938 3980.117188 4208.476562 3963.632812 4208.476562 C 3947.1875 4208.476562 3933.828125 4221.835938 3933.828125 4238.28125 C 3933.828125 4254.765625 3947.1875 4268.125 3963.632812 4268.125 Z M 3963.632812 4268.125 " transform="matrix(0.1,0,0,-0.1,0,792)"/>
<path style=" stroke:none;fill-rule:evenodd;fill:rgb(100%,100%,100%);fill-opacity:1;" d="M 396.363281 329.394531 C 398.011719 329.394531 399.347656 330.730469 399.347656 332.378906 C 399.347656 334.027344 398.011719 335.359375 396.363281 335.359375 C 394.71875 335.359375 393.382812 334.027344 393.382812 332.378906 C 393.382812 330.730469 394.71875 329.394531 396.363281 329.394531 "/>
<path style="fill:none;stroke-width:9.9978;stroke-linecap:butt;stroke-linejoin:miter;stroke:rgb(0%,0%,0%);stroke-opacity:1;stroke-miterlimit:2.6131;" d="M 3963.632812 4626.054688 C 3980.117188 4626.054688 3993.476562 4612.695312 3993.476562 4596.210938 C 3993.476562 4579.726562 3980.117188 4566.40625 3963.632812 4566.40625 C 3947.1875 4566.40625 3933.828125 4579.726562 3933.828125 4596.210938 C 3933.828125 4612.695312 3947.1875 4626.054688 3963.632812 4626.054688 Z M 3963.632812 4626.054688 " transform="matrix(0.1,0,0,-0.1,0,792)"/>
<path style=" stroke:none;fill-rule:evenodd;fill:rgb(100%,100%,100%);fill-opacity:1;" d="M 396.363281 293.605469 C 398.011719 293.605469 399.347656 294.941406 399.347656 296.589844 C 399.347656 298.234375 398.011719 299.570312 396.363281 299.570312 C 394.71875 299.570312 393.382812 298.234375 393.382812 296.589844 C 393.382812 294.941406 394.71875 293.605469 396.363281 293.605469 "/>
<path style="fill:none;stroke-width:9.9978;stroke-linecap:butt;stroke-linejoin:miter;stroke:rgb(0%,0%,0%);stroke-opacity:1;stroke-miterlimit:2.6131;" d="M 3963.632812 4983.945312 C 3980.117188 4983.945312 3993.476562 4970.585938 3993.476562 4954.101562 C 3993.476562 4937.65625 3980.117188 4924.296875 3963.632812 4924.296875 C 3947.1875 4924.296875 3933.828125 4937.65625 3933.828125 4954.101562 C 3933.828125 4970.585938 3947.1875 4983.945312 3963.632812 4983.945312 Z M 3963.632812 4983.945312 " transform="matrix(0.1,0,0,-0.1,0,792)"/>
<path style=" stroke:none;fill-rule:evenodd;fill:rgb(0%,0%,0%);fill-opacity:1;" d="M 432.15625 293.605469 C 433.804688 293.605469 435.136719 294.941406 435.136719 296.589844 C 435.136719 298.234375 433.804688 299.570312 432.15625 299.570312 C 430.507812 299.570312 429.171875 298.234375 429.171875 296.589844 C 429.171875 294.941406 430.507812 293.605469 432.15625 293.605469 "/>
<path style="fill:none;stroke-width:9.9978;stroke-linecap:butt;stroke-linejoin:miter;stroke:rgb(0%,0%,0%);stroke-opacity:1;stroke-miterlimit:2.6131;" d="M 4321.5625 4983.945312 C 4338.046875 4983.945312 4351.367188 4970.585938 4351.367188 4954.101562 C 4351.367188 4937.65625 4338.046875 4924.296875 4321.5625 4924.296875 C 4305.078125 4924.296875 4291.71875 4937.65625 4291.71875 4954.101562 C 4291.71875 4970.585938 4305.078125 4983.945312 4321.5625 4983.945312 Z M 4321.5625 4983.945312 " transform="matrix(0.1,0,0,-0.1,0,792)"/>
<path style=" stroke:none;fill-rule:evenodd;fill:rgb(0%,0%,0%);fill-opacity:1;" d="M 432.15625 329.394531 C 433.804688 329.394531 435.136719 330.730469 435.136719 332.378906 C 435.136719 334.027344 433.804688 335.359375 432.15625 335.359375 C 430.507812 335.359375 429.171875 334.027344 429.171875 332.378906 C 429.171875 330.730469 430.507812 329.394531 432.15625 329.394531 "/>
<path style="fill:none;stroke-width:9.9978;stroke-linecap:butt;stroke-linejoin:miter;stroke:rgb(0%,0%,0%);stroke-opacity:1;stroke-miterlimit:2.6131;" d="M 4321.5625 4626.054688 C 4338.046875 4626.054688 4351.367188 4612.695312 4351.367188 4596.210938 C 4351.367188 4579.726562 4338.046875 4566.40625 4321.5625 4566.40625 C 4305.078125 4566.40625 4291.71875 4579.726562 4291.71875 4596.210938 C 4291.71875 4612.695312 4305.078125 4626.054688 4321.5625 4626.054688 Z M 4321.5625 4626.054688 " transform="matrix(0.1,0,0,-0.1,0,792)"/>
<path style=" stroke:none;fill-rule:evenodd;fill:rgb(0%,0%,0%);fill-opacity:1;" d="M 432.15625 364.738281 C 433.804688 364.738281 435.136719 366.074219 435.136719 367.722656 C 435.136719 369.367188 433.804688 370.703125 432.15625 370.703125 C 430.507812 370.703125 429.171875 369.367188 429.171875 367.722656 C 429.171875 366.074219 430.507812 364.738281 432.15625 364.738281 "/>
<path style="fill:none;stroke-width:9.9978;stroke-linecap:butt;stroke-linejoin:miter;stroke:rgb(0%,0%,0%);stroke-opacity:1;stroke-miterlimit:2.6131;" d="M 4321.5625 4272.617188 C 4338.046875 4272.617188 4351.367188 4259.257812 4351.367188 4242.773438 C 4351.367188 4226.328125 4338.046875 4212.96875 4321.5625 4212.96875 C 4305.078125 4212.96875 4291.71875 4226.328125 4291.71875 4242.773438 C 4291.71875 4259.257812 4305.078125 4272.617188 4321.5625 4272.617188 Z M 4321.5625 4272.617188 " transform="matrix(0.1,0,0,-0.1,0,792)"/>
<path style=" stroke:none;fill-rule:evenodd;fill:rgb(0%,0%,0%);fill-opacity:1;" d="M 467.945312 293.605469 C 469.59375 293.605469 470.929688 294.941406 470.929688 296.589844 C 470.929688 298.234375 469.59375 299.570312 467.945312 299.570312 C 466.300781 299.570312 464.964844 298.234375 464.964844 296.589844 C 464.964844 294.941406 466.300781 293.605469 467.945312 293.605469 "/>
<path style="fill:none;stroke-width:9.9978;stroke-linecap:butt;stroke-linejoin:miter;stroke:rgb(0%,0%,0%);stroke-opacity:1;stroke-miterlimit:2.6131;" d="M 4679.453125 4983.945312 C 4695.9375 4983.945312 4709.296875 4970.585938 4709.296875 4954.101562 C 4709.296875 4937.65625 4695.9375 4924.296875 4679.453125 4924.296875 C 4663.007812 4924.296875 4649.648438 4937.65625 4649.648438 4954.101562 C 4649.648438 4970.585938 4663.007812 4983.945312 4679.453125 4983.945312 Z M 4679.453125 4983.945312 " transform="matrix(0.1,0,0,-0.1,0,792)"/>
<path style=" stroke:none;fill-rule:evenodd;fill:rgb(0%,0%,0%);fill-opacity:1;" d="M 503.738281 293.605469 C 505.382812 293.605469 506.71875 294.941406 506.71875 296.589844 C 506.71875 298.234375 505.382812 299.570312 503.738281 299.570312 C 502.089844 299.570312 500.753906 298.234375 500.753906 296.589844 C 500.753906 294.941406 502.089844 293.605469 503.738281 293.605469 "/>
<path style="fill:none;stroke-width:9.9978;stroke-linecap:butt;stroke-linejoin:miter;stroke:rgb(0%,0%,0%);stroke-opacity:1;stroke-miterlimit:2.6131;" d="M 5037.382812 4983.945312 C 5053.828125 4983.945312 5067.1875 4970.585938 5067.1875 4954.101562 C 5067.1875 4937.65625 5053.828125 4924.296875 5037.382812 4924.296875 C 5020.898438 4924.296875 5007.539062 4937.65625 5007.539062 4954.101562 C 5007.539062 4970.585938 5020.898438 4983.945312 5037.382812 4983.945312 Z M 5037.382812 4983.945312 " transform="matrix(0.1,0,0,-0.1,0,792)"/>
<path style=" stroke:none;fill-rule:evenodd;fill:rgb(0%,0%,0%);fill-opacity:1;" d="M 467.945312 329.394531 C 469.59375 329.394531 470.929688 330.730469 470.929688 332.378906 C 470.929688 334.027344 469.59375 335.359375 467.945312 335.359375 C 466.300781 335.359375 464.964844 334.027344 464.964844 332.378906 C 464.964844 330.730469 466.300781 329.394531 467.945312 329.394531 "/>
<path style="fill:none;stroke-width:9.9978;stroke-linecap:butt;stroke-linejoin:miter;stroke:rgb(0%,0%,0%);stroke-opacity:1;stroke-miterlimit:2.6131;" d="M 4679.453125 4626.054688 C 4695.9375 4626.054688 4709.296875 4612.695312 4709.296875 4596.210938 C 4709.296875 4579.726562 4695.9375 4566.40625 4679.453125 4566.40625 C 4663.007812 4566.40625 4649.648438 4579.726562 4649.648438 4596.210938 C 4649.648438 4612.695312 4663.007812 4626.054688 4679.453125 4626.054688 Z M 4679.453125 4626.054688 " transform="matrix(0.1,0,0,-0.1,0,792)"/>
<path style=" stroke:none;fill-rule:evenodd;fill:rgb(0%,0%,0%);fill-opacity:1;" d="M 503.738281 329.394531 C 505.382812 329.394531 506.71875 330.730469 506.71875 332.378906 C 506.71875 334.027344 505.382812 335.359375 503.738281 335.359375 C 502.089844 335.359375 500.753906 334.027344 500.753906 332.378906 C 500.753906 330.730469 502.089844 329.394531 503.738281 329.394531 "/>
<path style="fill:none;stroke-width:9.9978;stroke-linecap:butt;stroke-linejoin:miter;stroke:rgb(0%,0%,0%);stroke-opacity:1;stroke-miterlimit:2.6131;" d="M 5037.382812 4626.054688 C 5053.828125 4626.054688 5067.1875 4612.695312 5067.1875 4596.210938 C 5067.1875 4579.726562 5053.828125 4566.40625 5037.382812 4566.40625 C 5020.898438 4566.40625 5007.539062 4579.726562 5007.539062 4596.210938 C 5007.539062 4612.695312 5020.898438 4626.054688 5037.382812 4626.054688 Z M 5037.382812 4626.054688 " transform="matrix(0.1,0,0,-0.1,0,792)"/>
<path style=" stroke:none;fill-rule:evenodd;fill:rgb(0%,0%,0%);fill-opacity:1;" d="M 467.945312 365.1875 C 469.59375 365.1875 470.929688 366.523438 470.929688 368.171875 C 470.929688 369.816406 469.59375 371.152344 467.945312 371.152344 C 466.300781 371.152344 464.964844 369.816406 464.964844 368.171875 C 464.964844 366.523438 466.300781 365.1875 467.945312 365.1875 "/>
<path style="fill:none;stroke-width:9.9978;stroke-linecap:butt;stroke-linejoin:miter;stroke:rgb(0%,0%,0%);stroke-opacity:1;stroke-miterlimit:2.6131;" d="M 4679.453125 4268.125 C 4695.9375 4268.125 4709.296875 4254.765625 4709.296875 4238.28125 C 4709.296875 4221.835938 4695.9375 4208.476562 4679.453125 4208.476562 C 4663.007812 4208.476562 4649.648438 4221.835938 4649.648438 4238.28125 C 4649.648438 4254.765625 4663.007812 4268.125 4679.453125 4268.125 Z M 4679.453125 4268.125 " transform="matrix(0.1,0,0,-0.1,0,792)"/>
<path style=" stroke:none;fill-rule:evenodd;fill:rgb(0%,0%,0%);fill-opacity:1;" d="M 503.996094 365.1875 C 505.644531 365.1875 506.980469 366.523438 506.980469 368.171875 C 506.980469 369.816406 505.644531 371.152344 503.996094 371.152344 C 502.351562 371.152344 501.015625 369.816406 501.015625 368.171875 C 501.015625 366.523438 502.351562 365.1875 503.996094 365.1875 "/>
<path style="fill:none;stroke-width:9.9978;stroke-linecap:butt;stroke-linejoin:miter;stroke:rgb(0%,0%,0%);stroke-opacity:1;stroke-miterlimit:2.6131;" d="M 5039.960938 4268.125 C 5056.445312 4268.125 5069.804688 4254.765625 5069.804688 4238.28125 C 5069.804688 4221.835938 5056.445312 4208.476562 5039.960938 4208.476562 C 5023.515625 4208.476562 5010.15625 4221.835938 5010.15625 4238.28125 C 5010.15625 4254.765625 5023.515625 4268.125 5039.960938 4268.125 Z M 5039.960938 4268.125 " transform="matrix(0.1,0,0,-0.1,0,792)"/>
<path style=" stroke:none;fill-rule:evenodd;fill:rgb(0%,0%,0%);fill-opacity:1;" d="M 432.15625 400.84375 C 433.804688 400.84375 435.136719 402.179688 435.136719 403.828125 C 435.136719 405.472656 433.804688 406.808594 432.15625 406.808594 C 430.507812 406.808594 429.171875 405.472656 429.171875 403.828125 C 429.171875 402.179688 430.507812 400.84375 432.15625 400.84375 "/>
<path style="fill:none;stroke-width:9.9978;stroke-linecap:butt;stroke-linejoin:miter;stroke:rgb(0%,0%,0%);stroke-opacity:1;stroke-miterlimit:2.6131;" d="M 4321.5625 3911.5625 C 4338.046875 3911.5625 4351.367188 3898.203125 4351.367188 3881.71875 C 4351.367188 3865.273438 4338.046875 3851.914062 4321.5625 3851.914062 C 4305.078125 3851.914062 4291.71875 3865.273438 4291.71875 3881.71875 C 4291.71875 3898.203125 4305.078125 3911.5625 4321.5625 3911.5625 Z M 4321.5625 3911.5625 " transform="matrix(0.1,0,0,-0.1,0,792)"/>
<path style=" stroke:none;fill-rule:evenodd;fill:rgb(0%,0%,0%);fill-opacity:1;" d="M 467.945312 400.976562 C 469.59375 400.976562 470.929688 402.3125 470.929688 403.960938 C 470.929688 405.605469 469.59375 406.941406 467.945312 406.941406 C 466.300781 406.941406 464.964844 405.605469 464.964844 403.960938 C 464.964844 402.3125 466.300781 400.976562 467.945312 400.976562 "/>
<path style="fill:none;stroke-width:9.9978;stroke-linecap:butt;stroke-linejoin:miter;stroke:rgb(0%,0%,0%);stroke-opacity:1;stroke-miterlimit:2.6131;" d="M 4679.453125 3910.234375 C 4695.9375 3910.234375 4709.296875 3896.875 4709.296875 3880.390625 C 4709.296875 3863.945312 4695.9375 3850.585938 4679.453125 3850.585938 C 4663.007812 3850.585938 4649.648438 3863.945312 4649.648438 3880.390625 C 4649.648438 3896.875 4663.007812 3910.234375 4679.453125 3910.234375 Z M 4679.453125 3910.234375 " transform="matrix(0.1,0,0,-0.1,0,792)"/>
<path style=" stroke:none;fill-rule:evenodd;fill:rgb(0%,0%,0%);fill-opacity:1;" d="M 503.738281 400.976562 C 505.382812 400.976562 506.71875 402.3125 506.71875 403.960938 C 506.71875 405.605469 505.382812 406.941406 503.738281 406.941406 C 502.089844 406.941406 500.753906 405.605469 500.753906 403.960938 C 500.753906 402.3125 502.089844 400.976562 503.738281 400.976562 "/>
<path style="fill:none;stroke-width:9.9978;stroke-linecap:butt;stroke-linejoin:miter;stroke:rgb(0%,0%,0%);stroke-opacity:1;stroke-miterlimit:2.6131;" d="M 5037.382812 3910.234375 C 5053.828125 3910.234375 5067.1875 3896.875 5067.1875 3880.390625 C 5067.1875 3863.945312 5053.828125 3850.585938 5037.382812 3850.585938 C 5020.898438 3850.585938 5007.539062 3863.945312 5007.539062 3880.390625 C 5007.539062 3896.875 5020.898438 3910.234375 5037.382812 3910.234375 Z M 5037.382812 3910.234375 " transform="matrix(0.1,0,0,-0.1,0,792)"/>
<path style=" stroke:none;fill-rule:evenodd;fill:rgb(0%,0%,0%);fill-opacity:1;" d="M 432.15625 436.769531 C 433.804688 436.769531 435.136719 438.105469 435.136719 439.75 C 435.136719 441.398438 433.804688 442.734375 432.15625 442.734375 C 430.507812 442.734375 429.171875 441.398438 429.171875 439.75 C 429.171875 438.105469 430.507812 436.769531 432.15625 436.769531 "/>
<path style="fill:none;stroke-width:9.9978;stroke-linecap:butt;stroke-linejoin:miter;stroke:rgb(0%,0%,0%);stroke-opacity:1;stroke-miterlimit:2.6131;" d="M 4321.5625 3552.304688 C 4338.046875 3552.304688 4351.367188 3538.945312 4351.367188 3522.5 C 4351.367188 3506.015625 4338.046875 3492.65625 4321.5625 3492.65625 C 4305.078125 3492.65625 4291.71875 3506.015625 4291.71875 3522.5 C 4291.71875 3538.945312 4305.078125 3552.304688 4321.5625 3552.304688 Z M 4321.5625 3552.304688 " transform="matrix(0.1,0,0,-0.1,0,792)"/>
<path style=" stroke:none;fill-rule:evenodd;fill:rgb(0%,0%,0%);fill-opacity:1;" d="M 467.945312 436.769531 C 469.59375 436.769531 470.929688 438.105469 470.929688 439.75 C 470.929688 441.398438 469.59375 442.734375 467.945312 442.734375 C 466.300781 442.734375 464.964844 441.398438 464.964844 439.75 C 464.964844 438.105469 466.300781 436.769531 467.945312 436.769531 "/>
<path style="fill:none;stroke-width:9.9978;stroke-linecap:butt;stroke-linejoin:miter;stroke:rgb(0%,0%,0%);stroke-opacity:1;stroke-miterlimit:2.6131;" d="M 4679.453125 3552.304688 C 4695.9375 3552.304688 4709.296875 3538.945312 4709.296875 3522.5 C 4709.296875 3506.015625 4695.9375 3492.65625 4679.453125 3492.65625 C 4663.007812 3492.65625 4649.648438 3506.015625 4649.648438 3522.5 C 4649.648438 3538.945312 4663.007812 3552.304688 4679.453125 3552.304688 Z M 4679.453125 3552.304688 " transform="matrix(0.1,0,0,-0.1,0,792)"/>
<path style=" stroke:none;fill-rule:evenodd;fill:rgb(0%,0%,0%);fill-opacity:1;" d="M 503.996094 436.769531 C 505.644531 436.769531 506.980469 438.105469 506.980469 439.75 C 506.980469 441.398438 505.644531 442.734375 503.996094 442.734375 C 502.351562 442.734375 501.015625 441.398438 501.015625 439.75 C 501.015625 438.105469 502.351562 436.769531 503.996094 436.769531 "/>
<path style="fill:none;stroke-width:9.9978;stroke-linecap:butt;stroke-linejoin:miter;stroke:rgb(0%,0%,0%);stroke-opacity:1;stroke-miterlimit:2.6131;" d="M 5039.960938 3552.304688 C 5056.445312 3552.304688 5069.804688 3538.945312 5069.804688 3522.5 C 5069.804688 3506.015625 5056.445312 3492.65625 5039.960938 3492.65625 C 5023.515625 3492.65625 5010.15625 3506.015625 5010.15625 3522.5 C 5010.15625 3538.945312 5023.515625 3552.304688 5039.960938 3552.304688 Z M 5039.960938 3552.304688 " transform="matrix(0.1,0,0,-0.1,0,792)"/>
<path style="fill:none;stroke-width:9.9978;stroke-linecap:butt;stroke-linejoin:miter;stroke:rgb(13.730068%,12.159915%,12.54902%);stroke-opacity:1;stroke-miterlimit:2.6131;" d="M 3273.320312 2435.820312 L 5529.921875 2435.820312 L 5529.921875 5179.765625 L 3273.320312 5179.765625 Z M 3273.320312 2435.820312 " transform="matrix(0.1,0,0,-0.1,0,792)"/>
<path style="fill:none;stroke-width:39.9997;stroke-linecap:butt;stroke-linejoin:miter;stroke:rgb(0%,65.099565%,31.369497%);stroke-opacity:1;stroke-miterlimit:2.6131;" d="M 1825.546875 3185.429688 L 1825.546875 5188.476562 " transform="matrix(0.1,0,0,-0.1,0,792)"/>
<path style="fill:none;stroke-width:39.9997;stroke-linecap:butt;stroke-linejoin:miter;stroke:rgb(0%,65.099565%,31.369497%);stroke-opacity:1;stroke-miterlimit:2.6131;" d="M 2541.328125 3190.234375 L 2541.328125 5188.476562 " transform="matrix(0.1,0,0,-0.1,0,792)"/>
<path style="fill:none;stroke-width:39.9997;stroke-linecap:butt;stroke-linejoin:miter;stroke:rgb(92.941176%,10.978866%,14.119173%);stroke-opacity:1;stroke-miterlimit:2.6131;" d="M 2541.328125 2444.492188 L 2541.328125 3185.429688 " transform="matrix(0.1,0,0,-0.1,0,792)"/>
<path style="fill:none;stroke-width:39.9997;stroke-linecap:butt;stroke-linejoin:miter;stroke:rgb(92.941176%,10.978866%,14.119173%);stroke-opacity:1;stroke-miterlimit:2.6131;" d="M 2183.4375 2445.664062 L 2183.4375 3185.429688 " transform="matrix(0.1,0,0,-0.1,0,792)"/>
<path style="fill:none;stroke-width:39.9997;stroke-linecap:butt;stroke-linejoin:miter;stroke:rgb(0%,65.099565%,31.369497%);stroke-opacity:1;stroke-miterlimit:2.6131;" d="M 2183.4375 3185.429688 L 2183.4375 5188.476562 " transform="matrix(0.1,0,0,-0.1,0,792)"/>
<path style="fill:none;stroke-width:39.9997;stroke-linecap:butt;stroke-linejoin:miter;stroke:rgb(92.941176%,10.978866%,14.119173%);stroke-opacity:1;stroke-miterlimit:2.6131;" d="M 1825.546875 2441.679688 L 1825.546875 3185.429688 " transform="matrix(0.1,0,0,-0.1,0,792)"/>
<path style="fill:none;stroke-width:39.9997;stroke-linecap:butt;stroke-linejoin:miter;stroke:rgb(18.039216%,19.220264%,57.250324%);stroke-opacity:1;stroke-miterlimit:2.6131;" d="M 1467.617188 4974.960938 L 3002.070312 4974.960938 " transform="matrix(0.1,0,0,-0.1,0,792)"/>
<path style="fill:none;stroke-width:39.9997;stroke-linecap:butt;stroke-linejoin:miter;stroke:rgb(18.039216%,19.220264%,57.250324%);stroke-opacity:1;stroke-miterlimit:2.6131;" d="M 1467.617188 4617.03125 L 3002.070312 4617.03125 " transform="matrix(0.1,0,0,-0.1,0,792)"/>
<path style="fill:none;stroke-width:39.9997;stroke-linecap:butt;stroke-linejoin:miter;stroke:rgb(18.039216%,19.220264%,57.250324%);stroke-opacity:1;stroke-miterlimit:2.6131;" d="M 1467.617188 4259.140625 L 3002.070312 4259.140625 " transform="matrix(0.1,0,0,-0.1,0,792)"/>
<path style="fill:none;stroke-width:39.9997;stroke-linecap:butt;stroke-linejoin:miter;stroke:rgb(18.039216%,19.220264%,57.250324%);stroke-opacity:1;stroke-miterlimit:2.6131;" d="M 1467.617188 3901.210938 L 3002.070312 3901.210938 " transform="matrix(0.1,0,0,-0.1,0,792)"/>
<path style="fill:none;stroke-width:39.9997;stroke-linecap:butt;stroke-linejoin:miter;stroke:rgb(18.039216%,19.220264%,57.250324%);stroke-opacity:1;stroke-miterlimit:2.6131;" d="M 1467.617188 3543.320312 L 3002.070312 3543.320312 " transform="matrix(0.1,0,0,-0.1,0,792)"/>
<path style="fill:none;stroke-width:39.9997;stroke-linecap:butt;stroke-linejoin:miter;stroke:rgb(97.053483%,60.277714%,66.70634%);stroke-opacity:1;stroke-miterlimit:2.6131;" d="M 751.796875 4974.960938 L 1467.617188 4974.960938 " transform="matrix(0.1,0,0,-0.1,0,792)"/>
<path style="fill:none;stroke-width:39.9997;stroke-linecap:butt;stroke-linejoin:miter;stroke:rgb(97.053483%,60.277714%,66.70634%);stroke-opacity:1;stroke-miterlimit:2.6131;" d="M 751.796875 4617.03125 L 1467.617188 4617.03125 " transform="matrix(0.1,0,0,-0.1,0,792)"/>
<path style="fill:none;stroke-width:39.9997;stroke-linecap:butt;stroke-linejoin:miter;stroke:rgb(97.053483%,60.277714%,66.70634%);stroke-opacity:1;stroke-miterlimit:2.6131;" d="M 741.796875 4259.140625 L 1457.617188 4259.140625 " transform="matrix(0.1,0,0,-0.1,0,792)"/>
<path style="fill:none;stroke-width:39.9997;stroke-linecap:butt;stroke-linejoin:miter;stroke:rgb(97.053483%,60.277714%,66.70634%);stroke-opacity:1;stroke-miterlimit:2.6131;" d="M 763.320312 3901.210938 L 1479.140625 3901.210938 " transform="matrix(0.1,0,0,-0.1,0,792)"/>
<path style="fill:none;stroke-width:39.9997;stroke-linecap:butt;stroke-linejoin:miter;stroke:rgb(97.053483%,60.277714%,66.70634%);stroke-opacity:1;stroke-miterlimit:2.6131;" d="M 751.796875 3543.320312 L 1467.617188 3543.320312 " transform="matrix(0.1,0,0,-0.1,0,792)"/>
<path style="fill:none;stroke-width:39.9997;stroke-linecap:butt;stroke-linejoin:miter;stroke:rgb(92.941176%,10.978866%,14.119173%);stroke-opacity:1;stroke-miterlimit:2.6131;" d="M 1467.617188 3185.429688 L 1467.617188 3543.320312 " transform="matrix(0.1,0,0,-0.1,0,792)"/>
<path style="fill:none;stroke-width:39.9997;stroke-linecap:butt;stroke-linejoin:miter;stroke:rgb(92.941176%,10.978866%,14.119173%);stroke-opacity:1;stroke-miterlimit:2.6131;" d="M 1467.617188 3901.210938 L 1467.617188 4259.140625 " transform="matrix(0.1,0,0,-0.1,0,792)"/>
<path style="fill:none;stroke-width:39.9997;stroke-linecap:butt;stroke-linejoin:miter;stroke:rgb(92.941176%,10.978866%,14.119173%);stroke-opacity:1;stroke-miterlimit:2.6131;" d="M 1467.617188 4617.03125 L 1467.617188 4974.960938 " transform="matrix(0.1,0,0,-0.1,0,792)"/>
<path style="fill:none;stroke-width:39.9997;stroke-linecap:butt;stroke-linejoin:miter;stroke:rgb(0%,65.099565%,31.369497%);stroke-opacity:1;stroke-miterlimit:2.6131;" d="M 1467.617188 3543.320312 L 1467.617188 3901.210938 " transform="matrix(0.1,0,0,-0.1,0,792)"/>
<path style="fill:none;stroke-width:39.9997;stroke-linecap:butt;stroke-linejoin:miter;stroke:rgb(0%,65.099565%,31.369497%);stroke-opacity:1;stroke-miterlimit:2.6131;" d="M 1467.617188 4259.140625 L 1467.617188 4617.03125 " transform="matrix(0.1,0,0,-0.1,0,792)"/>
<path style="fill:none;stroke-width:39.9997;stroke-linecap:butt;stroke-linejoin:miter;stroke:rgb(0%,65.099565%,31.369497%);stroke-opacity:1;stroke-miterlimit:2.6131;" d="M 1467.617188 3185.429688 C 990.390625 3304.726562 990.390625 4736.328125 1467.617188 4974.960938 " transform="matrix(0.1,0,0,-0.1,0,792)"/>
<path style="fill:none;stroke-width:39.9997;stroke-linecap:butt;stroke-linejoin:miter;stroke:rgb(18.039216%,19.220264%,57.250324%);stroke-opacity:1;stroke-miterlimit:2.6131;" d="M 1467.617188 3185.429688 C 1706.210938 2708.203125 2302.734375 2708.203125 2541.328125 3185.429688 " transform="matrix(0.1,0,0,-0.1,0,792)"/>
<path style="fill:none;stroke-width:39.9997;stroke-linecap:butt;stroke-linejoin:miter;stroke:rgb(18.039216%,19.220264%,57.250324%);stroke-opacity:1;stroke-miterlimit:2.6131;" d="M 1825.546875 3185.429688 L 2183.4375 3185.429688 " transform="matrix(0.1,0,0,-0.1,0,792)"/>
<path style="fill:none;stroke-width:39.9997;stroke-linecap:butt;stroke-linejoin:miter;stroke:rgb(97.053483%,60.277714%,66.70634%);stroke-opacity:1;stroke-miterlimit:2.6131;" d="M 1467.617188 3185.429688 L 1825.546875 3185.429688 " transform="matrix(0.1,0,0,-0.1,0,792)"/>
<path style="fill:none;stroke-width:39.9997;stroke-linecap:butt;stroke-linejoin:miter;stroke:rgb(97.053483%,60.277714%,66.70634%);stroke-opacity:1;stroke-miterlimit:2.6131;" d="M 2183.4375 3185.429688 L 2541.328125 3185.429688 " transform="matrix(0.1,0,0,-0.1,0,792)"/>
<path style=" stroke:none;fill-rule:evenodd;fill:rgb(0%,0%,0%);fill-opacity:1;" d="M 146.761719 470.476562 C 148.410156 470.476562 149.746094 471.8125 149.746094 473.457031 C 149.746094 475.105469 148.410156 476.441406 146.761719 476.441406 C 145.113281 476.441406 143.777344 475.105469 143.777344 473.457031 C 143.777344 471.8125 145.113281 470.476562 146.761719 470.476562 "/>
<path style="fill:none;stroke-width:9.9978;stroke-linecap:butt;stroke-linejoin:miter;stroke:rgb(0%,0%,0%);stroke-opacity:1;stroke-miterlimit:2.6131;" d="M 1467.617188 3215.234375 C 1484.101562 3215.234375 1497.460938 3201.875 1497.460938 3185.429688 C 1497.460938 3168.945312 1484.101562 3155.585938 1467.617188 3155.585938 C 1451.132812 3155.585938 1437.773438 3168.945312 1437.773438 3185.429688 C 1437.773438 3201.875 1451.132812 3215.234375 1467.617188 3215.234375 Z M 1467.617188 3215.234375 " transform="matrix(0.1,0,0,-0.1,0,792)"/>
<path style=" stroke:none;fill-rule:evenodd;fill:rgb(0%,0%,0%);fill-opacity:1;" d="M 182.554688 470.476562 C 184.199219 470.476562 185.535156 471.8125 185.535156 473.457031 C 185.535156 475.105469 184.199219 476.441406 182.554688 476.441406 C 180.90625 476.441406 179.570312 475.105469 179.570312 473.457031 C 179.570312 471.8125 180.90625 470.476562 182.554688 470.476562 "/>
<path style="fill:none;stroke-width:9.9978;stroke-linecap:butt;stroke-linejoin:miter;stroke:rgb(0%,0%,0%);stroke-opacity:1;stroke-miterlimit:2.6131;" d="M 1825.546875 3215.234375 C 1841.992188 3215.234375 1855.351562 3201.875 1855.351562 3185.429688 C 1855.351562 3168.945312 1841.992188 3155.585938 1825.546875 3155.585938 C 1809.0625 3155.585938 1795.703125 3168.945312 1795.703125 3185.429688 C 1795.703125 3201.875 1809.0625 3215.234375 1825.546875 3215.234375 Z M 1825.546875 3215.234375 " transform="matrix(0.1,0,0,-0.1,0,792)"/>
<path style=" stroke:none;fill-rule:evenodd;fill:rgb(0%,0%,0%);fill-opacity:1;" d="M 218.34375 470.476562 C 219.988281 470.476562 221.324219 471.8125 221.324219 473.457031 C 221.324219 475.105469 219.988281 476.441406 218.34375 476.441406 C 216.695312 476.441406 215.359375 475.105469 215.359375 473.457031 C 215.359375 471.8125 216.695312 470.476562 218.34375 470.476562 "/>
<path style="fill:none;stroke-width:9.9978;stroke-linecap:butt;stroke-linejoin:miter;stroke:rgb(0%,0%,0%);stroke-opacity:1;stroke-miterlimit:2.6131;" d="M 2183.4375 3215.234375 C 2199.882812 3215.234375 2213.242188 3201.875 2213.242188 3185.429688 C 2213.242188 3168.945312 2199.882812 3155.585938 2183.4375 3155.585938 C 2166.953125 3155.585938 2153.59375 3168.945312 2153.59375 3185.429688 C 2153.59375 3201.875 2166.953125 3215.234375 2183.4375 3215.234375 Z M 2183.4375 3215.234375 " transform="matrix(0.1,0,0,-0.1,0,792)"/>
<path style=" stroke:none;fill-rule:evenodd;fill:rgb(0%,0%,0%);fill-opacity:1;" d="M 254.132812 470.476562 C 255.78125 470.476562 257.117188 471.8125 257.117188 473.457031 C 257.117188 475.105469 255.78125 476.441406 254.132812 476.441406 C 252.488281 476.441406 251.152344 475.105469 251.152344 473.457031 C 251.152344 471.8125 252.488281 470.476562 254.132812 470.476562 "/>
<path style="fill:none;stroke-width:9.9978;stroke-linecap:butt;stroke-linejoin:miter;stroke:rgb(0%,0%,0%);stroke-opacity:1;stroke-miterlimit:2.6131;" d="M 2541.328125 3215.234375 C 2557.8125 3215.234375 2571.171875 3201.875 2571.171875 3185.429688 C 2571.171875 3168.945312 2557.8125 3155.585938 2541.328125 3155.585938 C 2524.882812 3155.585938 2511.523438 3168.945312 2511.523438 3185.429688 C 2511.523438 3201.875 2524.882812 3215.234375 2541.328125 3215.234375 Z M 2541.328125 3215.234375 " transform="matrix(0.1,0,0,-0.1,0,792)"/>
<path style=" stroke:none;fill-rule:evenodd;fill:rgb(0%,0%,0%);fill-opacity:1;" d="M 146.761719 434.683594 C 148.410156 434.683594 149.746094 436.019531 149.746094 437.667969 C 149.746094 439.316406 148.410156 440.648438 146.761719 440.648438 C 145.113281 440.648438 143.777344 439.316406 143.777344 437.667969 C 143.777344 436.019531 145.113281 434.683594 146.761719 434.683594 "/>
<path style="fill:none;stroke-width:9.9978;stroke-linecap:butt;stroke-linejoin:miter;stroke:rgb(0%,0%,0%);stroke-opacity:1;stroke-miterlimit:2.6131;" d="M 1467.617188 3573.164062 C 1484.101562 3573.164062 1497.460938 3559.804688 1497.460938 3543.320312 C 1497.460938 3526.835938 1484.101562 3513.515625 1467.617188 3513.515625 C 1451.132812 3513.515625 1437.773438 3526.835938 1437.773438 3543.320312 C 1437.773438 3559.804688 1451.132812 3573.164062 1467.617188 3573.164062 Z M 1467.617188 3573.164062 " transform="matrix(0.1,0,0,-0.1,0,792)"/>
<path style=" stroke:none;fill-rule:evenodd;fill:rgb(0%,0%,0%);fill-opacity:1;" d="M 146.761719 398.894531 C 148.410156 398.894531 149.746094 400.230469 149.746094 401.878906 C 149.746094 403.523438 148.410156 404.859375 146.761719 404.859375 C 145.113281 404.859375 143.777344 403.523438 143.777344 401.878906 C 143.777344 400.230469 145.113281 398.894531 146.761719 398.894531 "/>
<path style="fill:none;stroke-width:9.9978;stroke-linecap:butt;stroke-linejoin:miter;stroke:rgb(0%,0%,0%);stroke-opacity:1;stroke-miterlimit:2.6131;" d="M 1467.617188 3931.054688 C 1484.101562 3931.054688 1497.460938 3917.695312 1497.460938 3901.210938 C 1497.460938 3884.765625 1484.101562 3871.40625 1467.617188 3871.40625 C 1451.132812 3871.40625 1437.773438 3884.765625 1437.773438 3901.210938 C 1437.773438 3917.695312 1451.132812 3931.054688 1467.617188 3931.054688 Z M 1467.617188 3931.054688 " transform="matrix(0.1,0,0,-0.1,0,792)"/>
<path style=" stroke:none;fill-rule:evenodd;fill:rgb(0%,0%,0%);fill-opacity:1;" d="M 146.761719 363.105469 C 148.410156 363.105469 149.746094 364.4375 149.746094 366.085938 C 149.746094 367.734375 148.410156 369.070312 146.761719 369.070312 C 145.113281 369.070312 143.777344 367.734375 143.777344 366.085938 C 143.777344 364.4375 145.113281 363.105469 146.761719 363.105469 "/>
<path style="fill:none;stroke-width:9.9978;stroke-linecap:butt;stroke-linejoin:miter;stroke:rgb(0%,0%,0%);stroke-opacity:1;stroke-miterlimit:2.6131;" d="M 1467.617188 4288.945312 C 1484.101562 4288.945312 1497.460938 4275.625 1497.460938 4259.140625 C 1497.460938 4242.65625 1484.101562 4229.296875 1467.617188 4229.296875 C 1451.132812 4229.296875 1437.773438 4242.65625 1437.773438 4259.140625 C 1437.773438 4275.625 1451.132812 4288.945312 1467.617188 4288.945312 Z M 1467.617188 4288.945312 " transform="matrix(0.1,0,0,-0.1,0,792)"/>
<path style=" stroke:none;fill-rule:evenodd;fill:rgb(0%,0%,0%);fill-opacity:1;" d="M 146.761719 327.3125 C 148.410156 327.3125 149.746094 328.648438 149.746094 330.296875 C 149.746094 331.941406 148.410156 333.277344 146.761719 333.277344 C 145.113281 333.277344 143.777344 331.941406 143.777344 330.296875 C 143.777344 328.648438 145.113281 327.3125 146.761719 327.3125 "/>
<path style="fill:none;stroke-width:9.9978;stroke-linecap:butt;stroke-linejoin:miter;stroke:rgb(0%,0%,0%);stroke-opacity:1;stroke-miterlimit:2.6131;" d="M 1467.617188 4646.875 C 1484.101562 4646.875 1497.460938 4633.515625 1497.460938 4617.03125 C 1497.460938 4600.585938 1484.101562 4587.226562 1467.617188 4587.226562 C 1451.132812 4587.226562 1437.773438 4600.585938 1437.773438 4617.03125 C 1437.773438 4633.515625 1451.132812 4646.875 1467.617188 4646.875 Z M 1467.617188 4646.875 " transform="matrix(0.1,0,0,-0.1,0,792)"/>
<path style=" stroke:none;fill-rule:evenodd;fill:rgb(0%,0%,0%);fill-opacity:1;" d="M 146.761719 291.523438 C 148.410156 291.523438 149.746094 292.859375 149.746094 294.503906 C 149.746094 296.152344 148.410156 297.488281 146.761719 297.488281 C 145.113281 297.488281 143.777344 296.152344 143.777344 294.503906 C 143.777344 292.859375 145.113281 291.523438 146.761719 291.523438 "/>
<path style="fill:none;stroke-width:9.9978;stroke-linecap:butt;stroke-linejoin:miter;stroke:rgb(0%,0%,0%);stroke-opacity:1;stroke-miterlimit:2.6131;" d="M 1467.617188 5004.765625 C 1484.101562 5004.765625 1497.460938 4991.40625 1497.460938 4974.960938 C 1497.460938 4958.476562 1484.101562 4945.117188 1467.617188 4945.117188 C 1451.132812 4945.117188 1437.773438 4958.476562 1437.773438 4974.960938 C 1437.773438 4991.40625 1451.132812 5004.765625 1467.617188 5004.765625 Z M 1467.617188 5004.765625 " transform="matrix(0.1,0,0,-0.1,0,792)"/>
<path style="fill:none;stroke-width:9.9978;stroke-linecap:butt;stroke-linejoin:miter;stroke:rgb(13.730068%,12.159915%,12.54902%);stroke-opacity:1;stroke-miterlimit:2.6131;" d="M 745.46875 2444.492188 L 3002.070312 2444.492188 L 3002.070312 5188.476562 L 745.46875 5188.476562 Z M 745.46875 2444.492188 " transform="matrix(0.1,0,0,-0.1,0,792)"/>
</g>
</svg>
