<?xml version="1.0" encoding="UTF-8"?>
<svg xmlns="http://www.w3.org/2000/svg" xmlns:xlink="http://www.w3.org/1999/xlink" width="612pt" height="792pt" viewBox="0 0 612 792" version="1.1">
<g id="surface1">
<path style="fill:none;stroke-width:2.16;stroke-linecap:butt;stroke-linejoin:miter;stroke:rgb(100%,100%,100%);stroke-opacity:1;stroke-miterlimit:2.6131;" d="M 1151.210938 6490.273438 L 4687.65625 6490.273438 L 4687.65625 7269.570312 L 1151.210938 7269.570312 Z M 1151.210938 6490.273438 " transform="matrix(0.1,0,0,-0.1,0,792)"/>
<path style="fill:none;stroke-width:10.0006;stroke-linecap:butt;stroke-linejoin:miter;stroke:rgb(13.730068%,12.159915%,12.54902%);stroke-opacity:1;stroke-miterlimit:2.6131;" d="M 1237.578125 7042.734375 C 1311.484375 7039.296875 1442.226562 7126.054688 1566.40625 7130.117188 C 1690.585938 7134.21875 1729.53125 6945.625 1692.65625 6937.929688 C 1645.234375 6928.046875 1620.820312 7021.953125 1562.96875 7024.960938 C 1505.078125 7028.046875 1487.304688 6905.117188 1512.96875 6848.710938 C 1545.3125 6777.695312 1717.148438 6732.109375 1736.992188 6724.0625 C 1815.351562 6692.421875 1848.242188 6586.445312 1797.539062 6535.273438 " transform="matrix(0.1,0,0,-0.1,0,792)"/>
<path style="fill:none;stroke-width:10.0006;stroke-linecap:butt;stroke-linejoin:miter;stroke:rgb(13.730068%,12.159915%,12.54902%);stroke-opacity:1;stroke-miterlimit:2.6131;" d="M 3920.3125 7013.359375 C 3994.21875 7009.921875 4002.1875 6983.828125 4124.21875 6964.179688 C 4249.726562 6943.945312 4288.90625 6713.945312 4198.867188 6724.179688 C 4149.453125 6729.804688 4088.75 6818.046875 4078.90625 6898.320312 C 4077.460938 6910.195312 4077.695312 6920.9375 4079.335938 6930.742188 M 4079.335938 6930.742188 C 4081.171875 6941.71875 4078.203125 6937.1875 4083.28125 6946.015625 M 4111.875 6986.328125 C 4140.117188 7016.171875 4179.335938 7025.3125 4225 7043.4375 M 4225 7043.4375 C 4268.476562 7060.664062 4310.3125 7078.90625 4332.304688 7110 C 4392.695312 7195.390625 4322.070312 7235.15625 4253.828125 7214.101562 C 4220.976562 7203.984375 4130.273438 7111.445312 4154.492188 7037.460938 M 4175.976562 6996.328125 C 4180.976562 6989.0625 4178.4375 6993.203125 4186.640625 6986.992188 C 4253.476562 6936.523438 4466.523438 6674.023438 4559.335938 6589.53125 " transform="matrix(0.1,0,0,-0.1,0,792)"/>
<path style="fill:none;stroke-width:10.0006;stroke-linecap:butt;stroke-linejoin:miter;stroke:rgb(13.730068%,12.159915%,12.54902%);stroke-opacity:1;stroke-miterlimit:2.6131;" d="M 3341.601562 6985.585938 C 3370.46875 6971.210938 3402.65625 6955.273438 3474.921875 6957.695312 C 3536.289062 6959.6875 3602.851562 6936.523438 3640.859375 6902.1875 M 3674.101562 6716.953125 C 3719.140625 6697.265625 3760.546875 6690.078125 3770.46875 6688.203125 C 3829.882812 6677.03125 3872.421875 6620.3125 3821.71875 6569.101562 M 3594.101562 7044.375 C 3630.703125 7059.609375 3664.179688 7076.835938 3683.046875 7103.515625 C 3743.398438 7188.867188 3672.8125 7228.671875 3604.570312 7207.617188 C 3576.875 7199.0625 3558.046875 7141.132812 3547.109375 7071.796875 M 3640.859375 6902.1875 C 3655.703125 6888.710938 3666.210938 6873.554688 3670.273438 6857.539062 C 3677.070312 6830.9375 3598.945312 6712.070312 3549.570312 6717.695312 C 3500.195312 6723.28125 3439.492188 6811.5625 3429.648438 6891.835938 C 3426.875 6914.492188 3425.195312 6920.625 3432.96875 6936.328125 M 3458.945312 6976.484375 C 3490.117188 7013.28125 3541.09375 7022.304688 3594.101562 7044.375 M 3271.054688 7006.835938 C 3301.914062 7005.390625 3320.898438 6995.898438 3341.601562 6985.585938 M 3547.109375 7071.796875 C 3545.117188 7059.140625 3545.742188 7065.585938 3544.257812 7052.382812 M 3538.789062 7000.859375 C 3537.304688 6984.375 3537.617188 6989.648438 3536.875 6973.515625 M 3535.390625 6926.953125 C 3533.90625 6867.8125 3537.96875 6831.40625 3546.445312 6812.8125 C 3555.3125 6793.359375 3563.242188 6783.125 3586.953125 6766.601562 M 3627.8125 6739.882812 C 3644.765625 6729.921875 3656.5625 6724.609375 3674.101562 6716.953125 " transform="matrix(0.1,0,0,-0.1,0,792)"/>
<path style="fill:none;stroke-width:10.0006;stroke-linecap:butt;stroke-linejoin:miter;stroke:rgb(13.730068%,12.159915%,12.54902%);stroke-opacity:1;stroke-miterlimit:2.6131;" d="M 2113.085938 7090.117188 C 2150.351562 7101.796875 2188.789062 7110.703125 2226.640625 7111.953125 C 2270.273438 7113.398438 2303.398438 7091.015625 2326.40625 7061.054688 M 1897.8125 7024.609375 C 1949.179688 7022.1875 2028.046875 7063.398438 2113.085938 7090.117188 M 2326.40625 7061.054688 C 2368.828125 7005.820312 2376.796875 6924.765625 2352.890625 6919.765625 C 2320.273438 6912.96875 2280.234375 6928.515625 2269.375 6983.28125 C 2258.476562 7038.085938 2266.328125 7041.054688 2269.609375 7081.171875 M 2272.773438 7125.078125 C 2276.953125 7184.570312 2267.695312 7224.453125 2231.328125 7225.351562 C 2194.960938 7226.210938 2184.84375 7185.820312 2173.945312 7122.226562 M 2168.007812 7083.945312 C 2153.242188 6981.25 2158.867188 6862.03125 2173.203125 6830.546875 C 2205.507812 6759.53125 2377.96875 6714.921875 2397.226562 6705.9375 C 2501.015625 6657.34375 2541.054688 6591.523438 2490.3125 6540.351562 " transform="matrix(0.1,0,0,-0.1,0,792)"/>
<path style="fill:none;stroke-width:10.0006;stroke-linecap:butt;stroke-linejoin:miter;stroke:rgb(13.730068%,12.159915%,12.54902%);stroke-opacity:1;stroke-miterlimit:2.6131;" d="M 2952.109375 6742.460938 C 3009.765625 6711.367188 3074.765625 6696.640625 3087.617188 6694.6875 C 3169.84375 6682.382812 3209.804688 6623.984375 3190.039062 6557.03125 M 2814.101562 7082.109375 C 2848.046875 7092.1875 2882.8125 7099.609375 2917.03125 7100.742188 C 2967.421875 7102.421875 3003.75 7072.382812 3026.71875 7035.546875 M 2588.203125 7013.359375 C 2641.71875 7010.859375 2725.039062 7055.664062 2814.101562 7082.109375 M 3026.71875 7035.546875 C 3042.65625 7009.960938 3052.148438 6981.132812 3055.351562 6957.34375 C 3058.945312 6931.015625 2912.03125 6718.945312 2866.757812 6724.179688 C 2821.484375 6729.414062 2756.679688 6818.085938 2746.835938 6898.320312 C 2732.148438 7018.125 2876.367188 7017.578125 2957.34375 7073.125 M 2993.007812 7101.054688 C 2998.828125 7106.289062 2967.851562 7064.21875 3000.195312 7110 C 3032.578125 7155.78125 2989.960938 7235.195312 2921.757812 7214.101562 C 2897.421875 7206.601562 2882.03125 7171.367188 2870.742188 7113.476562 M 2864.140625 7077.421875 C 2862.5 7067.734375 2862.34375 7065.898438 2861.054688 7055.820312 M 2861.054688 7055.820312 L 2861.054688 7055.820312 M 2855.9375 7006.601562 C 2849.375 6924.492188 2852.421875 6843.90625 2863.632812 6819.296875 C 2872.070312 6800.742188 2881.445312 6789.414062 2903.671875 6773.476562 M 2941.992188 6748.085938 C 2948.515625 6744.0625 2945.3125 6746.132812 2952.109375 6742.460938 " transform="matrix(0.1,0,0,-0.1,0,792)"/>
</g>
</svg>
