<?xml version="1.0" encoding="UTF-8"?>
<svg xmlns="http://www.w3.org/2000/svg" xmlns:xlink="http://www.w3.org/1999/xlink" width="612pt" height="792pt" viewBox="0 0 612 792" version="1.1">
<g id="surface1">
<path style="fill:none;stroke-width:10.0006;stroke-linecap:butt;stroke-linejoin:miter;stroke:rgb(13.730068%,12.159915%,12.54902%);stroke-opacity:1;stroke-miterlimit:2.6131;" d="M 2933.867188 799.570312 C 3007.773438 796.132812 3015.742188 770.078125 3137.734375 750.390625 C 3263.242188 730.195312 3302.421875 500.195312 3212.382812 510.390625 C 3163.007812 516.015625 3102.304688 604.296875 3092.460938 684.53125 C 3091.015625 696.40625 3091.25 707.148438 3092.890625 716.992188 M 3092.890625 716.992188 C 3094.765625 727.929688 3091.757812 723.4375 3096.875 732.226562 M 3125.429688 772.539062 C 3153.671875 802.382812 3192.890625 811.523438 3238.554688 829.648438 M 3238.554688 829.648438 C 3282.03125 846.914062 3323.867188 865.117188 3345.859375 896.210938 C 3406.25 981.601562 3335.625 1021.40625 3267.382812 1000.351562 C 3234.53125 990.195312 3143.828125 897.65625 3168.085938 823.710938 M 3189.53125 782.578125 C 3194.53125 775.3125 3191.992188 779.414062 3200.195312 773.242188 C 3267.03125 722.773438 3480.117188 460.234375 3572.890625 375.78125 " transform="matrix(0.1,0,0,-0.1,0,792)"/>
<path style="fill:none;stroke-width:10.0006;stroke-linecap:butt;stroke-linejoin:miter;stroke:rgb(13.730068%,12.159915%,12.54902%);stroke-opacity:1;stroke-miterlimit:2.6131;" d="M 2355.15625 771.796875 C 2384.023438 757.421875 2416.171875 741.523438 2488.476562 743.90625 C 2549.84375 745.9375 2616.40625 722.773438 2654.414062 688.398438 M 2687.65625 503.164062 C 2732.695312 483.476562 2774.101562 476.289062 2784.023438 474.453125 C 2843.4375 463.242188 2885.976562 406.523438 2835.273438 355.351562 M 2607.65625 830.585938 C 2644.257812 845.859375 2677.734375 863.046875 2696.601562 889.726562 C 2756.953125 975.117188 2686.367188 1014.921875 2618.125 993.867188 C 2590.390625 985.3125 2571.601562 927.382812 2560.664062 858.046875 M 2654.414062 688.398438 C 2669.257812 674.960938 2679.765625 659.804688 2683.828125 643.789062 C 2690.625 617.148438 2612.539062 498.320312 2563.125 503.90625 C 2513.75 509.53125 2453.046875 597.8125 2443.203125 678.046875 C 2440.429688 700.742188 2438.75 706.875 2446.523438 722.578125 M 2472.5 762.734375 C 2503.671875 799.53125 2554.6875 808.515625 2607.65625 830.585938 M 2284.609375 793.085938 C 2315.46875 791.640625 2334.453125 782.109375 2355.15625 771.796875 M 2560.664062 858.046875 C 2558.632812 845.390625 2559.296875 851.796875 2557.8125 838.632812 M 2552.34375 787.070312 C 2550.859375 770.585938 2551.171875 775.859375 2550.46875 759.726562 M 2548.945312 713.164062 C 2547.460938 654.0625 2551.523438 617.65625 2560 599.0625 C 2568.867188 579.570312 2576.796875 569.375 2600.507812 552.851562 M 2641.367188 526.09375 C 2658.320312 516.171875 2670.117188 510.820312 2687.65625 503.164062 " transform="matrix(0.1,0,0,-0.1,0,792)"/>
<path style="fill:none;stroke-width:10.0006;stroke-linecap:butt;stroke-linejoin:miter;stroke:rgb(13.730068%,12.159915%,12.54902%);stroke-opacity:1;stroke-miterlimit:2.6131;" d="M 251.132812 828.984375 C 325.039062 825.546875 455.78125 912.265625 579.960938 916.367188 C 704.140625 920.46875 743.085938 731.875 706.210938 724.179688 C 658.789062 714.257812 634.375 808.164062 576.523438 811.210938 C 518.632812 814.257812 500.859375 691.328125 526.523438 634.921875 C 558.867188 563.945312 730.703125 518.320312 750.546875 510.3125 C 828.945312 478.671875 861.796875 372.695312 811.09375 321.484375 " transform="matrix(0.1,0,0,-0.1,0,792)"/>
<path style="fill:none;stroke-width:10.0006;stroke-linecap:butt;stroke-linejoin:miter;stroke:rgb(13.730068%,12.159915%,12.54902%);stroke-opacity:1;stroke-miterlimit:2.6131;" d="M 1126.640625 876.328125 C 1163.90625 888.046875 1202.34375 896.953125 1240.195312 898.203125 C 1283.828125 899.648438 1316.953125 877.265625 1339.960938 847.304688 M 911.367188 810.820312 C 962.734375 808.4375 1041.601562 849.609375 1126.640625 876.328125 M 1339.960938 847.304688 C 1382.382812 792.03125 1390.351562 710.976562 1366.445312 706.015625 C 1333.828125 699.21875 1293.789062 714.765625 1282.890625 769.53125 C 1272.03125 824.296875 1279.882812 827.265625 1283.164062 867.382812 M 1286.328125 911.328125 C 1290.507812 970.78125 1281.289062 1010.703125 1244.882812 1011.5625 C 1208.515625 1012.460938 1198.4375 972.03125 1187.5 908.476562 M 1181.5625 870.15625 C 1166.796875 767.5 1172.421875 648.28125 1186.757812 616.757812 C 1219.0625 545.78125 1391.523438 501.171875 1410.78125 492.148438 C 1514.53125 443.59375 1554.609375 377.773438 1503.867188 326.5625 " transform="matrix(0.1,0,0,-0.1,0,792)"/>
<path style="fill:none;stroke-width:10.0006;stroke-linecap:butt;stroke-linejoin:miter;stroke:rgb(13.730068%,12.159915%,12.54902%);stroke-opacity:1;stroke-miterlimit:2.6131;" d="M 1965.664062 528.671875 C 2023.320312 497.578125 2088.320312 482.851562 2101.171875 480.9375 C 2183.398438 468.632812 2223.359375 410.234375 2203.59375 343.242188 M 1827.65625 868.359375 C 1861.601562 878.4375 1896.367188 885.859375 1930.625 886.992188 C 1980.976562 888.632812 2017.304688 858.59375 2040.273438 821.796875 M 1601.757812 799.609375 C 1655.273438 797.109375 1738.59375 841.914062 1827.65625 868.359375 M 2040.273438 821.796875 C 2056.210938 796.210938 2065.703125 767.34375 2068.90625 743.59375 C 2072.5 717.265625 1925.585938 505.15625 1880.3125 510.429688 C 1835.039062 515.664062 1770.234375 604.296875 1760.390625 684.570312 C 1745.703125 804.335938 1889.921875 803.828125 1970.898438 859.375 M 2006.5625 887.265625 C 2012.382812 892.539062 1981.40625 850.429688 2013.789062 896.210938 C 2046.132812 941.992188 2003.515625 1021.40625 1935.3125 1000.351562 C 1910.976562 992.851562 1895.585938 957.578125 1884.296875 899.6875 M 1877.695312 863.632812 C 1876.054688 853.984375 1875.898438 852.109375 1874.609375 842.070312 M 1874.609375 842.070312 L 1874.609375 842.070312 M 1869.492188 792.851562 C 1862.929688 710.742188 1865.976562 630.117188 1877.1875 605.546875 C 1885.625 586.953125 1895 575.664062 1917.226562 559.6875 M 1955.546875 534.296875 C 1962.070312 530.3125 1958.867188 532.34375 1965.664062 528.671875 " transform="matrix(0.1,0,0,-0.1,0,792)"/>
</g>
</svg>
